<svg id="Layer_1" data-name="Layer 1" xmlns="http://www.w3.org/2000/svg" xmlns:xlink="http://www.w3.org/1999/xlink" viewBox="0 0 400 300" width="406" height="306" class="illustration styles_illustrationTablet__1DWOa"><defs><clipPath id="clip-path"><path d="M161.66,49.49c-67.34,11.63-115,73.32-107.59,141.25C56,208,61,223.2,71.07,233c40.29,39,208,46.87,249.54-13.13S350.27,54.15,292,41.21C263.3,34.82,209.16,41.29,161.66,49.49Z" fill="none"></path></clipPath></defs><circle cx="173.34" cy="64.31" r="22.17" fill="#c7c9c9"></circle><circle cx="173.34" cy="64.31" r="15.58" fill="#e6e6e6"></circle><polyline points="173.34 53.87 173.34 64.31 179.62 69.56" fill="none" stroke="#898989" stroke-linecap="round" stroke-linejoin="round" stroke-width="2"></polyline><g clip-path="url(#clip-path)"><path d="M307.22,242.32s.48,14.84-10.24,18.33-47.39,9.32-65.73-1.74-7.1-25.62,8.53-24.45S307.22,242.32,307.22,242.32Z" fill="#ffd200"></path><path d="M291.55,123.86s-3.25-19.19,10.72-23.57,34.05.28,32.31,21.24-27.36,120.79-27.36,120.79l-29.11-2S300.91,167.52,291.55,123.86Z" fill="#ffd200"></path><path d="M261.61,150l28.77,6.79L281,197.16a16.41,16.41,0,0,1-20.53,12L207.87,194s-7.18,7-13.39,4.27,6-12.61,12-12.42,54,4.66,54,4.66Z" fill="#f4a28c"></path><path d="M261.61,150l28.77,6.79L281,197.16a16.41,16.41,0,0,1-20.53,12L207.87,194s-7.18,7-13.39,4.27,6-12.61,12-12.42,54,4.66,54,4.66Z" opacity="0.08"></path><polygon points="261.02 84.98 268.06 109.8 255.35 115.61 255.89 94.19 261.02 84.98" fill="#f4a28c"></polygon><path d="M255.72,98.37a10.43,10.43,0,0,0,4.73-3.65s.4,5.25-4.72,11.09Z" fill="#ce8172" opacity="0.31"></path><path d="M244.92,85.79s.78,8.73,3.25,14.2a4.39,4.39,0,0,0,5.84,2.18c2.74-1.28,6.06-3.8,6.21-8.53l1.24-8s.61-5-4.88-7.68S244.18,80.49,244.92,85.79Z" fill="#f4a28c"></path><path d="M245.7,91.27,243.88,95a1.41,1.41,0,0,0,1.25,2l3.41,0Z" fill="#f4a28c"></path><path d="M295.38,125.89s9.59,3.47,9.86,24.11-12.52,57-12.33,75.91-23.14,41.27-58.26,20.77,29.07-27.51,29.07-27.51Z" opacity="0.08"></path><path d="M286.07,207.79s4.27,26.09-8,32.49-43.46,6.4-43.46,6.4l4.46,34.06H193.93l-1.16-66.36,49.44-6.59Z" fill="#24285b"></path><rect x="80.78" y="201.21" width="139.13" height="13.17" fill="#e6e6e6"></rect><polygon points="123.85 139.87 96.49 201.21 138.41 201.21 138.41 195.75 108.72 192.84 127.93 143.94 123.85 139.87" fill="#e6e6e6"></polygon><polygon points="140.61 181.9 134.28 181.86 112.77 114 117.56 109.21 140.61 181.9" fill="#24285b"></polygon><rect x="156.45" y="196.33" width="43.85" height="4.88" fill="#ffd200"></rect><path d="M244.87,81.51s-2.41,9.31,10.54,10l8.37,3.17s3.42-7.68,1.53-14.38S247.42,67.83,244.87,81.51Z" fill="#24285b"></path><circle cx="262.78" cy="70.92" r="5.28" fill="#24285b"></circle><path d="M259.27,91.27s.21,11.53-8.32,12.7" fill="none" stroke="#24285b" stroke-miterlimit="10"></path><circle cx="249.92" cy="103.97" r="1.91" fill="#24285b"></circle><path d="M255.41,91.55s-.53-3.33,2-3.52,3.33,4.62,0,5.68Z" fill="#f4a28c"></path><path d="M255.35,115.61l12.71-5.81s20.72-.2,27.32,16.09-9.31,81.9-9.31,81.9H242.21a356.06,356.06,0,0,0-5.82-45C231.74,139.48,235.89,130.93,255.35,115.61Z" fill="#68e1fd"></path><path d="M267,122.1a29.2,29.2,0,0,0-11.92,23.45c.06,15.56,3.52,44.86-7.1,44.68l-6.86,4.71,1.06,12.85h29s12.88-.94,15-36.21S267,122.1,267,122.1Z" opacity="0.08"></path><path d="M262.78,141.66l28.77,6.79-9.42,40.36a16.41,16.41,0,0,1-20.53,12L209,185.66s-7.18,7-13.38,4.27,6-12.62,12-12.42,54,4.66,54,4.66Z" fill="#f4a28c"></path><rect x="208.4" y="176.25" width="3.93" height="12.08" fill="#ffd200"></rect><path d="M252.39,118l-.56-8.18,16.23-4,2.1,4.09S266.64,117.44,252.39,118Z" fill="#68e1fd"></path><rect x="94.16" y="214.38" width="110.89" height="66.36" fill="#c7c9c9"></rect><path d="M262.78,141.66s.66-22.12,9.43-24.28,25.6-.83,19.34,31.07Z" fill="#68e1fd"></path><path d="M262.78,141.66s.66-22.12,9.43-24.28,25.6-.83,19.34,31.07Z" fill="#fff" opacity="0.44"></path></g><polygon points="94.16 214.38 94.16 235.09 205.06 221.81 205.06 214.38 94.16 214.38" opacity="0.08"></polygon></svg>