<svg id="_580_online_presentation_flatline" data-name="#580_online_presentation_flatline" xmlns="http://www.w3.org/2000/svg" viewBox="0 0 400 300" width="406" height="306" class="illustration styles_illustrationTablet__1DWOa"><rect x="69.04" y="27.59" width="276.64" height="186.22" rx="10.14" fill="#fff"></rect><path d="M335.54,214.33H79.17a10.67,10.67,0,0,1-10.65-10.65v-166A10.67,10.67,0,0,1,79.17,27.08H335.54a10.66,10.66,0,0,1,10.65,10.65v166A10.66,10.66,0,0,1,335.54,214.33ZM79.17,28.11a9.64,9.64,0,0,0-9.62,9.62v166a9.64,9.64,0,0,0,9.62,9.62H335.54a9.63,9.63,0,0,0,9.62-9.62v-166a9.63,9.63,0,0,0-9.62-9.62Z" fill="#231f20"></path><rect x="185.7" y="213.81" width="36.32" height="37.17" fill="#231f20"></rect><path d="M222,251.48H185.7a.5.5,0,0,1-.5-.5V213.81a.49.49,0,0,1,.5-.49H222a.49.49,0,0,1,.49.49V251A.5.5,0,0,1,222,251.48Zm-35.82-1h35.32V214.31H186.2Z" fill="#231f20"></path><rect x="163.2" y="250.98" width="81.32" height="7.31" rx="3.65" fill="#231f20"></rect><path d="M240.86,258.78h-74a4.15,4.15,0,0,1,0-8.3h74a4.15,4.15,0,0,1,0,8.3Zm-74-7.3a3.16,3.16,0,0,0,0,6.31h74a3.16,3.16,0,1,0,0-6.31Z" fill="#231f20"></path><rect x="69.04" y="36.55" width="276.64" height="150.87" fill="#fff"></rect><path d="M345.68,187.93H69a.51.51,0,0,1-.52-.51V36.55A.52.52,0,0,1,69,36H345.68a.51.51,0,0,1,.51.52V187.42A.51.51,0,0,1,345.68,187.93Zm-276.13-1H345.16V37.06H69.55Z" fill="#231f20"></path><path d="M217,158.75H88.13a.5.5,0,0,1-.5-.5V57a.5.5,0,0,1,.5-.5H217a.5.5,0,0,1,.5.5V158.25A.5.5,0,0,1,217,158.75Zm-128.38-1H216.51V57.49H88.63Z" fill="#d1d3d4"></path><path d="M185.34,79.22H119.91a.5.5,0,0,1,0-1h65.43a.5.5,0,0,1,0,1Z" fill="#d1d3d4"></path><path d="M109.88,79.22h-5.35a.5.5,0,0,1,0-1h5.35a.5.5,0,0,1,0,1Z" fill="#d1d3d4"></path><path d="M202.87,93.73h-43.7a.5.5,0,0,1,0-1h43.7a.5.5,0,0,1,0,1Z" fill="#d1d3d4"></path><path d="M146.54,93.73H119.91a.5.5,0,0,1,0-1h26.63a.5.5,0,0,1,0,1Z" fill="#d1d3d4"></path><path d="M109.88,93.73h-5.35a.5.5,0,0,1,0-1h5.35a.5.5,0,0,1,0,1Z" fill="#d1d3d4"></path><path d="M182.24,108.24H119.91a.5.5,0,0,1-.5-.5.5.5,0,0,1,.5-.5h62.33a.51.51,0,0,1,.5.5A.5.5,0,0,1,182.24,108.24Z" fill="#d1d3d4"></path><path d="M109.88,108.24h-5.35a.5.5,0,0,1-.5-.5.51.51,0,0,1,.5-.5h5.35a.5.5,0,0,1,.5.5A.5.5,0,0,1,109.88,108.24Z" fill="#d1d3d4"></path><path d="M177.46,122.75h-30a.5.5,0,0,1-.5-.5.5.5,0,0,1,.5-.5h30a.51.51,0,0,1,.5.5A.5.5,0,0,1,177.46,122.75Z" fill="#d1d3d4"></path><path d="M159.17,122.75H119.91a.5.5,0,0,1-.5-.5.5.5,0,0,1,.5-.5h39.26a.5.5,0,0,1,.5.5A.5.5,0,0,1,159.17,122.75Z" fill="#d1d3d4"></path><path d="M109.88,122.75h-5.35a.5.5,0,0,1-.5-.5.51.51,0,0,1,.5-.5h5.35a.5.5,0,0,1,.5.5A.5.5,0,0,1,109.88,122.75Z" fill="#d1d3d4"></path><path d="M162.46,136.86H119.91a.5.5,0,1,1,0-1h42.55a.5.5,0,1,1,0,1Z" fill="#d1d3d4"></path><path d="M109.88,136.86h-5.35a.5.5,0,0,1,0-1h5.35a.5.5,0,0,1,0,1Z" fill="#d1d3d4"></path><path d="M317.53,124.09l3.64-10.39s-2.25-5.31-1.82-8.28,1.82-8.33,3-7.81.52,2.94,1.38,6.92c0,0,6.93-12.64,8.83-12.29s1.56,1.81,1,2.72c0,0,2.08-1.77,2.77-.56a2.62,2.62,0,0,1,0,2.43s1.47-1.65,2-.52a3,3,0,0,1-.43,2.51s1.73-1.65,1.9-.18-13.24,30.29-13.24,30.29" fill="#fff"></path><path d="M326.62,129.45a.59.59,0,0,1-.22,0,.52.52,0,0,1-.25-.69c5.27-11.31,13.13-28.64,13.19-30a.32.32,0,0,0,0-.15,3.39,3.39,0,0,0-1,.67.52.52,0,0,1-.69,0,.51.51,0,0,1-.09-.68,2.4,2.4,0,0,0,.39-2,.21.21,0,0,0-.06-.1,2.26,2.26,0,0,0-1.08.74.51.51,0,0,1-.68.08.52.52,0,0,1-.15-.68,2.07,2.07,0,0,0,0-1.91.29.29,0,0,0-.21-.16,3.32,3.32,0,0,0-1.78.85.5.5,0,0,1-.66,0,.52.52,0,0,1-.12-.65,1.71,1.71,0,0,0,.27-1.42c-.12-.27-.44-.45-.95-.54-1.06,0-5.13,6.27-8.28,12a.5.5,0,0,1-.53.26.52.52,0,0,1-.43-.4,26.45,26.45,0,0,1-.53-4.23c-.09-1.37-.16-2.16-.55-2.33-.55.2-1.78,3.73-2.32,7.42-.41,2.79,1.76,8,1.78,8a.53.53,0,0,1,0,.37L318,124.26a.51.51,0,0,1-.66.31.5.5,0,0,1-.31-.65l3.57-10.2c-.41-1-2.19-5.58-1.78-8.37.27-1.85,1.38-7.32,2.88-8.16a.94.94,0,0,1,.86-.06c1,.43,1.07,1.6,1.18,3.21.05.76.1,1.66.25,2.68,2.41-4.3,6.81-11.6,8.67-11.29a2.19,2.19,0,0,1,1.71,1.12,1.78,1.78,0,0,1,.16.9,2.41,2.41,0,0,1,1.37-.26,1.32,1.32,0,0,1,.93.66,2.88,2.88,0,0,1,.37,1.4,1.48,1.48,0,0,1,.79-.14,1.14,1.14,0,0,1,.85.68,2.54,2.54,0,0,1,.15,1.48,1.12,1.12,0,0,1,.68,0,1.07,1.07,0,0,1,.68,1c.18,1.5-10.12,23.78-13.28,30.57A.52.52,0,0,1,326.62,129.45Z" fill="#231f20"></path><path d="M250.62,164.57s-9,15.88-9.87,22.85h61.16s-5.42-12.93-8.5-21.71Z" fill="#231f20"></path><path d="M301.91,187.91H240.75a.51.51,0,0,1-.37-.16.52.52,0,0,1-.13-.39c.86-7,9.57-22.39,9.94-23a.45.45,0,0,1,.44-.25l42.79,1.14a.51.51,0,0,1,.46.34c3,8.66,8.44,21.54,8.49,21.67a.49.49,0,0,1-.05.47A.48.48,0,0,1,301.91,187.91Zm-60.58-1h59.83c-1.14-2.76-5.45-13.21-8.11-20.72l-42.14-1.13C249.77,167.1,242.45,180.38,241.33,186.92Z" fill="#231f20"></path><path d="M200.54,138.26a2.26,2.26,0,0,1-.44-.08c-2.39-.6-5.43-4.11-7.26-5.72A61.66,61.66,0,0,1,181.07,119a4.88,4.88,0,0,1-.94-2.26,4.16,4.16,0,0,1,.57-2c1.44-2.75,4.18-6,7.37-4.54,1.18.54,8.64,6.7,8.64,7.77a25.18,25.18,0,0,1-.06-5.69,1.6,1.6,0,0,1,1.85.34,4.71,4.71,0,0,1,1,1.73c.58,1.46,8,20.36,8.62,20C206,135.64,203.24,138.58,200.54,138.26Z" fill="#fff"></path><path d="M201,138.8a3.71,3.71,0,0,1-.47,0,4.37,4.37,0,0,1-.5-.09c-1.95-.49-4.19-2.66-6-4.41-.56-.54-1.07-1-1.5-1.42a61.9,61.9,0,0,1-11.87-13.57,5.41,5.41,0,0,1-1-2.52,4.48,4.48,0,0,1,.63-2.27c.83-1.6,3.87-6.67,8-4.78a53.9,53.9,0,0,1,7.74,6.45,26.17,26.17,0,0,1,.11-4,.54.54,0,0,1,.25-.39,2.12,2.12,0,0,1,2.46.41,5.14,5.14,0,0,1,1.12,1.92l.21.53c6.28,15.94,7.78,18.69,8.12,19.14a.52.52,0,0,1,.08.92c-.54.34-1.12.79-1.74,1.26C204.92,137.31,203,138.8,201,138.8Zm-14.48-28.46c-2.67,0-4.69,3.43-5.31,4.62a3.68,3.68,0,0,0-.51,1.75,4.5,4.5,0,0,0,.85,2,61.33,61.33,0,0,0,11.67,13.34c.46.4,1,.91,1.54,1.46,1.71,1.66,3.84,3.73,5.52,4.15a2.2,2.2,0,0,0,.37.07h0c1.79.21,3.71-1.27,5.41-2.58.46-.35.9-.69,1.33-1-.79-1.26-2.69-5.37-8.12-19.13l-.21-.53a4.23,4.23,0,0,0-.87-1.55,1.23,1.23,0,0,0-1-.35,24.44,24.44,0,0,0,.08,5.27h0V118a.51.51,0,0,1-1,.06.19.19,0,0,1,0-.08c-.38-1.07-7.18-6.75-8.33-7.28A3.44,3.44,0,0,0,186.47,110.34Z" fill="#231f20"></path><path d="M298.94,105.11s5.19,5,6.57,7,2.66,27.35,2.66,27.35l7.86-19,13.2,5.15s-8.06,41.15-16.54,42-24.93-15.16-24.93-15.16Z" fill="#eabd2a"></path><path d="M260.41,101s-15.2,3-18.91,7.61,7.54,46.47,7.76,58c0,0,26.24,4.58,44.15-.87,0,0,6.22-22.07,7.84-34.76s-.46-23.77-2.31-25.84-8.94-3.45-8.94-3.45S263.88,101.67,260.41,101Z" fill="#eabd2a"></path><path d="M302.37,100.62a22,22,0,0,0,.53-4.5,7.26,7.26,0,0,0-.41-2.66c-1.12-2.78-4.85-4-5.46-7-.51-2.47.42-4.63-.23-7s-1.28-3.35-1-6.09a29.6,29.6,0,0,0-2.3-14.18c-1.78-4.2-4.31-6.13-7.38-9.31a7.12,7.12,0,0,0-2.54-1.59c-8.12-3.19-17-.66-21.1,7.36-2.28,4.46-3.27,9.53-5.91,13.79-1.86,3-4.54,5.63-5.25,9.09-.62,3,.51,5.95-.2,9a8.81,8.81,0,0,1-1.17,2.91,13.34,13.34,0,0,1-2.25,2.38,27.63,27.63,0,0,0-5,5.51,13.63,13.63,0,0,0-1.15,2.25Z" fill="#fff"></path><path d="M302.37,101.14H241.5a.51.51,0,0,1-.43-.23.54.54,0,0,1,0-.48,14.24,14.24,0,0,1,1.2-2.33,28.72,28.72,0,0,1,5.1-5.63l.11-.09a12.46,12.46,0,0,0,2.06-2.18,8.34,8.34,0,0,0,1.1-2.74A14.68,14.68,0,0,0,250.7,83a16.14,16.14,0,0,1,.09-4.54c.51-2.54,2.05-4.64,3.53-6.68.61-.84,1.24-1.7,1.78-2.58a41.21,41.21,0,0,0,3.38-7.62A53,53,0,0,1,262,55.42c4-7.92,13-11.05,21.74-7.6a7.43,7.43,0,0,1,2.73,1.71c.59.61,1.16,1.18,1.71,1.72,2.3,2.29,4.3,4.27,5.78,7.75a30.11,30.11,0,0,1,2.33,14.43,9.76,9.76,0,0,0,.59,4.47c.14.44.29.9.43,1.43a10.7,10.7,0,0,1,.17,3.8,11.49,11.49,0,0,0,.07,3.26c.29,1.41,1.42,2.42,2.63,3.49a9.66,9.66,0,0,1,2.8,3.39,7.75,7.75,0,0,1,.44,2.85,22.27,22.27,0,0,1-.53,4.61A.52.52,0,0,1,302.37,101.14Zm-60.08-1H302a20,20,0,0,0,.43-4,6.75,6.75,0,0,0-.37-2.47,8.67,8.67,0,0,0-2.53-3c-1.27-1.14-2.59-2.31-3-4.05a12.48,12.48,0,0,1-.09-3.54,10.05,10.05,0,0,0-.13-3.46c-.14-.51-.29-1-.42-1.39a10.68,10.68,0,0,1-.64-4.87A29.1,29.1,0,0,0,293,59.4c-1.4-3.29-3.24-5.11-5.56-7.41-.55-.55-1.13-1.12-1.72-1.74a6.49,6.49,0,0,0-2.36-1.47c-8.25-3.24-16.66-.32-20.45,7.11a53,53,0,0,0-2.46,6A42.19,42.19,0,0,1,257,69.72c-.56.9-1.2,1.78-1.82,2.63-1.49,2-2.89,4-3.36,6.29a15.11,15.11,0,0,0-.07,4.25,15.57,15.57,0,0,1-.14,4.8,9.15,9.15,0,0,1-1.24,3.08,13.64,13.64,0,0,1-2.23,2.38l-.11.09a27.94,27.94,0,0,0-4.92,5.41A11.48,11.48,0,0,0,242.29,100.11Z" fill="#231f20"></path><path d="M283,98.72s2,29.25-8.2,27.29c-13.62-2.9-7.43-23.45-7.43-23.45l.23-3.84.51-8.93.49-8.35,14.32-.16.55,6.82.17,2.21Z" fill="#fff"></path><path d="M275.73,126.62a5.61,5.61,0,0,1-1.06-.11,10.45,10.45,0,0,1-7.17-5c-4.09-6.92-1-18-.67-19l1.23-21.06a.51.51,0,0,1,.51-.48l14.32-.16a.52.52,0,0,1,.52.47l.72,9-.65,8.45c.09,1.31,1.36,21.41-4.51,26.63A4.79,4.79,0,0,1,275.73,126.62ZM269.06,82l-1.2,20.64a.5.5,0,0,1,0,.12c0,.12-3.42,11.58.55,18.29a9.47,9.47,0,0,0,6.49,4.5,3.77,3.77,0,0,0,3.4-.92c5.57-4.94,4.19-25.62,4.17-25.82v-.08l.65-8.41-.68-8.47Z" fill="#231f20"></path><path d="M283.61,90.31A13.49,13.49,0,0,1,279,95.09c-3.06,2-7.38,3.76-11.13,3.15l.25-8.45a30.48,30.48,0,0,0,8.26,0,21,21,0,0,0,7.1-1.66Z" fill="#231f20"></path><path d="M269.35,98.86a10.36,10.36,0,0,1-1.6-.13.51.51,0,0,1-.42-.51l.26-8.45a.47.47,0,0,1,.18-.36.44.44,0,0,1,.39-.11,29.77,29.77,0,0,0,8.12,0,20.62,20.62,0,0,0,6.94-1.62.49.49,0,0,1,.47,0,.5.5,0,0,1,.25.39l.17,2.21a.42.42,0,0,1-.06.27,13.83,13.83,0,0,1-4.82,5A19,19,0,0,1,269.35,98.86Zm-1-1c3,.33,6.8-.83,10.35-3.14a12.94,12.94,0,0,0,4.42-4.47L283,88.85a24,24,0,0,1-6.6,1.4,31.45,31.45,0,0,1-7.83.11Z" fill="#231f20"></path><path d="M276.33,91.8l-1.47,0a12.59,12.59,0,0,1-12.72-12.45,99.29,99.29,0,0,1,1.09-11.55S269,65.74,273.59,64c7.66-2.89,9.72-7,9.72-7a30.73,30.73,0,0,0,1.8,8,36.63,36.63,0,0,0,3.41,5.25s.23,6.2.25,8.8A12.58,12.58,0,0,1,276.33,91.8Z" fill="#fff"></path><path d="M274.72,92.33a13.11,13.11,0,0,1-13.1-13,99.14,99.14,0,0,1,1.1-11.63.49.49,0,0,1,.33-.41c.06,0,5.86-2.11,10.36-3.81,7.34-2.77,9.42-6.74,9.44-6.78a.51.51,0,0,1,1,.2,30.5,30.5,0,0,0,1.76,7.87A37,37,0,0,0,288.93,70a.55.55,0,0,1,.11.3c0,.06.22,6.24.25,8.81a13.12,13.12,0,0,1-13,13.25h-1.61Zm-11-24.12a94.58,94.58,0,0,0-1,11.15A12.09,12.09,0,0,0,274.72,91.3h.13l1.47,0h0a12.08,12.08,0,0,0,11.94-12.2c0-2.32-.21-7.62-.25-8.62a35.45,35.45,0,0,1-3.38-5.23,31,31,0,0,1-1.69-6.8c-1.2,1.49-3.88,4.07-9.16,6.07C269.85,66,264.93,67.76,263.69,68.21Z" fill="#231f20"></path><path d="M274.79,79.24a15.88,15.88,0,0,1-1.64-.09,1,1,0,0,1-.74-.48c-1-1.57,1.22-7.77,1.91-9.64a.53.53,0,0,1,.67-.3.52.52,0,0,1,.3.66c-1.54,4.16-2.47,8.25-2,8.75a16.12,16.12,0,0,0,3.49-.06.52.52,0,0,1,.14,1A16.5,16.5,0,0,1,274.79,79.24Z" fill="#231f20"></path><ellipse cx="281.21" cy="71.37" rx="0.87" ry="2.14" transform="translate(-0.77 3.11) rotate(-0.63)" fill="#231f20"></ellipse><ellipse cx="269.74" cy="71.1" rx="0.87" ry="2.14" transform="translate(-0.77 2.98) rotate(-0.63)" fill="#231f20"></ellipse><path d="M267.84,98.72c-2.72-1.46-7,.72-7.43,2.24s1.27,25.49,7.43,29.18c2.67,1.61,7.47-4.13,7.47-4.13S268.44,123,267.84,98.72Z" fill="#fff"></path><path d="M268.9,130.94a2.55,2.55,0,0,1-1.33-.35c-6.5-3.9-8.11-28.09-7.66-29.76.28-1,1.63-1.94,2.8-2.44a6.36,6.36,0,0,1,5.37-.13.5.5,0,0,1,.27.45c.58,23.47,7.11,26.8,7.17,26.83a.51.51,0,0,1,.29.35.55.55,0,0,1-.1.45C275.26,126.87,271.76,130.94,268.9,130.94Zm-3.15-32.18a6.67,6.67,0,0,0-2.63.58,3.91,3.91,0,0,0-2.21,1.76c-.17.63.1,6.83,1.26,13.58,1.42,8.24,3.53,13.58,5.93,15,1.7,1,5-2,6.43-3.58-1.72-1.31-6.65-6.82-7.2-27.07A4,4,0,0,0,265.75,98.76Z" fill="#231f20"></path><path d="M283,98.72c2.71-1.46,7,.72,7.42,2.24s-1.27,25.49-7.42,29.18c-2.67,1.61-7.47-4.13-7.47-4.13S282.37,123,283,98.72Z" fill="#fff"></path><path d="M281.9,130.94c-2.85,0-6.35-4.07-6.8-4.6a.56.56,0,0,1-.11-.45.5.5,0,0,1,.3-.35c.06,0,6.58-3.36,7.16-26.83a.54.54,0,0,1,.27-.45,6.36,6.36,0,0,1,5.37.13c1.17.5,2.52,1.41,2.8,2.44.46,1.67-1.15,25.86-7.66,29.76A2.5,2.5,0,0,1,281.9,130.94Zm-5.62-4.82c1.5,1.66,4.71,4.61,6.42,3.58,2.41-1.44,4.52-6.78,5.93-15a73.74,73.74,0,0,0,1.27-13.58,4,4,0,0,0-2.22-1.76,5.52,5.52,0,0,0-4.21-.29C282.92,119.3,278,124.81,276.28,126.12Z" fill="#231f20"></path><path d="M268.57,81.44l14.32-.16s-2.18,7.56-7.66,6.82S268.57,81.44,268.57,81.44Z" fill="#fff"></path><path d="M276,88.67a5.9,5.9,0,0,1-.83-.06c-5.78-.78-7.09-7-7.1-7.07a.51.51,0,0,1,.5-.61l14.32-.16a.48.48,0,0,1,.41.2.54.54,0,0,1,.09.46C283.3,81.74,281.23,88.67,276,88.67ZM269.24,82c.46,1.47,2,5.09,6.06,5.64s6.2-4,6.87-5.78Z" fill="#231f20"></path><path d="M241.5,108.57l-18.47,30L204.9,128.06l-10.78,6.61s26.07,34.79,38.84,28.9c5.93-2.73,24.92-31.93,24.92-31.93Z" fill="#eabd2a"></path><path d="M294.48,162.3l-.15,0a.51.51,0,0,1-.34-.64c.11-.38,11.34-38.21,6.17-51.89a.51.51,0,1,1,1-.36c5.3,14-5.67,51-6.14,52.54A.52.52,0,0,1,294.48,162.3Z" fill="#231f20"></path><path d="M249,164.09a.51.51,0,0,1-.51-.45c-.05-.33-4.64-33.67-6.18-41.18a.53.53,0,0,1,.4-.61.52.52,0,0,1,.61.4c1.55,7.55,6.14,40.92,6.19,41.25a.52.52,0,0,1-.44.58Z" fill="#231f20"></path><path d="M304.38,149.18a.48.48,0,0,1-.2,0,.52.52,0,0,1-.28-.67l10.87-26.31a.52.52,0,0,1,.67-.28.51.51,0,0,1,.28.67l-10.86,26.31A.53.53,0,0,1,304.38,149.18Z" fill="#231f20"></path><path d="M329.23,110.09a.53.53,0,0,1-.48-.33c-1.26-3.18-5.14-4.73-5.17-4.75a.51.51,0,1,1,.37-1c.18.07,4.33,1.73,5.76,5.33a.5.5,0,0,1-.29.67A.41.41,0,0,1,329.23,110.09Z" fill="#231f20"></path><path d="M329.23,103.05A.58.58,0,0,1,329,103a.52.52,0,0,1-.18-.71l4.39-7.58a.53.53,0,0,1,.71-.18.52.52,0,0,1,.19.7l-4.4,7.58A.53.53,0,0,1,329.23,103.05Z" fill="#231f20"></path><path d="M333,104.21a.59.59,0,0,1-.22,0,.52.52,0,0,1-.24-.7l3.38-6.86a.51.51,0,1,1,.92.45l-3.37,6.87A.53.53,0,0,1,333,104.21Z" fill="#231f20"></path><path d="M334.71,106.69a.52.52,0,0,1-.21,0,.51.51,0,0,1-.26-.68l3.24-7.36a.52.52,0,0,1,.68-.26.52.52,0,0,1,.27.68l-3.25,7.35A.5.5,0,0,1,334.71,106.69Z" fill="#231f20"></path><path d="M195.13,127.05a.54.54,0,0,1-.48-.31c-2.72-6.28,1.74-9.2,1.78-9.23a.52.52,0,0,1,.71.16.51.51,0,0,1-.15.71c-.17.11-3.75,2.51-1.39,7.94a.52.52,0,0,1-.27.68A.46.46,0,0,1,195.13,127.05Z" fill="#231f20"></path><path d="M78.89,268.49s-1.12,5.48.61,6.69,16.65-3.84,16.22-5.54-8.89-2.57-8.89-2.57S80.18,269,78.89,268.49Z" fill="#231f20"></path><path d="M80.45,275.84a2.33,2.33,0,0,1-1.24-.25c-1.94-1.36-.93-6.61-.81-7.2a.49.49,0,0,1,.26-.35.5.5,0,0,1,.43,0c.69.3,4.41-.5,7.6-1.44a.41.41,0,0,1,.19,0c2.07.21,8.85,1.05,9.33,2.94.16.65-.5,1.18-1,1.53C92.58,272.86,83.93,275.84,80.45,275.84Zm-1.16-6.78c-.35,2-.48,5,.5,5.71.41.29,3.11,0,7.81-1.52s7.46-3.07,7.64-3.57c-.19-.66-4-1.65-8.36-2.1C85.7,267.92,81.23,269.19,79.29,269.06Z" fill="#231f20"></path><path d="M57.24,268.49s-.18,6.34.51,7.12,16-.86,15.28-2.93-6.91-4.19-6.91-4.19Z" fill="#231f20"></path><path d="M59.53,276.29a3.76,3.76,0,0,1-2.15-.35c-.74-.83-.69-5.5-.64-7.47a.5.5,0,0,1,.5-.48h8.88l.17,0c.65.23,6.37,2.26,7.21,4.49.11.3.16.89-.76,1.45C70.81,275.11,63.32,276.29,59.53,276.29Zm-1.43-1.06c1.22.36,10.38-.5,13.61-1.88.76-.33.85-.54.85-.54-.5-1.29-4.23-3-6.52-3.82H57.73C57.68,271.67,57.8,274.63,58.1,275.23Zm0,0h0Zm-.09-.07Z" fill="#231f20"></path><path d="M56.55,247.57l.69,20.92s6.55,2.58,8.88,0l1.82-23Z" fill="#fff"></path><path d="M62.77,270.13A17.92,17.92,0,0,1,57.06,269a.5.5,0,0,1-.32-.45L56,247.58a.51.51,0,0,1,.42-.51L67.85,245a.53.53,0,0,1,.42.12.47.47,0,0,1,.16.41l-1.81,23a.53.53,0,0,1-.12.3A4.87,4.87,0,0,1,62.77,270.13Zm-5-2c1.9.68,6.2,1.77,7.91.13l1.75-22.17L57.06,248Z" fill="#231f20"></path><path d="M86.83,244.63v22.44a9.47,9.47,0,0,1-7.94,1.42l-4.93-27Z" fill="#fff"></path><path d="M81.37,269.32a9.94,9.94,0,0,1-2.61-.35.49.49,0,0,1-.36-.39l-4.93-27a.51.51,0,0,1,.15-.45.49.49,0,0,1,.46-.12L87,244.15a.48.48,0,0,1,.38.48v22.44a.53.53,0,0,1-.18.39A10,10,0,0,1,81.37,269.32Zm-2.05-1.24a9.06,9.06,0,0,0,7-1.27V245l-11.74-2.84Z" fill="#231f20"></path><path d="M53.15,189.23l-1.58,61.7s24.82,7,40.87-3.36L81,195.27Z" fill="#231f20"></path><path d="M69.77,253.7a76.49,76.49,0,0,1-18.34-2.29.48.48,0,0,1-.36-.49l1.58-61.7a.47.47,0,0,1,.19-.38.51.51,0,0,1,.41-.1l27.88,6a.49.49,0,0,1,.38.38l11.42,52.3a.5.5,0,0,1-.22.53C85.82,252.43,77.29,253.7,69.77,253.7Zm-17.69-3.15c3.13.8,25.19,5.95,39.8-3.22L80.6,195.69l-27-5.84Z" fill="#231f20"></path><path d="M83.21,177.69s4.27-15.46,6.34-16.93,6.09-3.28,6.09-1.21-3,18.65-7.64,18.13S83.21,177.69,83.21,177.69Z" fill="#fff"></path><path d="M88.22,178.19l-.28,0c-3.35-.37-4.21-.18-4.38-.12a.49.49,0,0,1-.48.12.5.5,0,0,1-.36-.6l0-.09c.53-1.91,4.39-15.62,6.51-17.13,1.11-.79,4.62-2.85,6.18-2a1.32,1.32,0,0,1,.7,1.25c0,1.88-2.21,14.46-5.92,17.77A3,3,0,0,1,88.22,178.19ZM84.74,177a29.85,29.85,0,0,1,3.31.23,1.93,1.93,0,0,0,1.5-.6c3.27-2.92,5.59-15,5.59-17,0-.28-.1-.34-.16-.36-.7-.37-3.2.6-5.14,2-1.34,1-4.23,9.86-5.91,15.81Q84.26,177,84.74,177Z" fill="#231f20"></path><path d="M105.6,174c-.39,0-17-2.58-17-2.58L98,147.28l18.38,1.85Z" fill="#fff"></path><path d="M105.6,174.54c-.39,0-13.21-2-17.13-2.59a.5.5,0,0,1-.36-.24.56.56,0,0,1,0-.44l9.42-24.18a.48.48,0,0,1,.52-.31l18.38,1.85a.52.52,0,0,1,.38.25.48.48,0,0,1,0,.45l-10.74,24.91A.51.51,0,0,1,105.6,174.54Zm-16.36-3.48c6,.92,14.26,2.2,16.05,2.44l10.33-23.94-17.33-1.75Z" fill="#231f20"></path><path d="M50.27,134.17a12.13,12.13,0,0,0-4.77,1.06c-2.61,1.09-5.15,3-5.87,5.71-.57,2.22.16,4.57,1.14,6.64s2.2,4.08,2.7,6.32.06,4.88-1.76,6.27a23.41,23.41,0,0,0,6.72-3.46,5.92,5.92,0,0,0,2.32-3.66,7.69,7.69,0,0,0-.68-3.54,15.86,15.86,0,0,1-1.32-5.23,5,5,0,0,1,2.36-4.58c1.4-.73,5.86-.42,5.29-3C56,134.75,51.86,134.2,50.27,134.17Z" fill="#fff"></path><path d="M41.71,160.67a.5.5,0,0,1-.44-.25.52.52,0,0,1,.13-.65c1.8-1.37,2-4,1.58-5.77a20.22,20.22,0,0,0-1.87-4.6c-.27-.53-.54-1.06-.8-1.6-1.31-2.79-1.67-5-1.16-7,.88-3.39,4.24-5.24,6.16-6a12.53,12.53,0,0,1,5-1.1c1.66,0,6.09.6,6.62,3a2,2,0,0,1-.24,1.56c-.66,1-2.23,1.28-3.61,1.53a7.21,7.21,0,0,0-1.7.42,4.55,4.55,0,0,0-2.09,4.13,15,15,0,0,0,1.21,4.85l.08.21a8.16,8.16,0,0,1,.71,3.78,6.42,6.42,0,0,1-2.5,4,24.18,24.18,0,0,1-6.86,3.54A.57.57,0,0,1,41.71,160.67Zm8.44-26a11.68,11.68,0,0,0-4.46,1c-1.75.73-4.8,2.4-5.57,5.37-.45,1.74-.1,3.74,1.1,6.31.25.53.51,1.06.78,1.58a20.87,20.87,0,0,1,2,4.84,7.72,7.72,0,0,1-.58,5.19,17.92,17.92,0,0,0,4.74-2.65A5.58,5.58,0,0,0,50.26,153a7.17,7.17,0,0,0-.66-3.31l-.08-.22a15.57,15.57,0,0,1-1.27-5.18,5.5,5.5,0,0,1,2.63-5,7.7,7.7,0,0,1,2-.52c1.12-.2,2.52-.46,2.94-1.1a.9.9,0,0,0,.1-.78c-.35-1.58-4-2.15-5.65-2.18h-.11Z" fill="#231f20"></path><path d="M52.23,134.84a4.79,4.79,0,0,0-.75,3.07,3.67,3.67,0,0,0,.65,2A2.81,2.81,0,0,0,54.42,141a1.51,1.51,0,0,0,1.07-.38,1.71,1.71,0,0,0,.43-.86C56.52,137.5,55.25,130.61,52.23,134.84Z" fill="#231f20"></path><path d="M54.35,141.47a3.33,3.33,0,0,1-2.62-1.24,4.16,4.16,0,0,1-.75-2.29,5.23,5.23,0,0,1,.85-3.39c1.2-1.7,2.2-1.7,2.81-1.41,1.7.79,2.23,5,1.77,6.72a2.26,2.26,0,0,1-.57,1.09,2,2,0,0,1-1.41.52ZM54,134c-.48,0-1,.68-1.37,1.13h0a4.29,4.29,0,0,0-.66,2.74,3.24,3.24,0,0,0,.54,1.75,2.25,2.25,0,0,0,1.89.85,1.18,1.18,0,0,0,.74-.23,1.45,1.45,0,0,0,.29-.64c.39-1.46-.14-5-1.22-5.56A.52.52,0,0,0,54,134Zm-1.78.84h0Z" fill="#231f20"></path><path d="M66.08,150.29a3.51,3.51,0,0,1-3.37.87A8.33,8.33,0,0,1,59,149.42a14.4,14.4,0,0,1-5.2-14.24c1.18-5.31,6.8-10.35,12.43-8a7.08,7.08,0,0,1,4,4.44,2.11,2.11,0,0,1,2.21.7c1.41,1.55,1.26,3.13.37,4.87-1.46,2.85-3.21,5.55-4.54,8.46C67.48,147.36,67.11,149.21,66.08,150.29Z" fill="#fff"></path><path d="M63.67,151.74a6.45,6.45,0,0,1-1-.09,8.8,8.8,0,0,1-3.94-1.83,14.82,14.82,0,0,1-5.39-14.75,12.29,12.29,0,0,1,6.06-8,8.13,8.13,0,0,1,7.06-.37A7.52,7.52,0,0,1,70.55,131a2.76,2.76,0,0,1,2.25.95c1.85,2.05,1.14,4.08.45,5.44-.61,1.18-1.27,2.34-1.91,3.47-.91,1.61-1.85,3.27-2.63,5-.25.55-.46,1.12-.66,1.67a8.71,8.71,0,0,1-1.6,3.11h0A3.67,3.67,0,0,1,63.67,151.74Zm-.35-24.65a7.67,7.67,0,0,0-3.5.89,11.26,11.26,0,0,0-5.54,7.3,14,14,0,0,0,5,13.75,7.93,7.93,0,0,0,3.49,1.64c1.76.27,2.52-.28,2.93-.72h0a8.1,8.1,0,0,0,1.39-2.76c.21-.57.43-1.16.69-1.74.8-1.74,1.75-3.42,2.67-5,.64-1.12,1.29-2.28,1.89-3.44.91-1.78.82-3.07-.3-4.31a1.61,1.61,0,0,0-1.66-.56.55.55,0,0,1-.4,0,.57.57,0,0,1-.26-.31A6.55,6.55,0,0,0,66,127.64,6.94,6.94,0,0,0,63.32,127.09Z" fill="#231f20"></path><path d="M71,138.17s3.32,3.14,3,4-2.14.77-2.14.77" fill="#fff"></path><path d="M72.09,143.48h-.26a.5.5,0,0,1-.47-.53.51.51,0,0,1,.53-.47c.62,0,1.51-.09,1.64-.44s-1.33-2-2.87-3.5a.51.51,0,0,1,0-.71.5.5,0,0,1,.71,0c1.63,1.54,3.49,3.58,3.12,4.58S72.69,143.48,72.09,143.48Z" fill="#231f20"></path><path d="M71.87,158.25c-3.93.1-10.4-4.19-10.44-4.34a78.34,78.34,0,0,1-1.35-7.79A5.25,5.25,0,0,0,63.61,142c.84-3.56,4.18-3.94,5.73-8.58,1.86.91,2,3.71,2.43,5.47.56,2.48,1,5,1.5,7.46.28,1.58-3.77,2.56-4.59,2.26C69.45,150.94,69.45,150.94,71.87,158.25Z" fill="#fff"></path><path d="M71.75,158.75c-3.76,0-10.61-4-10.8-4.71a79,79,0,0,1-1.36-7.86.5.5,0,0,1,.39-.55c.09,0,2.39-.6,3.14-3.79a7.93,7.93,0,0,1,2.63-4,10.76,10.76,0,0,0,3.12-4.61.44.44,0,0,1,.28-.3.49.49,0,0,1,.41,0c1.77.87,2.18,3.08,2.51,4.86.06.34.12.66.19,1,.55,2.46,1,5,1.5,7.48a1.64,1.64,0,0,1-.7,1.57,7.29,7.29,0,0,1-3.68,1.32c.58,1.76.81,2.47,3,9a.51.51,0,0,1-.06.45.57.57,0,0,1-.4.21Zm-9.87-5.11c.84.65,5.88,3.75,9.29,4.08-2.19-6.63-2.22-6.7-3-9a.49.49,0,0,1,.13-.51.5.5,0,0,1,.52-.11A6.09,6.09,0,0,0,72.42,147c.27-.23.39-.44.35-.63-.44-2.5-.94-5-1.49-7.44-.07-.3-.13-.63-.19-1-.25-1.35-.56-3-1.5-3.83a12,12,0,0,1-3.14,4.4,7.08,7.08,0,0,0-2.36,3.53,5.88,5.88,0,0,1-3.46,4.39C60.8,147.7,61.32,151.5,61.88,153.64Z" fill="#231f20"></path><path d="M72.78,144.48a2.06,2.06,0,0,1-3.12-.12" fill="#fff"></path><path d="M71.19,145.67H71.1a2.52,2.52,0,0,1-1.82-1A.5.5,0,1,1,70,144a1.57,1.57,0,0,0,1.09.63,2,2,0,0,0,1.3-.55.5.5,0,0,1,.7,0,.5.5,0,0,1,0,.71A3.08,3.08,0,0,1,71.19,145.67Z" fill="#231f20"></path><path d="M68.68,148.57a4.44,4.44,0,0,1-3.42-.83s1,3.75,4.49,4.09Z" fill="#231f20"></path><path d="M69.75,152.33h0c-3.77-.37-4.88-4.29-4.92-4.46a.5.5,0,0,1,.22-.56.51.51,0,0,1,.6.06,4,4,0,0,0,3,.71.5.5,0,0,1,.56.33l1.07,3.27a.48.48,0,0,1-.08.47A.53.53,0,0,1,69.75,152.33Zm-3.45-3.44A4.68,4.68,0,0,0,69,151.18l-.68-2.07A5.65,5.65,0,0,1,66.3,148.89Z" fill="#231f20"></path><ellipse cx="69.89" cy="137.17" rx="0.36" ry="0.91" transform="translate(-20.79 12.76) rotate(-9.09)" fill="#231f20"></ellipse><path d="M66.27,140.6a3.49,3.49,0,0,0-1.09-1.53,4.81,4.81,0,0,0-1.15-.91,1.67,1.67,0,0,0-1.43-.1,1.55,1.55,0,0,0-.79,1,2.85,2.85,0,0,0,0,1.3,5.42,5.42,0,0,0,3.54,4.13l-.17-.12" fill="#fff"></path><path d="M65.31,145a.32.32,0,0,1-.14,0,6,6,0,0,1-3.87-4.52,3.29,3.29,0,0,1,0-1.51,2,2,0,0,1,1.06-1.31,2.12,2.12,0,0,1,1.86.1,5.41,5.41,0,0,1,1.28,1,4,4,0,0,1,1.22,1.77.5.5,0,0,1-.36.61.51.51,0,0,1-.61-.37,2.92,2.92,0,0,0-1-1.29,4.47,4.47,0,0,0-1-.83,1.18,1.18,0,0,0-1-.09,1.09,1.09,0,0,0-.52.68,2.53,2.53,0,0,0,0,1.07,5,5,0,0,0,2.84,3.6.52.52,0,0,1,.32.09l.12.08a.54.54,0,0,1,.19.65A.5.5,0,0,1,65.31,145Z" fill="#231f20"></path><path d="M74,154.89s-13.41-5.42-17.62-.69S49.21,177.25,51,201c14.9,4.76,32.75-5.44,32.75-5.44S80.49,157.81,74,154.89Z" fill="#eabd2a"></path><path d="M102.09,170.4s4.16-9.17,4.94-8.26-.65,5.17-.65,5.17,4.14-5.69,5.05-5.24.26,5-1.82,8.33-4.65,7.28-4.65,7.28Z" fill="#fff"></path><path d="M105,178.18h-.06a.49.49,0,0,1-.41-.31l-2.86-7.28a.46.46,0,0,1,0-.38c1.74-3.85,4-8.46,5.15-8.62a.69.69,0,0,1,.62.23c.48.57.38,1.9.12,3.15,3.08-3.85,3.84-3.47,4.12-3.33a1.15,1.15,0,0,1,.56.76c.44,1.52-.4,5.38-2.17,8.27-2.05,3.36-4.64,7.26-4.67,7.3A.52.52,0,0,1,105,178.18Zm-2.32-7.76,2.43,6.18c.86-1.32,2.63-4,4.12-6.46,1.89-3.09,2.39-6.84,2-7.56-.71.32-2.81,2.78-4.45,5a.5.5,0,0,1-.63.15.51.51,0,0,1-.25-.6,13.47,13.47,0,0,0,.85-4.39A47,47,0,0,0,102.64,170.42Z" fill="#231f20"></path><path d="M68.31,162.05s8.94,26.41,18.26,25.63S107,177.24,107,177.24l-5.37-8.11S88,177.68,85.28,174.39a66.16,66.16,0,0,1-8.46-15.78C75,153.64,67,153.6,68.31,162.05Z" fill="#eabd2a"></path><path d="M87.87,166.48a14.09,14.09,0,0,1,2.46-3.62c1.29-1.16,5.18-3.41,4.66-1.38s-3.54,4-3.54,4-.67,1.29-1.87,3.11" fill="#fff"></path><path d="M89.58,169.06a.46.46,0,0,1-.27-.09.49.49,0,0,1-.14-.69c1.16-1.77,1.83-3.05,1.84-3.06a.52.52,0,0,1,.17-.19s2.86-1.86,3.32-3.68a.49.49,0,0,0,0-.24c-.42-.13-2.72,1.09-3.87,2.12a13.77,13.77,0,0,0-2.34,3.47.5.5,0,1,1-.9-.43A14.44,14.44,0,0,1,90,162.49c.74-.67,3.9-2.91,5.1-2.18.23.14.58.49.37,1.29-.5,2-3.06,3.81-3.64,4.2-.19.35-.82,1.51-1.83,3A.51.51,0,0,1,89.58,169.06Z" fill="#231f20"></path><path d="M86.74,187.56A10.69,10.69,0,0,1,81.16,186c-5.83-3.5-13.87-21.54-14.21-22.31a.5.5,0,1,1,.91-.41c.08.19,8.26,18.52,13.82,21.86s12.18.09,18.4-4a.49.49,0,0,1,.69.14.5.5,0,0,1-.14.69C96.25,184.89,91.39,187.56,86.74,187.56Z" fill="#231f20"></path><path d="M368.93,232.91H31.07a.52.52,0,0,1,0-1H368.93a.52.52,0,0,1,0,1Z" fill="#231f20"></path><path d="M117,269.3V277s17.63-1.54,17.23-2.33-9.24-4.14-9.24-4.14Z" fill="#231f20"></path><path d="M117,277.45a.55.55,0,0,1-.34-.13.52.52,0,0,1-.16-.37V269.3a.52.52,0,0,1,.17-.38.52.52,0,0,1,.4-.11l8,1.18a.19.19,0,0,1,.1,0c4.13,1.56,9.12,3.59,9.52,4.38a.65.65,0,0,1,0,.53c-.16.28-.58,1-17.63,2.52Zm.5-7.57v6.52c6.56-.58,13.63-1.37,15.79-1.88-1.35-.73-5-2.26-8.43-3.55Z" fill="#231f20"></path><polygon points="116.95 262.56 116.95 269.3 124.94 270.48 125.23 262.56 116.95 262.56" fill="#fff"></polygon><path d="M124.94,271h-.08l-8-1.19a.49.49,0,0,1-.43-.49v-6.74a.5.5,0,0,1,.5-.5h8.28a.5.5,0,0,1,.5.52l-.29,7.92a.53.53,0,0,1-.18.37A.54.54,0,0,1,124.94,271Zm-7.49-2.11,7,1,.25-6.85h-7.26Z" fill="#231f20"></path><polygon points="140.54 262.79 141.43 271.78 149.47 271.49 149.05 262.79 140.54 262.79" fill="#fff"></polygon><path d="M141.43,272.28a.5.5,0,0,1-.5-.45l-.89-9a.52.52,0,0,1,.13-.39.51.51,0,0,1,.37-.16h8.51a.5.5,0,0,1,.5.48l.42,8.69a.53.53,0,0,1-.13.36.48.48,0,0,1-.35.16l-8,.3Zm-.34-9,.79,8L149,271l-.38-7.71Z" fill="#231f20"></path><polygon points="148.15 190.6 149.84 264.29 139.35 264.29 134.76 213.23 126.06 265.12 116 264.57 118.07 197.07 148.15 190.6" fill="#231f20"></polygon><path d="M126.06,265.62h0L116,265.07a.49.49,0,0,1-.47-.51l2.07-67.51a.5.5,0,0,1,.39-.47L148,190.11a.53.53,0,0,1,.42.1.47.47,0,0,1,.19.38l1.69,73.69a.54.54,0,0,1-.14.36.55.55,0,0,1-.36.15H139.36a.5.5,0,0,1-.5-.46l-4.25-47.18-8.06,48.06A.49.49,0,0,1,126.06,265.62Zm-9.55-1.52,9.13.5,8.63-51.45a.5.5,0,0,1,.49-.42h0a.51.51,0,0,1,.48.46l4.55,50.6h9.52l-1.67-72.57-29.1,6.26Z" fill="#231f20"></path><path d="M165.1,164.92a19.67,19.67,0,0,1,5.83-2.83c1.92-.56,4.09-2.54,4.33-4.66a2.76,2.76,0,0,0-.14-1,10.89,10.89,0,0,0-1.4-2.94.69.69,0,0,0-.24-.24c-.21-.09-.44.06-.61.19l-3.1,2.41a10.4,10.4,0,0,0-.13-2,1,1,0,0,0-.26-.63.74.74,0,0,0-.84,0,2.07,2.07,0,0,0-.61.64c-1.18,1.67-2,3.84-3.25,5.39-.25.3-2.73,2.23-2.56,2.41Z" fill="#fff"></path><path d="M165.1,165.42a.5.5,0,0,1-.37-.17l-3-3.34a.58.58,0,0,1-.12-.38c0-.35.29-.62,1.9-2,.32-.27.71-.6.79-.69a16.55,16.55,0,0,0,1.78-2.89,23,23,0,0,1,1.44-2.46,2.49,2.49,0,0,1,.77-.78,1.23,1.23,0,0,1,1.42.08,1.57,1.57,0,0,1,.43.93c.05.35.1.72.12,1.08l2.3-1.79a1.12,1.12,0,0,1,1.12-.26,1.09,1.09,0,0,1,.45.42,10.63,10.63,0,0,1,1.46,3.08,3.09,3.09,0,0,1,.17,1.22c-.27,2.37-2.64,4.49-4.69,5.09a19.72,19.72,0,0,0-5.67,2.74A.48.48,0,0,1,165.1,165.42Zm-2.35-3.88,2.43,2.71a20.41,20.41,0,0,1,5.61-2.64c1.75-.51,3.76-2.34,4-4.24a2.19,2.19,0,0,0-.12-.83,10,10,0,0,0-1.34-2.8v0l-.12.09-3.09,2.4a.49.49,0,0,1-.53,0,.5.5,0,0,1-.28-.46,10.16,10.16,0,0,0-.12-1.91.8.8,0,0,0-.11-.34.3.3,0,0,0-.25,0,1.72,1.72,0,0,0-.45.5,20.66,20.66,0,0,0-1.37,2.35,18.16,18.16,0,0,1-1.91,3.07,10,10,0,0,1-.91.8C163.75,160.64,163.08,161.21,162.75,161.54Zm-.26-.29h0Z" fill="#231f20"></path><path d="M136.82,146.63s12.64,17.89,14.32,17.9,12.8-6.16,12.8-6.16l2,7.28S155,176.55,149.47,175s-23.11-12.44-23.11-12.44Z" fill="#eabd2a"></path><path d="M127.34,141c-.85.11-1.71.11-2.71.19s-2.15-.06-2.33-1,.67-1.58.33-2.3a1.67,1.67,0,0,0-.42-.5,8.81,8.81,0,0,1-2.69-5.83,8.66,8.66,0,0,1,2.06-6c-.24.13-.55-.08-.63-.34a1.11,1.11,0,0,1,.16-.79,5.34,5.34,0,0,1,2.25-2,16.13,16.13,0,0,1,9.43-1.61c2.48.29,5.64,1.69,5.84,4.61a2.27,2.27,0,0,1-1.57,2.41c0,3.16-1.2,5.53-2.81,8.09a12.35,12.35,0,0,1-4.35,4.24A6.83,6.83,0,0,1,127.34,141Z" fill="#fff"></path><path d="M124.19,141.72c-1.32,0-2.2-.51-2.38-1.4A2.47,2.47,0,0,1,122,139c.15-.39.23-.65.15-.83a1.3,1.3,0,0,0-.28-.32,9.26,9.26,0,0,1-2.87-6.19,9.12,9.12,0,0,1,1.72-5.82,1.1,1.1,0,0,1-.28-.46,1.58,1.58,0,0,1,.2-1.16,5.81,5.81,0,0,1,2.46-2.18,16.76,16.76,0,0,1,9.72-1.67c3,.35,6.08,2.06,6.28,5.08a2.86,2.86,0,0,1-1.57,2.81c-.08,3.25-1.47,5.73-2.89,8a12.86,12.86,0,0,1-4.52,4.41,7.48,7.48,0,0,1-2.75.89h0c-.51.06-1,.09-1.56.11-.37,0-.76,0-1.17.08Zm-2.61-16.67a.49.49,0,0,1,.39.19.49.49,0,0,1,0,.64,8.11,8.11,0,0,0,.59,11.17,2.26,2.26,0,0,1,.53.65,2,2,0,0,1-.11,1.61,1.85,1.85,0,0,0-.18.82c.11.52,1,.64,1.8.57l1.2-.07c.52,0,1,0,1.48-.12h0a6.17,6.17,0,0,0,2.39-.77,11.69,11.69,0,0,0,4.16-4.06c1.75-2.79,2.76-5,2.74-7.82a.49.49,0,0,1,.39-.49,1.79,1.79,0,0,0,1.18-1.9c-.19-2.79-3.48-3.92-5.4-4.14a15.62,15.62,0,0,0-9.13,1.55,4.68,4.68,0,0,0-2,1.78c-.13.24-.13.36-.11.41Z" fill="#231f20"></path><path d="M138.67,132.17s2.82,3.23,2.44,4-2.05.52-2.05.52" fill="#fff"></path><path d="M139.69,137.27a5.21,5.21,0,0,1-.71-.05.51.51,0,0,1-.41-.58.5.5,0,0,1,.57-.41c.53.08,1.38.05,1.52-.24a12,12,0,0,0-2.37-3.49.5.5,0,0,1,.76-.66c1.38,1.59,2.94,3.67,2.51,4.58A2,2,0,0,1,139.69,137.27Z" fill="#231f20"></path><path d="M137.52,127.56c1.65,1,1.58,3.65,1.8,5.32q.47,3.52.76,7.07c.13,1.5-3.7,2-4.43,1.69l1.41,5.8-8.48-2.05-.35-4.9a4.91,4.91,0,0,0,3.69-3.56c1.08-3.23,0-9.8,0-9.8S135.92,126.57,137.52,127.56Z" fill="#fff"></path><path d="M137.06,147.94H137l-8.49-2.05a.5.5,0,0,1-.38-.45l-.34-4.91a.5.5,0,0,1,.43-.53,4.4,4.4,0,0,0,3.28-3.22c1-3.08-.07-9.49-.08-9.56a.52.52,0,0,1,.09-.38.54.54,0,0,1,.34-.2c.43-.06,4.27-.55,6,.51s1.78,3.09,1.93,4.78c0,.32.06.62.1.9.3,2.34.56,4.73.76,7.09a1.55,1.55,0,0,1-.79,1.43,6.94,6.94,0,0,1-3.48.9l1.24,5.08a.5.5,0,0,1-.49.62Zm-8-2.95,7.33,1.77-1.22-5a.5.5,0,0,1,.17-.5.49.49,0,0,1,.53-.06,5.61,5.61,0,0,0,3.37-.68c.25-.17.37-.35.36-.51-.2-2.35-.46-4.72-.77-7.05,0-.29-.06-.61-.09-.94-.14-1.47-.31-3.3-1.47-4h0c-1-.64-3.49-.56-4.82-.42.25,1.64.89,6.71-.05,9.52a5.54,5.54,0,0,1-3.63,3.79Z" fill="#231f20"></path><path d="M139.78,138.21a1.9,1.9,0,0,1-2.87-.4" fill="#fff"></path><path d="M138.42,139.21a1.42,1.42,0,0,1-.29,0,2.36,2.36,0,0,1-1.63-1.09.5.5,0,0,1,.12-.7.51.51,0,0,1,.7.13,1.43,1.43,0,0,0,.94.67,1.76,1.76,0,0,0,1.21-.38.5.5,0,0,1,.7.08.5.5,0,0,1-.07.7A3,3,0,0,1,138.42,139.21Z" fill="#231f20"></path><path d="M134.4,134.27a3.32,3.32,0,0,0-.87-1.53,4.74,4.74,0,0,0-1-1,1.54,1.54,0,0,0-1.31-.22,1.43,1.43,0,0,0-.82.85,2.87,2.87,0,0,0-.13,1.2,5.14,5.14,0,0,0,2.94,4.17l-.15-.12" fill="#fff"></path><path d="M133.21,138.29a.54.54,0,0,1-.21,0,5.6,5.6,0,0,1-3.22-4.58,3,3,0,0,1,.16-1.42,1.9,1.9,0,0,1,1.11-1.14,2,2,0,0,1,1.75.27,5,5,0,0,1,1.11,1,3.75,3.75,0,0,1,1,1.77.5.5,0,0,1-.42.57.49.49,0,0,1-.57-.41,2.81,2.81,0,0,0-.77-1.28,4,4,0,0,0-.88-.86,1.05,1.05,0,0,0-.88-.17,1,1,0,0,0-.51.56,2.26,2.26,0,0,0-.1,1,4.68,4.68,0,0,0,2.32,3.59.48.48,0,0,1,.29.11l.15.12a.51.51,0,0,1,.1.65A.49.49,0,0,1,133.21,138.29Z" fill="#231f20"></path><ellipse cx="137.73" cy="130.43" rx="0.33" ry="0.85" transform="translate(-22.46 28.84) rotate(-11.06)" fill="#231f20"></ellipse><path d="M127.16,147.06l.32-2.69,10.38-.75,1.66,3.7A20.36,20.36,0,0,1,127.16,147.06Z" fill="#231f20"></path><path d="M133.86,148.65a21.58,21.58,0,0,1-6.86-1.12.49.49,0,0,1-.34-.53l.33-2.69a.5.5,0,0,1,.46-.44l10.38-.75a.5.5,0,0,1,.49.29l1.65,3.7a.51.51,0,0,1,0,.4.53.53,0,0,1-.29.28A18.48,18.48,0,0,1,133.86,148.65Zm-6.16-1.94a20.4,20.4,0,0,0,11.13.29l-1.28-2.86-9.62.7Z" fill="#231f20"></path><path d="M139.52,147.32c-6.16-1.64-12.22-5-20,4.56s-2.9,47.54-2.9,47.54a15.13,15.13,0,0,0,13.61,2.78l19.86-5S145.26,148.85,139.52,147.32Z" fill="#eabd2a"></path><path d="M141.43,271.78v6.63s17.28-1.88,17-3.19-9-3.74-9-3.74Z" fill="#231f20"></path><path d="M141.43,278.91a.53.53,0,0,1-.34-.13.52.52,0,0,1-.16-.37v-6.63a.5.5,0,0,1,.48-.5l8-.3.15,0c3.39.95,9.11,2.74,9.37,4.13a.71.71,0,0,1-.14.54c-1,1.36-13.53,2.82-17.35,3.23Zm.5-6.64v5.58c7.08-.79,14.58-2,15.94-2.67-.77-.73-4.83-2.18-8.46-3.19Z" fill="#231f20"></path><rect x="130.22" y="203.41" width="25.28" height="18.85" transform="translate(320.2 397.91) rotate(170.09)" fill="#fff"></rect><path d="M132,224.79a.51.51,0,0,1-.5-.41l-3.24-18.57a.52.52,0,0,1,.08-.37.52.52,0,0,1,.33-.21l24.9-4.35a.5.5,0,0,1,.58.41l3.24,18.57a.45.45,0,0,1-.08.37.46.46,0,0,1-.32.2l-24.91,4.35Zm-2.67-18.66,3.07,17.58,23.92-4.17L153.28,202Z" fill="#231f20"></path><path d="M142.94,195.21s.17,3,1,3.68,3.76,2.5,3.55,3.09-2.27,1-2.27,1,1.82,3.6.35,4.68-5.39,2.18-6.14,1.09S137,196.3,137,196.3" fill="#fff"></path><path d="M140.75,209.7a3.73,3.73,0,0,1-.6,0A1.56,1.56,0,0,1,139,209c-.78-1.12-2.23-10.74-2.51-12.66a.5.5,0,1,1,1-.15c.81,5.53,1.91,11.62,2.34,12.24a.73.73,0,0,0,.47.21,8.82,8.82,0,0,0,5-1.41c.84-.63,0-3-.5-4a.54.54,0,0,1,0-.45.5.5,0,0,1,.35-.27,6.33,6.33,0,0,0,1.83-.62,17.07,17.07,0,0,0-2.39-1.91c-.38-.28-.72-.51-.93-.68-1-.77-1.16-3.5-1.19-4a.51.51,0,0,1,.47-.53.49.49,0,0,1,.53.47c.07,1.34.41,3,.82,3.32.19.16.51.38.88.64,2.16,1.54,3.08,2.28,2.82,3-.2.58-1.19,1-2,1.18.5,1.17,1.35,3.69-.06,4.74A10.41,10.41,0,0,1,140.75,209.7ZM147,202h0Z" fill="#231f20"></path><path d="M135.15,153l9.2,43.38-7.85,3s-12.14-38.76-13.26-41.69" fill="#eabd2a"></path><path d="M136.5,199.92a.54.54,0,0,1-.21,0,.48.48,0,0,1-.26-.3c-.12-.39-12.15-38.78-13.25-41.67a.5.5,0,1,1,.93-.35c1.05,2.77,11.62,36.44,13.11,41.21l7-2.67-9.12-43a.5.5,0,0,1,.38-.6.53.53,0,0,1,.6.39l9.2,43.37a.5.5,0,0,1-.31.57l-7.85,3A.34.34,0,0,1,136.5,199.92Z" fill="#231f20"></path><path d="M142.26,153.43s5.05,16,5.89,27.43" fill="#eabd2a"></path><path d="M148.15,181.36a.5.5,0,0,1-.5-.46c-.83-11.28-5.82-27.16-5.87-27.32a.5.5,0,0,1,.95-.3c.05.16,5.08,16.16,5.92,27.54a.5.5,0,0,1-.46.54Z" fill="#231f20"></path><path d="M319.76,246s3.58-17.7-5.43-29.9c0,0-4.88,1.87-3.56,12.95a54.12,54.12,0,0,0,6.59,19.71Z" fill="#fff"></path><path d="M317.36,249.23h0a.54.54,0,0,1-.4-.25,55.21,55.21,0,0,1-6.67-19.92c-1.34-11.35,3.68-13.41,3.9-13.49a.53.53,0,0,1,.6.17c9,12.25,5.55,30.13,5.52,30.31a.55.55,0,0,1-.12.24l-2.4,2.76A.53.53,0,0,1,317.36,249.23Zm-3.18-32.5c-1,.68-3.94,3.47-2.9,12.21a54.58,54.58,0,0,0,6.17,18.89l1.83-2.11C319.57,244.1,322.22,228,314.18,216.73ZM319.76,246h0Z" fill="#231f20"></path><path d="M316.15,243.46s-4.18-28.76-19.24-39a74.43,74.43,0,0,0,4.5,20.69c3.95,9.95,11.17,19.2,11.17,19.2Z" fill="#fff"></path><path d="M312.58,244.83a.51.51,0,0,1-.41-.2c-.07-.09-7.31-9.42-11.24-19.33a76.25,76.25,0,0,1-4.54-20.85.53.53,0,0,1,.27-.48.5.5,0,0,1,.54,0c7.9,5.39,12.77,15.83,15.46,23.64a97.44,97.44,0,0,1,4,15.76.52.52,0,0,1-.39.57l-3.57.86Zm-15.07-39.35a74.07,74.07,0,0,0,4.38,19.44,89.44,89.44,0,0,0,10.9,18.81l2.77-.66C315,239.41,310.48,215.26,297.51,205.48Z" fill="#231f20"></path><path d="M322.67,246s10.56-27.59,6.34-47c0,0-5.54,5.07-9.25,16.33s-2,30.69-2,30.69Z" fill="#fff"></path><path d="M322.67,246.46h-4.92a.51.51,0,0,1-.52-.47c0-.19-1.65-19.66,2-30.89s9.16-16.34,9.39-16.55a.49.49,0,0,1,.5-.11.5.5,0,0,1,.35.38c4.21,19.35-6.25,47-6.36,47.31A.5.5,0,0,1,322.67,246.46Zm-4.45-1h4.09c1.15-3.13,9.78-27.59,6.39-45.44-1.57,1.72-5.58,6.72-8.45,15.43C316.94,225.49,318,242.4,318.22,245.43Z" fill="#231f20"></path><path d="M328.73,242.85c.42,0,11.26-17,11.54-31.81a36.21,36.21,0,0,0-11.54,13.33c-4.23,8.63-4.93,19.94-4.93,19.94Z" fill="#fff"></path><path d="M323.8,244.83a.52.52,0,0,1-.52-.55c0-.11.76-11.52,5-20.14A36.5,36.5,0,0,1,340,210.6a.51.51,0,0,1,.53,0,.52.52,0,0,1,.27.46c-.27,13.79-10.12,31.27-11.92,32.27v0l-4.93,1.46Zm15.92-32.77a36.29,36.29,0,0,0-10.53,12.53c-3.52,7.19-4.58,16.37-4.82,19l4.11-1.22C329.44,241.24,339,225.87,339.72,212.06Z" fill="#231f20"></path><polygon points="326.95 260.72 312.58 260.72 307.01 240.08 332.51 240.08 326.95 260.72" fill="#231f20"></polygon><path d="M327,261.22H312.58a.49.49,0,0,1-.48-.37l-5.57-20.64a.48.48,0,0,1,.09-.43.5.5,0,0,1,.39-.2h25.5a.51.51,0,0,1,.49.63l-5.57,20.64A.5.5,0,0,1,327,261.22Zm-14-1h13.61l5.3-19.64H307.66Z" fill="#231f20"></path></svg>