<svg xmlns="http://www.w3.org/2000/svg" viewBox="0 0 400 300" width="406" height="306" class="illustration styles_illustrationTablet__1DWOa"><g id="_294_online_payment_outline" data-name="#294_online_payment_outline"><path d="M106.1,233.25H293.9a0,0,0,0,1,0,0v3.84a6.17,6.17,0,0,1-6.17,6.17H112.27a6.17,6.17,0,0,1-6.17-6.17v-3.84A0,0,0,0,1,106.1,233.25Z" fill="#093f68"></path><path d="M287.73,244.25H112.27a7.17,7.17,0,0,1-7.17-7.16v-3.84a1,1,0,0,1,1-1H293.9a1,1,0,0,1,1,1v3.84A7.17,7.17,0,0,1,287.73,244.25Zm-180.63-10v2.84a5.17,5.17,0,0,0,5.17,5.16H287.73a5.17,5.17,0,0,0,5.17-5.16v-2.84Z" fill="#093f68"></path><rect x="122.41" y="77.09" width="155.18" height="104.28" rx="8.33" fill="#68e1fd"></rect><path d="M269.26,182.36H130.74a9.33,9.33,0,0,1-9.33-9.32V85.41a9.33,9.33,0,0,1,9.33-9.32H269.26a9.33,9.33,0,0,1,9.33,9.32V173A9.33,9.33,0,0,1,269.26,182.36ZM130.74,78.09a7.34,7.34,0,0,0-7.33,7.32V173a7.33,7.33,0,0,0,7.33,7.32H269.26a7.33,7.33,0,0,0,7.33-7.32V85.41a7.34,7.34,0,0,0-7.33-7.32Z" fill="#093f68"></path><path d="M272.42,181.36H127.58a6.79,6.79,0,0,0-6.59,4.41L106.37,231c-1.25,3.89,2,7.76,6.6,7.76H287c4.56,0,7.85-3.87,6.6-7.76L279,185.77A6.79,6.79,0,0,0,272.42,181.36Z" fill="#fff"></path><path d="M287,239.71H113a8.09,8.09,0,0,1-6.58-3.21,6.49,6.49,0,0,1-1-5.86L120,185.46a7.84,7.84,0,0,1,7.55-5.1H272.42a7.84,7.84,0,0,1,7.55,5.1l14.61,45.18a6.49,6.49,0,0,1-1,5.86A8.09,8.09,0,0,1,287,239.71ZM127.58,182.36a5.82,5.82,0,0,0-5.64,3.72l-14.61,45.18a4.43,4.43,0,0,0,.68,4.07,6.09,6.09,0,0,0,5,2.38H287a6.09,6.09,0,0,0,5-2.38,4.43,4.43,0,0,0,.68-4.07l-14.61-45.18a5.82,5.82,0,0,0-5.64-3.72Z" fill="#093f68"></path><rect x="132.91" y="86.6" width="134.17" height="85.25" fill="#093f68"></rect><path d="M267.09,172.85H132.91a1,1,0,0,1-1-1V86.6a1,1,0,0,1,1-1H267.09a1,1,0,0,1,1,1v85.25A1,1,0,0,1,267.09,172.85Zm-133.18-2H266.09V87.6H133.91Z" fill="#093f68"></path><path d="M270.45,215.75H129.55a5.07,5.07,0,0,1-4.13-1.94,3.6,3.6,0,0,1-.59-3.26l6.39-20.78a4.81,4.81,0,0,1,4.72-3.09H264.06a4.81,4.81,0,0,1,4.72,3.09l6.39,20.78a3.6,3.6,0,0,1-.59,3.26A5.07,5.07,0,0,1,270.45,215.75ZM135.94,188.68a2.84,2.84,0,0,0-2.8,1.68l-6.39,20.78a1.61,1.61,0,0,0,.28,1.48,3.12,3.12,0,0,0,2.52,1.13h140.9a3.12,3.12,0,0,0,2.52-1.13,1.61,1.61,0,0,0,.28-1.48l-6.39-20.78a2.84,2.84,0,0,0-2.8-1.68Z" fill="#dfeaef"></path><path d="M222.18,234.25H177.82a1,1,0,0,1-1-1.2l2.66-13.47a1,1,0,0,1,1-.8h39a1,1,0,0,1,1,.8l2.66,13.47a1,1,0,0,1-1,1.2Zm-43.14-2H221l-2.26-11.47H181.3Z" fill="#dfeaef"></path><polygon points="246.22 56.75 246.22 171.84 153.78 171.84 153.78 56.75 161.48 63.51 169.19 56.75 176.89 63.51 184.59 56.75 192.3 63.51 200.01 56.75 207.72 63.51 215.41 56.75 223.12 63.51 230.83 56.75 238.54 63.51 246.22 56.75" fill="#fff"></polygon><path d="M246.22,172.84H153.78a1,1,0,0,1-1-1V56.75a1,1,0,0,1,.58-.91,1,1,0,0,1,1.08.16l7,6.18L168.53,56a1,1,0,0,1,1.32,0l7,6.18L183.94,56a1,1,0,0,1,1.32,0l7,6.18,7-6.18a1,1,0,0,1,1.32,0l7.05,6.18,7-6.18a1,1,0,0,1,1.32,0l7.05,6.18,7-6.18a1,1,0,0,1,1.32,0l7,6.18,7-6.18a1,1,0,0,1,1.66.75V171.84A1,1,0,0,1,246.22,172.84Zm-91.44-2h90.44V59l-6,5.3a1,1,0,0,1-1.32,0l-7-6.18-7.05,6.18a1,1,0,0,1-1.32,0l-7-6.18-7,6.18a1,1,0,0,1-1.32,0L200,58.08l-7,6.18a1,1,0,0,1-1.32,0l-7-6.18-7,6.18a1,1,0,0,1-1.32,0l-7-6.18-7.05,6.18a1,1,0,0,1-1.32,0l-6-5.3Z" fill="#093f68"></path><rect x="164.6" y="138.37" width="71.55" height="24.16" rx="12.08" fill="#70cc40"></rect><path d="M224.07,163.52h-47.4a13.08,13.08,0,0,1,0-26.15h47.4a13.08,13.08,0,1,1,0,26.15Zm-47.4-24.15a11.08,11.08,0,0,0,0,22.15h47.4a11.08,11.08,0,1,0,0-22.15Z" fill="#093f68"></path><path d="M187.32,144.76h4.16a8.61,8.61,0,0,1,1.64.16,3.73,3.73,0,0,1,1.35.55,2.82,2.82,0,0,1,.92,1,3.67,3.67,0,0,1,.34,1.65,3.8,3.8,0,0,1-.32,1.64,2.61,2.61,0,0,1-.87,1.06,3.54,3.54,0,0,1-1.31.56,7.72,7.72,0,0,1-1.64.17h-1.8V156h-2.47Zm2.47,4.74h1.64a3.39,3.39,0,0,0,.64-.06,1.66,1.66,0,0,0,.55-.21,1.12,1.12,0,0,0,.4-.41,1.34,1.34,0,0,0,.15-.66,1.15,1.15,0,0,0-.2-.69,1.36,1.36,0,0,0-.51-.4,1.85,1.85,0,0,0-.68-.18,6.29,6.29,0,0,0-.73,0h-1.26Z" fill="#093f68"></path><path d="M199.79,144.76h2L206.69,156h-2.78l-1-2.37H198.6l-.93,2.37H195Zm.94,3.26-1.35,3.47h2.73Z" fill="#093f68"></path><path d="M209.39,151.18l-4.2-6.42h3.06l2.37,4.19,2.51-4.19h2.93l-4.2,6.42V156h-2.47Z" fill="#093f68"></path><path d="M221.13,73.58h-39a1,1,0,0,1,0-2h39a1,1,0,0,1,0,2Z" fill="#dfeaef"></path><path d="M199.74,86.87H170.23a1,1,0,0,1,0-2h29.51a1,1,0,0,1,0,2Z" fill="#dfeaef"></path><path d="M230.52,86.87H217.18a1,1,0,0,1,0-2h13.34a1,1,0,0,1,0,2Z" fill="#dfeaef"></path><path d="M196.86,96.94h-9.51a1,1,0,1,1,0-2h9.51a1,1,0,0,1,0,2Z" fill="#dfeaef"></path><path d="M182.09,96.94H170.23a1,1,0,1,1,0-2h11.86a1,1,0,0,1,0,2Z" fill="#dfeaef"></path><path d="M230.52,96.94H220.16a1,1,0,0,1,0-2h10.36a1,1,0,1,1,0,2Z" fill="#dfeaef"></path><path d="M193.19,107h-23a1,1,0,0,1,0-2h23a1,1,0,0,1,0,2Z" fill="#dfeaef"></path><path d="M230.52,107H217.18a1,1,0,0,1,0-2h13.34a1,1,0,0,1,0,2Z" fill="#dfeaef"></path><path d="M230.52,118.43H170.23a1,1,0,1,1,0-2h60.29a1,1,0,1,1,0,2Z" fill="#dfeaef"></path><path d="M230.52,128.83H216.08a1,1,0,1,1,0-2h14.44a1,1,0,0,1,0,2Z" fill="#dfeaef"></path><rect x="113.75" y="97.59" width="50.85" height="33.41" rx="3.22" fill="#f56132"></rect><path d="M161.37,132H117a4.22,4.22,0,0,1-4.22-4.22v-27A4.23,4.23,0,0,1,117,96.59h44.4a4.24,4.24,0,0,1,4.23,4.22v27A4.23,4.23,0,0,1,161.37,132ZM117,98.59a2.22,2.22,0,0,0-2.22,2.22v27A2.22,2.22,0,0,0,117,130h44.4a2.23,2.23,0,0,0,2.23-2.22v-27a2.23,2.23,0,0,0-2.23-2.22Z" fill="#093f68"></path><rect x="113.75" y="104.32" width="50.85" height="6.85" fill="#fff"></rect><path d="M164.6,112.17H113.75a1,1,0,0,1-1-1v-6.85a1,1,0,0,1,1-1H164.6a1,1,0,0,1,1,1v6.85A1,1,0,0,1,164.6,112.17Zm-49.85-2H163.6v-4.85H114.75Z" fill="#093f68"></path><circle cx="148.38" cy="122.51" r="4.47" fill="#fff"></circle><circle cx="156.26" cy="122.51" r="4.47" fill="#fff"></circle><polygon points="264.28 160.58 257.26 167.59 268.64 178.97 261.19 186.42 249.81 175.05 242.79 182.07 238.16 155.95 264.28 160.58" fill="#ffbc0e"></polygon><path d="M261.19,187.42a1,1,0,0,1-.71-.29l-10.67-10.67-6.31,6.31a1,1,0,0,1-1.7-.53l-4.62-26.12a1,1,0,0,1,.28-.88,1,1,0,0,1,.88-.28l26.11,4.63a1,1,0,0,1,.53,1.7l-6.3,6.3,10.66,10.67a1,1,0,0,1,0,1.42l-7.45,7.45A1,1,0,0,1,261.19,187.42Zm-11.38-13.37a1,1,0,0,1,.71.29L261.19,185l6-6L256.56,168.3a1,1,0,0,1,0-1.41l5.65-5.66-22.81-4,4,22.82,5.66-5.66A1,1,0,0,1,249.81,174.05Z" fill="#093f68"></path></g></svg>