<svg xmlns="http://www.w3.org/2000/svg" xmlns:xlink="http://www.w3.org/1999/xlink" enable-background="new 0 0 2300 2100" viewBox="0 0 2300 2100"><defs><rect id="a" width="2300" height="2100"/></defs><clipPath id="b"><use overflow="visible" xlink:href="#a"/></clipPath><g clip-path="url(#b)"><path fill="#f0f2f5" d="M1957.8 1234.2c.6-1 1.1-1.9 1.7-2.9.4-.7.8-1.4 1.2-2.1.1-.1.2-.3.2-.4.3-.5.5-1 .8-1.5.1-.1.1-.3.2-.4.1-.3.2-.5.4-.8 0 0 0 0 0 0 .4-.9.9-1.7 1.3-2.6.3-.5.5-1.1.7-1.6 0 0 0 0 0 0 0 0 0 0 0 0 .6-1.4 1.2-2.8 1.8-4.2.2-.5.4-.9.6-1.4l0-.1c.5-1.2.9-2.4 1.3-3.6.9-2.5 1.7-5.1 2.4-7.7.3-1.2.7-2.5 1-3.7 0 0 0-.1 0-.1.1-.5.2-1 .3-1.5.1-.4.2-.9.3-1.3.1-.6.3-1.2.4-1.7.3-1.3.5-2.5.7-3.8.3-1.4.5-2.9.7-4.4 0 0 0 0 0 0l63.5-14-16.7-75.6-60.9 13.5 0 0c-.1-.3-.3-.6-.5-.8-.3-.6-.7-1.2-1-1.8-.3-.6-.7-1.1-1-1.7-.4-.7-.9-1.4-1.3-2.1-.2-.3-.4-.6-.6-.9 0-.1-.1-.1-.1-.2-.5-.8-1.1-1.6-1.6-2.4-.1-.2-.2-.4-.4-.6-.4-.6-.9-1.2-1.3-1.9-.3-.5-.7-.9-1-1.4 0-.1-.1-.1-.1-.1-.2-.3-.4-.6-.7-.9-.5-.7-1-1.3-1.5-1.9-.1-.1-.2-.3-.3-.4-.1-.1-.1-.1-.2-.2-.5-.6-1-1.3-1.5-1.9-.1-.2-.3-.4-.5-.6-.5-.6-1.1-1.2-1.6-1.8-.2-.2-.4-.4-.6-.6-.6-.7-1.3-1.4-1.9-2.1-.9-1-1.8-1.9-2.8-2.9-.7-.7-1.4-1.4-2.1-2-.1-.1-.2-.2-.3-.3-.2-.2-.3-.3-.5-.5-.8-.8-1.7-1.6-2.5-2.3-1-.9-2-1.8-3.1-2.7-1.1-1-2.2-1.9-3.4-2.8l19.6-62-73.9-23.3-18.8 59.5c-.1 0-.3 0-.4 0-1.5 0-3 0-4.4 0-1.1 0-2.2.1-3.3.1-.3 0-.7 0-1 .1 0 0 0 0 0 0-1 .1-2 .1-2.9.2-1 .1-2 .2-3 .3 0 0 0 0 0 0-.3 0-.6.1-.9.1-.1 0-.2 0-.3 0 0 0 0 0 0 0-.7.1-1.4.2-2.1.3-.4 0-.8.1-1.2.2 0 0 0 0 0 0-.3 0-.6.1-.9.1-.2 0-.3 0-.5.1-.4.1-.8.1-1.3.2 0 0 0 0 0 0-.8.1-1.6.3-2.5.4-.8.1-1.6.3-2.3.5 0 0 0 0 0 0-.6.1-1.2.2-1.8.4-.6.1-1.3.3-1.9.4-.2 0-.4.1-.6.1-.6.1-1.1.3-1.7.4-.7.2-1.3.3-2 .5-.4.1-.7.2-1.1.3-.7.2-1.5.4-2.2.7-.6.2-1.1.3-1.6.5-.3.1-.7.2-1 .3 0 0-.1 0-.2.1-.5.2-1.1.3-1.6.5-.7.2-1.4.5-2.2.8-.2.1-.4.2-.6.3-.9.3-1.7.7-2.6 1 0 0-.1 0-.1 0-.1 0-.1 0-.2.1-.1 0-.1 0-.2.1 0 0 0 0 0 0l-43.9-47.9-57.1 52.3 42.2 46c0 0 0 0 0 0-.2.3-.4.6-.5.9-3.4 5.8-6.4 11.8-8.8 18-1.9 4.9-3.5 10-4.8 15.2-.2.9-.4 1.8-.6 2.7-.2.7-.3 1.4-.5 2.1 0 0 0 0 0 0 0 0 0 0 0 0-.2.9-.4 1.8-.5 2.7-.1.5-.2 1.1-.3 1.6 0 0 0 0 0 0-.1.5-.2 1-.2 1.5 0 .2-.1.4-.1.6-.1.5-.2.9-.2 1.4l-63.5 14 16.7 75.6 60.9-13.5 0 0c.1.2.2.3.3.5.4.8.9 1.6 1.3 2.3.3.5.5.9.8 1.4.2.3.3.5.5.8.4.7.8 1.3 1.3 2 .1.2.2.3.3.5.6 1 1.3 2 2 3 .5.8 1.1 1.5 1.6 2.2 0 0 .1.1.1.1.2.3.4.6.7.9.2.3.5.7.7 1 .5.7 1 1.3 1.5 1.9.1.2.3.3.4.5.4.5.9 1.1 1.3 1.6.4.5.9 1.1 1.3 1.6 0 0 0 .1.1.1.3.4.7.8 1 1.2.2.3.4.5.7.8.6.7 1.2 1.3 1.8 2 .9 1 1.8 1.9 2.8 2.9.8.8 1.5 1.6 2.4 2.3.9.9 1.9 1.8 2.9 2.7.1.1.2.2.3.3.1.1.2.1.2.2.8.7 1.7 1.5 2.5 2.2.2.1.3.3.5.4.9.8 1.9 1.6 2.8 2.3.1.1.1.1.2.2 0 0 0 0 0 0l-19.6 62 73.9 23.3 18.8-59.5c0 0 0 0 0 0 .5 0 .9 0 1.4 0 1.1 0 2.3 0 3.4 0 1.2 0 2.4-.1 3.6-.1.1 0 .2 0 .3 0 1.1-.1 2.1-.1 3.1-.2.1 0 .2 0 .3 0 1-.1 2-.1 3-.3.4 0 .7-.1 1-.1.5 0 1-.1 1.4-.2.8-.1 1.6-.2 2.4-.3.4 0 .7-.1 1-.2.8-.1 1.7-.2 2.5-.4.4-.1.7-.1 1.1-.2.1 0 .1 0 .2 0 1.4-.2 2.7-.5 4.1-.8.9-.2 1.7-.4 2.6-.6.5-.1 1-.3 1.6-.4.5-.1 1-.2 1.5-.4.9-.2 1.7-.5 2.5-.7 0 0 .1 0 .1 0 1-.3 1.9-.6 2.9-.9.4-.1.8-.2 1.2-.4.4-.1.7-.3 1.1-.4.1 0 .1 0 .2-.1.9-.3 1.7-.6 2.6-.9 1.2-.5 2.5-.9 3.8-1.5l43.9 47.9 57.1-52.3-42.1-46C1957.5 1234.9 1957.6 1234.5 1957.8 1234.2zM1864.4 1228.4c-31.3 6.9-62.3-12.8-69.2-44.1-6.9-31.3 12.8-62.3 44.2-69.2 31.3-6.9 62.3 12.8 69.2 44.1C1915.5 1190.4 1895.8 1221.4 1864.4 1228.4zM2003.2 1484.4c-.1-.7-.1-1.4-.2-2.1 0-.5-.1-1-.2-1.5 0-.1 0-.2 0-.3 0-.4-.1-.7-.2-1.1 0-.1 0-.2 0-.3 0-.2-.1-.3-.1-.5 0 0 0 0 0 0-.1-.6-.2-1.2-.3-1.8-.1-.4-.1-.7-.2-1.1 0 0 0 0 0 0 0 0 0 0 0 0-.2-.9-.4-1.9-.6-2.8-.1-.3-.1-.6-.2-.9l0-.1c-.2-.8-.4-1.6-.6-2.3-.4-1.6-.9-3.3-1.5-4.9-.3-.8-.5-1.5-.8-2.3 0 0 0 0 0-.1-.1-.3-.2-.6-.4-.9-.1-.3-.2-.5-.3-.8-.1-.4-.3-.7-.4-1-.3-.8-.6-1.5-1-2.2-.4-.8-.8-1.7-1.2-2.5 0 0 0 0 0 0l27.9-30-35.8-33.3-26.8 28.8 0 0c-.2-.1-.4-.2-.5-.3-.4-.2-.8-.4-1.2-.6-.4-.2-.8-.4-1.1-.5-.5-.2-1-.4-1.4-.6-.2-.1-.4-.2-.6-.2 0 0-.1 0-.1 0-.6-.2-1.1-.5-1.7-.7-.1-.1-.3-.1-.4-.2-.4-.2-.9-.3-1.4-.5-.3-.1-.7-.2-1-.3 0 0-.1 0-.1 0-.2-.1-.4-.2-.7-.2-.5-.2-1-.3-1.5-.5-.1 0-.2-.1-.3-.1-.1 0-.1 0-.2-.1-.5-.2-1-.3-1.5-.4-.1 0-.3-.1-.4-.1-.5-.1-1-.3-1.5-.4-.2-.1-.3-.1-.5-.1-.6-.1-1.2-.3-1.7-.4-.8-.2-1.6-.4-2.5-.5-.6-.1-1.2-.2-1.8-.3-.1 0-.2 0-.2 0-.1 0-.3-.1-.4-.1-.7-.1-1.4-.2-2.1-.3-.9-.1-1.7-.2-2.6-.3-.9-.1-1.8-.2-2.7-.2l-12-39.2-46.7 14.4 11.6 37.6c-.1 0-.1.1-.2.1-.8.5-1.5 1-2.3 1.6-.6.4-1.1.8-1.7 1.3-.2.1-.3.3-.5.4 0 0 0 0 0 0-.5.4-1 .8-1.5 1.2-.5.4-1 .8-1.5 1.2 0 0 0 0 0 0-.1.1-.3.2-.5.4 0 0-.1.1-.1.1 0 0 0 0 0 0-.3.3-.7.6-1 .9-.2.2-.4.3-.6.5 0 0 0 0 0 0-.1.1-.3.3-.4.4-.1.1-.2.1-.2.2-.2.2-.4.4-.6.6 0 0 0 0 0 0-.4.4-.8.7-1.1 1.1-.4.4-.7.7-1 1.1 0 0 0 0 0 0-.3.3-.5.5-.8.8-.3.3-.6.6-.9.9-.1.1-.2.2-.3.3-.2.3-.5.5-.7.8-.3.3-.6.7-.8 1-.1.2-.3.4-.4.5-.3.4-.6.7-.9 1.1-.2.3-.5.6-.7.9-.1.2-.3.3-.4.6 0 0-.1 0-.1.1-.2.3-.4.6-.6.9-.3.4-.6.8-.8 1.2-.1.1-.2.2-.2.4-.3.5-.7 1-1 1.5 0 0 0 0-.1.1 0 0-.1.1-.1.1 0 0-.1.1-.1.1 0 0 0 0 0 0l-40-9.2-10.9 47.6 38.4 8.8c0 0 0 0 0 0 0 .2 0 .4 0 .7.3 4.2.9 8.4 1.9 12.5.8 3.3 1.8 6.5 2.9 9.6.2.6.4 1.1.7 1.6.2.4.3.8.5 1.3 0 0 0 0 0 0 0 0 0 0 0 0 .2.5.5 1.1.7 1.6.1.3.3.6.4.9 0 0 0 0 0 0 .1.3.3.6.4.8.1.1.1.2.2.4.1.3.3.5.4.8l-27.9 30 35.8 33.3 26.8-28.8 0 0c.1.1.2.1.3.2.5.3 1 .5 1.5.7.3.2.6.3.9.4.2.1.4.2.5.2.5.2.9.4 1.4.6.1.1.2.1.3.1.7.3 1.4.6 2.1.8.5.2 1.1.4 1.6.6 0 0 .1 0 .1 0 .2.1.4.2.7.2.2.1.5.2.7.2.5.2 1 .3 1.5.5.1 0 .3.1.4.1.4.1.8.3 1.2.4.4.1.8.2 1.2.3 0 0 0 0 .1 0 .3.1.6.2 1 .3.2.1.4.1.6.2.5.1 1.1.3 1.6.4.8.2 1.6.3 2.5.5.7.1 1.4.3 2 .4.8.1 1.6.2 2.4.4.1 0 .2 0 .3 0 .1 0 .1 0 .2 0 .7.1 1.4.2 2.1.2.1 0 .3 0 .4 0 .8.1 1.5.1 2.3.2.1 0 .1 0 .2 0 0 0 0 0 0 0l12 39.2 46.7-14.4-11.6-37.6c0 0 0 0 0 0 .3-.2.5-.3.7-.5.6-.4 1.2-.8 1.8-1.2.6-.4 1.2-.9 1.8-1.4.1 0 .1-.1.1-.1.5-.4 1-.8 1.6-1.2.1 0 .1-.1.1-.1.5-.4 1-.8 1.4-1.2.2-.1.3-.3.5-.4.2-.2.5-.4.7-.6.4-.3.8-.7 1.2-1 .2-.1.3-.3.5-.5.4-.3.8-.7 1.1-1.1.2-.2.3-.3.5-.5 0 0 .1 0 .1-.1.6-.6 1.2-1.3 1.8-1.9.4-.4.8-.8 1.1-1.2.2-.2.4-.5.7-.8.2-.2.4-.5.6-.7.4-.4.7-.8 1.1-1.3 0 0 0 0 .1-.1.4-.5.8-1 1.2-1.5.2-.2.3-.4.5-.6.1-.2.3-.4.4-.6 0 0 0-.1.1-.1.3-.5.7-.9 1-1.4.5-.7 1-1.4 1.4-2.1l40 9.2 10.9-47.6-38.4-8.8C2003.3 1484.9 2003.3 1484.7 2003.2 1484.4zM1952.7 1514.8c-13.8 14.8-36.9 15.7-51.8 1.9-14.8-13.8-15.7-36.9-1.9-51.8 13.8-14.8 36.9-15.6 51.8-1.9C1965.6 1476.9 1966.4 1500 1952.7 1514.8z"/><rect width="29.6" height="95.2" x="964.7" y="229.5" fill="#f0f2f5" transform="rotate(-180 979.484 277.151)"/><path fill="#f0f2f5" d="M919,325.7h31.5v-66.2H919V325.7z M948.6,323.8h-27.8v-62.5h27.8V323.8z"/><rect width="29.6" height="47.6" x="1009.5" y="277.2" fill="#f0f2f5" transform="rotate(-180 1024.277 300.96)"/><path fill="#f0f2f5" d="M1053.3,325.7h31.5v-33.4h-31.5V325.7z M1082.9,323.8h-27.8v-29.7h27.8V323.8z"/><rect width="29.6" height="95.2" x="875.1" y="229.5" fill="#f0f2f5" transform="rotate(-180 889.896 277.151)"/><rect width="29.6" height="147.5" x="830.3" y="177.2" fill="#f0f2f5" transform="rotate(-180 845.103 250.997)"/><rect width="29.6" height="121.4" x="785.5" y="203.4" fill="#f0f2f5" transform="rotate(-180 800.309 264.067)"/><path fill="#f0f2f5" d="M695,325.7h31.5v-97.1H695V325.7z M724.6,323.8h-27.8v-93.4h27.8V323.8z"/><rect width="29.6" height="121.4" x="651.1" y="203.4" fill="#f0f2f5" transform="rotate(-180 665.928 264.067)"/><path fill="#f0f2f5" d="M739.8,325.7h31.5v-82.8h-31.5V325.7z M769.4,323.8h-27.8v-79.1h27.8V323.8z"/><g><path fill="#f0f2f5" d="M533.8,823.8c0,0.6,0,1.2,0,1.8c-0.5,39.6-15.8,75.5-40.7,102.6c-0.3,0.3-0.6,0.6-0.9,0.9
								c-0.6,0.6-1.1,1.2-1.7,1.8c-24.7,25.6-58.2,42.6-95.5,46.3c-2.4,0.2-4.9,0.4-7.3,0.6c-2.1,0.1-4.1,0.2-6.2,0.2
								c-0.6,0-1.2,0-1.8,0s-1.2,0-1.8,0c-2.1,0-4.2-0.1-6.2-0.2c-2.5-0.1-4.9-0.3-7.3-0.6c-37.4-3.7-70.8-20.8-95.5-46.3
								c-0.6-0.6-1.1-1.2-1.7-1.8c-0.3-0.3-0.6-0.6-0.9-0.9c-24.9-27-40.3-63-40.7-102.6c0-0.6,0-1.2,0-1.8c0-0.6,0-1.2,0-1.8
								c0.5-39.6,15.8-75.5,40.7-102.6c0.3-0.3,0.6-0.6,0.8-0.9c0.6-0.6,1.1-1.2,1.7-1.8c24.7-25.6,58.1-42.6,95.5-46.3
								c2.4-0.2,4.9-0.4,7.3-0.6c2.1-0.1,4.1-0.2,6.2-0.2c0.6,0,1.2,0,1.8,0s1.2,0,1.8,0c2.1,0,4.2,0.1,6.2,0.2
								c2.5,0.1,4.9,0.3,7.3,0.6c37.4,3.7,70.8,20.8,95.5,46.3c0.6,0.6,1.1,1.2,1.7,1.8c0.3,0.3,0.6,0.6,0.9,0.9
								c24.9,27,40.3,63,40.7,102.6C533.8,822.6,533.8,823.2,533.8,823.8z"/><path fill="#fff" d="M533.8,825.7c0-0.6,0-1.2,0-1.8c0-0.6,0-1.2,0-1.8h-59.4c-0.3-28-6.8-55.5-18.9-80.4
								c13.3-5.9,25.9-13.3,37.6-22.2c-0.3-0.3-0.6-0.6-0.9-0.9c-0.6-0.6-1.1-1.2-1.7-1.8c-11.4,8.6-23.7,15.8-36.7,21.5
								c-1.7-3.3-3.5-6.5-5.3-9.7c-13.5-23-31.9-42.8-53.5-58.2c-2.4-0.2-4.9-0.4-7.3-0.6c26.9,17.7,48.3,42,62.7,69.9
								c-21.9,9.1-45,13.9-68.9,14.1v-84.2c-0.6,0-1.2,0-1.8,0s-1.2,0-1.8,0v84.2c-23.9-0.2-47.1-5-68.9-14.1
								c14.4-28,35.8-52.3,62.7-69.9c-2.5,0.1-4.9,0.3-7.3,0.6c-21.7,15.3-40,35.2-53.5,58.2c-1.9,3.2-3.7,6.4-5.3,9.7
								c-13-5.7-25.3-13-36.7-21.5c-0.6,0.6-1.1,1.2-1.7,1.8c-0.3,0.3-0.6,0.6-0.8,0.9c11.6,8.8,24.2,16.3,37.6,22.2
								c-12.2,24.9-18.6,52.4-18.9,80.4h-59.4c0,0.6,0,1.2,0,1.8c0,0.6,0,1.2,0,1.8h59.4c0.3,28,6.8,55.5,18.9,80.4
								c-13.3,5.9-25.9,13.3-37.6,22.2c0.3,0.3,0.6,0.6,0.9,0.9c0.6,0.6,1.1,1.2,1.7,1.8c11.4-8.6,23.7-15.8,36.7-21.5
								c1.7,3.3,3.5,6.5,5.3,9.7c13.5,23,31.9,42.8,53.5,58.2c2.4,0.2,4.9,0.4,7.3,0.6c-26.9-17.7-48.3-42-62.7-69.9
								c21.9-9.1,45-13.9,68.9-14.1V978c0.6,0,1.2,0,1.8,0s1.2,0,1.8,0v-84.2c23.9,0.2,47.1,5,68.9,14.1
								c-14.4,28-35.8,52.2-62.7,69.9c2.5-0.1,4.9-0.3,7.3-0.6c21.7-15.4,40-35.2,53.5-58.2c1.9-3.2,3.7-6.4,5.3-9.7
								c13,5.7,25.3,13,36.7,21.5c0.6-0.6,1.1-1.2,1.7-1.8c0.3-0.3,0.6-0.6,0.9-0.9c-11.6-8.8-24.2-16.3-37.6-22.2
								c12.2-24.9,18.6-52.4,18.9-80.4H533.8z M377.8,890.1c-24.5,0.2-48.2,5.1-70.6,14.5c-11.9-24.3-18.5-51.2-18.7-78.9h89.3
								V890.1z M377.8,822h-89.3c0.3-27.7,6.9-54.7,18.7-78.9c22.4,9.4,46.1,14.2,70.6,14.5V822z M452.1,904.6
								c-22.4-9.4-46.1-14.2-70.6-14.5v-64.4h89.3C470.5,853.4,463.9,880.3,452.1,904.6z M381.5,822v-64.4
								c24.5-0.2,48.2-5.1,70.6-14.5c11.9,24.3,18.5,51.2,18.7,78.9H381.5z"/></g><g><path fill="#f0f2f5" d="M1950.2,747.6c-4.3-1-8.8-1.4-13.4-1.4c-4.6,0-9.1,0.5-13.4,1.4v16.6c4.2-1.3,8.7-2,13.4-2
								c4.7,0,9.1,0.7,13.4,2c15.2,4.5,27.3,16.5,31.7,31.7h16.6C1993.3,771.8,1974.3,752.7,1950.2,747.6z"/><path fill="#f0f2f5" d="M1950.2,718.8c-4.3-0.7-8.8-1-13.4-1c-4.5,0-9,0.3-13.4,1V735c4.3-0.8,8.8-1.2,13.4-1.2
								c4.5,0,9,0.4,13.4,1.2c30.9,5.5,55.3,29.9,60.8,60.8h16.3C2021.4,756.1,1990,724.6,1950.2,718.8z"/><path fill="#f0f2f5" d="M1950.2,690.2c-4.4-0.5-8.9-0.8-13.4-0.8c-4.5,0-9,0.3-13.4,0.8v16.1c4.4-0.6,8.8-0.9,13.4-0.9
								c4.5,0,9,0.3,13.4,0.9c46.5,6,83.5,43,89.5,89.5h16.1C2049.7,740.4,2005.6,696.3,1950.2,690.2z"/><g><path fill="#f0f2f5" d="M1960.4,791.8c-2.4-4.9-6.3-8.9-11.2-11.2c-3.2-1.6-6.7-2.4-10.5-2.4c-3.7,0-7.3,0.8-10.5,2.4
							c-4.9,2.3-8.8,6.3-11.2,11.2c-1.6,3.1-2.4,6.7-2.4,10.5c0,3.8,0.9,7.3,2.4,10.5c2.3,4.9,6.3,8.8,11.2,11.2
							c3.2,1.6,6.8,2.4,10.5,2.4c3.8,0,7.3-0.8,10.5-2.4c4.9-2.3,8.9-6.3,11.2-11.2c1.6-3.2,2.4-6.7,2.4-10.5
							C1962.8,798.5,1962,794.9,1960.4,791.8z"/></g></g><g><path fill="#f0f2f5" d="M499.7,281.2c4.4-0.7,8.8-1,13.4-0.8c4.6,0.2,9.1,0.9,13.3,2.1l-0.8,16.6c-4.2-1.5-8.6-2.4-13.3-2.6
								c-4.6-0.2-9.2,0.2-13.4,1.3c-15.4,3.7-28,15.2-33.2,30.1l-16.6-0.8C455.5,303.3,475.4,285.2,499.7,281.2z"/><path fill="#f0f2f5" d="M501.1,252.5c4.4-0.5,8.9-0.6,13.4-0.4c4.5,0.2,9,0.8,13.3,1.7L527,270c-4.3-1-8.8-1.7-13.3-1.9
								c-4.5-0.2-9,0-13.4,0.6c-31.1,4-56.7,27.2-63.7,57.7l-16.2-0.8C428.2,286.3,461.2,256.3,501.1,252.5z"/><path fill="#f0f2f5" d="M502.5,223.9c4.4-0.3,8.9-0.4,13.4-0.1c4.5,0.2,9,0.7,13.3,1.5l-0.8,16.1c-4.3-0.8-8.8-1.3-13.3-1.5
								c-4.5-0.2-9-0.2-13.4,0.2c-46.8,3.8-85.5,38.9-93.8,85l-16.1-0.8C400.7,269.2,446.9,227.3,502.5,223.9z"/><g><path fill="#f0f2f5" d="M487.4,324.8c2.6-4.8,6.8-8.6,11.8-10.7c3.3-1.4,6.8-2.1,10.6-1.9c3.7,0.2,7.2,1.2,10.4,2.9
							c4.8,2.6,8.5,6.8,10.6,11.7c1.4,3.2,2.1,6.8,1.9,10.6c-0.2,3.8-1.2,7.2-2.9,10.4c-2.5,4.8-6.7,8.5-11.7,10.6
							c-3.3,1.4-6.9,2.1-10.6,1.9c-3.8-0.2-7.2-1.2-10.4-2.9c-4.8-2.6-8.6-6.8-10.7-11.8c-1.4-3.3-2.1-6.8-1.9-10.6
							C484.7,331.4,485.7,327.9,487.4,324.8z"/></g></g><g><rect width="32.5" height="143.5" x="258.5" y="1041.4" fill="#f0f2f5" transform="rotate(-90 274.754 1113.155)"/><rect width="32.5" height="93.2" x="283.7" y="1138.9" fill="#f0f2f5" transform="rotate(-90 299.912 1185.465)"/><rect width="32.5" height="143.5" x="258.5" y="1186" fill="#f0f2f5" transform="rotate(-90 274.754 1257.775)"/><rect width="32.5" height="102.4" x="279.1" y="1278.9" fill="#f0f2f5" transform="rotate(-90 295.322 1330.085)"/><rect width="32.5" height="86.3" x="287.1" y="1359.2" fill="#f0f2f5" transform="rotate(-90 303.355 1402.395)"/><rect width="32.5" height="51.2" x="304.7" y="1449.1" fill="#f0f2f5" transform="rotate(-90 320.92 1474.705)"/></g><g><path fill="#f0f2f5" d="M1388.7,410.5v247.3c0,17.6-14.3,31.9-31.9,31.9H635.2c-12.1,0-22.6-6.7-28-16.6c4.6,2.6,10,4.2,15.7,4.2
					h721.6c17.6,0,31.9-14.3,31.9-31.9V398c0-5.5-1.4-10.7-3.9-15.3C1382.2,388.2,1388.7,398.6,1388.7,410.5z"/></g></g><path fill="#1f4168" d="M1758.4,1776.6H452.3c-31.9,0-57.8-25.9-57.8-57.8v-847c0-31.9,25.9-57.8,57.8-57.8h1306.1
						c31.9,0,57.8,25.9,57.8,57.8v847C1816.2,1750.7,1790.3,1776.6,1758.4,1776.6z"/><path fill="#fff" d="M1760.2,1747.3H450.5c-7,0-12.7-5.7-12.7-12.7V855.9c0-7,5.7-12.7,12.7-12.7h1309.7
						c7,0,12.7,5.7,12.7,12.7v878.7C1772.9,1741.6,1767.2,1747.3,1760.2,1747.3z"/><path fill="#1b1a2e" d="M425.1 1295.2c0 5-4 9-9 9-5 0-9-4-9-9 0-5 4-9 9-9C421 1286.2 425.1 1290.2 425.1 1295.2zM688.8 813.8L688.8 813.8h-90.3l0 0c0-3.9 3.1-7 7-7h76.4C685.7 806.8 688.8 810 688.8 813.8zM903.9 813.8L903.9 813.8H749.5l0 0c0-3.9 3.1-7 7-7H897C900.8 806.8 903.9 810 903.9 813.8zM1760.2 1747.3l-166.2.6-166.2.3-332.4.3-332.4-.3-166.2-.3-83.1-.3-41.6-.1-20.8-.1c-1.7 0-3.5-.2-5.1-.8-1.6-.6-3.1-1.5-4.4-2.7-2.5-2.4-4-5.8-4-9.3 0 3.5 1.5 6.9 4 9.2 1.3 1.2 2.8 2.1 4.4 2.7 1.6.6 3.4.8 5.1.7l20.8-.1 41.6-.1 83.1-.3 166.2-.3 332.4-.3 332.4.3 166.2.3L1760.2 1747.3zM1772.9 855.9l.6 112.3.3 112.3.3 224.7-.3 224.7-.3 112.3-.3 56.2-.1 28.1 0 7c0 1.2 0 2.4-.3 3.5-.3 1.1-.6 2.3-1.2 3.3-.5 1-1.2 2-2 2.9-.4.5-.8.8-1.3 1.2-.5.3-.9.7-1.4 1-2 1.2-4.3 1.9-6.7 1.9 2.3 0 4.7-.7 6.6-1.9.5-.3 1-.7 1.4-1 .4-.4.9-.8 1.3-1.2.8-.8 1.4-1.8 2-2.9.5-1 .9-2.2 1.1-3.3.2-1.1.2-2.3.2-3.5l0-7-.1-28.1-.3-56.2-.3-112.3-.3-224.7.3-224.7.3-112.3L1772.9 855.9zM450.5 843.1l166.2-.6 166.2-.3 332.4-.3 332.4.3 166.2.3 83.1.3 41.6.1 20.8.1c1.7 0 3.5.2 5.1.8 1.6.6 3.1 1.5 4.4 2.7 2.5 2.4 4 5.8 4 9.3 0-3.5-1.5-6.9-4-9.2-1.3-1.2-2.8-2.1-4.4-2.7-1.6-.6-3.4-.8-5.1-.7l-20.8.1-41.6.1-83.1.3-166.2.3-332.4.3-332.4-.3-166.2-.3L450.5 843.1zM437.7 1734.5l-.6-112.3-.3-112.3-.3-224.7.3-224.7.3-112.3.3-56.2.1-28.1 0-7c0-1.2 0-2.4.3-3.5.3-1.1.6-2.3 1.2-3.3.5-1 1.2-2 2-2.9.4-.5.8-.8 1.3-1.2.5-.3.9-.7 1.4-1 2-1.2 4.3-1.9 6.7-1.9-2.3 0-4.7.7-6.6 1.9-.5.3-1 .7-1.4 1-.4.4-.9.8-1.3 1.2-.8.8-1.4 1.8-2 2.9-.5 1-.9 2.2-1.1 3.3-.2 1.1-.2 2.3-.2 3.5l0 7 .1 28.1.3 56.2.3 112.3.3 224.7-.3 224.7-.3 112.3L437.7 1734.5z"/><g><path fill="#1b1a2e" d="M1516.3,1643.7H500.7V892.5h1015.7V1643.7z M501.7,1642.7h1013.7V893.5H501.7V1642.7z"/><rect width="170.1" height="170.1" x="1539.4" y="893" fill="#f0f2f5"/><rect width="170.1" height="170.1" x="1539.4" y="1086.6" fill="#f0f2f5"/><rect width="170.1" height="170.1" x="1539.4" y="1279.9" fill="#f0f2f5"/><rect width="170.1" height="170.1" x="1539.4" y="1473.1" fill="#f0f2f5"/><rect width="209.1" height="9.2" x="501.2" y="1679.5" fill="#f0f2f5"/><rect width="127.3" height="9.2" x="501.2" y="1696.8" fill="#f0f2f5"/></g><g><path fill="#ffc89f" d="M1679.2,1636c0,0-20.2-7.3-37-43.8l-33.3,39.7l20.6,36.9C1629.5,1668.9,1681.4,1672.7,1679.2,1636z"/><path fill="#f9a21b" d="M1724.2,1006.6c-33.4-3.4-22.4-34.5-22.4-34.5s-7.4-2.3-2.7-24.7c4.7-22.3-3.6-64.3-3.6-64.3
				c-3.9,12.7-10.1,29-15.8,43.1c-9.3,23.1-11.5,48.5-6.1,72.9c8.2,36.8,20.7,76.6,20.9,77.5c0,0,0,0,0,0c-6.1,4-12.7,7.6-19.7,10.8
				c-57.8,26.5-140.3,26.1-169.5,23.7c-26.8-2.2-54.7-10.1-74.9-17.1c-17.3-6-29.1-11.2-29.8-11.6l0,0c9.4-44.3,20-137.9,25.6-198.2
				c0,0,0,0,0-0.1c1.5-15.9,2.6-29.5,3.3-39.2c0.1-1.3,0.1-2.6,0.1-3.9c0-10.9-3.3-21.7-9.5-30.8c-4.5,0.9-6-4-6-4
				c-3.4,2.5-9.3,1.7-9.3,1.7c-18.1,16.4-80,14.2-80,14.2c-5.8,1.6-11.1,2.2-15.9,2.2c-21.3,0-33.5-12.4-33.5-12.4
				c-2.2,0-4.1-1.7-4.4-3.9c-1.8-13.3-12.9-35.5-12.9-35.5s-16.1-23,11.2-44.1c28.6-22,60.1-18.2,59.2,0.2c-0.8,16.2,8,17.2,8,17.2
				c-0.9-11.9,24.1-5.6,24.1-5.6s-6.4-13.7,13.9-15.6c9.5-0.9,17.8-5.5,23.8-10.2c5.4-4.1,9.5-9.8,11.2-16.4c2.9-11.1,17.7-3,17.7-3
				s5.6-11.7,26.1-11.3c20.6,0.4,57.9-5.3,57.9-5.3c12.2-11.9,16.7-20.8,28.4-13.9c11.7,6.9,21,12.8,39.7,16
				c11.8,2,25.5,1.5,34.7,0.8c5.5-0.4,10.5-2.7,14.7-6.2c2.9-2.4,6.9-3.6,10.7,2.6c8.1,13,14.1,13.4,14.1,13.4s46.3,12.8,72.8,33.8
				c29.9,23.7,30.4,73.2,27.5,116.4c-1.8,27.4,0.5,46.5,2.2,55.8c0.5,2.8,2,5.4,4.2,7.3c3.4,2.9-0.1,12.6-0.1,12.6
				c12,4.9,5.3,20.6,5.3,20.6C1810.5,994.2,1757.6,1009.9,1724.2,1006.6z"/><path fill="#a65b3c" d="M1694.6 1076.5c-6.1 4-12.7 7.6-19.7 10.8l2-22.1C1676.9 1065.2 1688.7 1072.8 1694.6 1076.5 1694.6 1076.5 1694.6 1076.5 1694.6 1076.5zM1431.3 1073.2l-.7 20.7c-17.3-6-29.1-11.2-29.8-11.6l0 0C1413.5 1064.9 1431.3 1073.2 1431.3 1073.2z" opacity=".4"/><path fill="#1f4168" d="M1609.5,742.1c-8.7,2.4-15,10.1-15.9,19.1c0,0.3-0.1,0.5-0.1,1c-0.2,2.7,0.2,5.4,1.1,8
				c3.6,11.1,13.4,49.7,4.3,125.4c-2.1,17.7-3.3,35.5-3.8,52.7v0c0,0.3,0,0.8,0,1.5c-0.6,22-0.2,43,0.6,61.5v0.1
				c1.8,37,5.4,64.2,6.1,69.8c-38.2,2.2-76.8,0.7-109.6-2c-1.4-17.4-1.7-34.5-1.4-51.2c0.8-40.6,5.6-78.6,8.6-110.3
				c0.6-6.6,1.2-13,1.6-19v-0.1c0.1-0.7,0.1-1.4,0.1-2.1c0-0.1,0-0.1,0-0.2v-0.1c0.4-5.7,0.6-11.2,0.6-16.3
				c0.1-5.1-0.1-9.8-0.4-14.3c-1.5-19.7,1.4-35.1,5.2-46.2c1.7-4.9,3.5-9,5.2-12.3c4.3-8.2,6.6-17.2,7-26.4l1.5-34.4
				c-5-36.2,1.9-58,5.9-67c1.2-2.7,4.4-3.8,7-2.5c0,0,0,0,0,0c35.3,17.3,70,12.9,86.1,9.3c1.3-0.3,2.5-0.6,3.5-0.9
				c3.1-0.8,6.2,1.4,6.4,4.6C1632.5,728.6,1619.4,739.4,1609.5,742.1z"/><path fill="#1b1a2e" d="M1489.6,644.1c0,0,0.5,12.7,15.8,12.7c0,0-0.2,5,7,7.3c0,0-1.5-1.8-1.9-3.5c0,0,0.5,2.6,6.4,3.9
					c0,0,0.3,5.6,9.7,6.7c0,0-0.6-2.8,0-5.6c0,0-0.2,7.9,12.7,6.5c0,0-2-1.9-2.3-2.7c0,0,5.2,3.5,13.5,2.7
					c8.3-0.8,11.8,0.2,11.8,0.2s5.3-4.5,18-5.9c12.8-1.4,14.4-3.8,14.4-3.8s-3.5,6-10.4,7.3c0,0,10.6,0.9,16.7-3.9
					c0,0-3.6,3.1-1.3,6.3c0,0,1.4-4.6,5.5-5.3c0,0-1.4,5,2.9,7.1c0,0,0.8-3.1,6.6-3.1s8.7-1.4,8.7-1.4s-1.2,2.2-3.5,3.2
					c0,0,7.1-1.9,14.3-1.1s14.2-5.2,14.5-10.8c0,0,1,4.9-3.2,8.7c0,0,15.8-3.5,13.4-19.3l7.3-38.1l-19.4-52.1l-6.1-43.6l-32-29.8
					l-20,2h-40.3l-21.9,46.3l-33.2,52.4l-7,32.5l-11,14.9c0,0-0.4,7.1,7,10.5c0,0,0.4-4.8,5.8-7.2L1489.6,644.1z"/><path fill="#ffc89f" d="M1615.6,682.9c0.2-19,0-75.9,0-75.9h-78.2v70.8c0,2-2.1,3.3-3.9,2.5l0,0c0,0-5.3,46.4,38.9,48.2
							c29.4,1.2,47.2-17.4,47.2-38.9C1619.4,689.6,1615.5,690.3,1615.6,682.9z"/><path fill="#ffc89f" d="M1564.3,661.7L1564.3,661.7c28.8,0,52.1-23.3,52.1-52.1v-63.7c0-28.8-23.3-52.1-52.1-52.1h0
							c-28.8,0-52.1,23.3-52.1,52.1v63.7C1512.2,638.4,1535.5,661.7,1564.3,661.7z"/><path fill="#ff9a6c" d="M1537.4,654.2v10.5c6.6,0.5,17.3,0.7,26.9-4C1556.5,662.6,1544,658.6,1537.4,654.2z"/><path fill="#ffc89f" d="M1621.5,607.5h-2.7c-5.4,0-9.7-4.3-9.7-9.7v-17.3c0-5.4,4.3-9.7,9.7-9.7h2.7c5.4,0,9.7,4.3,9.7,9.7v17.3
							C1631.2,603.2,1626.9,607.5,1621.5,607.5z"/><path fill="#ff9a6c" d="M1620 581.1c1.1-.1 2.4.4 3.3 1.2.5.4.9.9 1.2 1.4.3.5.6 1.1.8 1.6.4 1.1.6 2.4.6 3.6 0 1.2-.2 2.4-.7 3.6-.5 1.1-1.1 2.2-2.1 3.1-.5.4-1 .8-1.7 1-.3.1-.8.2-1.2.1-.5-.1-.9-.4-1.1-.8-.4-.7-.5-1.3-.6-1.9 0-.6 0-1.2 0-1.8.1-1.2.3-2.3.6-3.4 0 1.1.1 2.3.2 3.4.1.5.1 1.1.3 1.6.1.5.3 1 .5 1.3.1.1.2.2.3.2.1 0 .2 0 .4-.1.4-.2.8-.5 1.1-.8.7-.7 1.2-1.6 1.6-2.5.4-1 .6-2 .6-3 .1-1 0-2.1-.3-3.1-.2-1-.6-2-1.3-2.8C1622 582 1621.1 581.4 1620 581.1zM1617.6 585.7c-.5-.6-.8-1.3-1-2-.2-.7-.2-1.5 0-2.2.1-.4.2-.8.5-1.2.2-.4.6-.7 1-.9.9-.4 1.7-.1 2.3.3-.7.2-1.3.5-1.6.8-.3.3-.4.7-.5 1.3-.1.5-.2 1.1-.3 1.8C1618 584.3 1617.9 584.9 1617.6 585.7z"/><path fill="#1b1a2e" d="M1526.7,570.4c0,2.6,2.1,4.7,4.7,4.7s4.7-2.1,4.7-4.7c0-2.6-2.1-4.7-4.7-4.7S1526.7,567.8,1526.7,570.4z
								"/><path fill="#1b1a2e" d="M1522.9 566.3c1.2-1.3 2.7-2.3 4.4-3 1.7-.7 3.5-1.1 5.3-1 .5 0 .9.1 1.4.1l.7.1c.2 0 .4.1.7.1.4.1.9.2 1.3.3.4.2.8.3 1.3.5l.6.3.6.3 1.2.7c.7.5 1.4 1.1 2.1 1.6-.8-.4-1.6-.8-2.4-1.1l-1.2-.5-.6-.2-.6-.2c-.4-.1-.8-.2-1.2-.4l-1.2-.2c-.2 0-.4-.1-.6-.1l-.6-.1c-.4 0-.8-.1-1.3-.1-.4 0-.8 0-1.3 0-.4 0-.8.1-1.3.1-.4.1-.8.2-1.2.2-.4.1-.8.2-1.2.3C1525.9 564.6 1524.3 565.4 1522.9 566.3zM1575.9 570.4c0 2.6 2.1 4.7 4.7 4.7 2.6 0 4.7-2.1 4.7-4.7 0-2.6-2.1-4.7-4.7-4.7C1578 565.7 1575.9 567.8 1575.9 570.4z"/><path fill="#1b1a2e" d="M1572.1 566.3c1.2-1.3 2.7-2.3 4.4-3 1.7-.7 3.5-1.1 5.3-1 .5 0 .9.1 1.4.1l.7.1c.2 0 .4.1.7.1.4.1.9.2 1.3.3.4.2.8.3 1.3.5l.6.3.6.3 1.2.7c.7.5 1.4 1.1 2.1 1.6-.8-.4-1.6-.8-2.4-1.1l-1.2-.5-.6-.2-.6-.2c-.4-.1-.8-.2-1.2-.4l-1.2-.2c-.2 0-.4-.1-.6-.1l-.6-.1c-.4 0-.8-.1-1.3-.1-.4 0-.8 0-1.3 0-.4 0-.8.1-1.3.1-.4.1-.8.2-1.2.2-.4.1-.8.2-1.2.3C1575.1 564.6 1573.6 565.4 1572.1 566.3zM1551.6 587.8c0 2-.2 4.1-.4 6.1-.2 2-.4 4-.7 6-.2 1-.3 1.9-.2 2.9 0 1 .2 1.9.6 2.8.4.9.9 1.7 1.7 2.2.8.6 1.7 1.2 2.5 1.8-.9-.4-1.9-.8-2.8-1.3-1-.5-1.7-1.4-2.2-2.3-.5-1-.8-2-.9-3.1-.1-1.1.1-2.2.2-3.1.3-2 .6-4 1-6C1550.6 591.8 1551 589.8 1551.6 587.8z"/><path fill="#e43f5a" d="M1568.6,616.7c-0.2,1-0.6,2-1.2,3c-1.1,1.9-3,3.5-5.3,4.2c-1.1,0.4-2.4,0.5-3.6,0.5
							c-0.6,0-1.2-0.1-1.7-0.3c-0.5-0.2-1.1-0.3-1.6-0.6c-2-0.9-3.6-2.4-4.5-4.4c1.6-0.1,2.9,0,4.1,0c0.5,0,1,0,1.4,0
							c0.4,0,0.8-0.1,1.1-0.1c0.3-0.1,0.7-0.1,1-0.2c0.7-0.1,1.3-0.3,1.9-0.5c1.2-0.4,2.4-1,3.8-1.8c1-0.6,2.1-1.3,3.3-2.2
							c0.4-0.3,0.9-0.6,1.4-0.9C1568.9,614.6,1568.8,615.7,1568.6,616.7z"/><path fill="#fff" d="M1567.3,614.4c0,0.2,0,0.3,0,0.5c-0.1,0.9-0.4,1.7-0.8,2.4c-0.8,1.5-2.3,2.9-4.2,3.5
							c-1.9,0.6-4,0.4-5.6-0.4c-0.7-0.4-1.3-0.8-1.8-1.4c0.5,0,1,0,1.4,0c0.4,0,0.8-0.1,1.1-0.1c0.3-0.1,0.7-0.1,1-0.2
							c0.7-0.1,1.3-0.3,1.9-0.5c1.2-0.4,2.4-1,3.8-1.8C1565,616,1566.1,615.2,1567.3,614.4z"/><path fill="#1b1a2e" d="M1522.9 553.2c.2-1.1.8-1.9 1.4-2.7.3-.4.7-.8 1.1-1.1.2-.2.4-.3.6-.5.2-.1.4-.3.6-.4 1.7-1.1 3.9-1.7 6-1.6.5 0 1 .1 1.6.1l.8.1c.3.1.5.1.7.2.5.2 1 .3 1.5.5.5.2.9.5 1.3.8.2.1.4.3.6.4.2.2.4.3.6.5.4.3.7.7 1.1 1.1.3.4.6.8.9 1.3.3.4.5.9.7 1.4-1.1.1-2-.1-2.9-.1-.4 0-.9 0-1.3-.1-.2 0-.4-.1-.6-.1-.2 0-.4 0-.6 0-.4 0-.8-.1-1.1-.1-.4 0-.7 0-1.1 0-.2 0-.4 0-.5 0-.2 0-.4 0-.5 0l-.5 0c-.2 0-.3 0-.5 0-1.4-.1-2.8 0-4.3.1C1526.6 552.9 1525 553 1522.9 553.2zM1572.1 553.2c.2-1.1.8-1.9 1.4-2.7.3-.4.7-.8 1.1-1.1.2-.2.4-.3.6-.5.2-.1.4-.3.6-.4 1.7-1.1 3.9-1.7 6-1.6.5 0 1 .1 1.6.1l.8.1c.3.1.5.1.7.2.5.2 1 .3 1.5.5.5.2.9.5 1.3.8.2.1.4.3.6.4.2.2.4.3.6.5.4.3.7.7 1.1 1.1.3.4.6.8.9 1.3.3.4.5.9.7 1.4-1.1.1-2-.1-2.9-.1-.4 0-.9 0-1.3-.1-.2 0-.4-.1-.6-.1-.2 0-.4 0-.6 0-.4 0-.8-.1-1.1-.1-.4 0-.7 0-1.1 0-.2 0-.4 0-.5 0-.2 0-.4 0-.5 0l-.5 0c-.2 0-.3 0-.5 0-1.4-.1-2.8 0-4.3.1C1575.8 552.9 1574.2 553 1572.1 553.2z"/><path fill="#1b1a2e" d="M1668.6,576.9c0,0,6.4-12-5.1-22.2c-1.9-1.7-3.5-3.2-4.9-4.6c-5-5-8-11.6-8.8-18.6
					c-1.8-16-8.2-26.8-16-34.1c-12.6-11.8-30.6-15.7-47.1-10.5l0,0c0,0,0,0,0,0c-1.4-6.8-7.1-11.9-14-12.8
					c-37.9-4.8-54.6,19.5-54.6,19.5c-12.7,9.2-20.2,21.1-25.1,30.7c-4.8,9.4-5.5,22.3-1.7,33.1l1.8,5c-6.2,6.8-1.7,15.2-1.7,15.2
					c-20.3,12.8-19.8,29.3-19.8,29.3c-12.6,10.4-5.9,23.5-5.9,23.5c-0.1-6.1,4.6-10.4,4.6-10.4c-7.7,14,7.1,24.4,7.1,24.4
					c-3.6-14.4,10.8-20,10.8-20s4.8,5.9-2.7,12.3c-7.5,6.4-3.8,11.7-3.8,11.7c-0.3-4.1,4-6.9,4-6.9c-5.3,10.5,4.7,13.1,4.7,13.1
					s-4.8-7.7,1.8-14.3c6.6-6.6,11.6-12.6,6.6-26.9c-5-14.3,0-24.6,0-24.6c1,0.4,2.1,0.6,2.1,0.6c5.3-11.6,15.9-22,23.9-28.7
					c4.7-4,10.1-7.1,15.7-9.6c26.3-11.5,16.7-49,16.7-49c4-3.8,15.1-2.5,15.1-2.5s6.6,1.8,8.6,29.9c2,28.1,13.4,38.5,13.4,38.5
					s-7.1,22.4,7.5,31.9c0,0-0.5,20.4,16,24.6c0,0-2,5.2-13.6,9.8c-11.6,4.6-11.1,15.5-6.2,20.3c0,0,1.7-8.8,11.1-13.9
					c9.4-5.1,12-13.4,12-13.4s3.3,22.9-18.7,30.1c-21.9,7.2-15,21.3-15,21.3s0.4-10.4,14.3-14.9c-1.9,0.7-12.3,5.2-11.4,18.9
					c1,15.1,17.7,14.8,23.7,9.2c0,0-12.2-4.7-7.9-18c1.9-5.7,6.1-10.4,11.5-13c7.6-3.7,20.3-11.6,21-23.9c0,0,12.8-13,1.2-30.4
					c0.5,0.2,20.6,10.1,6.7,21.4c0,0,8.9,1.5,11.7-8.4c0,0,5.2,8.1-6.1,20.4c-11.3,12.3-3.7,20,7.3,19.5c0,0,0,0,0,0
					c-4.6-0.3-5.8-6.6-1.6-8.6c7.1-3.4,19.5-11.8,16.1-28.6c0,0,1.5-5.9-3-11.3c0,0,1.8-5,1.8-8.2c0,0,0.4,2.3,0.3,4.6
					c0,0,5.5-6.1,3.2-13.8c0,0,2.2,4.4,1.2,8.8C1677.4,602.5,1685.7,591.2,1668.6,576.9z M1650.5,558c-0.9-7.2-0.3-13.3-0.3-13.3
					s1.5,6.5,6.5,12.7c5,6.2,3.6,13.9,3.6,13.9S1651.8,569,1650.5,558z M1670.8,598.7c0,0-3.7-9-11-17.1c-7.3-8-7.3-13.9-7.3-13.9
					s5.5,6.1,11,10.6C1669,582.8,1673.4,590.8,1670.8,598.7z"/><path fill="#1f4068" d="M1501 589.4c1.1-3 2.6-5.8 4.3-8.4 1.7-2.7 3.6-5.2 5.7-7.6 2.1-2.4 4.3-4.6 6.6-6.8 2.3-2.1 4.7-4.1 7.3-6-2.2 2.2-4.5 4.4-6.7 6.6-2.2 2.2-4.3 4.5-6.4 6.9-2 2.3-4 4.8-5.8 7.3C1504.2 584 1502.5 586.7 1501 589.4zM1490.9 565.8c-.3 1.1-.6 2.2-.6 3.3-.1 1.1-.1 2.2.1 3.3.3 2.2 1.1 4.3 2.2 6.3.5 1 1.1 2 1.7 2.9.6.9 1.3 1.8 2 2.7 1.4 1.8 3 3.4 4.7 5-2-1.2-3.7-2.7-5.3-4.4-1.6-1.7-3-3.6-4.1-5.6-.5-1-1-2.1-1.4-3.3-.3-1.1-.6-2.3-.7-3.5-.1-1.2 0-2.4.2-3.5C1490 568 1490.4 566.9 1490.9 565.8zM1490.4 654.6c-1.6-2.5-2.4-5.6-1.8-8.6.1-.8.4-1.5.7-2.2l.5-1c.2-.3.4-.6.6-1 .4-.7 1-1.2 1.5-1.8.5-.5 1-1 1.6-1.5 2.1-2 4.1-4.2 5.5-6.8 1.4-2.6 1.9-5.5 1.7-8.4-.2-2.9-.9-5.7-1.8-8.5-.4-1.4-.9-2.8-1.4-4.2l-.5-2.2-.4-2.2c-.4-3-.5-6-.1-8.9.4-2.9 1.1-5.9 2.5-8.5l.1.1c-1 2.8-1.5 5.7-1.7 8.5-.2 2.9 0 5.8.4 8.6l.4 2.1.5 2.1c.4 1.4.8 2.8 1.2 4.2.9 2.8 1.5 5.8 1.4 8.8 0 .7 0 1.5-.1 2.2-.1.4-.1.7-.1 1.1l-.2 1.1-.1.5-.2.5-.3 1.1c-.3.7-.5 1.4-.9 2-.2.3-.3.7-.5 1l-.6 1c-.2.3-.4.6-.6.9-.2.3-.4.6-.6.9-.9 1.2-1.8 2.3-2.8 3.4-.5.5-1 1.1-1.5 1.6l-.7.8c-.1.1-.2.3-.3.4l-.3.4c-.8 1.1-1.4 2.4-1.7 3.8-.3 1.4-.4 2.8-.2 4.2.1.7.2 1.4.4 2.1C1489.9 653.2 1490.1 653.9 1490.4 654.6L1490.4 654.6z"/><path fill="#1f4068" d="M1481.7 648.4c-.2-.7-.2-1.4-.1-2.2.2-.7.4-1.4.8-2 .4-.6.8-1.2 1.4-1.7.5-.5 1.1-.9 1.8-1.2l.9-.5-.6.9c-.7 1.1-1.2 2.5-1.3 3.8-.1 1.3 0 2.6.4 3.8.4 1.2 1.1 2.2 2.1 3.1.9.9 2 1.6 3.3 2.2l0 .1c-1.4-.1-2.7-.7-3.9-1.5-1.2-.8-2.1-2.1-2.5-3.5-.2-.7-.3-1.4-.3-2.2 0-.7.2-1.4.4-2.1.4-1.4 1-2.6 1.5-3.9l.4.3c-.5.4-.9 1-1.4 1.5-.4.5-.8 1-1.2 1.6-.4.5-.7 1.1-.9 1.7-.3.6-.4 1.3-.5 1.9L1481.7 648.4zM1477.4 644.4c-.7-2-1.1-4.1-.9-6.2.1-1.1.3-2.1.6-3.2.3-1 .8-2 1.3-3 1.1-1.9 2.6-3.5 4.3-4.8 1.7-1.3 3.6-2.3 5.6-2.9-1.8 1-3.5 2.3-5 3.6-.7.7-1.5 1.4-2.1 2.2-.7.8-1.2 1.6-1.7 2.5-1 1.7-1.7 3.6-2 5.6C1477.1 640.3 1477.2 642.3 1477.4 644.4zM1659.5 659.5c-1 .2-2.1-.1-3-.8-.9-.7-1.5-1.7-1.7-2.8-.2-1.1 0-2.3.6-3.2.6-.9 1.5-1.6 2.5-1.8-.8.7-1.4 1.4-1.7 2.2-.3.8-.4 1.7-.2 2.6.2.9.5 1.7 1.1 2.3C1657.7 658.7 1658.5 659.2 1659.5 659.5z"/><path fill="#1f4068" d="M1650.1,651.6c-0.4,1.3-0.7,2.7-0.5,3.9c0.1,0.6,0.3,1.2,0.7,1.7c0.3,0.5,0.8,0.9,1.3,1.2
					c1,0.6,2.4,0.7,3.7,0.8c1.3,0.1,2.7,0.1,4.1,0.3v0l0,0l0,0v0c-1.4,0.3-2.7,0.6-4.1,0.7c-1.4,0.1-2.9,0-4.3-0.7
					c-0.7-0.4-1.3-0.9-1.7-1.6c-0.4-0.7-0.7-1.4-0.7-2.2C1648.7,654.1,1649.3,652.7,1650.1,651.6z"/><path fill="#1f4068" d="M1647.8,661.2c-0.5-0.8-0.8-1.6-0.9-2.5c-0.1-0.9-0.1-1.8,0.1-2.7c0.1-0.5,0.3-0.9,0.4-1.3
					c0.2-0.4,0.4-0.8,0.7-1.2c0.5-0.8,1.2-1.4,2-1.8c-0.4,0.8-0.9,1.5-1.2,2.3c-0.3,0.7-0.6,1.5-0.8,2.3c-0.2,0.8-0.3,1.6-0.3,2.4
					C1647.8,659.5,1647.8,660.3,1647.8,661.2z"/><path fill="#1f4068" d="M1658.4,619.6c0.7,0.9,1.1,1.9,1.5,3c0.2,0.5,0.3,1.1,0.4,1.6c0,0.6,0.1,1.1,0.1,1.7
					c0,2.3-0.6,4.5-1.6,6.5c-1.1,2-2.5,3.7-4,5.3c-0.3,0.4-0.8,0.8-1.2,1.2c-0.4,0.4-0.8,0.8-1.2,1.2l-2.4,2.2
					c-1.6,1.5-3.1,3-4.6,4.6c-1.4,1.6-2.7,3.3-3.5,5.2c-0.4,0.9-0.6,1.9-0.6,2.9c0.1,1,0.5,1.9,1.2,2.7c0.7,0.8,1.5,1.5,2.4,2
					c0.4,0.3,0.9,0.5,1.4,0.8l1.5,0.7l0,0.1c-0.5-0.1-1.1-0.3-1.6-0.4c-0.5-0.2-1.1-0.3-1.5-0.6l-0.8-0.4c-0.2-0.1-0.5-0.3-0.7-0.4
					c-0.2-0.1-0.5-0.3-0.7-0.5c-0.2-0.2-0.5-0.4-0.6-0.6c-0.8-0.8-1.5-1.9-1.6-3.2c-0.2-1.2,0.1-2.4,0.5-3.5
					c0.9-2.2,2.4-3.9,3.9-5.5c1.5-1.6,3.2-3,5-4.4c0.9-0.7,1.7-1.3,2.6-2c0.8-0.8,1.6-1.5,2.3-2.3c0.7-0.9,1.4-1.7,1.9-2.6
					c0.3-0.5,0.6-0.9,0.8-1.4l0.7-1.4c0.8-1.9,1.5-4,1.6-6.1c0-0.5,0-1.1,0-1.6c-0.1-0.5-0.1-1.1-0.2-1.6
					C1659,621.7,1658.7,620.7,1658.4,619.6L1658.4,619.6z"/><path fill="#1f4068" d="M1646.6,628c1.3-0.1,2.6-0.3,3.8-0.7c1.2-0.4,2.3-0.9,3.3-1.7c0.3-0.2,0.5-0.4,0.7-0.6
					c0.2-0.2,0.5-0.4,0.7-0.6l0.6-0.7c0.2-0.3,0.4-0.5,0.6-0.8l0.3-0.4l0.2-0.4l0.5-0.8c0.3-0.6,0.6-1.2,0.9-1.7
					c-0.1,0.7-0.2,1.3-0.4,2l-0.4,1l-0.2,0.5l-0.2,0.4c-0.6,1.2-1.6,2.3-2.7,3.1c-0.3,0.2-0.6,0.4-0.9,0.6c-0.3,0.2-0.6,0.3-0.9,0.5
					l-1,0.3c-0.3,0.1-0.7,0.2-1,0.2C1649.3,628.5,1647.9,628.4,1646.6,628z"/><path fill="#1f4068" d="M1639.9,606.6c2.2,0.8,4.3,2,6.2,3.5c1.9,1.4,3.6,3.2,4.8,5.4c0.6,1.1,1,2.3,1.1,3.6
					c0.1,1.3-0.1,2.5-0.6,3.7c-0.5,1.1-1.2,2.2-2,3c-0.2,0.2-0.4,0.4-0.6,0.6l-0.7,0.6c-0.5,0.4-1,0.7-1.4,1.1
					c0.4-0.4,0.8-0.9,1.2-1.3c0.4-0.5,0.8-0.9,1.1-1.4l0.5-0.7l0.4-0.7c0.2-0.2,0.3-0.5,0.4-0.8c0.1-0.3,0.2-0.5,0.3-0.8
					c0.8-2.1,0.5-4.4-0.6-6.4c-0.5-1-1.2-1.9-1.9-2.8c-0.7-0.9-1.6-1.7-2.4-2.4C1643.8,609.3,1641.9,607.9,1639.9,606.6z"/><path fill="#1f4068" d="M1638.7 637c1.7-2.2 2.9-4.6 3.9-7.1.9-2.5 1.5-5.2 1.6-7.8.1-1.3 0-2.7-.2-4-.1-.7-.2-1.3-.3-2l-.2-1c-.1-.3-.2-.7-.3-1-.8-2.6-1.9-5.1-3.2-7.5 1.7 2.1 3.1 4.6 4.1 7.2.5 1.3.8 2.7 1.1 4.1.2 1.4.3 2.8.3 4.2-.1 1.4-.2 2.8-.5 4.2-.3 1.4-.8 2.7-1.3 4-.6 1.3-1.3 2.5-2 3.6C1640.6 635 1639.8 636.1 1638.7 637zM1617.8 660.9c2.4-1.4 4.7-2.9 7-4.5 2.2-1.6 4.4-3.3 6.3-5.3 1.9-1.9 3.7-4 5-6.4 1.3-2.4 2.3-5 2.7-7.7.1 2.8-.6 5.6-1.9 8.1-1.2 2.5-3 4.8-5 6.8-2 2-4.2 3.7-6.6 5.2C1622.9 658.6 1620.4 659.9 1617.8 660.9zM1609.2 640.6c1.2-.9 2.5-1.8 3.6-2.8 1.2-1 2.2-2 3.2-3.1.5-.6 1-1.1 1.5-1.7.5-.6 1-1.2 1.4-1.8.9-1.2 1.7-2.6 2.2-4l.3-.8.1.8c.3 2.2.4 4.5.3 6.7-.1 2.3-.6 4.5-1.2 6.7-.6 2.2-1.7 4.2-3 6.1-.3.5-.7.9-1 1.4l-1.1 1.3c-.2.2-.4.4-.6.6-.2.2-.4.4-.6.6-.4.4-.9.7-1.3 1.1l-.1-.1c1.4-1.7 2.8-3.4 3.9-5.3l.4-.7.4-.7c.2-.5.5-1 .7-1.5l.6-1.5c.2-.5.4-1 .5-1.5.7-2.1 1.2-4.2 1.5-6.4.2-1.1.3-2.2.4-3.3.1-1.1.1-2.2-.1-3.3l.3 0c-.5 1.5-1.2 2.9-1.9 4.2-.8 1.4-1.6 2.7-2.7 3.8-1.1 1.1-2.2 2.2-3.5 3.1-.6.5-1.3.8-2 1.2-.3.2-.7.3-1 .5-.3.2-.7.3-1.1.5L1609.2 640.6zM1617.8 624.4c-.2.7-.5 1.4-.9 2-.4.6-.9 1.2-1.4 1.7-.5.5-1 1-1.6 1.5-.6.4-1.2.9-1.8 1.3-.6.4-1.2.8-1.9 1.1-.6.3-1.3.6-2 .9-.7.3-1.3.5-2 .8-.7.2-1.4.4-2.1.6.6-.4 1.2-.7 1.9-1.1.6-.4 1.2-.7 1.8-1.1 1.2-.7 2.4-1.4 3.6-2.2 1.2-.7 2.3-1.6 3.4-2.5C1616 626.5 1617 625.6 1617.8 624.4zM1611.8 533c-.1 1.6-.2 3.1-.3 4.7-.1 1.5-.3 3.1-.5 4.6-.4 3.1-.9 6.2-1.5 9.2-.6 3-1.4 6.1-2 9.1-.6 3-1.2 6.1-1.7 9.2l-1.4 9.2c-.2 1.5-.5 3.1-.7 4.6-.2 1.5-.4 3.1-.6 4.6-.7 6.1-1.2 12.3-.5 18.5l-.1 0c-.6-3-1-6.2-1-9.3 0-.8 0-1.6 0-2.3l.1-2.3c0-1.6.2-3.1.4-4.7.3-3.1.8-6.2 1.4-9.2.5-3.1 1.2-6.1 1.9-9.1.7-3 1.4-6.1 1.9-9.1.3-1.5.5-3.1.8-4.6l.7-4.6 3.1-18.3L1611.8 533zM1650.2 544.6c.1 3.4.3 6.8.4 10.1 0 .8 0 1.7.1 2.5 0 .8.1 1.7.3 2.5.3 1.7.9 3.3 1.8 4.7.9 1.4 2.1 2.6 3.3 3.6 1.3 1 2.8 1.8 4.3 2.6 1.5.8 3 1.6 4.4 2.7 1.4 1.1 2.6 2.2 3.7 3.5l-.1.1c-1.4-1-2.7-2-4.2-2.9-1.4-.9-2.9-1.6-4.5-2.3-1.5-.8-3-1.7-4.4-2.8-.7-.6-1.3-1.2-1.8-1.9-.5-.7-1-1.5-1.4-2.2-.8-1.6-1.2-3.2-1.7-4.9-.4-1.7-.7-3.4-1-5.1-.2-1.7-.2-3.4-.2-5.1.1-1.7.2-3.4.6-5.1L1650.2 544.6z"/><path fill="#1f4068" d="M1671.5 602.2c-1.4-4-3.6-7.5-5.5-11.3-.5-.9-1-1.9-1.6-2.7-.6-.9-1.2-1.8-1.8-2.6-1.3-1.7-2.8-3.1-4.1-4.9-2.6-3.4-4.7-7.2-6.2-11.2-.8-2-1.5-4-2-6.1-.6-2.1-1-4.1-1.3-6.2l.1 0c1.2 4 2.7 8 4.3 11.9 1.7 3.8 3.5 7.6 6 11 .6.8 1.2 1.7 1.8 2.6l.9 1.3c.3.4.6.9.9 1.3.6.9 1.2 1.7 1.8 2.6l1.9 2.6.9 1.3c.3.4.6.9.8 1.4.3.5.5.9.8 1.4.2.5.5 1 .7 1.4.9 1.9 1.6 4 1.8 6.1L1671.5 602.2zM1495.5 561.5c3.4-2.2 7.1-3.8 10.9-5.2 3.8-1.4 7.7-2.5 11.7-3.2 1-.2 2-.3 3-.5 1-.2 2-.3 3-.4 1-.1 2-.2 3-.4 1-.2 2-.4 2.9-.7 3.8-1.2 7.2-3.5 9.8-6.6 1.3-1.5 2.3-3.2 3.1-5 .8-1.8 1.4-3.7 1.8-5.6.4-1.9.7-3.9.9-5.9.1-1 .2-2 .2-3l.2-3c.3-4 .9-8 1.7-12 .4-2 .9-3.9 1.6-5.9.2-.5.3-1 .5-1.4l.3-.7.3-.7c.5-.9.9-1.8 1.7-2.5l.1.1c-.3.3-.6.8-.8 1.2-.1.2-.2.4-.3.7-.1.2-.2.5-.3.7l-.3.7-.2.7c-.2.5-.3.9-.4 1.4-.5 1.9-.9 3.9-1.3 5.8-.7 3.9-1 7.9-1.3 11.9l-.2 3c-.1 1-.1 2-.3 3-.2 2-.6 4-1 6-.4 2-1.1 4-2 5.8-.9 1.8-2.1 3.5-3.5 5-2.8 3-6.3 5.2-10.1 6.5-1 .3-1.9.6-2.9.8-1 .2-2 .4-3 .5-2 .3-3.9.7-5.9 1.1-3.9.9-7.8 1.9-11.6 3.1-1.9.6-3.8 1.3-5.6 2C1499.2 559.9 1497.3 560.7 1495.5 561.5L1495.5 561.5zM1594 567.7c.1-3.5.5-6.9 1-10.4.3-1.7.5-3.4.9-5.1.4-1.7.8-3.4 1.2-5.1 1.7-6.7 2.6-13.6 4.3-20.4.4-1.7.8-3.4 1.3-5 .2-.8.4-1.7.6-2.5l.2-1.3.2-1.3c.1-.4.1-.8.2-1.3l.1-1.3c0-.9.1-1.7.1-2.6 0-1.7-.1-3.4-.4-5.1-1.1-6.7-4.4-13.2-9.5-17.8l.1-.1c1.4 1 2.6 2.3 3.8 3.6 1.1 1.3 2.1 2.8 3 4.3 1.8 3 3 6.4 3.7 9.8.3 1.7.5 3.5.5 5.3.1 1.8-.1 3.5-.3 5.3-.2 1.8-.6 3.5-1 5.2-.4 1.7-.9 3.3-1.4 5-1.7 6.7-3.9 13.3-4.9 20.2l-.8 5.1c-.3 1.7-.6 3.4-.9 5.1-.6 3.4-1.2 6.8-1.9 10.2L1594 567.7z"/><path fill="#1f4068" d="M1594.2 488.6c.9 1.1 1.4 2.5 1.8 3.8.4 1.4.6 2.7.7 4.1.3 2.8.2 5.6 0 8.4-.4 5.6-1.5 11.1-2.8 16.4-.6 2.7-1 5.5-.9 8.2 0 2.8.2 5.5.5 8.3.6 5.5 1.4 10.9 2.8 16.3l-.1 0c-.6-1.3-1.1-2.6-1.5-3.9-.4-1.3-.8-2.7-1.1-4-.6-2.7-1-5.5-1.2-8.3-.1-1.4-.1-2.8-.1-4.2 0-1.4.1-2.8.3-4.2l.7-8.3c.1-.7.2-1.4.3-2.1.1-.7.2-1.4.4-2.1l.8-4.1c.5-2.7.9-5.5 1.2-8.2.3-2.7.4-5.5.3-8.3-.1-1.4-.2-2.7-.5-4.1-.1-.3-.1-.7-.2-1-.1-.3-.2-.7-.3-1C1594.8 489.9 1594.5 489.2 1594.2 488.6L1594.2 488.6zM1571 499.1c-1.5-.8-3.1-1.6-4.6-2.2-.8-.3-1.6-.6-2.4-.8-.8-.2-1.6-.4-2.4-.4-.8 0-1.6.1-2.2.4-.6.3-1.1 1-1.4 1.7-.6 1.5-.8 3.2-.9 4.9-.4-1.7-.5-3.5 0-5.3.3-.9.9-1.7 1.7-2.3.9-.5 1.9-.7 2.8-.7 1.9.1 3.5.8 5.1 1.6C1568.3 496.9 1569.7 497.9 1571 499.1z"/><path fill="#1f4068" d="M1573.1,498.8c1.2-2.9,3.3-5.4,5.7-7.5c2.4-2.1,5.2-3.7,8.1-4.9l2.3-0.8l0.6-0.2c0.2-0.1,0.4-0.1,0.6-0.1
					l1.2-0.3c1.5-0.4,3.1-0.6,4.7-0.7c0.8-0.1,1.6-0.1,2.4-0.1l2.4,0c1.6,0.1,3.1,0.3,4.7,0.4c-1.6,0.1-3.1,0.1-4.7,0.1l-2.3,0.2
					c-0.8,0.1-1.5,0.1-2.3,0.3c-0.8,0.1-1.5,0.3-2.3,0.4l-0.6,0.1l-0.6,0.1l-1.1,0.3l-1.1,0.3c-0.2,0-0.4,0.1-0.6,0.1l-0.5,0.2
					l-2.2,0.8c-2.8,1.1-5.5,2.6-8,4.5C1576.9,493.9,1574.7,496.1,1573.1,498.8z"/><path fill="#1f4068" d="M1594.1 485.2c1.4-.1 2.7 0 4.1.3 1.3.3 2.7.8 3.9 1.5 2.4 1.4 4.5 3.4 6 5.7 1.5 2.3 2.5 5 3.1 7.6.6 2.7.9 5.4.8 8.1-.4-2.7-1-5.3-1.7-7.9-.4-1.3-.8-2.5-1.4-3.7-.5-1.2-1.1-2.4-1.9-3.5-.7-1.1-1.5-2.2-2.4-3.1-.9-.9-1.9-1.8-3-2.5-1.1-.7-2.3-1.3-3.6-1.7C1596.7 485.6 1595.4 485.3 1594.1 485.2zM1615.3 571.3c-.8 3.1-1.2 6.2-1.3 9.4-.1 1.6-.1 3.2 0 4.7.1 1.6.2 3.1.4 4.7.4 3.1 1.1 6.2 2.1 9.2 1 3 2.4 5.8 4 8.5.4.7.9 1.3 1.3 2l1.4 1.9c1 1.3 1.9 2.6 2.8 3.9 1.8 2.7 3.3 5.5 4.4 8.5 1.1 3 1.9 6.1 2.2 9.3.1 1.6.1 3.2 0 4.8-.1 1.6-.4 3.2-1 4.7.8-3.1.8-6.3.4-9.4-.4-3.1-1.3-6.2-2.5-9.1-1.2-2.9-2.7-5.7-4.5-8.3-.9-1.3-1.8-2.6-2.8-3.8l-1.5-1.9c-.4-.7-.9-1.3-1.3-2-1.7-2.7-3.1-5.7-4.1-8.7-1-3.1-1.7-6.2-2-9.4C1612.8 583.8 1613.4 577.3 1615.3 571.3z"/><path fill="#1f4068" d="M1617.8 617.3c-1.1-1.7-2-3.4-2.7-5.2-.7-1.8-1.4-3.7-1.8-5.7-.5-1.9-.8-3.9-1.1-5.9-.2-2-.4-4-.4-5.9 0-2 0-4 .2-5.9.1-2 .3-3.9.6-5.9.6-3.9 1.5-7.8 2.7-11.5-.8 3.8-1.4 7.7-1.8 11.6-.4 3.9-.6 7.8-.5 11.7.1 3.9.4 7.8 1.2 11.6.4 1.9.9 3.8 1.5 5.7C1616.2 613.7 1617 615.5 1617.8 617.3zM1575.1 499.5c.6.1 1.1.4 1.6.8.5.4.9.8 1.3 1.2.8.9 1.4 2 1.9 3 1 2.2 1.6 4.5 2 6.8.2 1.2.3 2.3.4 3.5l.2 3.5.4 7c.3 4.6.6 9.3 1.2 13.8.3 2.3.7 4.6 1.3 6.8.3 1.1.6 2.2 1 3.3.4 1 .9 2.1 1.7 2.9l-.1.1c-.5-.3-.9-.8-1.2-1.3-.3-.5-.7-1-.9-1.5-.6-1-1-2.1-1.4-3.3-.8-2.2-1.2-4.5-1.6-6.9-.1-1.2-.3-2.3-.4-3.5-.1-1.2-.2-2.3-.2-3.5 0-1.2-.1-2.3-.1-3.5 0-1.2 0-2.3.1-3.5.1-2.3.1-4.6-.1-7-.1-.6-.1-1.2-.2-1.7l-.3-1.7c-.2-1.1-.4-2.3-.7-3.4-.5-2.2-1-4.5-1.8-6.6-.4-1.1-.9-2.1-1.5-3-.6-.9-1.4-1.8-2.4-2.3L1575.1 499.5zM1640 510.1c.3 3.5 0 7.1-.5 10.6-.3 1.7-.6 3.5-1.1 5.2-.5 1.7-1 3.4-1.7 5-1.3 3.3-3.1 6.4-5.1 9.3-1 1.5-2.1 2.8-3.2 4.2-1.2 1.3-2.3 2.7-3.6 3.8-.3.3-.6.6-1 .9l-1 .9c-.7.6-1.4 1.1-2 1.7-1.3 1.1-2.5 2.3-3.6 3.7-1 1.3-1.9 2.8-2.4 4.4-.5 1.6-.5 3.3-.1 4.9.4 1.6 1.2 3.1 2.2 4.5 1 1.4 2.2 2.6 3.5 3.8 2.6 2.3 5.5 4.3 8.4 6.2l-.1.1c-3.1-1.6-6.2-3.4-9-5.6-1.4-1.1-2.7-2.4-3.8-3.8-1.1-1.4-2.1-3-2.5-4.8-.5-1.8-.5-3.8.1-5.5.6-1.8 1.6-3.4 2.7-4.7 1.1-1.4 2.5-2.6 3.9-3.7 1.4-1.1 2.9-2 4.2-3.2 1.3-1.1 2.6-2.3 3.8-3.6 1.1-1.3 2.2-2.7 3.2-4.2.5-.7.9-1.5 1.4-2.2.4-.8.8-1.5 1.2-2.3.8-1.6 1.4-3.2 2-4.8 2.4-6.5 3.8-13.4 4.1-20.4L1640 510.1z"/><path fill="#1f4068" d="M1625.9 546.8c-1.8 1.6-3.5 3.4-4.9 5.3-1.4 1.9-2.5 4-3.1 6.3-.6 2.2-.4 4.7.7 6.9 1 2.2 2.8 3.9 4.7 5.4 3.9 2.8 7.7 5.9 11.1 9.4 1.7 1.7 3.4 3.5 4.9 5.5 1.5 1.9 2.9 3.9 3.9 6.1l-.1.1c-.7-1-1.4-2-2.2-2.9-.8-.9-1.6-1.8-2.4-2.7-1.6-1.8-3.3-3.5-5-5.2-1.7-1.7-3.5-3.3-5.2-5-.9-.8-1.8-1.6-2.7-2.4-.9-.8-1.8-1.6-2.7-2.4-.5-.4-.9-.8-1.3-1.3l-.6-.7-.6-.7c-.8-.9-1.5-2-2.1-3l-.4-.8-.3-.9c-.1-.3-.2-.6-.3-.9l-.1-.4c0-.2-.1-.3-.1-.5-.2-1.2-.3-2.5 0-3.8.5-2.5 1.7-4.7 3.3-6.6C1621.9 549.6 1623.7 548 1625.9 546.8L1625.9 546.8zM1572.5 495c-1.5-1.1-2.9-2.1-4.5-2.9-1.5-.8-3.1-1.6-4.8-1.8-1.6-.3-3.3-.1-4.7.9-1.4.9-2.5 2.4-3.4 3.9.1-.4.3-.9.4-1.3.2-.4.4-.8.6-1.2.4-.8 1.1-1.5 1.8-2.1.7-.6 1.6-1 2.6-1.2 1-.2 1.9-.2 2.9 0 1.9.4 3.6 1.2 5.1 2.2C1570 492.3 1571.4 493.6 1572.5 495zM1551.3 486.6c1.8-1.6 3.9-2.8 6.1-3.5 2.3-.8 4.7-1 7.1-.9 2.4.2 4.8.8 6.9 1.8 2.2 1 4.2 2.3 6 3.8-2.1-1.1-4.2-2.1-6.3-2.9-2.2-.8-4.4-1.3-6.7-1.5-2.3-.2-4.6 0-6.8.6C1555.5 484.4 1553.4 485.4 1551.3 486.6zM1517.6 551.2c2.7-1.1 5.1-2.8 7.3-4.8 2.1-2 4-4.2 5.4-6.7 1.5-2.5 2.6-5.2 3.3-8 .8-2.8 1.3-5.7 1.5-8.6l.3-2.2c.1-.7.2-1.5.3-2.2l.6-4.4c.4-2.9.9-5.8 1.8-8.7.8-2.8 2-5.6 3.4-8.2.2-.3.4-.6.6-1l.6-.9c.4-.6.8-1.2 1.3-1.8.4-.6.9-1.2 1.4-1.7.5-.6 1-1.1 1.5-1.6l.1.1c-3.5 4.8-5.9 10-7.8 15.5-.9 2.8-1.8 5.5-2.4 8.4-.3 1.4-.6 2.9-.7 4.3-.1.7-.1 1.5-.1 2.2l0 2.2c-.1 5.9-1.6 11.9-4.8 17-1.6 2.5-3.5 4.8-5.8 6.7-1.1 1-2.4 1.8-3.6 2.5-1.3.7-2.6 1.4-4 1.8L1517.6 551.2zM1518.2 493.7c-3.2 4.8-5.3 10.2-6.8 15.7-.8 2.8-1.4 5.6-1.6 8.5-.2 2.9-.1 5.8 0 8.6.1 2.9.3 5.8.3 8.7.1 2.9.1 5.8-.2 8.7-.3 2.9-.8 5.8-2.1 8.5-.6 1.3-1.5 2.6-2.5 3.7-1 1.1-2.3 1.9-3.6 2.5l-.1-.1c2.5-1.5 4.3-3.8 5.3-6.4 1-2.6 1.4-5.5 1.7-8.3.5-5.7.3-11.5.4-17.3.2-5.8.1-11.6 1.3-17.3.6-2.9 1.6-5.6 2.8-8.3C1514.6 498.2 1516.1 495.7 1518.2 493.7L1518.2 493.7zM1491.1 589.4c-.3.6-.6 1.2-.9 1.8l-.4.9-.4.9c-.3.6-.5 1.2-.8 1.8l-.7 1.9c-.8 2.5-1.5 5-1.9 7.6-.4 2.6-.7 5.2-.5 7.9.1 2.6.7 5.3 1.5 7.8.2.6.4 1.2.7 1.9.2.6.5 1.2.8 1.8.1.3.3.6.5.9.2.3.3.6.5.9.3.6.5 1.3.7 2 .3 1.4.2 2.9-.2 4.2-.4 1.4-1.2 2.6-2.1 3.6-.5.5-.9 1-1.5 1.5l-1.5 1.3c-.3.2-.5.5-.7.7-.2.2-.5.5-.7.7-.4.5-.8 1-1.1 1.6-.7 1.1-1.2 2.3-1.3 3.6-.1 1.3 0 2.6.6 3.8l-.1.1c-.4-.6-.7-1.2-.9-1.8-.2-.7-.3-1.3-.3-2 0-1.4.4-2.8 1.1-4 .3-.6.7-1.2 1.1-1.8.2-.3.4-.5.7-.8.2-.3.4-.5.7-.8 1-1 2-1.8 2.8-2.8.8-1 1.5-2.1 1.9-3.2.4-1.2.5-2.4.3-3.6-.1-.6-.3-1.2-.5-1.8-.1-.3-.3-.6-.4-.9-.1-.3-.3-.6-.4-.9-.6-1.2-.9-2.6-1.2-3.9-.6-2.6-1-5.3-1.2-7.9-.2-2.7-.3-5.4-.1-8 .3-2.7 1-5.3 2-7.8C1488.1 593.9 1489.5 591.6 1491.1 589.4L1491.1 589.4zM1628.9 626.8c.7 2.1.9 4.2 1 6.4 0 1.1-.1 2.2-.2 3.3-.1.5-.2 1.1-.3 1.6-.1.5-.2 1.1-.4 1.6-.6 2.1-1.5 4.1-2.5 6-1 1.9-2.1 3.8-3.4 5.5-1.3 1.7-2.9 3.3-4.6 4.6-1.7 1.4-3.5 2.6-5.3 3.7-3.7 2.2-7.8 3.9-12 4.6l0-.1c4-1.4 7.8-3.3 11.4-5.6 1.8-1.1 3.6-2.3 5.2-3.6 1.7-1.3 3.2-2.7 4.7-4.2 1.4-1.5 2.7-3.3 3.7-5.2 1-1.9 1.5-4 1.9-6 .4-2.1.7-4.1.8-6.3.1-2.1.1-4.2-.2-6.4L1628.9 626.8zM1617.3 493.6c3.1 2.6 5.5 6 7.3 9.7 1.8 3.7 2.8 7.7 3.3 11.8.2 2 .2 4.1.2 6.2l-.1 1.5c0 .5-.1 1-.2 1.5l-.2 1.5-.3 1.5c-.7 4-2 7.9-3.6 11.7 1.2-3.9 2.2-7.8 2.7-11.8.3-2 .4-4 .5-6 0-2 0-4-.2-6-.4-4-1.4-7.9-3-11.6-.8-1.8-1.7-3.6-2.8-5.3C1619.9 496.7 1618.7 495.1 1617.3 493.6zM1647.4 527.3c-2.1 9.3-3.5 18.7-4.1 28.1-.2 2.4-.3 4.7-.3 7.1-.1 2.4 0 4.7.2 7.1.4 4.7 1.2 9.4 2.7 13.9 1.4 4.5 3.4 8.8 6 12.7 2.6 3.9 5.8 7.4 9.2 10.6 1.7 1.6 3.5 3.2 5.3 4.8 1.7 1.6 3.5 3.3 4.9 5.3 1.5 1.9 2.6 4.2 3.1 6.5.5 2.4.5 4.8.1 7.2l-.1 0c.2-2.4.1-4.7-.5-7-.6-2.3-1.8-4.3-3.3-6.1-1.5-1.8-3.2-3.4-5-5-1.8-1.6-3.6-3.1-5.3-4.7-1.8-1.6-3.5-3.3-5-5.1-1.6-1.8-3-3.8-4.3-5.8-2.6-4.1-4.5-8.5-5.7-13.1-.7-2.3-1.1-4.6-1.5-7-.2-1.2-.4-2.4-.5-3.5-.2-1.2-.3-2.4-.4-3.5-.4-4.7-.6-9.5-.5-14.3.2-4.8.8-9.5 1.6-14.2.8-4.7 1.9-9.3 3.4-13.9L1647.4 527.3z"/><path fill="#1f4068" d="M1644.4 540.7c-.4 3.1-1.1 6.2-2.2 9.2-.5 1.5-1.1 3-1.7 4.4l-.8 2.2c-.2.7-.5 1.5-.7 2.2-.9 2.9-1.3 6-1 9.1.3 3.1 1.1 6.1 1.9 9.1-1.3-2.9-2.4-5.9-2.8-9-.2-1.6-.3-3.2-.1-4.8l.1-1.2c.1-.4.2-.8.2-1.2.1-.8.4-1.6.6-2.3.9-3.1 2.3-5.9 3.5-8.8C1642.6 546.7 1643.6 543.8 1644.4 540.7zM1508.3 621.2c1.2 2.9 2 5.9 2.6 9 .3 1.5.5 3.1.7 4.7.2 1.6.2 3.1.3 4.7 0 3.2-.4 6.4-1.4 9.4-1 3-2.7 5.9-5.2 7.8 2.1-2.3 3.5-5.1 4.3-8.1.4-1.5.7-3 .8-4.5.2-1.5.3-3.1.2-4.6 0-3.1-.3-6.2-.7-9.2C1509.6 627.3 1509 624.2 1508.3 621.2z"/><path fill="#1f4068" d="M1511.2,636.3c0.6,2.1,0.8,4.4,0.8,6.6c0.1,2.2-0.1,4.4-0.3,6.6c-0.1,1.1-0.3,2.2-0.5,3.3
					c-0.2,1.1-0.4,2.1-0.4,3.2c-0.1,1.1-0.1,2.2,0,3.2c0.1,1.1,0.3,2.2,0.9,3.1c-0.4-0.3-0.8-0.8-1-1.3c-0.2-0.5-0.4-1.1-0.5-1.6
					c-0.3-1.1-0.3-2.2-0.3-3.4c0-1.1,0.1-2.2,0.3-3.3c0.2-1.1,0.3-2.2,0.5-3.2c0.3-2.2,0.5-4.3,0.6-6.5
					C1511.3,640.7,1511.4,638.5,1511.2,636.3z"/><path fill="#f9a21b" d="M1701.1,1701.6c-3.4,9.3-6,18.8-7.9,28.5c-3.2,15.9-10.5,41.4-37.3,46.7h-60.9
						c-12.7,0-21.5-12.9-16.7-24.6c0.1-0.2,0.2-0.4,0.2-0.6c0.4-0.9,0.8-1.7,1.3-2.5h0c0.7-1,1.4-2,2.3-2.9l21.9-22.2
						c0,0-6.1-52.4,7.4-65.1c0,0-5.4-8.3-2.6-15.8c4.5-12.1,34.6-7.7,34.6-7.7l11.6-0.4c6.6-0.2,12,5,12,11.6v4.3
						c0,0,10.6-0.4,12.1-16.3c0,0,14.6,12.3,19.4,31.1c0,0,7.8-0.3,8.4,11C1707.5,1682.6,1704.3,1692.9,1701.1,1701.6z"/><path fill="#f2f2f2" d="M1701.1,1701.6c-3.4,9.3-6,18.8-7.9,28.5c-3.2,15.9-10.5,41.4-37.3,46.7h-60.9
						c-12.7,0-21.5-12.9-16.7-24.6c0.1-0.2,0.2-0.4,0.2-0.6c0.4-0.9,0.8-1.7,1.3-2.5h0c3.7-1.7,7.4,1.4,10.4,5.6
						c6.8,9.3,18.1,14.3,29.6,13.4c10.1-0.7,22.8-2.3,36-5.4c21.3-5.1,27.5-28.8,29.8-41.3c1.2-6.3,2.9-12.6,5.2-18.6
						c7.4-19.3,7.7-37.1,7.7-37.1s7.8-0.3,8.4,11C1707.5,1682.6,1704.3,1692.9,1701.1,1701.6z"/><path fill="#f2f2f2" d="M1590.4 1756.4c-.8 0-1.5-.6-1.5-1.4 0-.8.6-1.5 1.4-1.6.7 0 67.7-4 96.6-42.6.5-.7 1.5-.8 2.1-.3.7.5.8 1.4.3 2.1C1659.6 1752.3 1591.2 1756.3 1590.4 1756.4 1590.5 1756.3 1590.5 1756.4 1590.4 1756.4zM1695 1696.6c-.7 0-1.4-.5-1.5-1.3-3.7-26.7-16.2-42.4-16.4-42.6-.5-.6-.4-1.6.2-2.1.6-.5 1.6-.4 2.1.2.5.7 13.2 16.5 17 44.1.1.8-.5 1.6-1.3 1.7C1695.1 1696.6 1695 1696.6 1695 1696.6zM1611.7 1659.1c1.3-.9 2.8-1.4 4.3-1.8 1.5-.4 3.1-.5 4.6-.5 1.6.1 3.1.2 4.6.6.8.2 1.5.4 2.2.7.7.3 1.4.6 2.1.9-.8-.1-1.5-.3-2.2-.4-.8-.1-1.5-.3-2.2-.4-1.5-.2-3-.4-4.5-.4-1.5 0-3 0-4.5.2C1614.6 1658.3 1613.1 1658.5 1611.7 1659.1z"/><path fill="#1f4168" d="M1612.6 1677.8c-6.1 0-9.3-1.5-9.5-1.6-1.3-.6-1.8-2.1-1.2-3.4.6-1.2 2.1-1.8 3.3-1.2.1.1 5.8 2.5 16.9-.1 1.4-.3 2.7.5 3 1.9.3 1.4-.5 2.7-1.9 3C1619.1 1677.4 1615.5 1677.8 1612.6 1677.8zM1610.7 1691.7c-6.1 0-9.3-1.5-9.5-1.6-1.3-.6-1.8-2.1-1.2-3.4.6-1.2 2.1-1.8 3.3-1.2.2.1 5.8 2.5 16.9-.1 1.4-.3 2.7.5 3 1.9.3 1.4-.5 2.7-1.9 3C1617.3 1691.4 1613.7 1691.7 1610.7 1691.7zM1610.7 1706.4c-6.1 0-9.3-1.5-9.5-1.6-1.3-.6-1.8-2.1-1.2-3.4.6-1.2 2.1-1.8 3.3-1.2.2.1 5.8 2.5 16.9-.1 1.4-.3 2.7.5 3 1.9.3 1.4-.5 2.7-1.9 3C1617.3 1706 1613.7 1706.4 1610.7 1706.4z"/><path fill="#f2f2f2" d="M1604.2,1724.1c0,0,15.1-3.8,29.5,1.4v-43.6c0-14.2,10-26.4,23.9-29.1c1.8-0.4,3.7-0.6,5.7-0.8
						c8.2-0.8,14.8-7.4,15.7-15.6c0.1-0.5,0.1-1,0.2-1.6c0,0,4.1,10.1-1.6,21.3c-2.4,4.7-7.5,10-12.6,14.5c-9.2,8.1-14.6,19.7-15,32
						l0.7,20.1c0.1,3.3-1.3,6.4-4,8.4c-4.7,3.5-13.7,6.5-25.9,2.7c-19.2-6.1-23-3.3-23-3.3L1604.2,1724.1z"/><path fill="#1b1a2e" d="M1662.5,1298.2c35.1-153.7,14.4-233,14.4-233c-18.3-12.1-42,13.9-76.1,9.3l-2.3-21.4c0,0-30.5,20.4-58.7,13
				c-31.4-8.2-48.9-8.3-48.9-8.3l1.2,21.5c-22.7-7.3-37.3,7.8-61-6.1c-11.5,38.8-8.2,115.6-8.2,115.6
				c-4,116.9,33.1,254.2,33.1,254.2c2.9,20,14.5,26.3,14.5,26.3c8.7,20,58.8,73.3,58.8,73.3c-4.3,20-5.2,61.4-5.2,61.4
				c-21.4,29.5-19.4,65.1-19.4,65.1l0,0c-1.4-0.3-2.8,0.6-3,2.1l-4.5,27.1c-0.2,1.1,0.4,2.2,1.4,2.7c17.9,8.4,43.4,11.1,55.4,11.9
				c4,0.3,7.7-1.9,9.4-5.5l6.5-13.6c2.1-4.4,0.6-9.7-3.5-12.4l0,0l18-37.1c24.2,1.6,38.7-13.3,47.3-28.9c0,0,0,0,0,0
				c5.7-8.4,11.1-24.6,13.8-33.2c1.1-3.6,0.6-7.6-1.3-10.8l-5.4-9.1c-1.7-2.9-5.6-3.6-8.3-1.6v0l-12.2-21.1L1662.5,1298.2z
				 M1546.7,1355.7c-3.3,30.3-5.6,38.1-5.6,38.1s-1.1-25.6-2.9-44.2c-1.9-18.7,10.7-62.8,10.7-62.8c0.5,21.2,3.9,30.7,3.9,30.7
				S1549.3,1332,1546.7,1355.7z"/><path fill="#f9a21b" d="M1586.8,1765.8v3.8c0,3.6-2.9,6.5-6.5,6.5l-79.2,0.8c-3.1,0-5.8-2.1-6.4-5.2c-1.1-6.3,3.4-9.1,3.4-9.1
						c-3.6-7.2-2.1-18.3-0.8-22.3c1.3-4.1,2.1-8.3,2.1-12.6v-2c0-2.9-0.4-5.8-0.9-8.7c-2.5-12.8,2.4-19.6,2.7-19.9c0,0,0,0,0,0
						s-4.7-24.1,28.7-23.3c36.8,1,29,25,29,25c0.1,0.2,0.1,0.3,0.2,0.5c3,9.2,2.6,19.3,2.6,19.3c5.6,13.2,13.6,16.9,20.9,25.2
						c2.9,3.3,3.8,7,3.8,10.4c0,5.1-2,9.2-2,9.2C1585.7,1763.3,1586.8,1764.4,1586.8,1765.8z"/><path fill="#f2f2f2" d="M1586.8,1765.8v3.8c0,3.6-2.9,6.5-6.5,6.5l-79.2,0.8c-3.1,0-5.8-2.1-6.4-5.2c-1.1-6.3,3.4-9.1,3.4-9.1
						l0,0c8,0,15.8-2.9,21.8-8.2l7.2-6.4c5.3-4.6,13.2-4.2,18,0.9l4.2,4.5c6.1,6.6,14.6,10.4,23.6,10.6c3.8,0.1,7.7-0.1,11.4-0.7
						C1585.7,1763.3,1586.8,1764.4,1586.8,1765.8z"/><path fill="#f2f2f2" d="M1519.8 1749.7c-10.7 0-18.6-5.3-22.3-15.3-.3-.8.1-1.7.9-1.9.8-.3 1.7.1 1.9.9 5.7 15.6 20.8 14.2 29.3 11.9 4.2-1.1 8.6-1.3 13.1-.5 24.4 4.4 35.7-5.3 35.8-5.3.6-.6 1.6-.5 2.1.1.6.6.5 1.6-.1 2.1-.5.4-12.6 10.7-38.4 6-4-.7-8-.6-11.8.4C1526.6 1749.2 1523 1749.7 1519.8 1749.7zM1560.7 1732.2c-21.7-8.2-45.2-2.8-51.1-1.2-.6.2-1.2-.4-1.1-1 .9-6.1-.3-14.4-1.3-19.5-.4-2.2-3.2-3-4.7-1.3-3.8 4.3-3.9 7.8-3.9 7.8-2.5-12.8 2.4-19.6 2.7-19.9 0 0 0 0 0 0 .1 0 .2-.1.2-.1 6.7-3.7 15.2 0 16.8 7.5 1.2 5.4 1.3 10.4 1.3 12.6 0 .6.5 1 1.1.9 13.9-2 26.3 0 30.2.8.6.1 1.2-.4 1.1-1.1-.7-4.3-1.6-7.8-2.5-10.5-1.9-5.8 4.3-11 9.6-8.1.1 0 .1.1.2.1 3 9.2 2.6 19.3 2.6 19.3-1.4 5.1-.5 10 .2 12.6C1562.1 1731.9 1561.4 1732.5 1560.7 1732.2z"/><path fill="#f2f2f2" d="M1515.1,1700.1c2.1-1.6,4.5-2.8,7-3.8c2.5-1,5.1-1.7,7.7-2.1c1.3-0.2,2.7-0.3,4-0.4c1.3,0,2.7,0,4,0.2
						c0.7,0.1,1.3,0.1,2,0.3l2,0.4c0.7,0.1,1.3,0.3,1.9,0.6c0.6,0.2,1.3,0.4,1.9,0.6c-2.6-0.5-5.2-1-7.8-1.1c-1.3-0.1-2.6,0-3.9,0
						c-1.3,0.1-2.6,0.2-3.9,0.4c-2.6,0.4-5.1,1-7.6,1.8l-1.8,0.7c-0.6,0.2-1.2,0.5-1.8,0.7
						C1517.5,1698.9,1516.3,1699.5,1515.1,1700.1z"/><path fill="#1f4168" d="M1522.4,1707c-1.2,0-1.9-0.9-2-1.1c-0.8-1.1-0.5-2.7,0.6-3.5c0.1-0.1,0.3-0.2,0.5-0.3
							c3.2-1.6,14-6,25.6-1c1.3,0.5,1.9,2,1.3,3.3c-0.5,1.3-2,1.9-3.3,1.3c-9.7-4.1-18.9-0.3-21.4,0.9
							C1523.2,1706.9,1522.8,1707,1522.4,1707z"/><path fill="#1f4168" d="M1522.4,1712.3c-1.2,0-1.9-0.9-2-1.1c-0.8-1.1-0.5-2.7,0.6-3.5c0.1-0.1,0.3-0.2,0.5-0.3
							c3.2-1.6,14-6,25.6-1c1.3,0.5,1.9,2,1.3,3.3c-0.5,1.3-2,1.9-3.3,1.3c-9.7-4.1-18.9-0.3-21.4,0.9
							C1523.2,1712.2,1522.8,1712.3,1522.4,1712.3z"/><path fill="#1f4168" d="M1522.4,1717.6c-1.2,0-1.9-0.9-2-1.1c-0.8-1.1-0.5-2.7,0.6-3.5c0.1-0.1,0.3-0.2,0.5-0.3
							c3.2-1.6,14-6,25.6-1c1.3,0.5,1.9,2,1.3,3.3c-0.5,1.3-2,1.9-3.3,1.3c-9.7-4.1-18.9-0.3-21.4,0.9
							C1523.2,1717.5,1522.8,1717.6,1522.4,1717.6z"/><g opacity=".8"><path fill="#fff" d="M1534.7 787.9c.8-1.4 1.9-2.4 3.3-3.2 1.4-.7 3-1.1 4.7-1 2.1.1 4 .7 5.5 1.9 1.5 1.2 2.5 2.8 2.9 4.7l-4.8-.2c-.3-.8-.8-1.4-1.5-1.8-.6-.4-1.4-.6-2.2-.7-1.4 0-2.5.4-3.3 1.3-.9.9-1.3 2.2-1.4 3.7 0 1.6.3 2.9 1.1 3.8.8 1 1.9 1.5 3.3 1.5.8 0 1.6-.1 2.3-.5.7-.4 1.2-.9 1.6-1.7l4.8.2c-.6 1.9-1.6 3.5-3.2 4.5-1.6 1.1-3.4 1.6-5.6 1.5-1.8-.1-3.3-.5-4.7-1.3-1.4-.8-2.4-1.9-3.1-3.4-.7-1.4-1.1-3-1-4.8C1533.4 790.9 1533.9 789.3 1534.7 787.9zM1559.6 788l-.1 3.7 5.9.2-.1 3.4-5.9-.2-.1 4 6.7.2-.1 3.5-11.1-.3.6-18.1 11.1.3-.1 3.5L1559.6 788zM1573.9 802c-1.4-.8-2.5-2-3.3-3.4-.8-1.4-1.2-3-1.1-4.8.1-1.8.5-3.3 1.4-4.7.9-1.4 2-2.4 3.5-3.2 1.4-.7 3-1.1 4.7-1 1.7.1 3.2.5 4.6 1.3 1.4.8 2.5 2 3.2 3.4.8 1.4 1.1 3 1.1 4.8-.1 1.8-.5 3.3-1.4 4.7-.9 1.4-2 2.5-3.5 3.2-1.4.7-3 1.1-4.7 1C1576.8 803.3 1575.3 802.8 1573.9 802zM1582.1 798c.9-.9 1.4-2.2 1.4-3.8 0-1.6-.3-2.9-1.2-3.9-.8-1-2-1.5-3.4-1.5-1.5 0-2.6.4-3.5 1.3-.9.9-1.4 2.2-1.4 3.8 0 1.6.3 2.9 1.2 3.9.8 1 2 1.5 3.4 1.5C1580.1 799.3 1581.2 798.9 1582.1 798z"/></g><path fill="#a65b3c" d="M1450.8 701.6c0 0 15.6 17.4 39.3 10.2 0 0 24.7 37.2 26.6 78.7 0 0-1.6-28.9-19.6-61.3-4-7.2-11.1-11.9-19.2-13.2C1469.8 714.8 1459 711.3 1450.8 701.6zM1593.5 764.5c1.2-16.9 21.3-19.7 27.4-21.9 14.2-5 22-18.5 22-18.5 20.6 21.1 38.7 10.3 38.7 10.3s-13.1 7.5-33.3 1c-4.5-1.5-9.5-.4-13.1 2.7-3.9 3.3-10.6 7.2-21.7 9.7C1607.1 749.3 1595.4 751.2 1593.5 764.5zM1429.6 844.9c.1-1.3.1-2.6.1-3.9 0-10.9-3.3-21.7-9.5-30.8-4.5.9-6-4-6-4-3.4 2.5-9.3 1.7-9.3 1.7-18.1 16.4-80 14.2-80 14.2s35.8.5 53.6-9.5c13.1-7.4 2.5-21.1 2.4-21.1 0 0 4.4 3.3 10.1 6.1 11.8 5.9 13.3-6.5 10.9-13.8-4.1-12.6-12.9-29.4-29-38.4 1 .4 32.5 15.8 41.3 48.9 0 0 14.1-21 14.2-44.7 0 0 3 16.8-5.2 55.9 0 0 17.7-13.9 3 78.6C1427.8 868.2 1428.9 854.7 1429.6 844.9z" opacity=".4"/><path fill="#a65b3c" d="M1340.7 747.3c0 0 26.8 12.7 22.4 40.9C1363.2 788.2 1381.4 765.4 1340.7 747.3zM1275.4 812c0 0 29.2 1.6 48.5-15.7C1323.9 796.3 1296.2 830.2 1275.4 812zM1268.8 755.8c0 0-20.1-1.5-3.9-16.2C1281.2 724.8 1268.8 755.8 1268.8 755.8zM1321.6 733.9c0 0 8.5-10.1-5.6-15.3C1304.8 714.5 1321.6 733.9 1321.6 733.9z" opacity=".4"/><polygon fill="#a65b3c" points="1680.5 1027.1 1676.6 1011.4 1636.3 1011.4" opacity=".4"/><path fill="#a65b3c" d="M1477.6 822.7l-32 .9C1445.6 823.6 1460.7 828.9 1477.6 822.7zM1431.3 856.6l11.2 22.1C1442.5 878.7 1435.5 871.7 1431.3 856.6zM1652.4 834.4c0 0-2.1 26.4-9.5 48.9L1652.4 834.4zM1695.7 883.7c0 0 3.6-14.5 11.7-32.4 0 0 2.6-9.7 2.9-22.1.3-12.4 1.5-29.6 3.2-37.1C1713.5 792.1 1697.8 856.7 1695.7 883.7z" opacity=".4"/><path fill="#a65b3c" d="M1726.7,801.7c0,0,3.1,18.2-13.8,41.2l-6.3,10.1C1706.7,853,1724.7,821.9,1726.7,801.7z" opacity=".4"/><path fill="#1f4168" d="M1508.8 816.7c10.1 29.8 23.4 52.8 34 68.1 0 0-7.2-9.1-19.6-26.2-5.7-7.8-17.9-5.2-19.9 4.2-1 4.6-1.6 10.3-1.5 17.2.1-5.1-.1-9.8-.4-14.3-1.5-19.7 1.4-35.1 5.2-46.2C1507.3 818.6 1508 817.6 1508.8 816.7zM1595.6 1011.3v.1c0 0-46.6-16.7-76.8-49.4 4.5 4.8 31.3 31.7 57.6 27.5 16.2-2.5 18.3-32.3 18.6-39.7C1594.3 971.8 1594.8 992.8 1595.6 1011.3zM1501.2 896.3C1501.2 896.3 1501.2 896.3 1501.2 896.3L1501.2 896.3C1501.2 896.3 1501.2 896.3 1501.2 896.3zM1515.7 1029.7l26.5 17.8c-2.3-1.4-21.4-12.6-51.4-19.4.8-40.6 5.6-78.6 8.6-110.3-1.3 19.4-2.6 49.7-1.2 80.9C1498.8 1011.1 1505.3 1022.7 1515.7 1029.7z" opacity=".4"/><g><path fill="#a65b3c" d="M1490.1,711.7c2,2.8,3.9,5.8,5.6,8.9c0.9,1.5,1.7,3.1,2.5,4.6c0.8,1.6,1.5,3.1,2.3,4.7l2.1,4.8l2,4.9
				c0.7,1.6,1.3,3.3,1.9,4.9c0.3,0.8,0.6,1.6,1,2.4c0.3,0.8,0.6,1.6,0.9,2.5c2.5,6.5,4.5,13.3,6,20.1c0.3,1.7,0.7,3.4,1,5.2
				c0.3,1.7,0.4,3.5,0.7,5.2l0.3,2.6l0.1,2.6l0.2,5.2l-0.1,0l-0.6-5.2l-0.3-2.6l-0.4-2.6c-0.3-1.7-0.5-3.4-0.8-5.2
				c-0.4-1.7-0.7-3.4-1.1-5.1c-0.3-1.7-0.8-3.4-1.2-5.1c-0.4-1.7-0.8-3.4-1.3-5.1l-1.4-5c-0.5-1.7-1-3.3-1.6-5
				c-0.5-1.7-1.1-3.3-1.7-4.9c-0.6-1.6-1.2-3.3-1.9-4.9c-1.3-3.2-2.9-6.3-4.5-9.5C1496.7,724,1493.5,717.9,1490.1,711.7
				L1490.1,711.7z"/></g><g><path fill="#a65b3c" d="M1511.2,678.5c-4.2,3.5-9,6.2-13.9,8.5c-4.9,2.3-10,4.2-15.2,6c-5.1,1.8-10.4,3.3-15.6,4.7
				c-5.2,1.4-10.5,2.7-15.8,4.1l0.1-0.3c1.2,1.3,2.5,2.5,4,3.5c1.4,1.1,2.9,2,4.5,2.8c3.1,1.7,6.4,3,9.8,3.9c1.7,0.4,3.4,0.8,5.2,1
				c1.7,0.2,3.5,0.3,5.3,0.3c3.5,0,7-0.5,10.5-1.3l0,0.1c-3.4,1.2-6.9,2-10.5,2.1c-3.6,0.2-7.2-0.3-10.7-1.2c-3.5-1-6.8-2.4-9.8-4.4
				c-3-1.9-5.8-4.1-8.4-6.7l-0.2-0.2l0.3-0.1l15.7-4.4c5.2-1.5,10.4-3.1,15.5-4.8c5.1-1.7,10.2-3.6,15.2-5.8
				C1502,684.2,1506.9,681.7,1511.2,678.5L1511.2,678.5z"/></g><g><path fill="#a65b3c" d="M1642.9,724.1c-1.3,2.5-3,4.8-4.8,6.9c-0.9,1.1-1.9,2.1-2.9,3.1c-1,1-2.1,1.9-3.2,2.7
				c-4.6,3.3-9.7,5.8-15.1,7.3c-2.7,0.8-5.3,1.7-7.9,2.8c-2.5,1.1-5,2.4-7.2,4c-2.2,1.6-4.2,3.6-5.6,5.9c-1.4,2.3-2.3,5-2.7,7.8
				l-0.1,0c0.1-1.4,0.2-2.8,0.5-4.2c0.4-1.4,0.8-2.7,1.5-4c1.4-2.5,3.4-4.7,5.7-6.4c2.3-1.7,4.9-3,7.5-4c2.6-1,5.3-1.8,8.1-2.5
				c1.4-0.3,2.7-0.7,4-1.1c1.3-0.5,2.6-1,3.8-1.6c2.5-1.3,4.8-2.9,6.9-4.7C1635.8,732.7,1639.6,728.6,1642.9,724.1L1642.9,724.1z"/></g><g><path fill="#a65b3c" d="M1645.2,685.3c3.6,3.7,6.4,8,9.2,12.3c2.8,4.3,5.4,8.7,8.2,13c2.8,4.3,5.5,8.6,8.6,12.7c1.5,2,3.1,4,4.8,5.9
				c1.7,1.9,3.6,3.6,5.7,5l0.3,0.2l-0.3,0.1c-3.3,1.6-6.8,2.5-10.4,2.9c-3.6,0.3-7.3-0.2-10.8-1.2c-3.5-1.1-6.8-2.7-9.7-4.8
				c-3-2.1-5.6-4.5-8-7.2l0.1-0.1c2.6,2.4,5.4,4.6,8.4,6.6c0.7,0.5,1.5,0.9,2.3,1.4c0.8,0.5,1.6,0.8,2.3,1.3c1.6,0.8,3.2,1.4,4.9,2
				c3.3,1.1,6.9,1.6,10.4,1.6c3.5-0.1,7.1-0.8,10.2-2.6l0,0.3c-4.4-2.8-7.8-6.8-11-10.8c-3.1-4.1-6-8.3-8.7-12.7
				c-2.7-4.4-5.3-8.7-8-13.1C1651.2,693.7,1648.5,689.3,1645.2,685.3L1645.2,685.3z"/></g><g><path fill="#a65b3c" d="M1759.1,916.6c-0.8-0.3-1.7-0.4-2.6-0.5c-0.9-0.1-1.7,0-2.6,0c-1.7,0.1-3.4,0.5-5.1,0.9
				c-1.7,0.4-3.3,1.1-4.9,1.7l-2.4,1.1c-0.8,0.4-1.6,0.8-2.4,1.2c0.7-0.6,1.4-1.1,2.1-1.6c0.7-0.5,1.5-0.9,2.3-1.4
				c1.6-0.8,3.2-1.5,4.9-2c1.7-0.5,3.5-0.8,5.3-0.7C1755.7,915.4,1757.6,915.7,1759.1,916.6z"/></g><g><path fill="#a65b3c" d="M1439.1,710.1c-0.5-1.6-1.2-3.1-1.9-4.5c-0.8-1.4-1.6-2.8-2.7-4c-1-1.3-2.1-2.4-3.3-3.5
				c-1.2-1.1-2.5-2-3.9-3c0.8,0.3,1.5,0.6,2.3,1c0.7,0.4,1.5,0.8,2.1,1.3c1.4,1,2.6,2.2,3.6,3.5c1.1,1.3,1.9,2.8,2.6,4.3
				C1438.5,706.8,1438.9,708.4,1439.1,710.1z"/></g><g><path fill="#1b1a2e" d="M1534.2,732.1c-1.6-1.4-3-2.9-4.3-4.6c-1.3-1.6-2.4-3.4-3.5-5.3c-1-1.9-1.9-3.8-2.6-5.8c-0.3-1-0.7-2-1-3
				c-0.3-1-0.5-2-0.7-3.1c0.4,1,0.7,2,1.2,2.9c0.4,1,0.8,1.9,1.2,2.9c0.9,1.9,1.7,3.8,2.7,5.6c1,1.8,2.1,3.6,3.2,5.3
				C1531.7,728.8,1532.9,730.4,1534.2,732.1z"/></g><g><path fill="#1b1a2e" d="M1560.3,906.9c-6.1-6.2-11.6-13.1-16.7-20.1l-1.9-2.7c-0.6-0.9-1.2-1.8-1.8-2.7c-1.2-1.8-2.4-3.6-3.6-5.5
				c-1.1-1.9-2.3-3.7-3.5-5.6l-3.3-5.7c-1.1-1.9-2.1-3.8-3.1-5.8c-1-1.9-2.1-3.8-3-5.8l-2.9-5.9c-0.9-2-1.8-4-2.7-6
				c-1.8-4-3.3-8.1-4.9-12.1c-0.8-2-1.5-4.1-2.2-6.2l-2.1-6.2c1.6,4.1,3,8.2,4.7,12.2c1.7,4,3.3,8.1,5.2,12
				c3.5,8,7.6,15.7,11.8,23.3c4.2,7.6,8.9,14.9,13.8,22.1c1.2,1.8,2.5,3.6,3.8,5.3c1.3,1.8,2.6,3.5,3.9,5.2
				C1554.7,900.3,1557.4,903.6,1560.3,906.9z"/></g><g><path fill="#1b1a2e" d="M1595.6,1011.4c-7.3-2.5-14.5-5.7-21.4-9.1c-7-3.4-13.7-7.2-20.4-11.3c-6.6-4.1-12.9-8.7-18.9-13.6
				c-6-4.9-11.6-10.4-16.8-16.2l4.1,4.1c0.7,0.7,1.4,1.4,2.1,2l2.2,1.9c1.5,1.3,2.9,2.6,4.3,3.9l4.5,3.7c6.1,4.7,12.4,9.3,19,13.3
				c6.5,4.1,13.3,7.9,20.2,11.5l5.2,2.6c1.8,0.8,3.5,1.7,5.3,2.5C1588.5,1008.4,1592,1010,1595.6,1011.4z"/></g><g><path fill="#1b1a2e" d="M1542.5,1047.6c-2-1.1-4.1-2.1-6.2-3.1c-2.1-1-4.2-2-6.3-2.9c-4.2-1.8-8.5-3.6-12.8-5.2
				c-4.3-1.6-8.7-3.1-13.1-4.5c-4.4-1.4-8.8-2.6-13.3-3.9c2.3,0.4,4.5,0.9,6.8,1.4c2.2,0.6,4.5,1.1,6.7,1.7c1.1,0.3,2.2,0.6,3.3,1
				l3.3,1.1c2.2,0.7,4.4,1.5,6.6,2.3c4.3,1.7,8.6,3.4,12.8,5.4C1534.5,1042.9,1538.6,1045,1542.5,1047.6z"/></g><g><path fill="#1b1a2e" d="M1622.7,723c-4,6.1-9.8,10.9-16.1,14.6c-6.3,3.7-13.3,6.2-20.4,7.8c-7.2,1.5-14.5,2-21.8,1.1
				c-3.6-0.4-7.2-1.2-10.7-2.3c-3.5-1.2-6.8-2.7-9.9-4.6c6.4,3.5,13.5,5.5,20.7,6.2c7.2,0.7,14.5,0.2,21.5-1.3
				c7.1-1.5,13.9-4,20.2-7.5c3.2-1.7,6.2-3.8,9-6.1C1617.9,728.5,1620.5,725.9,1622.7,723z"/></g><g><path fill="#a65b3c" d="M1360.7,740.3c2.6,0.5,5.1,1.4,7.6,2.4c1.2,0.6,2.4,1.1,3.6,1.7c1.2,0.6,2.4,1.3,3.5,2
				c4.5,2.8,8.6,6.4,12.2,10.3c0.9,1,1.7,2.1,2.5,3.1c0.4,0.5,0.9,1,1.2,1.6l1.1,1.7c0.7,1.1,1.5,2.2,2.2,3.3
				c0.6,1.2,1.3,2.3,1.9,3.5c0.3,0.6,0.6,1.2,0.9,1.8l0.8,1.8l1.6,3.7c0.5,1.2,0.8,2.5,1.3,3.8l1.2,3.8c-1-2.5-1.8-5-2.9-7.4
				l-1.7-3.6l-0.8-1.8c-0.3-0.6-0.7-1.1-1-1.7c-0.7-1.1-1.3-2.3-2-3.4c-0.7-1.1-1.5-2.2-2.2-3.3l-1.1-1.6c-0.4-0.5-0.8-1-1.2-1.5
				c-0.8-1-1.6-2.1-2.5-3c-3.5-3.9-7.5-7.4-11.9-10.3C1370.5,744.1,1365.8,741.7,1360.7,740.3z"/></g><g><path fill="#a65b3c" d="M1340.7,747.3c3.8,1.7,7.3,4.1,10.4,6.9c3.1,2.8,5.9,6.1,8,9.7c2.1,3.6,3.6,7.7,4.3,11.8
				c0.7,4.2,0.5,8.4-0.3,12.5c0.2-2.1,0.3-4.1,0.2-6.2c0-2.1-0.3-4.1-0.7-6.1c-0.4-2-1-4-1.7-5.9c-0.7-1.9-1.7-3.8-2.7-5.5
				c-2-3.6-4.7-6.7-7.7-9.6c-1.5-1.4-3.1-2.8-4.7-4C1344.3,749.5,1342.5,748.4,1340.7,747.3z"/></g><g><path fill="#a65b3c" d="M1275.4,811.9c4.3-0.1,8.7-0.4,12.9-1.1c4.3-0.6,8.5-1.5,12.7-2.7c4.2-1.2,8.3-2.6,12.1-4.6
				c3.9-2,7.4-4.5,10.5-7.5l0,0l0,0c2.2-1.2,4.4-2.6,6.4-4.1c2-1.5,4-3.1,5.8-4.9c3.6-3.5,6.7-7.6,8.5-12.3
				c1.8-4.7,1.9-9.9,0.4-14.7c-1.5-4.8-4.2-9.2-7.4-13.1l0.1-0.1c3.4,3.7,6.5,8,8.1,13c0.8,2.5,1.3,5,1.3,7.7c0,2.6-0.5,5.2-1.4,7.7
				c-1.8,4.9-5.1,9.1-8.8,12.6c-3.8,3.5-8.1,6.4-12.7,8.7l0.1,0c-3.2,2.9-6.8,5.4-10.7,7.5c-3.8,2.1-7.9,3.8-12.1,5
				c-4.2,1.3-8.5,2.1-12.8,2.6C1284.2,812.1,1279.8,812.3,1275.4,811.9L1275.4,811.9z"/></g><g><path fill="#a65b3c" d="M1728.1,757.9c-0.8,1-1.6,2-2.3,3c-0.7,1-1.5,2.1-2.1,3.2c-1.3,2.2-2.5,4.4-3.6,6.7
				c-0.5,1.2-1.1,2.3-1.5,3.5l-0.7,1.8l-0.6,1.8c-0.8,2.4-1.5,4.9-2.1,7.3c0.1-1.3,0.3-2.5,0.5-3.8c0.3-1.2,0.5-2.5,0.9-3.7
				c0.6-2.5,1.6-4.9,2.6-7.2c1.1-2.3,2.4-4.6,3.9-6.7C1724.5,761.6,1726.1,759.6,1728.1,757.9z"/></g><g><path fill="#a65b3c" d="M1713.6,792.1c-1.2,7.8-1.8,15.6-2.5,23.4c-0.3,3.9-0.6,7.8-0.6,11.7c0,3.9,0,7.9-0.3,11.8
				c-0.3,3.9-1,7.8-2.1,11.6c-1,3.8-2.6,7.5-4.2,11.1c-1.6,3.6-3.3,7.1-4.7,10.8c-1.4,3.6-2.6,7.4-3.5,11.2l-0.1,0
				c0.4-1.9,0.7-3.9,1.2-5.8c0.5-1.9,1.1-3.8,1.7-5.7c1.3-3.7,2.9-7.4,4.5-10.9c1.6-3.6,3.1-7.2,4.2-10.9c1.1-3.7,1.8-7.6,2.3-11.4
				c0.5-3.9,0.7-7.8,0.7-11.7c0-1,0-2,0-2.9l0-2.9c0-2,0-3.9,0.1-5.9c0.1-3.9,0.5-7.9,1-11.8
				C1711.8,799.8,1712.5,795.9,1713.6,792.1L1713.6,792.1z"/></g><g><path fill="#a65b3c" d="M1703.5,861.4c1.8-5.2,4.1-10.1,6.8-14.9c0.7-1.2,1.4-2.3,2.2-3.5c0.8-1.1,1.5-2.3,2.2-3.4
				c1.5-2.3,2.9-4.6,4.2-7c1.3-2.4,2.5-4.8,3.7-7.2c0.5-1.2,1-2.5,1.4-3.8l0.6-1.9l0.3-1l0.2-1c1.2-5.2,1.5-10.7,1.6-16.1l0.1,0
				c0.6,5.4,0.6,11-0.6,16.4c-1.2,5.4-3.7,10.4-6.7,14.9c-1.5,2.3-3,4.5-4.4,6.9c-1.4,2.3-2.7,4.7-4,7.1
				C1708.4,851.7,1706,856.5,1703.5,861.4L1703.5,861.4z"/></g><g><path fill="#a65b3c" d="M1490.9,820.1c-2.5,9.8-3.9,19.8-4.7,29.9c-0.8,10.1-1.1,20.2-1.5,30.3c-0.9,20.2-2.3,40.4-5.3,60.4
				c-3.1,20-5.8,40-7.9,60.1c-2.1,20.1-3.9,40.2-4.1,60.5l-0.1,0c-0.3-10.1,0.1-20.2,0.7-30.3c0.6-10.1,1.4-20.2,2.5-30.2
				c2.1-20.1,5-40.2,8.4-60.1c1.7-10,2.9-20,3.6-30.1c0.8-10.1,1.1-20.2,1.4-30.3c0.3-10.1,0.7-20.2,1.6-30.3
				C1486.4,839.8,1487.9,829.8,1490.9,820.1L1490.9,820.1z"/></g><g><path fill="#a65b3c" d="M1511.8,761.3l0.3,3.9l-0.1,4c-0.2,1.3-0.4,2.6-0.6,3.9c-0.3,1.3-0.6,2.6-0.9,3.9c-1.4,5.1-3.7,9.9-6.1,14.6
				c-2.4,4.7-5,9.3-7.4,14c-2.4,4.7-4.5,9.5-6.1,14.5l1.1-3.8c0.4-1.3,0.9-2.5,1.3-3.7c1-2.5,2-4.9,3.1-7.3
				c2.2-4.8,4.8-9.4,7.2-14.1c2.4-4.7,4.7-9.4,6.2-14.4C1511.3,771.8,1512,766.5,1511.8,761.3z"/></g><g><path fill="#a65b3c" d="M1609.3,925.9l0.6,32.9c0.1,5.5,0.1,11,0.3,16.4c0.2,5.5,0.5,11,1,16.4c0.4,5.5,1,10.9,1.5,16.4
				c0.6,5.4,1.2,10.9,1.9,16.3c1.5,10.8,3.1,21.7,6.2,32.2l-0.1,0l-2.5-7.9l-1.9-8c-1.1-5.4-2.1-10.8-2.8-16.2
				c-1.5-10.9-2.4-21.8-3-32.8l-0.8-16.4c-0.1-2.7-0.3-5.5-0.4-8.2l-0.4-8.2C1608.7,947.9,1608.7,936.9,1609.3,925.9L1609.3,925.9z"/></g><g><path fill="#a65b3c" d="M1616.6,743.9c-1.5,1.2-2.9,2.5-4.1,4.1c-1.1,1.5-2,3.3-2.7,5.1c-1.3,3.6-1.6,7.5-1.7,11.3
				c-0.1,3.9,0.1,7.7,0.4,11.6c0.3,3.9,0.7,7.7,1.1,11.6c0.9,7.7,1.9,15.4,3,23.1l1.8,11.5c0.6,3.8,1.3,7.7,1.8,11.5
				c1,7.7,1.6,15.5,1.7,23.2c0.1,3.9,0,7.8-0.1,11.7c-0.1,3.9-0.4,7.8-0.7,11.6c-0.6,7.7-1.6,15.5-2.9,23.1
				c-1.3,7.7-2.8,15.3-4.9,22.7l-0.1,0c3.5-15.1,5.7-30.5,6.9-45.9c1.1-15.4,1.2-31-0.5-46.4c-1.8-15.4-4.6-30.7-6.7-46
				c-1-7.7-1.8-15.4-1.6-23.2c0-1.9,0.2-3.9,0.5-5.8c0.3-1.9,0.8-3.8,1.5-5.7C1610.7,749.2,1613.3,746,1616.6,743.9L1616.6,743.9z"/></g><g><path fill="#a65b3c" d="M1436.4,791c0.4-1.5,2-2.5,3.6-2.2c0.4,0.1,0.8,0.2,1.1,0.4l1,0.4l2,0.9c2.7,1.2,5.4,2.3,8.1,3.5
				c5.4,2.4,10.9,4.5,16.5,6.1c2.8,0.8,5.7,1.6,8.5,2.3c1.4,0.4,2.8,0.7,4.3,1.1c0.8,0.1,1.6,0.6,2.1,1.3c0.5,0.7,0.8,1.5,0.8,2.4
				c0,0.4-0.1,0.9-0.2,1.2l-0.3,1.1l-0.6,2.1l-1.2,4.2l-1.3,4.2c-0.2,0.7-0.6,1.5-1.2,2c-0.6,0.5-1.4,0.8-2.1,0.7l0-0.1
				c0.7-0.1,1.4-0.4,1.9-0.9c0.5-0.5,0.8-1.1,0.9-1.9l1-4.3l1.1-4.3l0.5-2.1c0.2-0.7,0.4-1.5,0.5-2c0-1.2-0.9-2.4-2.1-2.7
				c-1.4-0.4-2.8-0.8-4.3-1.2c-2.8-0.8-5.6-1.7-8.4-2.7l-8.3-2.9c-2.8-1-5.6-1.9-8.3-2.9c-2.8-1.1-5.5-2.3-8.1-3.5
				c-0.7-0.3-1.3-0.7-2-1c-0.7-0.3-1.3-0.8-1.9-0.9c-0.7-0.2-1.4-0.1-2,0.2C1437.3,789.9,1436.8,790.4,1436.4,791L1436.4,791z"/></g><g><path fill="#a65b3c" d="M1477.6,822.7c-5.9,0.5-11.7,0.8-17.6,0.9c-2.9,0-5.9,0-8.8,0c-1.5,0-2.9,0.1-4.4,0.1
				c-0.7,0.1-1.6,0-2.2-0.5c-0.3-0.2-0.6-0.5-0.9-0.8c-0.3-0.3-0.4-0.7-0.6-1c-3-5-6.4-9.8-10.6-13.9l-0.4-0.4
				c-0.2-0.2-0.3-0.3-0.4-0.5c-0.2-0.3-0.4-0.7-0.6-1.1c-0.2-0.8-0.1-1.8,0.2-2.5l1.7-4.1c1.1-2.7,2.3-5.4,3.5-8.1l0.1,0
				c-0.9,2.8-1.8,5.6-2.8,8.4l-1.5,4.2c-0.2,0.6-0.3,1.2-0.1,1.8c0.1,0.3,0.2,0.6,0.4,0.8c0.1,0.1,0.2,0.2,0.3,0.3l0.4,0.4
				c2.2,2.1,4,4.4,5.7,6.8c1.7,2.4,3.2,5,4.6,7.6c0.2,0.3,0.3,0.7,0.5,0.9c0.2,0.3,0.4,0.5,0.7,0.7c0.6,0.4,1.3,0.5,2,0.5
				c1.5,0,2.9-0.1,4.4-0.1c2.9-0.1,5.9-0.4,8.8-0.5C1465.9,822.5,1471.7,822.5,1477.6,822.7L1477.6,822.7z"/></g><g><path fill="#a65b3c" d="M1431.3,856.6c-0.6-0.8-0.8-2-0.6-3l0.3-3c0.2-2,0.5-4,0.8-6c0.3-2,0.8-4,1-6c0.3-2,0.4-4,0.5-6
				c0.2-4,0.4-8.1,0.5-12.1c0.1-4,0.2-8-0.1-12.1l0.1,0c0.9,4,1.1,8.1,1,12.1c-0.1,4.1-0.5,8.1-1.1,12.1c-0.3,2-0.6,4-0.8,6
				l-0.5,6.1c-0.2,2-0.5,4-0.9,6c-0.2,1-0.4,2-0.6,3c-0.1,0.5-0.2,1-0.2,1.4C1431,855.6,1431.2,856.1,1431.3,856.6L1431.3,856.6z"/></g><g><path fill="#a65b3c" d="M1465.3,871.6c-0.1,1.1-0.7,2.1-1.7,2.7c-0.5,0.3-1.1,0.5-1.6,0.6l-1.5,0.4c-2,0.6-4,1.2-6,1.9
				c-2,0.7-4,1.3-5.9,2.1l-1.4,0.6c-0.5,0.2-1,0.4-1.6,0.4c-1.1,0.1-2.2-0.4-3-1.2c-0.4-0.4-0.7-0.9-0.9-1.4l-0.7-1.4l-1.4-2.8
				l-2.8-5.6l-5.5-11.3l0.1-0.1c2.4,3.5,4.4,7.2,6.4,10.9c1,1.9,1.8,3.8,2.7,5.7c0.4,1,0.8,1.9,1.3,2.9c0.2,0.5,0.4,1,0.6,1.5
				c0.2,0.5,0.4,0.9,0.7,1.3c0.6,0.8,1.6,1.2,2.6,1.2c1,0,1.9-0.6,2.9-1c1.9-0.9,3.8-1.8,5.8-2.6c2-0.8,4-1.4,6.1-1.9
				c0.5-0.1,1-0.2,1.6-0.3c0.5-0.1,1-0.2,1.4-0.4C1464.2,873.4,1464.9,872.6,1465.3,871.6L1465.3,871.6z"/></g><g><path fill="#a65b3c" d="M1477.6,822.7c-0.3,1-0.7,2-1,3l-0.9,3c-0.6,2-1.2,4-1.8,6.1c-1.1,4.1-2.2,8.1-3.1,12.2
				c-1,4.1-1.9,8.2-2.8,12.3l-2.7,12.3c0.2-2.1,0.6-4.2,0.9-6.3c0.3-2.1,0.7-4.2,1.1-6.2c0.8-4.1,1.7-8.3,2.6-12.4
				c1-4.1,2.1-8.2,3.4-12.2C1474.5,830.5,1475.9,826.5,1477.6,822.7z"/></g><g><path fill="#a65b3c" d="M1648.4,815.2c-0.3,2.9-0.6,5.9-0.7,8.8c-0.1,1.5-0.2,2.9-0.2,4.4l0,1.1c0,0.3,0,0.7,0.1,1
				c0.2,0.6,0.5,1.3,0.9,1.8c0.4,0.5,1,0.9,1.6,1.2c0.6,0.3,1.4,0.5,2,0.8l4.1,1.7l8.2,3.3c2.7,1.1,5.4,2.3,8.1,3.6l2,1l1,0.5
				c0.3,0.2,0.6,0.3,0.9,0.4c0.6,0.2,1.3,0.3,2,0.2c0.6-0.1,1.4-0.3,2.1-0.4c5.8-1.2,11.5-2.3,17.3-3.2l0,0.1
				c-5.7,1.6-11.4,2.9-17.1,4.2c-0.7,0.1-1.4,0.3-2.2,0.4c-0.8,0.1-1.6,0-2.4-0.3c-0.4-0.1-0.8-0.3-1.1-0.5l-1-0.5l-1.9-1
				c-2.6-1.4-5.2-2.7-7.9-4c-2.7-1.3-5.3-2.5-8.1-3.5c-1.4-0.5-2.8-1-4.2-1.5c-0.7-0.2-1.4-0.4-2.1-0.7c-0.7-0.3-1.4-0.7-1.9-1.3
				c-0.5-0.6-0.9-1.3-1.1-2.1c-0.1-0.4-0.1-0.8-0.2-1.2l0-1.1c0.1-1.5,0.2-3,0.3-4.4C1647.2,821,1647.7,818.1,1648.4,815.2
				L1648.4,815.2z"/></g><g><path fill="#a65b3c" d="M1697.8,841.3c1.6-0.4,3-1.6,3.5-3.2c0.1-0.4,0.2-0.8,0.2-1.2c0-0.4,0-0.8-0.1-1.3c-0.1-0.9-0.1-1.7-0.1-2.6
				c-0.1-3.4-0.2-6.9-0.1-10.3c0-0.9,0.1-1.7,0.2-2.6c0.1-0.9,0.1-1.6-0.2-2.4c-0.3-0.7-0.8-1.4-1.5-1.9c-0.7-0.5-1.5-0.8-2.3-0.9
				c-0.8-0.1-1.7,0-2.5,0l-2.6,0.1c-1.7,0-3.4,0.1-5.1,0.2c-3.4,0.1-6.9,0-10.3-0.2c-3.4-0.2-6.9-0.5-10.3-1
				c-3.4-0.5-6.8-1.2-10.1-2c-0.8-0.2-1.7-0.5-2.5-0.6c-0.8-0.1-1.6,0-2.4,0.2c-0.8,0.3-1.5,0.7-2.1,1.3c-0.6,0.6-1,1.4-1.2,2.2
				l-0.1,0c0.2-1.7,1.5-3.3,3.2-3.9c0.8-0.3,1.7-0.5,2.6-0.4c0.9,0.1,1.7,0.3,2.6,0.5c3.3,0.7,6.7,1.3,10.1,1.8
				c6.8,0.9,13.6,1.4,20.4,1.6c1.7,0,3.4,0.1,5.1,0l2.6-0.1c0.9,0,1.7-0.1,2.6,0c1.7,0.2,3.4,1.3,4.2,2.9c0.2,0.4,0.3,0.9,0.4,1.3
				c0.1,0.5,0,0.9,0,1.3l0,2.6c0,3.4,0,6.8,0,10.3l0,2.6c0,0.4,0,0.8,0,1.3c0,0.5-0.1,0.9-0.3,1.3
				C1701.2,840,1699.5,841.2,1697.8,841.3L1697.8,841.3z"/></g><g><path fill="#a65b3c" d="M1652.5,834.4c-0.1,6.5-0.9,12.9-2,19.3c-0.5,3.2-1.2,6.4-1.9,9.5c-0.8,3.1-1.5,6.3-2.4,9.4
				c-0.9,3.1-1.8,6.2-2.7,9.3l-0.7,2.3c-0.2,0.8-0.5,1.5-0.5,2.3c0,1.6,0.8,3.1,2.1,4c0.6,0.5,1.4,0.7,2.2,1
				c0.8,0.3,1.5,0.5,2.3,0.8c1.5,0.6,3,1.2,4.5,1.9c2.9,1.4,5.8,3,8.4,4.9c0.7,0.5,1.3,1,1.9,1.5c0.6,0.4,1.3,0.8,2.1,0.9
				c1.5,0.3,3.1,0,4.3-0.9c0.3-0.2,0.6-0.5,0.9-0.7l0.9-0.9l1.7-1.7c1.2-1.1,2.3-2.2,3.5-3.3c1.2-1.1,2.4-2.2,3.7-3.2
				c0.6-0.5,1.3-1,1.9-1.5c0.7-0.5,1.2-0.9,1.5-1.6c0.4-0.6,0.6-1.3,0.7-2c0.1-0.8,0.1-1.6,0.2-2.4c0.2-1.6,0.4-3.2,0.6-4.8
				c0.9-6.4,2.3-12.8,4.1-19c0.9-3.1,2-6.2,3.1-9.2c1.2-3,2.6-5.9,4.1-8.8l0.1,0c-5.6,11.7-8.5,24.4-10.4,37.1
				c-0.2,1.6-0.4,3.2-0.6,4.8c-0.1,0.8-0.1,1.6-0.2,2.4c-0.1,0.9-0.4,1.8-0.8,2.5c-0.5,0.7-1.2,1.4-1.8,1.8c-0.6,0.5-1.3,1-1.9,1.5
				c-1.2,1-2.5,2.1-3.7,3.1c-1.2,1.1-2.4,2.2-3.5,3.3l-1.7,1.7l-0.9,0.8c-0.3,0.3-0.6,0.6-1,0.8c-1.5,0.9-3.3,1.2-4.9,0.9
				c-0.8-0.2-1.6-0.6-2.3-1.1c-0.7-0.5-1.2-1-1.9-1.5c-2.6-1.9-5.3-3.6-8.2-5.1c-1.4-0.7-2.9-1.4-4.4-2c-0.7-0.3-1.5-0.6-2.3-0.8
				c-0.8-0.2-1.6-0.5-2.2-1c-1.4-0.9-2.3-2.6-2.3-4.2c0-0.9,0.3-1.6,0.5-2.4l0.6-2.3c0.8-3.1,1.6-6.2,2.4-9.4
				C1648.6,859.9,1651.4,847.3,1652.5,834.4L1652.5,834.4z"/></g><g opacity=".8"><path fill="#f3faff" d="M1455,809.8c1.3,1.6,1,4-0.6,5.3c-1.6,1.3-4,1-5.3-0.6c-1.3-1.6-1-4,0.6-5.3
				C1451.3,807.9,1453.7,808.2,1455,809.8z"/></g><g opacity=".8"><path fill="#f3faff" d="M1512.5,794.2c1.3,1.6,1,4-0.6,5.3c-1.6,1.3-4,1-5.3-0.6c-1.3-1.6-1-4,0.6-5.3
				C1508.9,792.3,1511.3,792.6,1512.5,794.2z"/></g><g opacity=".8"><path fill="#f3faff" d="M1496.3,865.3c1.3,1.6,1,4-0.6,5.3c-1.6,1.3-4,1-5.3-0.6c-1.3-1.6-1-4,0.6-5.3
				C1492.6,863.4,1495,863.7,1496.3,865.3z"/></g><g opacity=".8"><path fill="#f3faff" d="M1489.9,947.2c1.3,1.6,1,4-0.6,5.3c-1.6,1.3-4,1-5.3-0.6c-1.3-1.6-1-4,0.6-5.3
				C1486.2,945.3,1488.6,945.6,1489.9,947.2z"/></g><g opacity=".8"><path fill="#f3faff" d="M1483.6,1027.3c1.3,1.6,1,4-0.6,5.3c-1.6,1.3-4,1-5.3-0.6c-1.3-1.6-1-4,0.6-5.3
				C1479.9,1025.4,1482.3,1025.7,1483.6,1027.3z"/></g><g opacity=".8"><path fill="#f3faff" d="M1680.8,832.6c1.3,1.6,1,4-0.6,5.3c-1.6,1.3-4,1-5.3-0.6c-1.3-1.6-1-4,0.6-5.3
				C1677.1,830.7,1679.5,830.9,1680.8,832.6z"/></g><g opacity=".8"><path fill="#f3faff" d="M1309,780.7c2.3,2.9,1.8,7-1.1,9.3c-2.9,2.3-7,1.8-9.3-1.1c-2.3-2.9-1.8-7,1.1-9.3
				C1302.6,777.3,1306.8,777.8,1309,780.7z"/></g><g><path fill="#a65b3c" d="M1323.3,792.6c-0.4-1.2-0.8-2.4-1.2-3.6c-0.4-1.2-0.8-2.4-1.3-3.6c-0.9-2.4-1.7-4.7-2.7-7
				c-0.9-2.3-1.9-4.6-3-6.9c-0.6-1.1-1.1-2.3-1.7-3.3c-0.6-1.1-1.3-2.2-1.9-3.3c1.7,1.9,3,4.1,4.3,6.3c1.2,2.2,2.3,4.5,3.3,6.9
				c0.9,2.4,1.8,4.7,2.5,7.2C1322.2,787.6,1322.8,790.1,1323.3,792.6z"/></g><g opacity=".8"><path fill="#f3faff" d="M1601.1,788.5c-0.2,0-0.4-0.1-0.5-0.4c-0.1-0.3,0.1-0.5,0.3-0.6l5.6-1.6c0.3-0.1,0.5,0.1,0.6,0.3
				c0.1,0.3-0.1,0.5-0.3,0.6l-5.6,1.6C1601.2,788.5,1601.2,788.5,1601.1,788.5z"/></g><g opacity=".8"><path fill="#f3faff" d="M1612.4,860.9C1612.4,860.9,1612.4,860.9,1612.4,860.9l-5.8-0.2c-0.3,0-0.5-0.2-0.5-0.5
				c0-0.3,0.2-0.5,0.5-0.5l5.8,0.2c0.3,0,0.5,0.2,0.5,0.5C1612.9,860.7,1612.7,860.9,1612.4,860.9z"/></g><g opacity=".8"><path fill="#f3faff" d="M1604.9,941.3C1604.9,941.3,1604.9,941.3,1604.9,941.3l-5.8-0.2c-0.3,0-0.5-0.2-0.5-0.5
				c0-0.3,0.2-0.5,0.5-0.5l5.8,0.2c0.3,0,0.5,0.2,0.5,0.5C1605.4,941.1,1605.2,941.3,1604.9,941.3z"/></g><g opacity=".8"><path fill="#f3faff" d="M1607.8,1025.4C1607.8,1025.4,1607.8,1025.4,1607.8,1025.4l-5.8-0.2c-0.3,0-0.5-0.2-0.5-0.5
				c0-0.3,0.2-0.5,0.5-0.5l5.8,0.2c0.3,0,0.5,0.2,0.5,0.5C1608.3,1025.2,1608.1,1025.4,1607.8,1025.4z"/></g><g><path fill="#1f4168" d="M1577.3,1161.6c-3.3,4.3-6.4,8.8-9,13.6c-2.7,4.7-4.9,9.7-6.7,14.8c-1.8,5.1-3.3,10.4-4.2,15.7
				c-0.9,5.4-1,10.8-1.3,16.3c-0.3,5.4-0.6,10.9-1.1,16.3c-0.4,5.4-0.9,10.9-1.5,16.3c-1.2,10.8-2.7,21.6-4.5,32.4l-0.1,0
				c1.3-10.8,2.5-21.6,3.6-32.5c1.1-10.8,2.2-21.7,3.1-32.5c0.5-5.4,0.7-10.9,1.5-16.3c0.8-5.4,2-10.8,3.7-15.9
				c1.7-5.2,4.1-10.2,6.8-14.9C1570.4,1170,1573.6,1165.5,1577.3,1161.6z"/></g><g><path fill="#1f4168" d="M1557.8,1445.5c2.4-0.3,4.9,0,7.2,0.8c2.3,0.8,4.5,2.2,6,4.2c1.6,1.9,2.6,4.3,3.1,6.7
				c0.3,1.2,0.5,2.4,0.7,3.6c0.2,1.2,0.5,2.3,0.8,3.5c1.1,4.7,2.6,9.3,4.6,13.6c2,4.4,4.8,8.4,7.4,12.4c5.3,8.1,10.5,16.2,15.5,24.4
				c5.1,8.2,10.1,16.5,14.9,24.8l-0.1,0.1c-5.4-8-10.6-16.1-15.7-24.3c-5.1-8.2-10.2-16.4-15.1-24.7c-2.5-4.2-5.1-8.2-7.2-12.6
				c-2.1-4.4-3.9-8.9-5.1-13.6c-1.4-4.6-1.4-9.8-4.4-13.5c-1.4-1.8-3.4-3.3-5.6-4.2C1562.6,1445.9,1560.2,1445.5,1557.8,1445.5
				L1557.8,1445.5z"/></g><g><path fill="#1f4168" d="M1542,1403c3.3,2.2,6.2,5,8.5,8.2c1.2,1.6,2.1,3.4,2.9,5.2c0.8,1.8,1.2,3.8,1.4,5.8c0.1,2,0,4,0,5.9
				c0,2,0.2,3.9,0.4,5.8c0.4,3.9,1.4,7.7,2.6,11.4c-0.8-1.8-1.5-3.6-2.1-5.5c-0.5-1.9-1-3.8-1.3-5.8c-0.3-2-0.5-3.9-0.6-5.9
				c-0.1-2,0-4-0.1-5.9c-0.3-3.8-1.8-7.5-3.9-10.7c-1-1.6-2.3-3.2-3.6-4.6C1544.9,1405.6,1543.5,1404.3,1542,1403z"/></g><g><path fill="#1f4168" d="M1541.1,1393.9c0.3,1.5,0.5,3,0.7,4.6c0.1,1.5,0.2,3.1,0.2,4.6c-0.3-1.5-0.5-3-0.7-4.6
				C1541.2,1396.9,1541.1,1395.4,1541.1,1393.9z"/></g><g><path fill="#1f4168" d="M1573.7,1613.7c-0.1,1.5-0.2,3-0.3,4.5c-0.1,1.5-0.1,3-0.1,4.5c0,3,0.2,6,0.7,8.9c0.5,2.9,1.4,5.8,3,8.2
				c1.6,2.4,4.3,4,7.3,4.4c-1.5,0-3-0.3-4.4-1c-1.4-0.7-2.6-1.7-3.5-3c-1.9-2.5-2.8-5.5-3.4-8.5c-0.5-3-0.7-6.1-0.5-9.1
				C1572.7,1619.6,1573.1,1616.6,1573.7,1613.7z"/></g><g><path fill="#1f4168" d="M1630.4,1560.6c-0.6,1.6-1.1,3.2-1.7,4.8c-0.6,1.6-1.2,3.2-2,4.7l-1.1,2.3c-0.4,0.8-0.8,1.5-1.2,2.3
				c-0.8,1.5-1.7,3-2.5,4.4c-1.8,2.9-3.7,5.7-5.9,8.3c-2.1,2.6-4.4,5.1-6.9,7.5c-5,4.6-10.5,8.7-16.5,11.9c-6,3.2-12.3,5.7-19,7
				c3.3-0.8,6.5-1.9,9.6-3.2c3.1-1.3,6.1-2.8,9-4.4c5.8-3.3,11.3-7.3,16.2-11.9c4.9-4.6,9.2-9.8,12.9-15.4
				C1625,1573,1628,1566.9,1630.4,1560.6z"/></g><g><path fill="#1f4168" d="M1529.4,1542.6c4.8,5.1,9.2,10.6,13.3,16.3c4.1,5.7,8,11.6,11.6,17.5c3.6,6,7.1,12.1,10.3,18.3
				c3.2,6.2,6.3,12.5,9.1,19c-1.6-3.1-3.1-6.3-4.8-9.4c-1.6-3.1-3.3-6.2-5-9.3c-3.4-6.1-6.8-12.2-10.5-18.2
				c-3.6-6-7.4-11.8-11.4-17.6c-2-2.8-4-5.7-6.2-8.5C1533.9,1548,1531.6,1545.3,1529.4,1542.6z"/></g><g><path fill="#1f4168" d="M1504.8,1669.1c5.3-0.1,10.6,0.1,15.8,0.5c5.3,0.4,10.5,1.2,15.7,2.1c5.2,1,10.4,2.2,15.4,3.7
				c5.1,1.6,10,3.5,14.7,5.9c-2.5-0.9-4.9-2-7.4-2.8c-2.5-0.9-5-1.6-7.5-2.4c-5.1-1.4-10.2-2.6-15.4-3.5c-5.2-1-10.4-1.7-15.6-2.3
				c-2.6-0.3-5.2-0.6-7.9-0.8C1510.1,1669.4,1507.4,1669.3,1504.8,1669.1z"/></g><g><path fill="#1f4168" d="M1553.5,1575.8c-1.3,1-2.7,2.1-4,3.2c-1.3,1.1-2.6,2.1-3.9,3.3c-2.6,2.2-5.1,4.5-7.5,6.8
				c-2.5,2.3-4.8,4.8-7.1,7.2l-1.7,1.9l-1.7,1.9c-1.2,1.2-2.2,2.6-3.3,3.9c1.8-2.9,3.8-5.6,6.1-8.2c2.2-2.6,4.6-5.1,7-7.4
				c2.5-2.3,5-4.6,7.7-6.7C1547.7,1579.5,1550.5,1577.5,1553.5,1575.8z"/></g><g><path fill="#1f4168" d="M1625.3,1415.4c-2.4,7.3-4.9,14.5-7.5,21.7l-7.7,21.6l-7.9,21.5l-4,10.7l-4.1,10.7l3.7-10.9l3.8-10.8
				l7.7-21.6l7.9-21.5C1619.8,1429.7,1622.5,1422.5,1625.3,1415.4z"/></g><g><path fill="#1f4168" d="M1552.8,1317.6c1.1,4.1,2,8.2,2.9,12.3c0.9,4.1,1.8,8.3,2.7,12.4c0.8,4.2,1.7,8.3,2.5,12.5l1.2,6.2
				c0.3,2.1,0.7,4.2,1,6.3c-0.5-2-1-4.1-1.5-6.2l-1.4-6.2c-0.9-4.1-1.8-8.3-2.7-12.4c-0.8-4.2-1.7-8.3-2.5-12.5
				C1554.2,1325.9,1553.5,1321.8,1552.8,1317.6z"/></g><g><path fill="#1f4168" d="M1544,1412.2c0.9,2.4,1.3,4.9,1.2,7.5c-0.1,1.3-0.3,2.6-0.7,3.8c-0.4,1.2-1,2.4-1.9,3.4
				c-1.6,2.1-4.1,3.3-6.6,3.9c-2.5,0.6-5.1,0.8-7.6,0.7c-5.1-0.2-10.1-1.3-14.9-2.7c-4.8-1.4-9.6-3.2-14.2-5.1
				c2.4,0.7,4.8,1.6,7.2,2.3c2.4,0.8,4.8,1.4,7.2,2.1c4.9,1.2,9.8,2.3,14.8,2.4c2.5,0.1,5,0,7.4-0.6c2.4-0.6,4.6-1.7,6.2-3.5
				c0.8-0.9,1.4-2,1.9-3.1c0.5-1.1,0.7-2.4,0.8-3.6C1545,1417.2,1544.7,1414.7,1544,1412.2z"/></g><g><path fill="#1f4168" d="M1554.5,1132.2c-1.8-4.9-3.3-10-4.5-15.1c-1.3-5.1-2.2-10.3-3-15.5c-0.8-5.2-1.3-10.5-1.5-15.7
				c-0.3-5.3-0.1-10.5,0.4-15.8c0,2.6-0.1,5.2,0,7.9l0.1,3.9l0.2,3.9c0.4,5.2,0.9,10.4,1.7,15.6c0.7,5.2,1.7,10.3,2.8,15.5
				c0.6,2.6,1.1,5.1,1.8,7.7C1553.1,1127.2,1553.7,1129.7,1554.5,1132.2z"/></g><g><path fill="#1f4168" d="M1428.4,1139.7c2.3-1.1,4.4-2.4,6.5-3.9c2.1-1.4,4-3,5.8-4.7c3.7-3.4,6.9-7.2,9.5-11.5
				c2.7-4.2,4.7-8.8,6.2-13.6c1.5-4.8,2.4-9.7,2.9-14.8c-0.1,1.3-0.1,2.5-0.2,3.8c-0.1,1.3-0.2,2.5-0.4,3.8
				c-0.2,1.3-0.4,2.5-0.7,3.7c-0.2,1.2-0.6,2.5-0.9,3.7c-0.7,2.4-1.5,4.8-2.6,7.2c-1,2.3-2.2,4.6-3.6,6.7c-2.7,4.3-6.1,8.2-9.9,11.5
				C1437.4,1135,1433.1,1137.8,1428.4,1139.7z"/></g><g><path fill="#1f4168" d="M1675,1135.1c-5.3-1.6-10.3-4.1-14.9-7.1c-4.6-3-8.9-6.7-12.6-10.9c-3.6-4.2-6.6-9-8.6-14.2
				c-2-5.2-3.1-10.7-3.3-16.2c0.4,2.7,0.7,5.5,1.4,8.1c0.6,2.7,1.5,5.3,2.6,7.8c1.1,2.5,2.3,4.9,3.8,7.3c1.4,2.3,3.1,4.5,4.9,6.6
				c3.5,4.2,7.7,7.8,12.2,10.9c2.3,1.6,4.6,3,7,4.3C1669.9,1133,1672.4,1134.1,1675,1135.1z"/></g><g><path fill="#1f4168" d="M1570.6,1114.2c-0.5-1.9-0.8-3.7-1.2-5.6c-0.3-1.9-0.6-3.8-0.9-5.7c-0.6-3.8-1-7.6-1.4-11.4
				c-0.3-3.8-0.6-7.6-0.7-11.4c-0.1-3.8-0.1-7.6,0.1-11.5c0.2,1.9,0.2,3.8,0.3,5.7c0.1,1.9,0.2,3.8,0.4,5.7
				c0.3,3.8,0.5,7.6,0.9,11.4c0.3,3.8,0.7,7.6,1.2,11.4C1569.6,1106.6,1570.1,1110.4,1570.6,1114.2z"/></g><g><path fill="#1f4168" d="M1563.1,1085.5c0,3.2-2.6,5.7-5.7,5.7s-5.7-2.6-5.7-5.7c0-3.2,2.6-5.7,5.7-5.7S1563.1,1082.4,1563.1,1085.5z
				"/></g><g><path fill="#1f4168" d="M1559.3,1448.8c1.9,4.3,3.3,8.8,4.3,13.4c0.5,2.3,0.8,4.6,1.1,7c0.2,2.3,0.3,4.7,0.2,7.1
				c-0.2,4.7-1.1,9.4-3.1,13.8c-1,2.1-2.3,4.1-3.8,6c-1.5,1.8-3.3,3.4-5.2,4.8c1.8-1.6,3.4-3.2,4.8-5.1c1.4-1.9,2.5-3.9,3.5-6
				c0.9-2.1,1.6-4.3,2-6.6c0.5-2.3,0.7-4.6,0.8-6.9c0.3-4.6-0.3-9.3-1.1-13.9c-0.4-2.3-0.9-4.6-1.5-6.8
				C1560.7,1453.3,1560.1,1451,1559.3,1448.8z"/></g><g><path fill="#ffc89f" d="M1321.6,733.9c-20.6,22.8-52.8,22-52.8,22s-5.4-15.7-9.2-54.1c-3.4-33.9-2.3-73.8-11-109.6
				c-9.2-37.7,6.8-56,7.1-68.5c0.4-12.5,10.9-9.8,10.9-9.8c1.8-3.4,5.4-1.8,5.4-1.8c-1.8-12.5,10.4-13.9,14.3-9.8
				c3.7,3.9,5.4,4.1,5.4,4.1s0.8-4.5,1.2-6c3.1-11.5,14-1,14-1c1.8-0.7,3.6-0.9,5.2-0.8c2.2,0.1,3.6,2.3,2.8,4.3
				c-2.6,6.3-3.2,15.3-3.2,15.3c4.8,9.2,8.2,31.3-1.5,45.1c-9.7,13.8-16.6,31.9-16.6,31.9c-2.9,23.2,2.3,58.8,7,77.2
				C1305.1,689.3,1321.6,733.9,1321.6,733.9z"/></g><g><path fill="#1f4168" d="M1636.8,1011.4h201.6c2.4,0,4.5-1.5,5.2-3.8l1.6-4.8l41.3-126.5c1.2-3.6-1.5-7.2-5.2-7.2h-201.6
								c-2.4,0-4.5,1.5-5.2,3.8l-42.9,131.3C1630.4,1007.8,1633,1011.4,1636.8,1011.4z"/><path fill="#1b1a2e" d="M1634.2,1006.6c0,0-0.1,0-0.1,0c-0.2-0.1-0.3-0.3-0.3-0.5l42.9-131.3c0.8-2.4,3.1-4.1,5.6-4.1h199.6
							c0.2,0,0.4,0.2,0.4,0.4c0,0.2-0.2,0.4-0.4,0.4h-199.6c-2.2,0-4.2,1.4-4.9,3.5l-42.9,131.3
							C1634.5,1006.5,1634.4,1006.6,1634.2,1006.6z"/><path fill="#fff" d="M1752.7 948.8c-.1 0-.2 0-.3 0-.5-.2-.8-.7-.6-1.3l3-9.1c.2-.5.7-.8 1.3-.6.5.2.8.7.6 1.3l-3 9.1C1753.5 948.5 1753.1 948.8 1752.7 948.8zM1759.9 948.8c-.1 0-.2 0-.3 0-.5-.2-.8-.7-.6-1.3l5.9-18.2c.2-.5.7-.8 1.3-.6.5.2.8.7.6 1.3l-5.9 18.2C1760.7 948.5 1760.3 948.8 1759.9 948.8zM1767 948.8c-.1 0-.2 0-.3 0-.5-.2-.8-.7-.6-1.3l5.9-18.2c.2-.5.7-.8 1.3-.6.5.2.8.7.6 1.3l-5.9 18.2C1767.8 948.5 1767.4 948.8 1767 948.8zM1774.2 948.8c-.1 0-.2 0-.3 0-.5-.2-.8-.7-.6-1.3l3-9.1c.2-.5.7-.8 1.3-.6.5.2.8.7.6 1.3l-3 9.1C1775 948.5 1774.6 948.8 1774.2 948.8z"/><g><path fill="#ffc89f" d="M1872.5,918.7c0,0,3.8,2.7,7.1,4.2c0.9,0.4,1.7,0.9,2.4,1.5c2,1.8,6.6,5.6,10.5,6.9
						c5.3,1.8-4.7,10.7-15.7,1.7c0,0,2.6,8.8-5.8,14c0,0,5.9,6.9-3,15.4c0,0,5,6.3-2.5,12.7c0,0,1.1,14.7-15,11.5l2.1-6.5l-1.7-2.8
						c0,0-11,0.2-11.8-9c0,0-7.5-1.7-10.8-5.6c-2.2-2.6-0.1-6.7,3.3-6.5c0,0,0.1,0,0.1,0c0,0-3.5-2.7-1.8-5.8
						c1.4-2.6,5.6-3.2,5.6-3.2s0.2-6.2,8.2-8.1c8-1.9,12.5-3.2,12.5-3.2l12.2-4.4L1872.5,918.7z"/><path fill="#ff9a6c" d="M1870.9 947.1c-2.6-1.4-5.7-1.6-8.5-1.2l-1.1.1-1.1.2c-.7.1-1.5.3-2.2.4-1.5.3-3 .4-4.5.6-3 .3-6 .3-9 .2l-4.5-.3c-1.5-.1-3-.2-4.5 0l0-.1c1.4-.6 3-.6 4.5-.7 1.5 0 3 0 4.5 0 3 .1 6 .3 9 .4 1.5 0 3 0 4.5-.3.7-.1 1.4-.4 2.1-.6l1.1-.4 1.1-.3c1.5-.3 3.1-.3 4.6 0C1868.3 945.3 1869.8 945.9 1870.9 947.1L1870.9 947.1zM1867.9 962.4c-1-1.2-2.4-1.9-3.9-2.4-1.5-.5-3-.7-4.5-.8-3.1-.2-6.3 0-9.4.2-3.2.2-6.4.1-9.5-.3-3.1-.5-6.3-1.3-9-3l0-.1c3 1.1 6 1.6 9.2 2 3.1.4 6.2.7 9.4.8 1.6.1 3.2.1 4.7 0 1.6-.1 3.1-.5 4.8-.4 1.6 0 3.2.3 4.8.9C1865.8 959.9 1867.3 960.9 1867.9 962.4L1867.9 962.4zM1839 968.2c0-.3-.1-.6-.1-1 0-.4.2-.7.5-1 .3-.3.7-.4 1.1-.4.4 0 .7.1 1 .2 1.3.2 2.5.4 3.8.7 1.2.3 2.5.6 3.8.8 1.3.2 2.6.2 3.8 0 .6-.1 1.3-.2 2-.2.7 0 1.3.2 2 .4 1.3.3 2.5.8 3.7 1.4 1.2.6 2.3 1.4 3.2 2.4.9 1 1.6 2.2 1.8 3.5l-.1 0c-1.1-2.4-3.2-3.9-5.4-4.9-1.1-.5-2.3-1-3.5-1.4-.6-.2-1.2-.4-1.8-.5-.6-.1-1.2-.1-1.9-.1-1.3 0-2.6-.2-3.9-.3-1.3-.1-2.6-.1-3.9-.3-1.3-.2-2.5-.4-3.8-.8l-.9-.2c-.2 0-.5 0-.7.1-.2.1-.4.3-.5.6C1839.2 967.6 1839.2 967.9 1839 968.2L1839 968.2zM1876.9 933.7c-.3-.8-.8-1.6-1.4-2.1-.6-.5-1.3-.8-2.1-.9-.4-.1-.8 0-1.2 0-.4 0-.8.1-1.2.1-.4.1-.8.1-1.3.2-.4.1-.9.2-1.3.3.4-.3.8-.5 1.1-.7.4-.2.8-.4 1.2-.5.4-.2.9-.2 1.3-.3.5 0 .9-.1 1.4 0 .9.1 1.9.5 2.6 1.3C1876.7 931.9 1877 932.8 1876.9 933.7zM1852.6 980c.7 0 1.2.2 1.7.4.5.2 1 .5 1.5.9-.6.4-1.3.3-1.9 0C1853.4 981.1 1852.8 980.7 1852.6 980z"/></g></g><g><path fill="#ff9a6c" d="M1280.7,520.5c1.9-0.4,3.6-1.2,4.9-2.5c1.2-1.3,1.7-3.1,1.5-4.9c-0.1-0.9-0.3-1.8-0.5-2.7
				c-0.2-0.9-0.5-1.8-0.8-2.7c-0.3-0.9-0.6-1.8-1.1-2.6c-0.4-0.8-0.9-1.6-1.7-2.3c0.9,0.4,1.5,1.2,2.1,2c0.6,0.8,1,1.7,1.4,2.6
				c0.7,1.8,1.3,3.6,1.5,5.6c0.1,1,0,2-0.3,3c-0.3,1-0.9,1.9-1.6,2.5C1284.6,519.9,1282.6,520.4,1280.7,520.5z"/></g><g><path fill="#ff9a6c" d="M1273.2,534.2c1.7,0.4,3.4,0.5,5,0c0.8-0.3,1.5-0.7,2-1.3c0.5-0.6,0.7-1.4,0.8-2.2c0.2-1.6,0.1-3.3,0-5
				l-0.4-5.1c0.6,1.6,1,3.3,1.3,5c0.2,1.7,0.3,3.5-0.1,5.3c-0.2,0.9-0.6,1.8-1.2,2.5c-0.6,0.7-1.5,1.2-2.3,1.4
				C1276.6,535,1274.8,534.7,1273.2,534.2z"/></g><g><path fill="#ff9a6c" d="M1259.9,524.4c0.6,1.6,1.3,3.1,2.1,4.6c0.8,1.5,1.6,2.9,2.7,4.1c1,1.2,2.4,2.2,3.9,2.4
				c1.6,0.2,3.2-0.4,4.6-1.3c-1.2,1.1-2.8,2.1-4.7,2.1c-0.9,0-1.8-0.3-2.6-0.8c-0.8-0.5-1.4-1.1-2-1.7c-1.2-1.3-2-2.9-2.6-4.5
				C1260.6,527.7,1260.2,526,1259.9,524.4z"/></g><g><path fill="#ff9a6c" d="M1280.7,520.5c1.4,0.4,2.6,1.1,3.7,1.9c1.1,0.8,2.2,1.7,3,2.9c-1.3-0.6-2.4-1.3-3.5-2.1
				C1282.7,522.4,1281.6,521.5,1280.7,520.5z"/></g><g><path fill="#ff9a6c" d="M1266.6,513.9c1.6,0.8,3,2.2,4,3.7c1.1,1.5,1.8,3.2,2.3,5c0.5,1.8,0.7,3.6,0.8,5.4c0,0.9-0.1,1.8-0.1,2.7
				c-0.1,0.9-0.2,1.8-0.4,2.7c-0.1-0.9,0-1.8-0.1-2.7l-0.2-2.7c-0.1-0.9-0.2-1.8-0.4-2.6l-0.2-1.3l-0.3-1.3c-0.5-1.7-1.1-3.3-2-4.9
				C1269.1,516.5,1268,515,1266.6,513.9z"/></g><g><path fill="#ff9a6c" d="M1272,512.1c1.1,1.8,2.2,3.5,3.6,5c0.7,0.7,1.5,1.4,2.3,1.9c0.8,0.6,1.8,1,2.7,1.5c-1.1-0.1-2.1-0.3-3.1-0.8
				c-1-0.5-1.9-1.1-2.6-1.9c-0.8-0.8-1.4-1.7-1.9-2.6C1272.5,514.2,1272.2,513.2,1272,512.1z"/></g><g><rect width="5.6" height="13.5" x="1357.3" y="546.6" fill="#1b1a2e" transform="rotate(-53.171 1360.185 553.374)"/><rect width="2.8" height="13.5" x="1356.4" y="532.5" fill="#1b1a2e" transform="rotate(-53.171 1357.82 539.27)"/><rect width="2.8" height="13.5" x="1356" y="539" fill="#1b1a2e" transform="rotate(36.825 1357.373 545.749)"/><polygon fill="#1f4168" points="1355.9 557.5 1273.6 495.8 1266.6 483.5 1280.4 486.7 1362.7 548.4"/><rect width="11.4" height="2.9" x="1343.4" y="543.8" fill="#fff" transform="rotate(-53.171 1349.147 545.286)"/><rect width="11.4" height="2.9" x="1338.8" y="540.4" fill="#fff" transform="rotate(-53.171 1344.5 541.823)"/><polygon fill="#1b1a2e" points="1269.4 484.1 1266.6 483.5 1268 486"/></g><g><path fill="#ffc89f" d="M1315,502.8c-2.6,6.3-3.2,15.3-3.2,15.3s-1.8,7.3-1.2,13.9c0.2,1.7,0,3.4-0.3,5.1c-0.9,4.8-2.4,14-1.4,18.5
				l-48,21.9c0,0,11.2-21.1,25.3-31.8c2.6-2,4.7-4.4,6-7.4l1.5-3.3c1.5-3.2,2-6.7,1.7-10.1c-0.8-6.9-0.3-19.7,11.6-25.7
				c1.8-0.7,3.6-0.9,5.2-0.8C1314.4,498.6,1315.9,500.8,1315,502.8z"/></g><g><path fill="#ff9a6c" d="M1260.9,577.5c1.7-3.6,3.7-7,5.9-10.3c2.2-3.3,4.4-6.5,7-9.6c2.5-3,5.3-5.9,8.2-8.5c1.4-1.3,3-2.6,4.5-3.8
				c1.5-1.2,2.8-2.7,3.9-4.3c1.1-1.6,1.8-3.4,2.6-5.2c0.8-1.8,1.4-3.6,1.8-5.5c0.3-1.9,0.3-3.8,0.1-5.8c-0.2-2-0.2-4-0.1-6
				c0.1-2,0.4-4,1-5.9c0.6-1.9,1.3-3.8,2.4-5.5c2-3.5,5.3-6.1,8.9-7.8l0,0.1c-1.7,1-3.3,2.1-4.7,3.5c-0.7,0.6-1.3,1.4-2,2.2
				c-0.5,0.8-1.1,1.6-1.6,2.4c-1,1.7-1.7,3.5-2.1,5.4c-0.5,1.9-0.8,3.8-0.9,5.7c-0.1,1.9-0.1,3.9,0.1,5.8c0.2,2,0.2,4-0.2,6
				c-0.3,2-1.1,3.9-2,5.7c-0.9,1.8-1.7,3.6-2.9,5.2c-1.2,1.6-2.6,3-4.2,4.3c-1.6,1.2-3.1,2.4-4.5,3.8c-2.9,2.7-5.4,5.7-7.8,8.8
				C1269.6,564.4,1265.1,570.8,1260.9,577.5L1260.9,577.5z"/></g><g><path fill="#ff9a6c" d="M1311.8,518.1c-0.3,1.6-0.5,3.1-0.6,4.7c-0.2,1.6-0.3,3.1-0.3,4.7c0,1.6,0,3.1,0.2,4.7
				c0.1,1.6,0,3.2-0.2,4.8c-0.6,3.1-1.1,6.2-1.5,9.3c-0.2,1.6-0.4,3.1-0.5,4.7c-0.1,1.6-0.1,3.1,0.1,4.7c-0.8-3.1-0.6-6.3-0.4-9.4
				c0.2-3.2,0.7-6.3,1.3-9.4c0.3-1.5,0.4-3.1,0.3-4.6c-0.1-1.6-0.1-3.2,0-4.8C1310.3,524.3,1310.9,521.1,1311.8,518.1z"/></g></g><g><path fill="#fff" d="M1344.6,677.2H623c-17.6,0-31.9-14.3-31.9-31.9V398c0-17.6,14.3-31.9,31.9-31.9h721.6
					c17.6,0,31.9,14.3,31.9,31.9v247.3C1376.4,662.9,1362.2,677.2,1344.6,677.2z" opacity=".5"/><path fill="#1b1a2e" d="M1344.6,677.7H623c-17.9,0-32.4-14.5-32.4-32.4V398c0-17.9,14.5-32.4,32.4-32.4h721.6
					c17.9,0,32.4,14.5,32.4,32.4v247.3C1376.9,663.2,1362.4,677.7,1344.6,677.7z M623,366.7c-17.3,0-31.4,14.1-31.4,31.4v247.3
					c0,17.3,14.1,31.4,31.4,31.4h721.6c17.3,0,31.4-14.1,31.4-31.4V398c0-17.3-14.1-31.4-31.4-31.4H623z"/><path fill="#1f4168" d="M744.2,453.2c-3.7,1-7.3,2.3-10.7,3.8l10.8,24.3c2-0.9,4-1.6,6.1-2.3L744.2,453.2z M731.9,457.8
								c-8.8,4.1-17,9.7-24.1,16.8c-7.8,7.8-13.8,16.8-18,26.6l25.2,8.7c5.6-12.2,15.4-22.1,27.6-27.9L731.9,457.8z M724.2,571.5
								l-21.2,16.1c1.6,1.8,3.2,3.6,4.9,5.4c0.9,0.9,1.8,1.8,2.7,2.6l17.9-19.6C727,574.5,725.6,573.1,724.2,571.5z M776.7,590.1
								c-3.1,0.5-6.4,0.8-9.7,0.8c-10.3,0-19.9-2.7-28.2-7.5l-14.8,22.2c12.9,7.7,27.6,11.8,43,11.8c5.4,0,10.7-0.5,15.8-1.5
								L776.7,590.1z M817.9,559.7c-5.9,11.6-15.6,20.8-27.5,26.2l10.8,24.3c9.2-4.1,17.6-9.9,25-17.2c7.2-7.2,12.9-15.5,17-24.5
								L817.9,559.7z M783.2,588.6l6.2,25.9c3.5-1,7-2.2,10.4-3.6l-10.8-24.3C787.1,587.3,785.1,588,783.2,588.6z M729.8,577
								l-17.9,19.6c2.1,1.9,4.4,3.7,6.7,5.3l14.7-22.2C732,578.9,730.9,578,729.8,577z M709.9,533.8c0-3.8,0.4-7.6,1.1-11.2
								l-25.3-8.8c-1.6,6.5-2.4,13.1-2.4,19.9c0,17.7,5.4,34.5,15.5,48.6l21.2-16C713.7,557.1,709.9,545.8,709.9,533.8z M767,450.1
								c-5.6,0-11,0.5-16.4,1.6l6.1,25.9c3.3-0.6,6.7-0.9,10.2-0.9c10.7,0,20.8,3,29.4,8.2l14.7-22.2
								C798.1,454.5,782.9,450.1,767,450.1z M826.2,474.6c-3-3-6.2-5.7-9.5-8.2l-14.7,22.2c13.5,10.5,22.3,26.8,22.3,45.2
								c0,4.6-0.6,9.1-1.6,13.5l25.2,8.7c2-7.1,3-14.6,3-22.2C850.7,511.4,842,490.4,826.2,474.6z"/><path fill="#f9a21b" d="M767 628.2c-25.2 0-49-9.8-66.8-27.7-17.8-17.8-27.7-41.6-27.7-66.8 0-25.2 9.8-49 27.7-66.8 17.8-17.8 41.6-27.7 66.8-27.7 25.2 0 49 9.8 66.8 27.7 17.8 17.8 27.7 41.6 27.7 66.8 0 .9-.7 1.7-1.7 1.7-.9 0-1.7-.7-1.7-1.7 0-50.3-40.9-91.2-91.2-91.2-50.3 0-91.2 40.9-91.2 91.2 0 50.3 40.9 91.2 91.2 91.2.9 0 1.7.7 1.7 1.7C768.7 627.5 768 628.2 767 628.2zM678.2 587.4c-.3 0-.6-.1-.7-.4-.9-1.4-1.7-2.9-2.5-4.4-.2-.4-.1-.9.3-1.1.4-.2.9-.1 1.1.3.8 1.4 1.6 2.9 2.4 4.3.2.4.1.9-.3 1.1C678.5 587.3 678.4 587.4 678.2 587.4zM671.6 574.1c-.3 0-.6-.2-.8-.5-1.3-3.1-2.4-6.2-3.4-9.4-.1-.4.1-.9.6-1 .4-.1.9.1 1 .6 1 3.1 2.1 6.2 3.3 9.2.2.4 0 .9-.4 1.1C671.8 574.1 671.7 574.1 671.6 574.1zM665.8 555.2c-.4 0-.7-.3-.8-.7-.7-3.2-1.2-6.6-1.5-9.8 0-.5.3-.9.7-.9.5 0 .9.3.9.7.3 3.2.8 6.5 1.5 9.7.1.4-.2.9-.6 1C665.9 555.2 665.9 555.2 665.8 555.2zM663.8 535.6c-.5 0-.8-.4-.8-.8 0-.3 0-.6 0-1 0-3 .1-6 .4-9 0-.5.4-.8.9-.8.5 0 .8.4.8.9-.2 2.9-.4 5.9-.4 8.8 0 .3 0 .6 0 1C664.6 535.2 664.2 535.6 663.8 535.6 663.8 535.6 663.8 535.6 663.8 535.6zM665.5 515.9c0 0-.1 0-.2 0-.5-.1-.7-.5-.7-1 .6-3.3 1.4-6.5 2.3-9.7.1-.4.6-.7 1-.6.4.1.7.6.6 1-.9 3.1-1.6 6.3-2.2 9.5C666.2 515.6 665.9 515.9 665.5 515.9zM670.9 496.9c-.1 0-.2 0-.3-.1-.4-.2-.6-.6-.5-1.1 1.2-3.1 2.6-6.1 4.1-9.1.2-.4.7-.6 1.1-.4.4.2.6.7.4 1.1-1.5 2.9-2.8 5.9-4 8.9C671.5 496.7 671.2 496.9 670.9 496.9zM679.8 479.3c-.2 0-.3 0-.4-.1-.4-.2-.5-.8-.3-1.1 1.8-2.8 3.7-5.5 5.7-8.1.3-.4.8-.4 1.2-.1.4.3.4.8.1 1.2-2 2.6-3.9 5.3-5.6 8C680.3 479.2 680.1 479.3 679.8 479.3zM691.9 463.7c-.2 0-.4-.1-.6-.2-.3-.3-.3-.8 0-1.2 2.3-2.4 4.7-4.7 7.2-6.9.3-.3.9-.3 1.2.1.3.3.3.9-.1 1.2-2.4 2.1-4.8 4.4-7.1 6.8C692.4 463.6 692.2 463.7 691.9 463.7zM706.8 450.7c-.3 0-.5-.1-.7-.3-.3-.4-.2-.9.2-1.2 2.7-1.9 5.5-3.8 8.4-5.4.4-.2.9-.1 1.1.3.2.4.1.9-.3 1.1-2.8 1.6-5.6 3.4-8.2 5.3C707.1 450.7 707 450.7 706.8 450.7zM723.8 440.8c-.3 0-.6-.2-.8-.5-.2-.4 0-.9.4-1.1 3-1.4 6.1-2.6 9.2-3.7.4-.2.9.1 1.1.5.2.4-.1.9-.5 1.1-3.1 1.1-6.1 2.3-9.1 3.7C724.1 440.8 724 440.8 723.8 440.8zM742.5 434.3c-.4 0-.7-.3-.8-.6-.1-.4.2-.9.6-1 3.2-.8 6.5-1.4 9.8-1.9.5-.1.9.2.9.7.1.5-.2.9-.7.9-3.2.5-6.5 1.1-9.6 1.9C742.6 434.3 742.5 434.3 742.5 434.3zM762.1 431.4c-.4 0-.8-.3-.8-.8 0-.5.3-.8.8-.9 1.7-.1 3.3-.1 5-.1.5 0 .8.4.8.8s-.4.8-.8.8C765.4 431.3 763.7 431.4 762.1 431.4 762.1 431.4 762.1 431.4 762.1 431.4z"/><path fill="#f9a21b" d="M772.3,638.6c-0.9,0-1.6-0.7-1.7-1.6c0-0.9,0.7-1.7,1.6-1.7c54-2.7,96.4-47.3,96.4-101.5
									c0-25.4-9.4-49.8-26.6-68.5c-0.6-0.7-0.6-1.7,0.1-2.3c0.7-0.6,1.7-0.6,2.3,0.1c17.7,19.4,27.4,44.5,27.4,70.8
									c0,27.1-10.3,52.8-29,72.4C824.4,625.7,799.3,637.2,772.3,638.6C772.4,638.6,772.4,638.6,772.3,638.6z"/><polygon fill="#f9a21b" points="840.3 469.4 837.4 458.2 848.6 461.4"/><rect width="314.7" height="1" x="927.4" y="463" fill="#d2d9e1"/><g><rect width="314.7" height="1" x="927.4" y="528.4" fill="#d2d9e1"/></g><g><rect width="314.7" height="1" x="927.4" y="543.6" fill="#d2d9e1"/></g><g><rect width="314.7" height="1" x="927.4" y="560.1" fill="#d2d9e1"/></g><g><rect width="314.7" height="1" x="927.4" y="579.2" fill="#d2d9e1"/></g><g><rect width="314.7" height="1" x="927.4" y="609.3" fill="#d2d9e1"/></g><g><path fill="#1f4168" d="M927.5,610.2l-0.2-1c10-1.7,17-12.1,23.1-23.1l0.1-0.2c5.7-10.3,12.2-22,22.5-25.6
							c10-3.5,20.7,1.7,28.9,6.6c1,0.6,2,1.2,3,1.8c7.8,4.8,15.8,9.7,24.5,9.8c0.1,0,0.2,0,0.3,0c13.5,0,24.9-11.4,35.3-23.7
							l0.4-0.5c9.7-11.5,20.6-24.5,34.6-26.7c10.9-1.7,21.5,3.4,31.7,8.4c9.9,4.8,20.1,9.8,30.6,8.4c17.5-2.3,30-21.7,38.9-38.3
							c7-13.1,21.6-36,40.7-43.2l0.4,0.9c-18.8,7.1-33.2,29.8-40.1,42.8c-9,16.8-21.6,36.4-39.6,38.8c-10.8,1.4-21.1-3.6-31.1-8.5
							c-10.1-4.9-20.5-10-31.1-8.3c-13.6,2.2-24,14.5-34,26.4l-0.4,0.5c-10.6,12.6-22.3,24.2-36.4,24c-8.9-0.1-17.1-5.1-25-10
							c-1-0.6-2-1.2-3-1.8c-8-4.8-18.5-10-28.1-6.5c-9.9,3.5-16.3,15-21.9,25.1l-0.1,0.2C945.1,597.8,937.9,608.4,927.5,610.2z"/><path fill="#f9a21b" d="M1246.2 463.5c0 2.2-1.8 4-4 4-2.2 0-4-1.8-4-4 0-2.2 1.8-4 4-4C1244.4 459.5 1246.2 461.3 1246.2 463.5zM1171.2 544.1c0 2.2-1.8 4-4 4-2.2 0-4-1.8-4-4 0-2.2 1.8-4 4-4C1169.4 540.1 1171.2 541.9 1171.2 544.1zM1105.3 528.9c0 2.2-1.8 4-4 4-2.2 0-4-1.8-4-4s1.8-4 4-4C1103.5 524.8 1105.3 526.6 1105.3 528.9zM1036.8 579.7c0 2.2-1.8 4-4 4s-4-1.8-4-4c0-2.2 1.8-4 4-4S1036.8 577.4 1036.8 579.7zM979.2 560.6c0 2.2-1.8 4-4 4-2.2 0-4-1.8-4-4 0-2.2 1.8-4 4-4C977.4 556.6 979.2 558.3 979.2 560.6zM931.4 609.8c0 2.2-1.8 4-4 4-2.2 0-4-1.8-4-4 0-2.2 1.8-4 4-4C929.6 605.7 931.4 607.5 931.4 609.8z"/></g><g><rect width="26.2" height="346.4" x="857.4" y="1201.7" fill="#f0f2f5" transform="rotate(-180 870.478 1374.912)"/><rect width="26.2" height="234.2" x="817.8" y="1313.9" fill="#f0f2f5" transform="rotate(-180 830.906 1431.016)"/><rect width="26.2" height="173.2" x="897" y="1374.9" fill="#f0f2f5" transform="rotate(-180 910.049 1461.513)"/><rect width="26.2" height="114.6" x="936.5" y="1433.5" fill="#f0f2f5" transform="rotate(-180 949.62 1490.793)"/><rect width="26.2" height="346.4" x="778.3" y="1201.7" fill="#f0f2f5" transform="rotate(-180 791.335 1374.912)"/><rect width="26.2" height="536.7" x="738.7" y="1011.4" fill="#f0f2f5" transform="rotate(-180 751.764 1279.777)"/><rect width="26.2" height="441.6" x="699.1" y="1106.5" fill="#f0f2f5" transform="rotate(-180 712.192 1327.32)"/><rect width="26.2" height="346.4" x="620" y="1201.7" fill="#f0f2f5" transform="rotate(-180 633.05 1374.912)"/><rect width="26.2" height="441.6" x="580.4" y="1106.5" fill="#f0f2f5" transform="rotate(-180 593.478 1327.32)"/><rect width="26.2" height="294.6" x="659.5" y="1253.5" fill="#f0f2f5" transform="rotate(-180 672.62 1400.821)"/><g><rect width="26.2" height="224.2" x="1253.4" y="1323.9" fill="#f0f2f5" transform="rotate(-180 1266.495 1436.027)"/><rect width="26.2" height="151.6" x="1213.8" y="1396.6" fill="#f0f2f5" transform="rotate(-180 1226.924 1472.334)"/><rect width="26.2" height="112.1" x="1293" y="1436" fill="#f0f2f5" transform="rotate(-180 1306.066 1492.07)"/><rect width="26.2" height="74.2" x="1332.6" y="1473.9" fill="#f0f2f5" transform="rotate(-180 1345.638 1511.019)"/><rect width="26.2" height="224.2" x="1174.3" y="1323.9" fill="#f0f2f5" transform="rotate(-180 1187.352 1436.027)"/><rect width="26.2" height="347.3" x="1134.7" y="1200.8" fill="#f0f2f5" transform="rotate(-180 1147.78 1374.46)"/><rect width="26.2" height="285.8" x="1095.1" y="1262.3" fill="#f0f2f5" transform="rotate(-180 1108.21 1405.227)"/><rect width="26.2" height="224.2" x="1016" y="1323.9" fill="#f0f2f5" transform="rotate(-180 1029.067 1436.027)"/><rect width="26.2" height="285.8" x="976.4" y="1262.3" fill="#f0f2f5" transform="rotate(-180 989.496 1405.227)"/><rect width="26.2" height="190.6" x="1055.6" y="1357.5" fill="#f0f2f5" transform="rotate(-180 1068.638 1452.794)"/></g><g><rect width="26.2" height="289.6" x="857.4" y="1258.5" fill="#f9a21b" transform="rotate(-180 870.478 1403.323)"/><rect width="26.2" height="195.8" x="817.8" y="1352.3" fill="#1f4168" transform="rotate(-180 830.906 1450.224)"/><rect width="26.2" height="144.8" x="897" y="1403.3" fill="#1f4168" transform="rotate(-180 910.049 1475.719)"/><rect width="26.2" height="95.8" x="936.5" y="1452.3" fill="#1f4168" transform="rotate(-180 949.62 1500.195)"/><rect width="26.2" height="289.6" x="778.3" y="1258.5" fill="#1f4168" transform="rotate(-180 791.335 1403.323)"/><rect width="26.2" height="448.6" x="738.7" y="1099.5" fill="#f9a21b" transform="rotate(-180 751.764 1323.793)"/><rect width="26.2" height="369.2" x="699.1" y="1179" fill="#1f4168" transform="rotate(-180 712.192 1363.537)"/><rect width="26.2" height="289.6" x="620" y="1258.5" fill="#f9a21b" transform="rotate(-180 633.05 1403.323)"/><rect width="26.2" height="369.2" x="580.4" y="1179" fill="#f9a21b" transform="rotate(-180 593.478 1363.537)"/><rect width="26.2" height="246.3" x="659.5" y="1301.8" fill="#f9a21b" transform="rotate(-180 672.62 1424.982)"/><g><rect width="26.2" height="187.4" x="1253.4" y="1360.7" fill="#f9a21b" transform="rotate(-180 1266.495 1454.413)"/><rect width="26.2" height="126.7" x="1213.8" y="1421.4" fill="#f9a21b" transform="rotate(-180 1226.924 1484.765)"/><rect width="26.2" height="93.7" x="1293" y="1454.4" fill="#1f4168" transform="rotate(-180 1306.066 1501.263)"/><rect width="26.2" height="62" x="1332.6" y="1486.1" fill="#f9a21b" transform="rotate(-180 1345.638 1517.104)"/><rect width="26.2" height="187.4" x="1174.3" y="1360.7" fill="#1f4168" transform="rotate(-180 1187.352 1454.413)"/><rect width="26.2" height="290.3" x="1134.7" y="1257.8" fill="#f9a21b" transform="rotate(-180 1147.78 1402.945)"/><rect width="26.2" height="238.9" x="1095.1" y="1309.2" fill="#1f4168" transform="rotate(-180 1108.21 1428.665)"/><rect width="26.2" height="187.4" x="1016" y="1360.7" fill="#f9a21b" transform="rotate(-180 1029.067 1454.413)"/><rect width="26.2" height="238.9" x="976.4" y="1309.2" fill="#f9a21b" transform="rotate(-180 989.496 1428.665)"/><rect width="26.2" height="159.4" x="1055.6" y="1388.7" fill="#1f4168" transform="rotate(-180 1068.638 1468.43)"/></g></g><g><rect width="778.3" height="1" x="580.4" y="1573.6" fill="#1b1a2e"/></g></g><g><path fill="#f0f2f5" d="M1296.9,1133h-336c-17.6,0-31.9-14.3-31.9-31.9v-96c0-17.6,14.3-31.9,31.9-31.9h336
					c17.6,0,31.9,14.3,31.9,31.9v96C1328.8,1118.7,1314.5,1133,1296.9,1133z"/><path fill="#fff" d="M1288,1121.1H952c-17.6,0-31.9-14.3-31.9-31.9v-96c0-17.6,14.3-31.9,31.9-31.9h336
						c17.6,0,31.9,14.3,31.9,31.9v96C1320,1106.8,1305.7,1121.1,1288,1121.1z"/><path fill="#1b1a2e" d="M1288,1121.6H952c-17.9,0-32.4-14.5-32.4-32.4v-96c0-17.9,14.5-32.4,32.4-32.4h336
						c17.9,0,32.4,14.5,32.4,32.4v96C1320.5,1107,1305.9,1121.6,1288,1121.6z M952,961.8c-17.3,0-31.4,14.1-31.4,31.4v96
						c0,17.3,14.1,31.4,31.4,31.4h336c17.3,0,31.4-14.1,31.4-31.4v-96c0-17.3-14.1-31.4-31.4-31.4H952z"/><g><path fill="#f0f2f5" d="M1226.3,1087.3c-26.7,0-48.4-21.7-48.4-48.4c0-26.7,21.7-48.4,48.4-48.4c26.7,0,48.4,21.7,48.4,48.4
								C1274.7,1065.6,1253,1087.3,1226.3,1087.3z M1226.3,1012c-14.9,0-27,12.1-27,27c0,14.9,12.1,27,27,27c14.9,0,27-12.1,27-27
								C1253.2,1024.1,1241.1,1012,1226.3,1012z"/><path fill="#f9a21b" d="M1280,1038.9h-32.1c0-11.9-9.7-21.6-21.6-21.6v-32.1C1255.9,985.2,1280,1009.3,1280,1038.9z"/><path fill="#1f4168" d="M1202,1038.9h-26.8c0-28.2,22.9-51.1,51.1-51.1v26.8C1212.9,1014.6,1202,1025.5,1202,1038.9z"/><g><rect width="178.7" height="13.1" x="960" y="995" fill="#f0f2f5"/><rect width="178.7" height="13.1" x="960" y="1029.7" fill="#f0f2f5"/><rect width="89.4" height="13.1" x="960" y="1064.4" fill="#f0f2f5"/></g></g></g><g><path fill="#f0f2f5" d="M472.2,513.7v29c0,11.3-9.1,20.4-20.4,20.4h-10.7V592l-20.9-28.9h-79.5c-11.3,0-20.4-9.1-20.4-20.4v-29
							c0-11.3,9.1-20.4,20.4-20.4h111.1C463,493.2,472.2,502.4,472.2,513.7z"/><path fill="#fff" d="M538.2,477.4v29c0,11.3-9.1,20.4-20.4,20.4h-10.7v28.9l-20.9-28.9h-79.5c-11.3,0-20.4-9.1-20.4-20.4v-29
								c0-11.3,9.1-20.4,20.4-20.4h111.1C529.1,456.9,538.2,466.1,538.2,477.4z"/><path fill="#1b1a2e" d="M507.3,556.3L486.1,527h-79.4c-11.4,0-20.6-9.3-20.6-20.6v-29c0-11.4,9.3-20.6,20.6-20.6h111.1
								c11.4,0,20.6,9.3,20.6,20.6v29c0,11.4-9.3,20.6-20.6,20.6h-10.5V556.3z M406.7,457.1c-11.2,0-20.2,9.1-20.2,20.2v29
								c0,11.2,9.1,20.2,20.2,20.2h79.6l0.1,0.1l20.6,28.4v-28.5h10.9c11.2,0,20.2-9.1,20.2-20.2v-29c0-11.2-9.1-20.2-20.2-20.2
								H406.7z"/><g><path fill="#f0f2f5" d="M1540.2,255v37.8c0,14.7-11.9,26.7-26.7,26.7h-13.9v37.7l-27.3-37.7h-291.8c-14.7,0-26.7-11.9-26.7-26.7
							V255c0-14.7,11.9-26.7,26.7-26.7h333.1C1528.2,228.3,1540.2,240.2,1540.2,255z"/><path fill="#fff" d="M1623.3,233.3v37.8c0,14.7-11.9,26.7-26.7,26.7h-13.9v37.7l-27.3-37.7h-291.8
								c-14.7,0-26.7-11.9-26.7-26.7v-37.8c0-14.7,11.9-26.7,26.7-26.7h333.1C1611.3,206.7,1623.3,218.6,1623.3,233.3z"/><path fill="#1b1a2e" d="M1263.5,206.3h333.1c14.9,0,27,12.1,27,27v37.8c0,14.9-12.1,27-27,27H1583v38.5l-27.9-38.5h-291.6
								c-14.9,0-27-12.1-27-27v-37.8C1236.5,218.4,1248.6,206.3,1263.5,206.3z M1596.6,297.4c14.5,0,26.3-11.8,26.3-26.3v-37.8
								c0-14.5-11.8-26.3-26.3-26.3h-333.1c-14.5,0-26.3,11.8-26.3,26.3v37.8c0,14.5,11.8,26.3,26.3,26.3h292l0.1,0.2l26.7,36.8v-37
								H1596.6z"/></g><g><path fill="#f0f2f5" d="M1950.1,390.1l-14.5,14.5c15.3,19.9,24.5,44.8,24.5,71.8c0,65-52.9,117.9-117.9,117.9
											s-117.9-52.9-117.9-117.9c0-65,52.9-117.9,117.9-117.9c34.4,0,65.3,14.8,86.9,38.3l14.4-14.4
											c-25.3-27.2-61.3-44.2-101.3-44.2c-76.2,0-138.2,62-138.2,138.2c0,76.2,62,138.2,138.2,138.2s138.2-62,138.2-138.2
											C1980.5,443.8,1969.1,413.8,1950.1,390.1z"/><path fill="#1f4168" d="M1842.2,580.4c-57.4,0-104.1-46.7-104.1-104.1c0-57.4,46.7-104.1,104.1-104.1
											c29.3,0,57.4,12.5,77.1,34.3l-2.3,2c-19.2-21.1-46.5-33.3-74.9-33.3c-55.7,0-101,45.3-101,101c0,55.7,45.3,101,101,101
											c55.7,0,101-45.3,101-101c0-21.7-6.8-42.5-19.8-59.9l2.5-1.8c13.3,18,20.4,39.3,20.4,61.7
											C1946.3,533.8,1899.6,580.4,1842.2,580.4z M1842.2,560.1c-46.2,0-83.7-37.6-83.7-83.7c0-46.2,37.6-83.7,83.7-83.7
											c24,0,46.8,10.3,62.7,28.4l-2.3,2c-15.3-17.4-37.4-27.3-60.5-27.3c-44.5,0-80.7,36.2-80.7,80.7
											c0,44.5,36.2,80.7,80.7,80.7c44.5,0,80.7-36.2,80.7-80.7c0-16.3-4.8-32-14-45.4l2.5-1.7c9.5,13.9,14.6,30.2,14.6,47.1
											C1925.9,522.5,1888.4,560.1,1842.2,560.1z"/><path fill="#f0f2f5" d="M1899,441.2l-14.9,14.9c3,6.1,4.6,13,4.6,20.2c0,25.6-20.8,46.5-46.5,46.5
											c-25.6,0-46.5-20.8-46.5-46.5c0-25.6,20.8-46.5,46.5-46.5c14.7,0,27.8,6.8,36.3,17.5l14.4-14.4
											c-12.3-14.3-30.4-23.4-50.7-23.4c-36.8,0-66.8,30-66.8,66.8c0,36.8,30,66.8,66.8,66.8s66.8-30,66.8-66.8
											C1909,463.5,1905.4,451.4,1899,441.2z"/><path fill="#1f4168" d="M1872.2,468c-1-3.5-2.6-6.8-4.7-9.7c-5.6-7.9-14.9-13-25.3-13c-17.1,0-31.1,14-31.1,31.1
											c0,17.2,14,31.1,31.1,31.1s31.1-13.9,31.1-31.1C1873.3,473.5,1872.9,470.7,1872.2,468z M1842.2,487.1
											c-5.9,0-10.8-4.8-10.8-10.8c0-5.9,4.8-10.8,10.8-10.8s10.8,4.8,10.8,10.8C1853,482.3,1848.1,487.1,1842.2,487.1z"/><g><rect width="129.5" height="10.2" x="1835" y="414.3" fill="#1f4168" transform="rotate(-45.001 1899.744 419.414)"/><polygon fill="#1f4168" points="1935.7 379.5 1946.7 335.3 1980.2 301.8 1980.2 338.9 2017.3 338.9 1983.8 372.4 1939.6 383.4"/></g></g></g><g><rect width="1634" height="3" x="304.2" y="1775.1" fill="#1b1a2e"/></g></g></svg>