<svg xmlns="http://www.w3.org/2000/svg" viewBox="0 0 489.427 366.407"><g data-name="Layer 2"><g data-name="Layer 1"><path fill="none" stroke="#f4c5a2" stroke-miterlimit="10" d="M175.62041,16.94621c109.75435,0,198.72784,80.48922,198.72784,179.77769,0,67.80468-41.49371,126.84213-102.76312,157.46532"/><ellipse cx="181.62" cy="199.724" fill="#f9dcbb" rx="181.62" ry="164.302"/><path fill="#935b50" d="M369.45606,364.40637h-5.19063l-.24489-72.18563h-201.501l-.348,72.18563H156.921V2.4191A2.4191,2.4191,0,0,1,159.34005,0H367.037a2.4191,2.4191,0,0,1,2.4191,2.4191Z"/><rect width="201.707" height="68.061" x="162.335" y="220.241" fill="#d6694b" rx="1.21"/><path fill="#fff" d="M229.61892,278.85031h53.33553a0,0,0,0,1,0,0v8.46782a0,0,0,0,1,0,0H229.61892a3.6436,3.6436,0,0,1-3.6436-3.6436v-1.18063A3.6436,3.6436,0,0,1,229.61892,278.85031Z"/><path fill="#f65b2b" d="M284.62242,287.53488a.76723.76723,0,0,1-.76722.76722H228.49881c-2.11357,0-3.83279-2.32141-3.83279-5.17531,0-2.8532,1.71922-5.17461,3.83279-5.17461H283.8552a.76723.76723,0,0,1,.76722.76722v.6039a.76723.76723,0,0,1-.76722.76722H228.49881c-1.24031,0-2.24915,1.36221-2.24915,3.03627,0,1.67475,1.00884,3.037,2.24915,3.037H283.8552a.76722.76722,0,0,1,.76722.76722Z"/><path fill="#fff" d="M221.29756,268.5004h53.33553a0,0,0,0,1,0,0v8.46782a0,0,0,0,1,0,0H221.29756a3.6436,3.6436,0,0,1-3.6436-3.6436V272.144a3.6436,3.6436,0,0,1,3.6436-3.6436Z"/><path fill="#ffba55" d="M276.30106,277.185a.76722.76722,0,0,1-.76722.76722H220.17745c-2.11357,0-3.83279-2.3214-3.83279-5.1753,0-2.85321,1.71922-5.17461,3.83279-5.17461h55.35639a.76722.76722,0,0,1,.76722.76721v.6039a.76722.76722,0,0,1-.76722.76722H220.17745c-1.24031,0-2.24915,1.36222-2.24915,3.03628,0,1.67475,1.00884,3.037,2.24915,3.037h55.35639a.76723.76723,0,0,1,.76722.76722Z"/><path fill="#fff" d="M238.331,258.15048h53.33553a0,0,0,0,1,0,0v8.46782a0,0,0,0,1,0,0H238.331a3.6436,3.6436,0,0,1-3.6436-3.6436v-1.18063a3.6436,3.6436,0,0,1,3.6436-3.6436Z"/><path fill="#f65b2b" d="M293.33455,266.83505a.76723.76723,0,0,1-.76722.76722h-55.3564c-2.11357,0-3.83278-2.32141-3.83278-5.17531,0-2.8532,1.71921-5.17461,3.83278-5.17461h55.3564a.76723.76723,0,0,1,.76722.76722v.6039a.76723.76723,0,0,1-.76722.76722h-55.3564c-1.2403,0-2.24915,1.36221-2.24915,3.03627,0,1.67475,1.00885,3.037,2.24915,3.037h55.3564a.76722.76722,0,0,1,.76722.76722Z"/><rect width="201.707" height="68.061" x="162.335" y="77.933" fill="#d6694b" rx="1.21"/><path fill="#fff" d="M253.39466,136.5415h53.33553a0,0,0,0,1,0,0v8.46782a0,0,0,0,1,0,0H253.39466a3.6436,3.6436,0,0,1-3.6436-3.6436V140.1851A3.6436,3.6436,0,0,1,253.39466,136.5415Z"/><path fill="#f65b2b" d="M308.39816,145.22607a.76722.76722,0,0,1-.76722.76722H252.27455c-2.11357,0-3.83278-2.3214-3.83278-5.17531,0-2.8532,1.71921-5.1746,3.83278-5.1746h55.35639a.76721.76721,0,0,1,.76722.76721v.6039a.76721.76721,0,0,1-.76722.76722H252.27455c-1.24031,0-2.24915,1.36222-2.24915,3.03627,0,1.67476,1.00884,3.037,2.24915,3.037h55.35639a.76722.76722,0,0,1,.76722.76722Z"/><path fill="#fff" d="M245.0733,126.19159h53.33553a0,0,0,0,1,0,0v8.46782a0,0,0,0,1,0,0H245.0733a3.6436,3.6436,0,0,1-3.6436-3.6436v-1.18063a3.6436,3.6436,0,0,1,3.6436-3.6436Z"/><path fill="#ffba55" d="M300.0768,134.87616a.76722.76722,0,0,1-.76722.76722H243.95319c-2.11357,0-3.83278-2.32141-3.83278-5.17531,0-2.85321,1.71921-5.17461,3.83278-5.17461h55.35639a.76722.76722,0,0,1,.76722.76722v.6039a.76722.76722,0,0,1-.76722.76722H243.95319c-1.24031,0-2.24915,1.36221-2.24915,3.03627,0,1.67475,1.00884,3.037,2.24915,3.037h55.35639a.76721.76721,0,0,1,.76722.76722Z"/><path fill="#fff" d="M262.10679,115.84167h53.33553a0,0,0,0,1,0,0v8.46782a0,0,0,0,1,0,0H262.10679a3.6436,3.6436,0,0,1-3.6436-3.6436v-1.18063a3.6436,3.6436,0,0,1,3.6436-3.6436Z"/><path fill="#f65b2b" d="M317.11029,124.52624a.76723.76723,0,0,1-.76722.76722H260.98668c-2.11358,0-3.83279-2.32141-3.83279-5.17531,0-2.8532,1.71921-5.17461,3.83279-5.17461h55.35639a.76723.76723,0,0,1,.76722.76722v.6039a.76722.76722,0,0,1-.76722.76722H260.98668c-1.24031,0-2.24916,1.36222-2.24916,3.03627,0,1.67476,1.00885,3.037,2.24916,3.037h55.35639a.76723.76723,0,0,1,.76722.76722Z"/><rect width="201.707" height="68.061" x="162.335" y="6.778" fill="#d6694b" rx="1.21"/><rect width="201.707" height="68.061" x="162.335" y="149.087" fill="#d6694b" rx="1.21"/><rect width="42.383" height="25.523" x="172.853" y="223.335" fill="#7ca1b1" rx="1.719"/><path fill="#ffba55" d="M197.35836,248.85781v1.93865a13.47947,13.47947,0,0,0,3.89342,9.43175c4.96857,5.06823,11.94836,15.40967,3.32515,28.07389H182.80465c-8.62321-12.66422-1.64342-23.00566,3.32515-28.07389a13.47947,13.47947,0,0,0,3.89342-9.43175v-1.93865Z"/><path fill="#6a8d99" d="M183.21714 226.89273a66.53645 66.53645 0 01-1.44649 8.542 65.75687 65.75687 0 01-2.42059 8.31854 65.75471 65.75471 0 011.44649-8.542A66.53693 66.53693 0 01183.21714 226.89273zM191.41537 230.75986a23.5982 23.5982 0 01.9617 5.05927 23.332 23.332 0 01-.0336 5.14984 23.33142 23.33142 0 01-.9617-5.05933A23.59794 23.59794 0 01191.41537 230.75986zM200.07765 226.89273a60.64669 60.64669 0 012.3431 7.93122 59.93481 59.93481 0 011.3693 8.15588 59.93385 59.93385 0 01-2.34311-7.93115A60.64313 60.64313 0 01200.07765 226.89273zM209.51333 228.43961a13.0978 13.0978 0 011.26262 3.61047 12.95053 12.95053 0 01.28422 3.81433 12.95078 12.95078 0 01-1.26261-3.61053A13.09822 13.09822 0 01209.51333 228.43961z"/><path fill="#7ca1b1" d="M202.67289,51.53324h7.906A4.29676,4.29676,0,0,1,214.8757,55.83V74.83889a0,0,0,0,1,0,0H198.37612a0,0,0,0,1,0,0V55.83A4.29676,4.29676,0,0,1,202.67289,51.53324Z"/><path fill="#fff" d="M208.86882,49.0712a2.462,2.462,0,0,1-4.92409,0c0-1.35975,2.46205-5.24635,2.46205-5.24635S208.86882,47.71145,208.86882,49.0712Z"/><rect width="37.588" height="36.66" x="250.04" y="180.488" fill="#d77f4a" rx="1.21"/><rect width="34.892" height="34.03" x="251.388" y="181.803" fill="#fff" rx="1.21"/><path fill="#f65b2b" d="M267.98349,212.19787c-.54.01259-1.52778-.1905-5.87784-7.42492-3.41181-5.67412-3.87464-7.32926-4.0215-8.97159-.12462-1.38974-.4473-4.99688,1.7015-6.34193a3.92347,3.92347,0,0,1,4.17634.15463c.509.37848.86145.898,1.54667,3.09354,1.14678,3.67449,1.13167,5.3355,1.7015,5.414.57821.07972.89837-1.588,2.7845-4.33118a8.75433,8.75433,0,0,1,3.09376-3.24816c.14644-.07679,2.64435-1.35428,4.0215-.46409,1.51939.98188,1.61632,4.56405-.46409,8.66213a63.07367,63.07367,0,0,1-3.403,6.96085C270.79989,210.00774,269.5461,212.16158,267.98349,212.19787Z"/><path fill="#ffba55" d="M337.28188,169.50518h0a16.19019,16.19019,0,0,1,16.19019,16.19019v31.45232a0,0,0,0,1,0,0H321.09169a0,0,0,0,1,0,0V185.69537A16.19019,16.19019,0,0,1,337.28188,169.50518Z"/><circle cx="337.849" cy="186.469" r="12.117" fill="#fff"/><path fill="#080200" d="M341.30367,176.93c-.84072,3.29218-1.91616,6.49933-3.05227,9.68451l-.179-.51049c3.00617,1.84149,5.97263,3.7478,8.7999,5.88189-3.18811-1.54388-6.237-3.31549-9.24616-5.152l-.29965-.18287.12055-.32788C338.61385,183.14914,339.84139,179.997,341.30367,176.93Z"/><path fill="#ffba55" d="M198.89181,141.24966v.44687a4.29833,4.29833,0,0,1-4.29676,4.29676H181.68757a4.29833,4.29833,0,0,1-4.29676-4.29676v-17.3933a4.29833,4.29833,0,0,1,4.29676-4.29677H194.595a4.29833,4.29833,0,0,1,4.29676,4.29677v16.94643Z"/><path fill="#fff" d="M206.0071,124.44059h-7.11525v2.57806h5.82622v11.65287h-5.82622v2.57806h7.11525a1.28722,1.28722,0,0,0,1.289-1.289V125.72962A1.28735,1.28735,0,0,0,206.0071,124.44059Z"/><rect width="5.34" height="5.34" x="188.141" y="128.903" fill="#fff" rx=".859"/><line x1="190.811" x2="190.811" y1="128.903" y2="120.006" fill="none" stroke="#e5caf3" stroke-miterlimit="10" stroke-width="1.21"/><polygon fill="#ffba55" points="270.288 74.839 253.189 74.839 247.428 44.559 276.049 44.559 270.288 74.839"/><polygon fill="#e5caf3" points="275.391 48.015 276.049 44.559 247.428 44.559 248.085 48.015 275.391 48.015"/><rect width="5.108" height="5.108" x="252.001" y="60.484" fill="#e5caf3" transform="rotate(45 254.555 63.038)"/><rect width="5.108" height="5.108" x="259.225" y="60.484" fill="#e5caf3" transform="rotate(45 261.78 63.039)"/><rect width="5.108" height="5.108" x="266.366" y="60.484" fill="#e5caf3" transform="rotate(45 268.92 63.039)"/><path fill="#558031" d="M268.39871,19.07523s1.50149,21.21243-7.29889,25.70792C261.09982,44.78315,258.05316,36.74079,268.39871,19.07523Z"/><path fill="#849f4c" d="M240.00157,28.18717s14.397,2.48406,21.09825,16.596C261.09982,44.78315,245.268,39.406,240.00157,28.18717Z"/><path fill="#a6b862" d="M245.10636,55.97261s7.32185-10.95378,15.99346-11.18946C261.09982,44.78315,259.79436,53.603,245.10636,55.97261Z"/><path fill="#849f4c" d="M254.138,22.09882s10.15911,9.27562,6.96183,22.68433C261.09982,44.78315,255.47205,38.81778,254.138,22.09882Z"/><path fill="#a6b862" d="M261.09982,44.78315s3.56927-13.0656,21.61275-16.416C282.71257,28.36717,278.652,40.26362,261.09982,44.78315Z"/><path fill="#849f4c" d="M287.49232,41.36771s-13.76666-5.67542-26.3925,3.41544C261.09982,44.78315,277.88453,46.79831,287.49232,41.36771Z"/><path fill="#558031" d="M287.36708 54.58069s-6.64727-10.64737-26.26726-9.79754zM232.58617 43.0597s18.07991-6.704 28.75025 1.4029C261.33642 44.4626 251.20465 50.04329 232.58617 43.0597z"/><path fill="#558031" d="M247.41214,23.64777S263.54493,35.058,261.23065,44.79242C261.23065,44.79242,250.03823,35.81848,247.41214,23.64777Z"/><path fill="#849f4c" d="M275.712,56.14021s-13.29965-2.27053-14.61216-11.35706C261.09982,44.78315,270.8175,45.26446,275.712,56.14021Z"/><path fill="none" stroke="#8b9d36" stroke-linecap="round" stroke-linejoin="round" stroke-width="1.976" d="M299.70211,252.40561s15.51566,11.43629,20.59055,10.12588"/><line x1="316.963" x2="319.349" y1="230.661" y2="263.365" fill="none" stroke="#8b9d36" stroke-linecap="round" stroke-linejoin="round" stroke-width="1.976"/><path fill="none" stroke="#8b9d36" stroke-linecap="round" stroke-linejoin="round" stroke-width="1.976" d="M329.38025,264.23429s2.57146-14.50921,16.03831-20.79314"/><path fill="#5e7c24" d="M328.2 260.86369c-.80342-1.57344-5.12091-1.57563-7.87789.35749a7.54989 7.54989 0 00-2.65542 3.4845c-.46942 1.20917-1.22073 3.144-.177 4.4673a3.917 3.917 0 004.33717.80393 21.14041 21.14041 0 003.71768-3.66312C327.144 264.28881 328.84755 262.132 328.2 260.86369zM331.56372 260.68506c-.30086.79012.29606 1.69584 1.41619 3.39508a16.312 16.312 0 003.89464 4.11005 4.6466 4.6466 0 005.488.6253 4.44534 4.44534 0 002.03568-3.75256c-.01825-2.31484-1.99606-3.74723-2.74378-4.28867C338.03334 258.15161 332.29126 258.77522 331.56372 260.68506zM342.18539 245.85369c.26388-.44983.94772-.22128 2.47845-.44693a28.50491 28.50491 0 003.80628-1.16142 14.64846 14.64846 0 013.27515-.80417c.4639.00218 3.08594.01406 3.983 1.787.93981 1.85725-.80006 4.09284-.88506 4.19924-1.682 2.10156-4.55567 1.999-5.488 1.96559a8.47278 8.47278 0 01-5.93057-2.85895C343.21475 248.29917 341.727 246.63459 342.18539 245.85369zM318.02083 237.1869c-.93428-.47043-.38754-3.45929-.0886-5.0926a30.31413 30.31413 0 011.68175-5.09285c1.549-4.081 1.90242-4.52062 2.47846-4.73511a3.7043 3.7043 0 014.07184 1.87615c1.02409 1.98159-.54577 4.48669-2.21288 7.14764C322.35032 233.8454 319.23605 237.79864 318.02083 237.1869z"/><path fill="#c4ce6e" d="M317.66666,245.04952c.68721-1.11828-.57723-3.30516-1.85872-4.4673-1.07571-.97553-2.17639-1.24068-4.07184-1.69754-2.12885-.51309-4.47212-1.0778-5.13387-.08943-.631.94232.6034,2.79351.8853,3.21644a7.82484,7.82484,0,0,0,3.62907,2.76977C313.008,245.5643,316.77992,246.49232,317.66666,245.04952Z"/><path fill="#5e7c24" d="M317.75527 253.71606c.02521-.88973-1.26108-1.07417-3.89465-3.21645-2.09067-1.70068-2.15022-2.29206-3.36375-2.68033-1.85776-.59428-4.28291-.02836-4.69134 1.16142-.09989.29133-.08572.63912 1.50479 3.21645 1.23731 2.00485 1.86833 3.015 2.47846 3.39507a5.81522 5.81522 0 004.42577.44668C315.32556 255.77593 317.72117 254.92183 317.75527 253.71606zM318.72322 243.43279c-.86753-.9823.00539-3.35611 1.06974-4.72344.89343-1.14775 1.93252-1.60006 3.72187-2.37921 2.00968-.87506 4.22179-1.83821 5.04211-.97947.7822.81872-.11836 2.85665-.324 3.32222a7.86151 7.86151 0 01-3.103 3.35858C323.4002 243.131 319.84262 244.70013 318.72322 243.43279zM319.36514 252.66574c-.17646-.87209 1.05923-1.27711 3.28847-3.84471 1.76969-2.03833 1.72757-2.63123 2.85685-3.22442 1.7288-.908 4.21424-.77155 4.81934.32958.148.26964.19335.61471-.93424 3.42977-.87722 2.1898-1.32668 3.29449-1.863 3.77479a5.82381 5.82381 0 01-4.28369 1.20845C322.10966 254.27305 319.6042 253.84762 319.36514 252.66574zM305.186 257.28975c-.12414-.96946-1.72066-1.50461-3.62908-2.14421-1.72426-.57781-3.09314-1.03685-4.69134-.53612-.28261.08846-2.7966.87591-3.00958 2.76977-.19113 1.69874 1.62124 2.93893 1.77035 3.03782a5.35453 5.35453 0 004.16021.44668C302.27562 260.38477 305.36876 258.71584 305.186 257.28975z"/><path fill="#c4ce6e" d="M312.35583,261.75705c-1.33287-.951-3.84854.66215-5.04551,1.42972a10.58138,10.58138,0,0,0-3.09794,3.03758c-.922,1.38367-1.79941,2.70069-1.32783,3.842.67808,1.64058,3.6053,1.6161,3.98324,1.6081a6.36617,6.36617,0,0,0,4.33718-1.96559,6.77183,6.77183,0,0,0,1.682-3.39507C313.04808,265.57045,313.67117,262.69574,312.35583,261.75705Z"/><path fill="#8b9d36" d="M301.73392 252.64383c-.74987-1.09041-.48719-1.86332-.79669-3.75256-.492-3.00341-1.53865-3.388-1.15063-4.914.30543-1.20093 1.34032-2.48281 2.47846-2.50171 1.59411-.02666 2.61963 2.43724 2.83238 2.94839.77364 1.85846.48839 3.47868 0 6.25427-.31888 1.81193-.56211 3.10907-1.32759 3.30588C303.02982 254.17437 302.14884 253.24708 301.73392 252.64383zM335.63533 252.37577c.23651-.66917 1.49014-.77048 3.00958-.89336 1.89834-.15342 3.32125-.26854 4.69134.6253.21082.13743 2.429 1.62628 2.03568 3.39532-.30734 1.38221-2.02488 2.10737-3.27491 2.14421-1.3564.04-2.27868-.72685-3.98324-2.14421C336.77082 254.38644 335.34407 253.19982 335.63533 252.37577z"/><path fill="#5e7c24" d="M337.84821,247.28317c-.34072-.07756-.36185-.55212-.79669-1.87641-.97174-2.95856-1.73242-3.22735-1.59316-4.4673.15415-1.37179,1.28629-2.83253,2.30125-2.76976,1.10644.06835,1.7682,1.928,2.03592,2.68057a5.79619,5.79619,0,0,1,.35417,2.76977C339.90142,245.54079,338.587,247.45161,337.84821,247.28317Z"/><path fill="#8b9d36" d="M315.89631,234.41738c-.51649.73243-3.449-.135-5.39944-1.8764-.498-.4445-2.702-2.41252-2.12428-4.28868a2.21026,2.21026,0,0,1,1.77035-1.6081c.827-.02036,1.36457.81969,2.744,2.859C315.72342,233.69707,316.12273,234.09625,315.89631,234.41738Z"/><path fill="#c4ce6e" d="M332.00625,254.16274c-1.48534.40427-3.42882-2.73268-3.89464-3.4845a11.52661,11.52661,0,0,1-1.77036-6.4329c.06363-1.42075.1796-4.01116,1.68175-4.64592,1.43924-.6081,3.38609.90209,4.33718,2.05478,1.87672,2.27413,1.57826,5.21622,1.32782,7.68375C333.493,251.2604,333.23227,253.829,332.00625,254.16274Z"/><path fill="#7ca1b1" d="M332.22157,288.3021H317.62635l-4.69543-24.91075a.99011.99011,0,0,1,.96617-1.17828h22.05374a.99011.99011,0,0,1,.96617,1.17828Z"/><path fill="#e5caf3" d="M336.57778,265.19128l.33928-1.79992a.99011.99011,0,0,0-.96617-1.17828H313.89708a.99011.99011,0,0,0-.96617,1.17828l.33928,1.79992Z"/><polygon fill="#e5caf3" points="318.793 281.247 315.71 278.135 318.793 275.023 321.876 278.135 318.793 281.247"/><polygon fill="#e5caf3" points="324.959 281.247 321.876 278.135 324.959 275.023 328.042 278.135 324.959 281.247"/><polygon fill="#e5caf3" points="331.055 281.247 327.971 278.135 331.055 275.023 334.138 278.135 331.055 281.247"/><path fill="#7ca1b1" d="M332.23228,45.3367h49.77156a0,0,0,0,1,0,0v7.82593a0,0,0,0,1,0,0H332.23228a.81344.81344,0,0,1-.81344-.81344V46.15014a.81344.81344,0,0,1,.81344-.81344Z" transform="rotate(97.76 356.711 49.25)"/><line x1="363.483" x2="355.729" y1="28.538" y2="27.481" fill="none" stroke="#fff" stroke-miterlimit="10" stroke-width=".945"/><line x1="362.972" x2="355.218" y1="32.284" y2="31.227" fill="none" stroke="#fff" stroke-miterlimit="10" stroke-width=".945"/><line x1="358.378" x2="350.624" y1="65.998" y2="64.942" fill="none" stroke="#fff" stroke-miterlimit="10" stroke-width=".945"/><line x1="357.868" x2="350.113" y1="69.744" y2="68.688" fill="none" stroke="#fff" stroke-miterlimit="10" stroke-width=".945"/><path fill="#f65b2b" d="M309.68016,45.63342h49.77156a.81344.81344,0,0,1,.81344.81344v6.19906a.81344.81344,0,0,1-.81344.81344H309.68016a0,0,0,0,1,0,0V45.63342A0,0,0,0,1,309.68016,45.63342Z" transform="rotate(-90 334.973 49.546)"/><line x1="331.06" x2="338.886" y1="70.983" y2="70.983" fill="none" stroke="#fff" stroke-miterlimit="10" stroke-width=".945"/><line x1="331.06" x2="338.886" y1="67.202" y2="67.202" fill="none" stroke="#fff" stroke-miterlimit="10" stroke-width=".945"/><line x1="331.06" x2="338.886" y1="33.176" y2="33.176" fill="none" stroke="#fff" stroke-miterlimit="10" stroke-width=".945"/><line x1="331.06" x2="338.886" y1="29.396" y2="29.396" fill="none" stroke="#fff" stroke-miterlimit="10" stroke-width=".945"/><path fill="#ffba55" d="M320.80529,45.40659h47.50317a0,0,0,0,1,0,0v10.548a0,0,0,0,1,0,0H320.80529a.81344.81344,0,0,1-.81344-.81344V46.22A.81344.81344,0,0,1,320.80529,45.40659Z" transform="rotate(90 344.15 50.68)"/><line x1="349.424" x2="338.876" y1="69.366" y2="69.366" fill="none" stroke="#fff" stroke-miterlimit="10" stroke-width=".945"/><rect width="22.57" height="6.805" x="332.865" y="37.127" fill="#fff" transform="rotate(90 344.15 40.53)"/><path fill="#ffba55" d="M291.32065,45.63342h49.77156a.81344.81344,0,0,1,.81344.81344v6.19906a.81344.81344,0,0,1-.81344.81344H291.32065a0,0,0,0,1,0,0V45.63342A0,0,0,0,1,291.32065,45.63342Z" transform="rotate(-90 316.613 49.546)"/><line x1="320.526" x2="312.7" y1="70.983" y2="70.983" fill="none" stroke="#fff" stroke-miterlimit="10" stroke-width=".945"/><line x1="320.526" x2="312.7" y1="67.202" y2="67.202" fill="none" stroke="#fff" stroke-miterlimit="10" stroke-width=".945"/><line x1="320.526" x2="312.7" y1="33.176" y2="33.176" fill="none" stroke="#fff" stroke-miterlimit="10" stroke-width=".945"/><line x1="320.526" x2="312.7" y1="29.396" y2="29.396" fill="none" stroke="#fff" stroke-miterlimit="10" stroke-width=".945"/><path fill="#f65b2b" d="M284.09077,45.40659h47.50317a0,0,0,0,1,0,0v10.548a0,0,0,0,1,0,0H284.09077a.81344.81344,0,0,1-.81344-.81344V46.22A.81344.81344,0,0,1,284.09077,45.40659Z" transform="rotate(90 307.436 50.68)"/><line x1="302.162" x2="312.71" y1="69.366" y2="69.366" fill="none" stroke="#fff" stroke-miterlimit="10" stroke-width=".945"/><rect width="22.57" height="6.805" x="296.15" y="37.127" fill="#fff" transform="rotate(90 307.436 40.53)"/><path fill="#7ca1b1" d="M302.448,45.40659H349.9512a0,0,0,0,1,0,0v10.548a0,0,0,0,1,0,0H302.448a.81344.81344,0,0,1-.81344-.81344V46.22A.81344.81344,0,0,1,302.448,45.40659Z" transform="rotate(90 325.793 50.68)"/><line x1="320.519" x2="331.067" y1="69.366" y2="69.366" fill="none" stroke="#fff" stroke-miterlimit="10" stroke-width=".945"/><rect width="22.57" height="6.805" x="314.508" y="37.127" fill="#fff" transform="rotate(90 325.793 40.53)"/><path fill="#7ca1b1" d="M220.24477,187.59437h49.77156a0,0,0,0,1,0,0v7.82593a0,0,0,0,1,0,0H220.24477a.81344.81344,0,0,1-.81344-.81344V188.4078A.81344.81344,0,0,1,220.24477,187.59437Z" transform="rotate(97.76 244.724 191.507)"/><line x1="251.495" x2="243.741" y1="170.796" y2="169.739" fill="none" stroke="#fff" stroke-miterlimit="10" stroke-width=".945"/><line x1="250.985" x2="243.231" y1="174.542" y2="173.485" fill="none" stroke="#fff" stroke-miterlimit="10" stroke-width=".945"/><line x1="246.391" x2="238.636" y1="208.256" y2="207.199" fill="none" stroke="#fff" stroke-miterlimit="10" stroke-width=".945"/><line x1="245.88" x2="238.126" y1="212.002" y2="210.945" fill="none" stroke="#fff" stroke-miterlimit="10" stroke-width=".945"/><path fill="#f65b2b" d="M197.69264,187.89109H247.4642a.81344.81344,0,0,1,.81344.81344v6.19906a.81344.81344,0,0,1-.81344.81344H197.69264a0,0,0,0,1,0,0v-7.82593A0,0,0,0,1,197.69264,187.89109Z" transform="rotate(-90 222.985 191.804)"/><line x1="219.072" x2="226.898" y1="213.24" y2="213.24" fill="none" stroke="#fff" stroke-miterlimit="10" stroke-width=".945"/><line x1="219.072" x2="226.898" y1="209.46" y2="209.46" fill="none" stroke="#fff" stroke-miterlimit="10" stroke-width=".945"/><line x1="219.072" x2="226.898" y1="175.434" y2="175.434" fill="none" stroke="#fff" stroke-miterlimit="10" stroke-width=".945"/><line x1="219.072" x2="226.898" y1="171.653" y2="171.653" fill="none" stroke="#fff" stroke-miterlimit="10" stroke-width=".945"/><path fill="#ffba55" d="M208.81778,187.66425h47.50317a0,0,0,0,1,0,0v10.548a0,0,0,0,1,0,0H208.81778a.81344.81344,0,0,1-.81344-.81344v-8.92112A.81344.81344,0,0,1,208.81778,187.66425Z" transform="rotate(90 232.163 192.938)"/><line x1="237.437" x2="226.889" y1="211.624" y2="211.624" fill="none" stroke="#fff" stroke-miterlimit="10" stroke-width=".945"/><rect width="22.57" height="6.805" x="220.877" y="179.385" fill="#fff" transform="rotate(90 232.163 182.787)"/><path fill="#ffba55" d="M179.33313,187.89109h49.77156a.81344.81344,0,0,1,.81344.81344v6.19906a.81344.81344,0,0,1-.81344.81344H179.33313a0,0,0,0,1,0,0v-7.82593a0,0,0,0,1,0,0Z" transform="rotate(-90 204.626 191.804)"/><line x1="208.539" x2="200.713" y1="213.24" y2="213.24" fill="none" stroke="#fff" stroke-miterlimit="10" stroke-width=".945"/><line x1="208.539" x2="200.713" y1="209.46" y2="209.46" fill="none" stroke="#fff" stroke-miterlimit="10" stroke-width=".945"/><line x1="208.539" x2="200.713" y1="175.434" y2="175.434" fill="none" stroke="#fff" stroke-miterlimit="10" stroke-width=".945"/><line x1="208.539" x2="200.713" y1="171.653" y2="171.653" fill="none" stroke="#fff" stroke-miterlimit="10" stroke-width=".945"/><path fill="#f65b2b" d="M172.10325,187.66425h47.50317a0,0,0,0,1,0,0v10.548a0,0,0,0,1,0,0H172.10325a.81344.81344,0,0,1-.81344-.81344v-8.92112A.81344.81344,0,0,1,172.10325,187.66425Z" transform="rotate(90 195.448 192.938)"/><line x1="190.174" x2="200.722" y1="211.624" y2="211.624" fill="none" stroke="#fff" stroke-miterlimit="10" stroke-width=".945"/><rect width="22.57" height="6.805" x="184.163" y="179.385" fill="#fff" transform="rotate(90 195.448 182.787)"/><path fill="#7ca1b1" d="M190.46051,187.66425h47.50317a0,0,0,0,1,0,0v10.548a0,0,0,0,1,0,0H190.46051a.81344.81344,0,0,1-.81344-.81344v-8.92112A.81344.81344,0,0,1,190.46051,187.66425Z" transform="rotate(90 213.805 192.938)"/><line x1="208.531" x2="219.079" y1="211.624" y2="211.624" fill="none" stroke="#fff" stroke-miterlimit="10" stroke-width=".945"/><rect width="22.57" height="6.805" x="202.52" y="179.385" fill="#fff" transform="rotate(90 213.805 182.787)"/><path fill="#f9977a" d="M94.42863,56.38478a18.73231,18.73231,0,0,1,8.74955.75c1.31984.468,6.147,2.17945,8.49983,6.74974.89362,1.73569,1.09554,3.82369,1.49988,7.99968a73.40331,73.40331,0,0,1,.25,7.74969c-.00076,1.7861-.03764,4.3432-.25,7.49971-.26982,4.01078-.41655,6.03084-.99992,6.74973-2.351,2.89731-7.39246.21909-7.49965,3.9998-.06619,2.33449,1.41712,3.81213-.53135,5.90606-2.41639,2.59656-11.59535,1.61391-14.96817-.15625-.45978-.2413-7.20517-3.87076-6.74971-7.99968.24336-2.20574,2.3078-2.4339,3.74995-5.74977a13.24028,13.24028,0,0,0,.74994-7.24971c-.65025-4.82657-3.08241-5.41518-4.99985-11.24956A9.07514,9.07514,0,0,1,83.429,62.63454,18.5372,18.5372,0,0,1,94.42863,56.38478Z"/><polygon fill="#f9977a" points="76.426 340.015 75.218 352.069 96.15 362.296 64.007 362.296 64.007 340.015 76.426 340.015"/><polygon fill="#f9977a" points="110.923 340.015 109.715 352.069 130.647 362.296 98.504 362.296 98.504 340.015 110.923 340.015"/><path fill="#935b50" d="M133.87372,363.39176v-.07354a3.04385,3.04385,0,0,0-1.67395-2.71816l-21.72664-10.94975a1.01461,1.01461,0,0,0-1.26779.29658l-4.24683,5.65221a1.0146,1.0146,0,0,1-1.33317.26055l-4.98462-2.99077a1.01462,1.01462,0,0,0-1.53663.87v9.65285a1.01462,1.01462,0,0,0,1.01462,1.01461h34.7404A1.01461,1.01461,0,0,0,133.87372,363.39176Z"/><path fill="#935b50" d="M99.37683,363.39176v-.07354a3.04385,3.04385,0,0,0-1.674-2.71816L75.97624,349.65031a1.01462,1.01462,0,0,0-1.2678.29658l-4.24682,5.65221a1.01462,1.01462,0,0,1-1.33318.26055l-4.98461-2.99077a1.01461,1.01461,0,0,0-1.53663.87v9.65285a1.01461,1.01461,0,0,0,1.01461,1.01461h34.7404A1.01462,1.01462,0,0,0,99.37683,363.39176Z"/><path fill="#376f92" d="M78.1099,346.20052H63.95154c-1.5942,0-6.21353-.83472-6.21353-2.42893l-2.07832-50.523c0-9.838-.2969-20.78433,0-32.06665,0,0,13.36065-68.464,12.71052-82.85584l41.345-3.05264L84.13233,341.11878C83.89567,342.50557,79.51673,346.20052,78.1099,346.20052Z"/><path fill="#376f92" d="M123.17746,173.13016s2.1735,35.18745,2.1735,43.4604c0,0,5.34309,49.78839,5.29629,50.09933-1.94936,12.9506-1.998,21.92344-4.26775,33.70233l-8.564,44.44213a2.88656,2.88656,0,0,1-2.87262,2.60327H98.26016c-1.67667,0-5.60919-2.29067-5.48756-3.96293,0,0,2.02037-70.06447,2.267-78.11835l-14.494-87.03027Z"/><path fill="#b4d2d0" d="M106.67816,96.63317l-3.56249,1.56643s-2.32539,11.77022-18.82465-5.47909l-15.91977,9.84976a22.8799,22.8799,0,0,0-8.34356,9.39533,115.27185,115.27185,0,0,0-10.84735,42.4153s-5.135,103.795-4.66945,113.573c.08376,1.76209,98.502.353,98.502-1.65736C143.01286,266.2965,136.44118,122.13219,106.67816,96.63317Z"/><path fill="#f9977a" d="M156.59533,116.95732s.15172-3.971,6.25823-10.2581,11.5823-10.58407,8.40288-5.28637l-2.48967,3.9969s6.57007-2.54779,10.35115-4.40839a5.21834,5.21834,0,0,1,6.12585,1.01442c1.42463,1.5366,1.38163,3.21625-2.54782,6.19692a50.06946,50.06946,0,0,1-11.90712,7.03658,2.97294,2.97294,0,0,0-1.473,1.23068l-4.392,3.575Z"/><path fill="#dd765e" d="M164.92384 107.26541a5.40671 5.40671 0 01.85144-.67834 7.8609 7.8609 0 01.92935-.53735 7.42338 7.42338 0 01.99611-.40528 4.66956 4.66956 0 011.066-.23468 7.98291 7.98291 0 01-.894.61029c-.30108.19086-.61629.35077-.93163.51148a10.612 10.612 0 01-.97795.42132A6.56693 6.56693 0 01164.92384 107.26541zM173.99948 106.04874c1.48977-.93872 3.0122-1.78436 4.51344-2.66626 1.5087-.87268 2.999-1.74573 4.44111-2.75134A12.10433 12.10433 0 01180.99091 102.4a22.30314 22.30314 0 01-2.20874 1.44677c-.7631.437-1.53865.85065-2.33883 1.21405A22.27931 22.27931 0 01173.99948 106.04874zM175.63024 108.07218c1.70055-.904 3.40645-1.75415 5.05672-2.69867.83241-.459 1.63556-.96271 2.41922-1.49152a9.87226 9.87226 0 002.13759-1.86621 6.81364 6.81364 0 01-1.888 2.19537 16.28647 16.28647 0 01-2.40383 1.62915 24.32731 24.32731 0 01-2.598 1.27173A21.42827 21.42827 0 01175.63024 108.07218zM177.59828 109.58982l4.20916-2.282c.69709-.38043 1.37433-.791 2.06064-1.19159.67983-.41174 1.33843-.85333 2.01442-1.29693a14.355 14.355 0 01-3.81364 2.95727 20.67934 20.67934 0 01-2.1791 1.047A15.60466 15.60466 0 01177.59828 109.58982z"/><path fill="#b4d2d0" d="M107.57418,97.42161s3.30862,1.479,5.87286,2.7937c3.55445,1.82236,9.07417,8.2262,15.53373,24.22065l4.29261,10.62887s12.88537-15.0414,24.033-24.58092l11.00248,8.92779-25.4661,29.33372a17.99473,17.99473,0,0,1-6.38017,5.61934c-5.81442,2.97129-11.75167,1.99162-15.011-4.05115-5.09849-9.45239-11.15991-23.844-11.73978-27.85414Z"/><ellipse cx="112.908" cy="75.978" fill="#0a0709" rx=".98" ry="1.219"/><ellipse cx="104.575" cy="75.978" fill="#0a0709" rx=".98" ry="1.219"/><path fill="none" stroke="#cdd3d1" stroke-linecap="round" stroke-linejoin="round" stroke-width="1.237" d="M115.37384 73.17712a5.88455 5.88455 0 00-6.62474 0M107.04084 73.17712a5.88455 5.88455 0 00-6.62474 0"/><path fill="#093349" d="M104.70761 281.37241c.41872 1.67261.90769 3.311 1.40389 4.93707a49.72113 49.72113 0 001.73189 4.77466 29.0609 29.0609 0 002.31266 4.477 17.81013 17.81013 0 003.3163 3.82342 12.07923 12.07923 0 01-3.95226-3.37121 20.47731 20.47731 0 01-2.59734-4.54028 28.40307 28.40307 0 01-1.56238-4.96332A26.11846 26.11846 0 01104.70761 281.37241zM104.70761 293.24857c1.30619 2.119 2.57849 4.18457 4.00164 6.14905.69294.99517 1.46217 1.92663 2.23743 2.85882.78693.92658 1.64384 1.78015 2.52567 2.67029a15.41049 15.41049 0 01-5.57374-4.94458 22.40137 22.40137 0 01-1.91484-3.22156A16.46554 16.46554 0 01104.70761 293.24857z"/><path fill="#dd765e" d="M110.38235,74.46a5.52968,5.52968,0,0,0,.53506,2.95191,12.31186,12.31186,0,0,0,1.53765,2.60791l.49474.58954a1.20066,1.20066,0,0,1,.3172.82544,1.9656,1.9656,0,0,1-.83241,1.41992,3.54686,3.54686,0,0,1-3.05062.3866,3.80687,3.80687,0,0,0,2.84954-.6319,1.76429,1.76429,0,0,0,.6582-1.17865c.032-.41437-.43579-.72974-.75637-1.15131a11.22114,11.22114,0,0,1-1.50687-2.74023A4.853,4.853,0,0,1,110.38235,74.46Z"/><path fill="#cdd3d1" d="M82.92905,77.88394c.33339,3.16652.03127,5.07273,1.06246,6.87472.66653,1.16662,3.00591,2.23947,3.10595,1.15264a10.581,10.581,0,0,0-.01232-3.82441,15.80848,15.80848,0,0,1-1.15608-3.953c-.30211-2.177.13529-5.43726,1.99984-6.24975a3.08556,3.08556,0,0,1,2.99976.5c.91676.73957,1.11461,1.88534,1.25015,3.49991a45.44238,45.44238,0,0,1,0,6.74971,21.47851,21.47851,0,0,0,1.2499,8.49963c.77079,1.99991,1.98941,5.14564,4.99985,6.49974,1.833.82292,3.51015.60416,6.24976.25,2.70807-.35412,4.76-.61453,6.49948-2.24989a8.82738,8.82738,0,0,0,2.50005-4.99979c.27083-1.66663-.18742-1.87491,0-4.99979.13554-2.19781.39595-2.61449,0-3.24986-.38527-.625-1.875,1.18747-2.74978.99992-1.10418-.23956-1.67713-2.36445-2.75-1.99991a12.25812,12.25812,0,0,0-3.49972,2.24995c-1.45843,1.14576-1.698,1.60408-2.50006,1.74986a4.06082,4.06082,0,0,1-3.5-1.49988c-1.14563-1.3541-1.03094-3.49984-.74968-7.74969.177-2.73948.45825-4.15608,0-6.49974-.41681-2.14574-1.01061-2.77076-1.25016-2.99988-1.14589-1.08333-2.17683-.5-4.9996-1.25a16.68022,16.68022,0,0,1-5.0001-2.24994C84.64788,61.7596,84.4602,60.8846,83.429,60.8846c-1.625-.01042-3.16659,2.14575-3.7497,3.99987-.85421,2.72906.16657,5.406,1.2499,8.24966C82.127,76.27986,82.74162,76.12359,82.92905,77.88394Zm27.8627,10.55241a6.05485,6.05485,0,0,0-3.81553.48631.864.864,0,0,1-1.05761-1.28325c1.66808-2.32918,4.26041-1.78064,5.521-1.32431a1.11443,1.11443,0,0,1,.73839,1.04951h0A1.11269,1.11269,0,0,1,110.79175,88.43635Z"/><path fill="#dd765e" d="M90.61276,74.46a3.724,3.724,0,0,0-.93879.46387,4.524,4.524,0,0,0-.78363.655,14.7126,14.7126,0,0,0-1.35,1.61761,3.96988,3.96988,0,0,1,.39423-1.02331,4.53639,4.53639,0,0,1,.66662-.88764A2.57293,2.57293,0,0,1,90.61276,74.46Z"/><path fill="#dd765e" d="M89.81658 79.54209a7.51339 7.51339 0 00-.025-2.26331 5.06165 5.06165 0 00-.27248-1.08118c-.11262-.36071-.28651-.69763-.44259-1.06433A3.66931 3.66931 0 0189.81658 79.54209zM106.14626 76.95456a3.39079 3.39079 0 01-2.1045 1.66046 5.22668 5.22668 0 01-1.3591.17981c-.22761-.00219-.45367-.03375-.67773-.05139-.22224-.04919-.44325-.09143-.65861-.15594a10.9219 10.9219 0 002.57776-.36719 5.25585 5.25585 0 001.17567-.48914A4.7977 4.7977 0 00106.14626 76.95456zM113.42451 78.42667a2.3316 2.3316 0 01-1.328-.38281 2.0144 2.0144 0 01-.85337-1.0893c.38825.26581.71039.5246 1.079.74475C112.66889 77.95133 113.04726 78.13669 113.42451 78.42667z"/><rect width="35.913" height="51.759" x="51.099" y="175.391" fill="#f65b2b" rx="2" transform="rotate(-98.415 69.056 201.27)"/><rect width="22.997" height="12.682" x="69.531" y="193.158" fill="#ffba55" rx="2" transform="rotate(-98.415 81.03 199.5)"/><path fill="#f9977a" d="M78.93169,216.1165l-3.31-4.40991s0,4.5793.181,8.94425a2.443,2.443,0,0,1-2.08308,2.513l-.0179.00267h-.01l-.62.08985-2.61005.38012-.6.09009-1.99.29-.59.08984h0a2.44,2.44,0,0,1-1.79976-1.89906c-.57986-2.975-1.79783-9.41792-1.7902-11.01085.01-.77-.89-9.4602-.89-9.4602l5.37-8.21s4.27,1.85009,8.54,11.17016C80.99169,214.02642,83.36168,221.82646,78.93169,216.1165Z"/><path fill="#dd765e" d="M75.22088 206.72075a8.07853 8.07853 0 01.57305 2.45874 7.14173 7.14173 0 01-.17454 2.52222 11.97577 11.97577 0 01-.45153-2.468A10.26231 10.26231 0 0175.22088 206.72075zM73.6917 223.16655l-.62.08985a32.88573 32.88573 0 01-.37-6.10987C73.10167 219.15654 73.3817 221.16655 73.6917 223.16655zM70.46166 223.63652l-.6.09009a26.774 26.774 0 01-.05-5.66016C70.03167 219.93657 70.21166 221.79643 70.46166 223.63652zM67.87169 224.01653c-.19-1.47-.35-2.95-.55-4.44a20.1794 20.1794 0 00-.04 4.53z"/><path fill="#b4d2d0" d="M75.22959,198.42557l-9.84306-35.986a17.41953,17.41953,0,0,1,.69221-8.533l6.1682-16.92728a53.64774,53.64774,0,0,1,3.49886-7.68611c3.67656-6.61941,10.86127-22.11348.84753-27.17611C63.728,95.61287,52.50056,125.85654,52.50056,125.85654L48.519,135.35643a51.30636,51.30636,0,0,0-3.92451,22.769,77.27929,77.27929,0,0,0,.83336,8.23289c1.56243,8.62224,12.90772,36.34458,12.90772,36.34458s8.38905,5.33515,15.24039-2.15959C73.576,200.54326,75.04953,198.69366,75.22959,198.42557Z"/><path fill="#88c2c3" d="M56.01924 196.92813c.53762 1.0055 1.04385 2.025 1.558 3.041.521 1.01294 1.013 2.03882 1.50526 3.06457l-.13155-.14392a13.86175 13.86175 0 004.42753 1.19489 11.21421 11.21421 0 004.50087-.44257 10.75173 10.75173 0 003.89367-2.26574 16.21961 16.21961 0 002.91346-3.55408l-.04516.329-1.3657-5.71118c-.2346-.95-.42908-1.91077-.64331-2.86621-.21224-.95594-.42065-1.913-.61023-2.875.316.92822.61322 1.86145.90659 2.79577.29137.93482.60249 1.86432.8735 2.80457l1.66793 5.63037.04892.16516-.09414.16425a15.68119 15.68119 0 01-2.99979 3.83947 10.95113 10.95113 0 01-4.2526 2.47687 11.315 11.315 0 01-4.89536.37793 13.45128 13.45128 0 01-4.62794-1.52325l-.09306-.05048-.03875-.09375c-.43462-1.05145-.8695-2.10278-1.27543-3.16711C56.82919 199.05753 56.40852 197.99985 56.01924 196.92813zM133.2324 135.2551a8.5306 8.5306 0 011.07216 2.289 9.96035 9.96035 0 01.46262 2.505 7.11859 7.11859 0 01-.30094 2.57238 4.13732 4.13732 0 01-1.45338 2.11206 7.585 7.585 0 00.6934-2.28918 12.06228 12.06228 0 00.06282-2.34412C133.70338 138.51548 133.41725 136.933 133.2324 135.2551zM99.57729 101.92075a166.42423 166.42423 0 016.11751 18.431c1.7104 6.25152 3.05138 12.6015 4.1502 18.99353a157.21961 157.21961 0 011.80888 19.36615 99.58628 99.58628 0 01-1.52857 19.3565c.26632-3.22961.75882-6.42364.75051-9.66058.21293-3.22174.0629-6.45013.00921-9.67224a173.96842 173.96842 0 00-2.02623-19.23138c-1.01108-6.37256-2.35991-12.689-3.90493-18.95881q-1.15423-4.70406-2.51339-9.35772C101.57643 108.0723 100.59814 104.99124 99.57729 101.92075zM130.37863 155.98282c-.42872-2.48071-.80532-4.96-1.20462-7.43432-.41463-2.47193-.80016-4.94446-1.24041-7.406-.42387-2.46454-.92183-4.911-1.46016-7.34723l-.43986-1.8186-.52794-1.79218c-.1678-.60119-.40315-1.17554-.60313-1.76959-.21967-.58374-.52318-1.12738-.773-1.71118a22.35994 22.35994 0 013.08731 6.89392 68.50233 68.50233 0 011.70095 7.37109c.41869 2.484.78095 4.97583 1.01557 7.48139C130.1752 150.95407 130.3606 153.46384 130.37863 155.98282zM75.34487 128.81894a16.66236 16.66236 0 01-2.04786 3.80414 16.47475 16.47475 0 01-2.86717 3.23175 16.47266 16.47266 0 012.04787-3.80408A16.66187 16.66187 0 0175.34487 128.81894zM68.70635 158.66574a4.37539 4.37539 0 01-.935 1.39838 5.99936 5.99936 0 01-1.32389 1.04272 5.13091 5.13091 0 01-1.61474.57618 3.10685 3.10685 0 01-1.70088-.19153c.55-.184 1.02133-.35791 1.485-.55835.45509-.223.9002-.44245 1.33782-.6958C66.84155 159.74155 67.69051 159.177 68.70635 158.66574z"/><path fill="#88c2c3" d="M70.15658,179.79483a59.854,59.854,0,0,1-1.90009-9.96887,86.54062,86.54062,0,0,1-.58929-10.15448l.00005-.01514.002-.0216c.26182-2.79676.48267-5.59754.77814-8.391l.86929-8.38221c.28629-2.79443.64431-5.58184.96293-8.3731q.50017-4.18479,1.09268-8.36054-.22026,4.21179-.53273,8.4148c-.22317,2.80047-.40695,5.60479-.66246,8.40222l-.75611,8.39313c-.24633,2.79827-.56729,5.58929-.84726,8.38433l.002-.03637c-.02545,1.67041.01009,3.359.06641,5.03851q.062,2.52337.24107,5.04334c.11591,1.68.30053,3.35308.48433,5.0285C69.56656,176.47037,69.84762,178.13211,70.15658,179.79483Z"/><path fill="#8b9d36" d="M404.42851,272.587c2.41168,1.87395,6.66064,6.32428,6.77527,9.662,0,0,7.80886-8.49082,5.58875-15.75216a13.56165,13.56165,0,0,0-6.20117-6.24612s3.06211-1.7178,6.27749,2.49854c0,0-1.14822-11.39936-17.03351-7.26133,0,0-6.20117-12.64855-18.48825-.70275,0,0,8.268-1.054,6.66033,1.52257a24.03354,24.03354,0,0,0-8.249,4.16425,8.26516,8.26516,0,0,0-2.77522,5.77116c-.19126,3.08407-.4847,9.18707.115,9.27173.80369.11708,6.08622-4.68463,9.64612-4.33325s-8.15338,10.89168-8.15338,10.89168,2.41169,9.13512,3.44527,9.01805c1.03326-.11708,4.78474-2.73269,3.25337,0l-2.64095,2.10809,3.445,4.76279,8.65086-3.8259s-3.8278-10.46231-.30621-7.61255c0,0,2.67927,3.55268,2.71759,6.20721,0,0,11.579-5.036,10.4308-8.491a77.60341,77.60341,0,0,0-4.37636-9.3367,3.94811,3.94811,0,0,1-.47847-1.65267C402.69341,272.37218,402.923,271.41575,404.42851,272.587Zm-1.42266-12.128c1.08467-.74834,3.75148-.26687,4.753,2.17306,1.07189,2.60911,1.027,5.51748-.05732,6.26567-1.08467.74834-4.16609-.22764-4.938-2.75223C401.90873,263.33475,401.9215,261.20712,403.00585,260.45894Z"/><path fill="#5e7c24" d="M399.83526,255.48789a42.87755,42.87755,0,0,0-3.41751,4.44336,26.03316,26.03316,0,0,0-2.42194,5.01458c-.63107,1.74933-1.13913,3.54358-1.59518,5.35822-.462,1.81592-.90329,3.62982-1.27118,5.46179-.38983,1.82684-.73047,3.66565-1.00943,5.51184-.28723,1.84632-.45248,3.704-.67935,5.571a31.14419,31.14419,0,0,1-3.30139,10.74066,37.45819,37.45819,0,0,0,1.83371-5.29853,29.875,29.875,0,0,0,.97488-5.49462,87.05541,87.05541,0,0,1,1.55161-11.16175c.38937-1.84015.85354-3.66528,1.33468-5.47748a44.89645,44.89645,0,0,1,1.70108-5.38781,26.10455,26.10455,0,0,1,2.62149-5.01239A37.15688,37.15688,0,0,1,399.83526,255.48789Z"/><path fill="#5e7c24" d="M395.32592 261.43924a26.65254 26.65254 0 00-3.71707 1.07038c-1.2081.4392-2.40216.9154-3.56094 1.47229-2.35019 1.0495-4.57935 2.34008-6.854 3.608.49665-.421 1.01511-.81458 1.52924-1.217.53827-.36548 1.0683-.747 1.61932-1.09644a33.56557 33.56557 0 013.43683-1.87939 28.1219 28.1219 0 013.68045-1.35773A14.5436 14.5436 0 01395.32592 261.43924zM390.09225 279.55228c-.88965.68982-1.81577 1.25439-2.72022 1.84363q-.67986.43616-1.32794.90112a3.64561 3.64561 0 00-1.099 1.1427 2.39889 2.39889 0 01.76337-1.517 7.7405 7.7405 0 011.31378-1.06744A9.47458 9.47458 0 01390.09225 279.55228zM391.8659 271.20993a30.58571 30.58571 0 012.92624 3.15625 37.06549 37.06549 0 012.51834 3.50281 24.75356 24.75356 0 011.96585 3.85474 11.73548 11.73548 0 01.90341 4.21454 16.60762 16.60762 0 00-1.359-4.01947 30.62391 30.62391 0 00-2.05655-3.70972c-.722-1.22083-1.54458-2.381-2.36465-3.54419C393.57656 273.503 392.72683 272.35733 391.8659 271.20993z"/><path fill="#8b9d36" d="M381.27044,307.8l3.21535,2.967s3.13879-3.3183,3.48329-1.015c0,0-.49761,2.30329-1.11006,2.49849,0,0,7.69387,6.18766,9.24413,1.09308a49.14431,49.14431,0,0,1,2.35409-6.67564s1.72251.93693.22967,8.31528c0,0,5.95438-1.74977,8.16551-4.95985a2.29623,2.29623,0,0,0,.38894-1.28081c.02131-1.83518.26319-7.00033,2.35477-5.0611,0,0,1.20576.58559.28709,4.509,0,0,4.84584-5.46307,2.54407-8.82079a3.35735,3.35735,0,0,0-4.11677-1.08625c-1.34571.58416-3.84262,1.66-8.47527,3.6413A92.45558,92.45558,0,0,1,381.27044,307.8Z"/><path fill="#5e7c24" d="M391.8659 312.32852a18.36241 18.36241 0 011.58279-4.86584 11.82724 11.82724 0 011.3595-2.20282 5.265 5.265 0 01.93387-.92664 1.95841 1.95841 0 011.2232-.43713 3.5184 3.5184 0 00-1.74929 1.65784 22.36994 22.36994 0 00-1.18882 2.19153C393.288 309.24826 392.6296 310.7966 391.8659 312.32852zM402.32333 309.90811a15.27677 15.27677 0 01.40765-4.4989 11.53788 11.53788 0 01.75171-2.15832 3.38683 3.38683 0 011.52008-1.69708 4.611 4.611 0 00-1.05594 1.89032c-.22445.69433-.41723 1.40106-.59009 2.11682C403.00817 306.99442 402.71893 308.44675 402.32333 309.90811zM455.83591 256.72073s-7.73214 1.10952-.84211 6.575c0 0 1.76079 1.48348 7.50248 3.20119C462.49628 266.49688 466.09441 250.84848 455.83591 256.72073z"/><path fill="#50661a" d="M462.49627,266.49686c-.14316-.51245-.23694-1.02582-.36581-1.53021-.161-.4964-.27726-1.00153-.45343-1.48542a14.39155,14.39155,0,0,0-1.29288-2.77276,10.90438,10.90438,0,0,0-1.9494-2.3266,9.2475,9.2475,0,0,0-2.59885-1.66113,6.54231,6.54231,0,0,1,2.91477,1.27,8.85,8.85,0,0,1,2.18029,2.37768,10.77745,10.77745,0,0,1,1.22635,2.97083c.14032.51526.19309,1.05.28208,1.57116C462.46533,265.44242,462.49758,265.97061,462.49627,266.49686Z"/><path fill="#5e7c24" d="M446.023,225.10493s8.5723-5.46149,11.13986,6.66537c0,0-4.44872-3.82925-4.50765-1.61407a16.97938,16.97938,0,0,1,3.227,5.74969,6.29574,6.29574,0,0,1-.62009,4.64846c-1.08966,1.98312-3.29122,5.87839-3.67816,5.702-.51806-.23612-1.75193-5.24253-3.981-6.39195s.54852,9.88543.54852,9.88543-4.97627,4.73832-5.53806,4.26875-1.74837-3.53091-1.91269-1.249l.73144,2.321-3.88026,1.63012-3.59384-5.695s6.32577-5.0174,3.14577-4.60285c0,0-2.95884,1.17374-4.01556,2.80515,0,0-4.84338-7.57015-2.82246-9.27145a57.35758,57.35758,0,0,1,6.19441-4.1011,2.90281,2.90281,0,0,0,1.054-1.02849c.285-.49105.34056-1.01439-.85242-.88343-2.14736.23573-6.37838,1.36345-7.74625,3.38909,0,0-1.28141-8.26436,2.85232-11.91423a9.54566,9.54566,0,0,1,6.078-1.49146s-1.13056-2.2413-4.66291-.86187C433.18285,223.06509,438.29884,216.43757,446.023,225.10493Z"/><path fill="#50661a" d="M449.86456 238.68143c-.69962-1.7052-1.35608-3.395-2.154-5.00665a14.56343 14.56343 0 00-1.387-2.27509 3.53194 3.53194 0 00-2.1354-1.47528 3.117 3.117 0 012.512 1.14221 9.91734 9.91734 0 011.58609 2.3197A16.584 16.584 0 01449.86456 238.68143zM432.25668 242.76126a12.88631 12.88631 0 011.63864-2.65026 12.30791 12.30791 0 012.22363-2.222 8.1755 8.1755 0 012.82214-1.44873 5.43621 5.43621 0 013.1247.1012 7.115 7.115 0 00-2.97473.37866 9.88823 9.88823 0 00-2.58084 1.48022 17.91242 17.91242 0 00-2.23612 2.03827C433.58013 241.18149 432.89807 241.94718 432.25668 242.76126z"/><path fill="#50661a" d="M440.29507,226.20877a3.96858,3.96858,0,0,1,2.64673-1.55511,6.22083,6.22083,0,0,1,1.58471-.0423,8.87647,8.87647,0,0,1,1.55249.31946l.18851.05292-.07693.19439c-1.00144,2.52942-1.85224,5.12781-2.69248,7.72034-.8222,2.60077-1.56289,5.226-2.28808,7.85577q-1.04586,3.95591-1.95789,7.94825c-.61169,2.66095-1.14969,5.33819-1.70029,8.01825.33643-2.71387.74066-5.42267,1.27057-8.10828.482-2.69592,1.13614-5.35663,1.8-8.01306.66968-2.65595,1.465-5.27893,2.32123-7.88049.851-2.60474,1.80441-5.17212,2.91159-7.687l.11145.24707-.7316-.218c-.24887-.04706-.49637-.10926-.74667-.15039a5.96605,5.96605,0,0,0-1.51795-.04926A4.0072,4.0072,0,0,0,440.29507,226.20877Z"/><path fill="#50661a" d="M442.94528,249.65219a14.19883,14.19883,0,0,0-1.02689-2.70715,2.437,2.437,0,0,0-.87851-.94659,2.98411,2.98411,0,0,0-1.37161-.25544,2.02036,2.02036,0,0,1,1.565-.20867,2.336,2.336,0,0,1,1.24155,1.0866A4.54591,4.54591,0,0,1,442.94528,249.65219Z"/><path fill="#c4ce6e" d="M414.3426,312.32851s-1.52394-5.26048-5.39241-2.28651a7.76324,7.76324,0,0,0-2.68087,4.113c-.69766,2.51767-1.30072,7.08012.41769,13.55487,0,0,3.96024-5.47889,6.89-7.41739C416.88117,318.10627,419.01251,313.10929,414.3426,312.32851Z"/><path fill="#8b9d36" d="M414.34261 312.32852a6.62933 6.62933 0 00-1.5025 1.54554 15.11918 15.11918 0 00-1.18487 1.80151 34.451 34.451 0 00-1.90689 3.87933c-.58439 1.32233-1.0882 2.68012-1.58854 4.0423l-1.4728 4.11261c.12576-.72.2922-1.43066.43762-2.14825.16809-.71112.37729-1.4115.56445-2.11927.40668-1.406.92142-2.77923 1.468-4.14148a27.3136 27.3136 0 012.0802-3.88732A8.81776 8.81776 0 01414.34261 312.32852zM419.926 239.25406s.12905-5.4837-4.44661-3.861a7.62957 7.62957 0 00-3.78718 3.0779c-1.42021 2.17875-3.36443 6.33356-3.673 13.03392 0 0 5.41528-3.97855 8.78641-4.90872C420.60745 245.54711 424.137 241.456 419.926 239.25406z"/><path fill="#5e7c24" d="M419.926,239.25406a6.51953,6.51953,0,0,0-1.89526,1.00134,14.86428,14.86428,0,0,0-1.67,1.345,33.87759,33.87759,0,0,0-2.98086,3.09777c-.95313,1.07666-1.84034,2.21143-2.72516,3.35187l-2.6355,3.45478c.3356-.645.70715-1.2688,1.06076-1.90558.37317-.62378.78259-1.22473,1.173-1.83942a43.36021,43.36021,0,0,1,2.64072-3.48334,26.90566,26.90566,0,0,1,3.149-3.05328A8.67714,8.67714,0,0,1,419.926,239.25406Z"/><path fill="#8b9d36" d="M454.46057,312.32851s1.52394-5.26048,5.39241-2.28651a7.76317,7.76317,0,0,1,2.68086,4.113c.69767,2.51767,1.30073,7.08012-.41768,13.55487,0,0-3.96025-5.47889-6.89-7.41739C451.922,318.10627,449.79065,313.10929,454.46057,312.32851Z"/><path fill="#5e7c24" d="M454.46057,312.32852a8.81776,8.81776,0,0,1,3.10534,3.085,27.31342,27.31342,0,0,1,2.08017,3.88732c.5466,1.36225,1.06134,2.73548,1.468,4.14148.18713.70777.39633,1.40815.56445,2.11927.14539.71759.31183,1.42828.43762,2.14825l-1.47284-4.11261c-.5003-1.36218-1.00415-2.72-1.5885-4.0423a34.451,34.451,0,0,0-1.90689-3.87933,15.12432,15.12432,0,0,0-1.1849-1.80151A6.6292,6.6292,0,0,0,454.46057,312.32852Z"/><path fill="none" stroke="#50661a" stroke-miterlimit="10" stroke-width=".644" d="M455.83591 256.72073s-19.26144-16.458-24.2529 79.69477M437.55183 256.72073s-9.58227 63.41556-3.84058 79.69477M430.05811 336.4155s-7.12113-28.57719-15.71551-24.087M431.08145 327.89344s6.20629-106.17217-11.15547-88.63938M438.74506 336.4155s7.12112-28.57719 15.71551-24.087M411.88684 298.77041s13.47981-3.30669 20.82918 36.98143M416.32735 273.80719s3.90541 2.60556 18.683 61.94465M453.2403 287.27005s-14.59619 23.10652-15.95256 49.14545"/><path fill="#d6694b" d="M414.41916,329.59522v5.34632a1.85288,1.85288,0,0,0,1.83438,1.87085H453.0063a1.85289,1.85289,0,0,0,1.83439-1.87085v-4.927a1.85338,1.85338,0,0,0-1.81387-1.87073l-36.75276-.41936A1.85239,1.85239,0,0,0,414.41916,329.59522Z"/><polygon fill="#e19974" points="416.173 336.812 417.481 364.406 450.915 364.406 453.086 336.812 416.173 336.812"/><path fill="#5e7c24" d="M447.22332,285.69744c.05109-2.51793,5.257,2.04964,5.257,2.04964-3.10074-13.91745-13.00821-8.11372-13.00821-8.11372-9.05925-10.228-14.94112-2.93427-14.94112-2.93427,4.08915-1.399,5.42271,1.2036,5.42271,1.2036A10.888,10.888,0,0,0,422.904,279.308c-4.76543,3.956-3.20229,13.41644-3.20229,13.41644,1.56937-2.23819,6.48152-3.31837,8.96953-3.48739,1.56314-.1042,1.2887.66368.86786,1.2492a3.161,3.161,0,0,1-1.06536.91084,62.50911,62.50911,0,0,0-7.17712,4.37885c-2.33505,1.83487,3.36833,10.67723,3.36833,10.67723,1.21207-1.80231,4.638-2.99955,4.638-2.99955,3.69385-.31882-3.611,5.08811-3.611,5.08811l4.22964,6.6496,4.49784-1.67221-.87408-2.67407c.17226-2.58957,1.57591.94992,2.23288,1.50938.657.56614,6.39866-4.58694,6.39866-4.58694s-3.33-12.68763-.7336-11.26926c2.603,1.41185,4.08292,7.16364,4.68912,7.4564.45293.22127,2.973-4.10563,4.22341-6.31126a6.899,6.899,0,0,0,.67628-5.25077A20.51156,20.51156,0,0,0,447.22332,285.69744Zm-14.5265-.104c-1.65877,1.37278-4.21064.61157-4.61871-.40983-.41493-1.015.85477-3.03863,2.7559-4.3269,1.78-1.21028,3.8278-.30579,4.23618.71577C435.48481,282.58732,434.54063,284.058,432.69682,285.59339Z"/><path fill="#50661a" d="M439.47061,279.63333a31.03575,31.03575,0,0,1,.64587,4.60505,21.60111,21.60111,0,0,1-.414,4.65393,35.90659,35.90659,0,0,1-1.22867,4.5c-.47849,1.47058-.974,2.94348-1.52808,4.39349a70.38722,70.38722,0,0,1-3.94909,8.418,24.46653,24.46653,0,0,0-1.80359,4.22687,31.4737,31.4737,0,0,0-1.13492,4.48077,25.35535,25.35535,0,0,1,2.49664-8.93207,80.04183,80.04183,0,0,0,3.7908-8.42572c.56754-1.43109,1.07639-2.883,1.57288-4.34588.50021-1.459.94962-2.92694,1.30127-4.41694a21.52824,21.52824,0,0,0,.58286-4.548A37.12907,37.12907,0,0,0,439.47061,279.63333Z"/><path fill="#50661a" d="M439.90716 285.8165a11.734 11.734 0 012.42841 2.18286 20.69054 20.69054 0 011.93136 2.64191 23.93973 23.93973 0 011.51218 2.89563 21.63242 21.63242 0 011.08334 3.07324l-1.53458-2.85156c-.52258-.93768-1.04071-1.87409-1.609-2.7793q-.83772-1.36605-1.77481-2.66754A25.07573 25.07573 0 00439.90716 285.8165zM435.40539 300.68772a7.1217 7.1217 0 011.57834 2.29406 6.12978 6.12978 0 01.4154 1.35321 1.97069 1.97069 0 01-.19677 1.41517 3.29992 3.29992 0 00-.28916-1.28608c-.16653-.40838-.338-.81616-.51938-1.22418A21.11867 21.11867 0 01435.40539 300.68772zM437.91607 294.13455l-3.26993 1.23731c-1.0798.424-2.15469.85406-3.20065 1.34119a28.54023 28.54023 0 00-3.06818 1.5802 13.94484 13.94484 0 00-2.7532 2.09 9.12316 9.12316 0 012.47677-2.51 17.8126 17.8126 0 013.07831-1.74652A25.31631 25.31631 0 01437.91607 294.13455z"/><path fill="#c4ce6e" d="M470.32471,269.965s7.46811-11.15591,16.80819,2.01815c0,0-7.31492-2.20688-6.24232.483a21.73694,21.73694,0,0,1,6.84,5.16732,8.22337,8.22337,0,0,1,1.65506,5.91114c-.28407,2.96476-.91553,8.821-1.47089,8.81715-.74356-.00523-4.80816-5.35061-8.07638-5.53325s5.76035,11.56823,5.76035,11.56823-3.526,8.35757-4.44256,8.09567-3.92046-3.29854-2.9399-.472l2.07565,2.39251-3.815,4.03929-7.252-4.90476s5.00143-9.417,1.39933-7.21229c0,0-2.94485,2.99694-3.37093,5.522,0,0-9.71929-6.48415-8.17223-9.61067a76.8199,76.8199,0,0,1,5.30667-8.2329,3.94138,3.94138,0,0,0,.74055-1.7861c.09694-.75349-.09438-1.438-1.47543-.63038-2.4552,1.43568-6.95046,5.06038-7.54645,8.22552,0,0-5.80315-9.22945-2.72638-15.82855a12.74923,12.74923,0,0,1,6.52392-5.05275s-2.51348-2.08265-6.0404,1.469C453.86354,274.41032,456.58219,263.71066,470.32471,269.965Z"/><path fill="#8b9d36" d="M470.3247,269.96494a80.78308,80.78308,0,0,1,3.23013,10.30768c.8761,3.49737,1.55414,7.04382,2.08512,10.61084a106.33539,106.33539,0,0,1,1.0014,10.76745,92.55527,92.55527,0,0,1-.16446,10.80133c-.02832-3.60034-.04645-7.19311-.33038-10.77429q-.34049-5.37351-1.1434-10.7019c-.47522-3.5575-1.15921-7.084-1.92847-10.5904C472.30087,276.87961,471.40838,273.39682,470.3247,269.96494Z"/><path fill="#8b9d36" d="M472.18871 275.90323a17.16606 17.16606 0 00-1.61389 2.395 26.0615 26.0615 0 00-1.267 2.56848c-.37629.8783-.7038 1.778-1.00715 2.69055-.3002.914-.56869 1.84137-.8543 2.77973a15.34877 15.34877 0 01.36968-2.91345 16.61425 16.61425 0 01.89979-2.81012 14.61387 14.61387 0 011.43685-2.58478A8.81579 8.81579 0 01472.18871 275.90323zM475.29611 290.67917a7.37985 7.37985 0 014.75366 3.48175 6.04414 6.04414 0 01.71737 1.872 16.40266 16.40266 0 00-2.41339-2.99988A18.27452 18.27452 0 00475.29611 290.67917z"/><path fill="#935b50" d="M476.17677,366.4068h-462a1,1,0,1,1,0-2h462a1,1,0,1,1,0,2Z"/></g></g></svg>