<svg xmlns="http://www.w3.org/2000/svg" xmlns:xlink="http://www.w3.org/1999/xlink" data-name="Layer 1" viewBox="0 0 4171.17 1832.73"><defs><linearGradient id="a" x1="2531.12" x2="3003.14" y1="767.42" y2="1920.86" gradientUnits="userSpaceOnUse"><stop offset="0" stop-color="#707485"/><stop offset="1" stop-color="#383e56"/></linearGradient><linearGradient id="f" x1="2646.52" x2="3118.51" y1="898.21" y2="2051.57" gradientTransform="rotate(6.4 2944.173 2083.376)" xlink:href="#a"/><linearGradient id="b" x1="2311.55" x2="2591.04" y1="317.23" y2="644.63" gradientUnits="userSpaceOnUse"><stop offset="0" stop-color="#fff"/><stop offset="1" stop-color="#f8b59b"/></linearGradient><linearGradient id="g" x1="2418.53" x2="2698.01" y1="225.91" y2="553.31" xlink:href="#b"/><linearGradient id="h" x1="2368.6" x2="2648.08" y1="268.54" y2="595.93" xlink:href="#b"/><linearGradient id="i" x1="749.74" x2="767.48" y1="961.25" y2="1649.77" xlink:href="#b"/><linearGradient id="j" x1="1199.26" x2="1217" y1="949.67" y2="1638.18" xlink:href="#b"/><linearGradient id="k" x1="985.09" x2="1002.84" y1="955.19" y2="1643.7" xlink:href="#b"/><linearGradient id="l" x1="1077.78" x2="1140.36" y1="294.3" y2="713.62" xlink:href="#b"/><linearGradient id="m" x1="1289.22" x2="1351.8" y1="262.74" y2="682.06" xlink:href="#b"/><linearGradient id="n" x1="1188.48" x2="1251.06" y1="277.78" y2="697.09" xlink:href="#b"/><linearGradient id="c" x1="2242.31" x2="2934.37" y1="1523.8" y2="1115.66" gradientUnits="userSpaceOnUse"><stop offset="0" stop-color="#62677a"/><stop offset="1" stop-color="#f6a07e"/></linearGradient><linearGradient id="d" x1="2859.83" x2="2650.44" y1="940.98" y2="1331.38" gradientUnits="userSpaceOnUse"><stop offset="0" stop-color="#62677a"/><stop offset="1" stop-color="#f8b59b"/></linearGradient><linearGradient id="o" x1="2185.31" x2="2877.37" y1="1523.8" y2="1115.66" gradientTransform="matrix(-1 0 0 1 3543.54 0)" xlink:href="#c"/><linearGradient id="p" x1="2465.02" x2="2255.63" y1="1104.07" y2="1494.46" gradientTransform="matrix(-1 0 0 1 3881.36 -163.09)" xlink:href="#d"/><linearGradient id="q" x1="2163.03" x2="2163.62" y1="374.05" y2="506.55" xlink:href="#b"/><linearGradient id="r" x1="2163.31" x2="2163.55" y1="365.27" y2="420" xlink:href="#b"/><linearGradient id="s" x1="2163.31" x2="2163.55" y1="336.87" y2="391.6" xlink:href="#b"/><linearGradient id="t" x1="2163.31" x2="2163.55" y1="308.48" y2="363.21" xlink:href="#b"/><linearGradient id="u" x1="2163.31" x2="2163.55" y1="280.09" y2="334.82" xlink:href="#b"/><linearGradient id="v" x1="2163.31" x2="2163.55" y1="251.7" y2="306.43" xlink:href="#b"/><linearGradient id="w" x1="1788.72" x2="1511.31" y1="1361" y2="1321.37" xlink:href="#b"/><linearGradient id="x" x1="1788.72" x2="1511.31" y1="1361" y2="1321.37" gradientTransform="matrix(-1 0 0 1 3600 0)" xlink:href="#b"/><clipPath id="e" transform="translate(337.81 -163.09)"><path fill="#e6e6e6" d="M2620.19 593.31a759.62 759.62 0 0 0-206.46 28.44c-168.78-217.32-432.57-357.21-729.06-357.21-439.77 0-807.61 307.68-900.12 719.49A181.85 181.85 0 0 0 569 1198.28c-199.77 51.34-347.39 232.66-347.39 448.45A460.85 460.85 0 0 0 287 1884h2872.88c135.09-136.92 218.49-325 218.49-532.5.01-418.74-339.45-758.19-758.18-758.19Z"/></clipPath></defs><path fill="#e6e6e6" d="M2620.19 593.31a759.62 759.62 0 0 0-206.46 28.44c-168.78-217.32-432.57-357.21-729.06-357.21-439.77 0-807.61 307.68-900.12 719.49A181.85 181.85 0 0 0 569 1198.28c-199.77 51.34-347.39 232.66-347.39 448.45A460.85 460.85 0 0 0 287 1884h2872.88c135.09-136.92 218.49-325 218.49-532.5.01-418.74-339.45-758.19-758.18-758.19Z" transform="translate(337.81 -163.09)"/><g clip-path="url(#e)"><path fill="none" stroke="#c3c5cc" stroke-miterlimit="10" stroke-width="4" d="m4169.33.78-778.95 1831.17M3990.99.78l-778.95 1831.17M3812.64.78l-778.95 1831.17M3634.3.78l-778.95 1831.17M3455.96.78 2677 1831.95M3277.61.78l-778.95 1831.17M3099.27.78l-778.95 1831.17M2920.92.78l-778.95 1831.17M2742.58.78l-778.95 1831.17M2564.23.78l-778.95 1831.17M2385.89.78l-778.95 1831.17M2207.55.78l-778.96 1831.17M2029.2.78l-778.95 1831.17M1850.86.78l-778.95 1831.17M1672.51.78 893.56 1831.95M1494.17.78 715.22 1831.95M1315.83.78 536.87 1831.95M1137.48.78 358.53 1831.95M959.14.78 180.18 1831.95M780.79.78 1.84 1831.95"/><circle cx="1907.79" cy="286.2" r="11.72" fill="#c3c5cc"/><circle cx="1551.1" cy="286.2" r="11.72" fill="#c3c5cc"/><circle cx="1194.41" cy="286.2" r="11.72" fill="#c3c5cc"/><circle cx="837.72" cy="286.2" r="11.72" fill="#c3c5cc"/><circle cx="1372.76" cy="286.2" r="11.72" fill="#c3c5cc"/><circle cx="1016.07" cy="286.2" r="11.72" fill="#c3c5cc"/><circle cx="1729.45" cy="286.2" r="11.72" fill="#c3c5cc"/><circle cx="2086.13" cy="286.2" r="11.72" fill="#c3c5cc"/><circle cx="2442.82" cy="286.2" r="11.72" fill="#c3c5cc"/><circle cx="2799.51" cy="286.2" r="11.72" fill="#c3c5cc"/><circle cx="3156.2" cy="286.2" r="11.72" fill="#c3c5cc"/><circle cx="3512.89" cy="286.2" r="11.72" fill="#c3c5cc"/><circle cx="2264.48" cy="286.2" r="11.72" fill="#c3c5cc"/><circle cx="2621.17" cy="286.2" r="11.72" fill="#c3c5cc"/><circle cx="2977.86" cy="286.2" r="11.72" fill="#c3c5cc"/><circle cx="3334.54" cy="286.2" r="11.72" fill="#c3c5cc"/><circle cx="1996.96" cy="497.64" r="11.72" fill="#c3c5cc"/><circle cx="1640.27" cy="497.64" r="11.72" fill="#c3c5cc"/><circle cx="1283.58" cy="497.64" r="11.72" fill="#c3c5cc"/><circle cx="926.9" cy="497.64" r="11.72" fill="#c3c5cc"/><circle cx="1461.93" cy="497.64" r="11.72" fill="#c3c5cc"/><circle cx="1105.24" cy="497.64" r="11.72" fill="#c3c5cc"/><circle cx="1818.62" cy="497.64" r="11.72" fill="#c3c5cc"/><circle cx="2175.31" cy="497.64" r="11.72" fill="#c3c5cc"/><circle cx="2531.99" cy="497.64" r="11.72" fill="#c3c5cc"/><circle cx="2888.68" cy="497.64" r="11.72" fill="#c3c5cc"/><circle cx="3245.37" cy="497.64" r="11.72" fill="#c3c5cc"/><circle cx="3602.06" cy="497.64" r="11.72" fill="#c3c5cc"/><circle cx="2353.65" cy="497.64" r="11.72" fill="#c3c5cc"/><circle cx="2710.34" cy="497.64" r="11.72" fill="#c3c5cc"/><circle cx="3067.03" cy="497.64" r="11.72" fill="#c3c5cc"/><circle cx="3423.72" cy="497.64" r="11.72" fill="#c3c5cc"/><circle cx="1996.96" cy="914.86" r="11.72" fill="#c3c5cc"/><circle cx="1640.27" cy="914.86" r="11.72" fill="#c3c5cc"/><circle cx="1283.58" cy="914.86" r="11.72" fill="#c3c5cc"/><circle cx="926.9" cy="914.86" r="11.72" fill="#c3c5cc"/><circle cx="1461.93" cy="914.86" r="11.72" fill="#c3c5cc"/><circle cx="1105.24" cy="914.86" r="11.72" fill="#c3c5cc"/><circle cx="1818.62" cy="914.86" r="11.72" fill="#c3c5cc"/><circle cx="2175.31" cy="914.86" r="11.72" fill="#c3c5cc"/><circle cx="2531.99" cy="914.86" r="11.72" fill="#c3c5cc"/><circle cx="2888.68" cy="914.86" r="11.72" fill="#c3c5cc"/><circle cx="3245.37" cy="914.86" r="11.72" fill="#c3c5cc"/><circle cx="3602.06" cy="914.86" r="11.72" fill="#c3c5cc"/><circle cx="2353.65" cy="914.86" r="11.72" fill="#c3c5cc"/><circle cx="2710.34" cy="914.86" r="11.72" fill="#c3c5cc"/><circle cx="3067.03" cy="914.86" r="11.72" fill="#c3c5cc"/><circle cx="3423.72" cy="914.86" r="11.72" fill="#c3c5cc"/><circle cx="1996.96" cy="1334.54" r="11.72" fill="#c3c5cc"/><circle cx="1640.27" cy="1334.54" r="11.72" fill="#c3c5cc"/><circle cx="1283.58" cy="1334.54" r="11.72" fill="#c3c5cc"/><circle cx="926.9" cy="1334.54" r="11.72" fill="#c3c5cc"/><circle cx="1461.93" cy="1334.54" r="11.72" fill="#c3c5cc"/><circle cx="1105.24" cy="1334.54" r="11.72" fill="#c3c5cc"/><circle cx="1818.62" cy="1334.54" r="11.72" fill="#c3c5cc"/><circle cx="2175.31" cy="1334.54" r="11.72" fill="#c3c5cc"/><circle cx="2531.99" cy="1334.54" r="11.72" fill="#c3c5cc"/><circle cx="2888.68" cy="1334.54" r="11.72" fill="#c3c5cc"/><circle cx="3245.37" cy="1334.54" r="11.72" fill="#c3c5cc"/><circle cx="3602.06" cy="1334.54" r="11.72" fill="#c3c5cc"/><circle cx="2353.65" cy="1334.54" r="11.72" fill="#c3c5cc"/><circle cx="2710.34" cy="1334.54" r="11.72" fill="#c3c5cc"/><circle cx="3067.03" cy="1334.54" r="11.72" fill="#c3c5cc"/><circle cx="3423.72" cy="1334.54" r="11.72" fill="#c3c5cc"/><circle cx="1907.79" cy="705.97" r="11.72" fill="#c3c5cc"/><circle cx="1551.1" cy="705.97" r="11.72" fill="#c3c5cc"/><circle cx="1194.41" cy="705.97" r="11.72" fill="#c3c5cc"/><circle cx="837.72" cy="705.97" r="11.72" fill="#c3c5cc"/><circle cx="1372.76" cy="705.97" r="11.72" fill="#c3c5cc"/><circle cx="1016.07" cy="705.97" r="11.72" fill="#c3c5cc"/><circle cx="1729.45" cy="705.97" r="11.72" fill="#c3c5cc"/><circle cx="2086.13" cy="705.97" r="11.72" fill="#c3c5cc"/><circle cx="2442.82" cy="705.97" r="11.72" fill="#c3c5cc"/><circle cx="2799.51" cy="705.97" r="11.72" fill="#c3c5cc"/><circle cx="3156.2" cy="705.97" r="11.72" fill="#c3c5cc"/><circle cx="3512.89" cy="705.97" r="11.72" fill="#c3c5cc"/><circle cx="2264.48" cy="705.97" r="11.72" fill="#c3c5cc"/><circle cx="2621.17" cy="705.97" r="11.72" fill="#c3c5cc"/><circle cx="2977.86" cy="705.97" r="11.72" fill="#c3c5cc"/><circle cx="3334.54" cy="705.97" r="11.72" fill="#c3c5cc"/><circle cx="1907.79" cy="1128.22" r="11.72" fill="#c3c5cc"/><circle cx="1551.1" cy="1128.22" r="11.72" fill="#c3c5cc"/><circle cx="1194.41" cy="1128.22" r="11.72" fill="#c3c5cc"/><circle cx="837.72" cy="1128.22" r="11.72" fill="#c3c5cc"/><circle cx="1372.76" cy="1128.22" r="11.72" fill="#c3c5cc"/><circle cx="1016.07" cy="1128.22" r="11.72" fill="#c3c5cc"/><circle cx="1729.45" cy="1128.22" r="11.72" fill="#c3c5cc"/><circle cx="2086.13" cy="1128.22" r="11.72" fill="#c3c5cc"/><circle cx="2442.82" cy="1128.22" r="11.72" fill="#c3c5cc"/><circle cx="2799.51" cy="1128.22" r="11.72" fill="#c3c5cc"/><circle cx="3156.2" cy="1128.22" r="11.72" fill="#c3c5cc"/><circle cx="3512.89" cy="1128.22" r="11.72" fill="#c3c5cc"/><circle cx="2264.48" cy="1128.22" r="11.72" fill="#c3c5cc"/><circle cx="2621.17" cy="1128.22" r="11.72" fill="#c3c5cc"/><circle cx="2977.86" cy="1128.22" r="11.72" fill="#c3c5cc"/><circle cx="3334.54" cy="1128.22" r="11.72" fill="#c3c5cc"/><circle cx="1907.79" cy="1546.88" r="11.72" fill="#c3c5cc"/><circle cx="1551.1" cy="1546.88" r="11.72" fill="#c3c5cc"/><circle cx="1194.41" cy="1546.88" r="11.72" fill="#c3c5cc"/><circle cx="837.72" cy="1546.88" r="11.72" fill="#c3c5cc"/><circle cx="1372.76" cy="1546.88" r="11.72" fill="#c3c5cc"/><circle cx="1016.07" cy="1546.88" r="11.72" fill="#c3c5cc"/><circle cx="1729.45" cy="1546.88" r="11.72" fill="#c3c5cc"/><circle cx="2086.13" cy="1546.88" r="11.72" fill="#c3c5cc"/><circle cx="2442.82" cy="1546.88" r="11.72" fill="#c3c5cc"/><circle cx="2799.51" cy="1546.88" r="11.72" fill="#c3c5cc"/><circle cx="3156.2" cy="1546.88" r="11.72" fill="#c3c5cc"/><circle cx="3512.89" cy="1546.88" r="11.72" fill="#c3c5cc"/><circle cx="2264.48" cy="1546.88" r="11.72" fill="#c3c5cc"/><circle cx="2621.17" cy="1546.88" r="11.72" fill="#c3c5cc"/><circle cx="2977.86" cy="1546.88" r="11.72" fill="#c3c5cc"/><circle cx="3334.54" cy="1546.88" r="11.72" fill="#c3c5cc"/></g><path fill="#fff" d="M456.82 375.32c-101.24 0-186.62 67.9-213.09 160.64H669.9c-26.47-92.74-111.84-160.64-213.08-160.64ZM1038.15 375.32c-101.24 0-186.62 67.9-213.09 160.64h426.18c-26.47-92.74-111.85-160.64-213.09-160.64Z" transform="translate(337.81 -163.09)"/><path fill="#fff" d="M761.19 306.51c-144.61 0-266.56 97-304.37 229.46h608.75c-37.82-132.48-159.77-229.46-304.38-229.46Z" transform="translate(337.81 -163.09)"/><path fill="url(#a)" d="M2488.18 1137.88c27.81 10.81 49 27.35 58.41 35.53l.83-2.5c7.11-21.37 15.74-45.3 26-70.86-11.28-3.13-37.84-11.84-63.12-30a204.49 204.49 0 0 1-51.68-55.15 204.49 204.49 0 0 1 68.72 31.45c24.45 17.59 40.88 39.13 47.86 49.3 8.6-21.16 18.33-43.4 29.27-66.22-10.33-6.09-33.41-21.22-52.93-44.93a204.49 204.49 0 0 1-35.86-66.53 204.49 204.49 0 0 1 58.4 48c18.18 22.09 28.45 45.78 33 58.05 11-22.73 23.3-46 36.84-69.28-9.25-7.56-29.81-26.05-45.51-52.52a204.49 204.49 0 0 1-25.29-71.22 204.49 204.49 0 0 1 50.39 56.33c14.4 24.27 21 48.9 23.65 61.88 9.23-15.65 19-31.29 29.47-46.8-5.74-10.58-17.69-35.38-22.2-65.67a204.49 204.49 0 0 1 3.51-75.5 204.49 204.49 0 0 1 25.36 71.2c3.67 24.61 1.58 47.17-.62 61.1q11.16-16.16 23.23-32c4.61-13.32 13.4-34.25 28.26-54.29a204.49 204.49 0 0 1 55.9-50.87 204.49 204.49 0 0 1-32.45 68.26c-14.7 19.82-32 34.21-43.38 42.53q-12.5 16.36-24 33.12c12.68-4.05 37.24-10.4 65.29-9.83a204.49 204.49 0 0 1 73.84 16.12 204.5 204.5 0 0 1-74.44 13.07c-31.1-.64-57.53-9.6-68.46-13.87-10.52 15.54-20.41 31.23-29.71 46.93 12.3-.4 39.43.07 68.13 9.38a204.49 204.49 0 0 1 66 36.76 204.49 204.49 0 0 1-75-9c-29.6-9.6-52.33-25.82-61.55-33.07-14 23.88-26.61 47.74-38 71 12.39-1.47 39.2-3.3 68.33 3.37a204.5 204.5 0 0 1 69 30.78 204.49 204.49 0 0 1-75.55-2.33c-30.07-6.89-54-20.86-64-27.34-11.08 23-20.92 45.48-29.6 66.83 12.49-1.92 39-4.6 68 1a204.49 204.49 0 0 1 70.09 28.27 204.5 204.5 0 0 1-75.58.4c-29.91-5.72-54.08-18.56-64.52-24.77a1232.636 1232.636 0 0 0-25.66 69.92l-1 3.15c8.2-.54 39.5-1.69 72.95 9.15a204.49 204.49 0 0 1 66 36.76 204.49 204.49 0 0 1-75-9c-33.46-10.85-58.13-30.16-64.44-35.4-28.48 86.62-38.68 149.18-38.78 149.82l-9.91-1.59c.1-.63 10.18-62.51 38.19-148.43-12.36-.32-39.33-2.36-67.36-13.26a204.49 204.49 0 0 1-63.83-40.48 204.49 204.49 0 0 1 74.51 13.25Z" transform="translate(337.81 -163.09)"/><path fill="url(#f)" d="M2803.25 1408.29a138.39 138.39 0 0 1 29.26 35l1.06-1.4c9.09-12 19.68-25.23 31.66-39.18a138.4 138.4 0 0 1-33.42-32.54 136.46 136.46 0 0 1-20.79-46 136.46 136.46 0 0 1 36.66 34.64 138.4 138.4 0 0 1 19.64 41.43c10-11.52 20.91-23.48 32.72-35.55a138.47 138.47 0 0 1-23.78-39.76 136.46 136.46 0 0 1-8.35-49.74 136.46 136.46 0 0 1 26.58 42.86 138.28 138.28 0 0 1 8.37 43.77c11.86-12 24.6-24 38.17-35.85a138.46 138.46 0 0 1-17.46-43 136.46 136.46 0 0 1-.67-50.43 136.46 136.46 0 0 1 19.73 46.42 138.28 138.28 0 0 1 1.64 44.18c9.2-7.9 18.76-15.68 28.68-23.23a138.45 138.45 0 0 1 .09-46.26 136.46 136.46 0 0 1 18.44-46.94 130.12 130.12 0 0 1-12.8 88.9q10.52-7.81 21.55-15.23a130.13 130.13 0 0 1 75.77-48.35 130.1 130.1 0 0 1-71.72 53.69q-11.42 7.65-22.28 15.77a138.25 138.25 0 0 1 43.36 7.82 136.46 136.46 0 0 1 43.19 26.05 136.46 136.46 0 0 1-49.84-7.74 138.41 138.41 0 0 1-40.27-23.48c-10 7.55-19.6 15.35-28.86 23.27a138.4 138.4 0 0 1 41 20.57 136.46 136.46 0 0 1 33.82 37.42 136.46 136.46 0 0 1-45.48-21.81 138.4 138.4 0 0 1-31.78-34.12c-14 12.08-27.07 24.44-39.25 36.73a138.38 138.38 0 0 1 42.44 16.82 136.47 136.47 0 0 1 37 34.28 136.46 136.46 0 0 1-47.23-17.71 138.45 138.45 0 0 1-34.54-31c-12 12.17-23 24.24-33.06 35.86a138.41 138.41 0 0 1 42.78 15.23 136.46 136.46 0 0 1 38.21 32.93 136.47 136.47 0 0 1-47.83-16 138.43 138.43 0 0 1-35.44-29.52 823.795 823.795 0 0 0-31.24 38.66l-1.34 1.77a137.84 137.84 0 0 1 44.12 21.46 136.46 136.46 0 0 1 33.82 37.42 136.46 136.46 0 0 1-45.48-21.81 137.83 137.83 0 0 1-33.1-36.22c-36.61 48.6-56.5 85.94-56.7 86.31l-5.92-3.13c.2-.38 19.86-37.31 56-85.57a138.39 138.39 0 0 1-39.71-22.86 136.46 136.46 0 0 1-31.62-39.29 136.46 136.46 0 0 1 44.2 24.46Z" transform="translate(337.81 -163.09)"/><path fill="#a4a7b2" d="M2239.72 1476.33a172.55 172.55 0 0 0-165.87 125h331.75a172.55 172.55 0 0 0-165.88-125ZM2692.24 1476.33a172.55 172.55 0 0 0-165.87 125h331.75a172.55 172.55 0 0 0-165.88-125Z" transform="translate(337.81 -163.09)"/><path fill="#a4a7b2" d="M2476.65 1422.76c-112.57 0-207.5 75.5-236.93 178.62h473.86c-29.43-103.12-124.36-178.62-236.93-178.62Z" transform="translate(337.81 -163.09)"/><path fill="#62677a" d="M980.85 792.73s-17-32.36-3.9-74.91-21.47-58.51-37.47-43.76-20.93 61.48 41.37 118.67ZM1014.86 815.26s7.53-35.78 44.78-60.18 20.78-58.76-.95-57.6-55.34 34-43.83 117.78ZM1011.38 819.24s-36.51 2-66.33 35-61.25 11.53-56.77-9.77 42.07-49.47 123.1-25.23ZM1064.3 875.41s-36.51 2-66.33 35-61.25 11.53-56.77-9.77 42.07-49.45 123.1-25.23ZM1098.67 938s-36.51 2-66.33 35-61.25 11.53-56.77-9.77 42.08-49.44 123.1-25.23ZM1137.88 1017.32s-36.51 2-66.33 35-61.25 11.53-56.77-9.77 42.07-49.45 123.1-25.23ZM1063.74 875s7.53-35.78 44.78-60.18 20.78-58.76-.95-57.6-55.34 34-43.83 117.78ZM1105.09 943.45s7.53-35.78 44.78-60.18 20.78-58.76-.95-57.6-55.35 33.99-43.83 117.78ZM1140.29 1015.56s7.53-35.78 44.78-60.18 20.78-58.76-.95-57.6-55.34 33.99-43.83 117.78Z" transform="translate(337.81 -163.09)"/><path fill="#62677a" d="M1221.34 1350.17a3.78 3.78 0 0 1-3.69-3.54c-.06-.93-6.14-94.37-39.74-210.33C1147 1029.47 1085.66 881.1 969.4 781a3.78 3.78 0 0 1 4.93-5.73C1092 876.63 1154 1026.49 1185.22 1134.36c33.8 116.73 39.92 210.86 40 211.8a3.78 3.78 0 0 1-3.54 4Z" transform="translate(337.81 -163.09)"/><path fill="#383e56" d="M2638.09 1695.67H961.9a56.09 56.09 0 0 1 0-112.18h1676.19a56.09 56.09 0 0 1 0 112.18Z" transform="translate(337.81 -163.09)"/><path fill="url(#b)" d="M2426.51 405.68a70.52 70.52 0 0 0-67.79 51.1h135.58a70.52 70.52 0 0 0-67.79-51.1Z" transform="translate(337.81 -163.09)"/><path fill="url(#g)" d="M2611.45 405.68a70.52 70.52 0 0 0-67.79 51.1h135.58a70.52 70.52 0 0 0-67.79-51.1Z" transform="translate(337.81 -163.09)"/><path fill="url(#h)" d="M2523.34 383.79a100.73 100.73 0 0 0-96.83 73h193.66a100.73 100.73 0 0 0-96.83-73Z" transform="translate(337.81 -163.09)"/><path fill="#fff" d="M2398.13 1677.84a42 42 0 0 0-40.38 30.44h80.77a42 42 0 0 0-40.39-30.44ZM2508.3 1677.84a42 42 0 0 0-40.38 30.44h80.77a42 42 0 0 0-40.39-30.44Z" transform="translate(337.81 -163.09)"/><path fill="#fff" d="M2455.81 1664.8a60 60 0 0 0-57.68 43.49h115.37a60 60 0 0 0-57.69-43.49Z" transform="translate(337.81 -163.09)"/><path fill="url(#i)" d="M766.22 1476.55a171.52 171.52 0 0 0-164.88 124.3H931.1a171.52 171.52 0 0 0-164.88-124.3Z" transform="translate(337.81 -163.09)"/><path fill="url(#j)" d="M1216 1476.55a171.52 171.52 0 0 0-164.88 124.3h329.76a171.52 171.52 0 0 0-164.88-124.3Z" transform="translate(337.81 -163.09)"/><path fill="url(#k)" d="M1001.74 1423.3c-111.89 0-206.26 75-235.51 177.55h471c-29.23-102.51-123.6-177.55-235.49-177.55Z" transform="translate(337.81 -163.09)"/><path fill="#383e56" d="M796.7 1474.72a124.36 124.36 0 0 0-31.8 25.88l-.69-1.41c-6-12.11-13-25.62-21.23-40a124.37 124.37 0 0 0 35-23 122.63 122.63 0 0 0 26.2-37 122.62 122.62 0 0 0-38.26 24.3 124.36 124.36 0 0 0-24.41 33.19 729.744 729.744 0 0 0-22.79-37 124.43 124.43 0 0 0 27.78-31 122.62 122.62 0 0 0 15.87-42.45 122.63 122.63 0 0 0-30.78 33.27 124.26 124.26 0 0 0-14.86 37.18c-8.42-12.6-17.6-25.41-27.54-38.15a124.42 124.42 0 0 0 22.81-34.85 122.63 122.63 0 0 0 9.21-44.38 122.63 122.63 0 0 0-25.34 37.58 124.26 124.26 0 0 0-9 38.69c-6.76-8.54-13.87-17-21.33-25.4a124.42 124.42 0 0 0 7.83-40.83 122.62 122.62 0 0 0-8.25-44.57 116.93 116.93 0 0 0-3.9 80.62q-7.95-8.69-16.41-17.12a116.93 116.93 0 0 0-58.58-55.6 116.91 116.91 0 0 0 54.09 59.63q8.76 8.7 17 17.72a124.23 124.23 0 0 0-39.59-.51 122.62 122.62 0 0 0-42.55 15.6 122.63 122.63 0 0 0 45.29 1.69 124.37 124.37 0 0 0 39.48-13.8c7.52 8.37 14.67 16.89 21.48 25.46a124.37 124.37 0 0 0-39.71 11.13 122.62 122.62 0 0 0-36.23 27.23 122.62 122.62 0 0 0 43.85-11.46 124.37 124.37 0 0 0 33.87-24.67c10.26 13 19.7 26.19 28.35 39.11a124.35 124.35 0 0 0-40.32 7.58 122.63 122.63 0 0 0-38.49 23.92 122.62 122.62 0 0 0 44.69-7.55 124.41 124.41 0 0 0 35.78-21.46 679.084 679.084 0 0 1 23 37.29 124.38 124.38 0 0 0-40.34 6.13 122.62 122.62 0 0 0-39.33 22.52 122.63 122.63 0 0 0 44.93-5.93 124.39 124.39 0 0 0 36.31-20 789.135 789.135 0 0 1 21 39.44l.88 1.79A123.86 123.86 0 0 0 717 1514.9a122.62 122.62 0 0 0-36.23 27.23 117.41 117.41 0 0 0 79.24-37.76c24 49.14 35.15 85.47 35.27 85.84l5.76-1.75c-.11-.37-11.15-36.31-34.81-85.06a124.36 124.36 0 0 0 38.98-13.4 122.63 122.63 0 0 0 34.61-29.26 122.63 122.63 0 0 0-43.12 13.98ZM1072.88 228.81a49.62 49.62 0 0 0-47.7 36h95.4a49.62 49.62 0 0 0-47.7-36ZM1203 228.81a49.62 49.62 0 0 0-47.7 36h95.4a49.62 49.62 0 0 0-47.7-36Z" transform="translate(337.81 -163.09)"/><path fill="#383e56" d="M1141 213.4a70.88 70.88 0 0 0-68.14 51.37h136.27A70.88 70.88 0 0 0 1141 213.4Z" transform="translate(337.81 -163.09)"/><path fill="url(#l)" d="M1107.63 434.56a82.42 82.42 0 0 0-79.23 59.73h158.46a82.42 82.42 0 0 0-79.23-59.73Z" transform="translate(337.81 -163.09)"/><path fill="url(#m)" d="M1323.77 434.56a82.42 82.42 0 0 0-79.23 59.73H1403a82.42 82.42 0 0 0-79.23-59.73Z" transform="translate(337.81 -163.09)"/><path fill="url(#n)" d="M1220.8 409a117.73 117.73 0 0 0-113.17 85.32H1334A117.73 117.73 0 0 0 1220.8 409Z" transform="translate(337.81 -163.09)"/><path fill="#62677a" d="M566.46 488.74a114.05 114.05 0 0 0-109.64 82.65h219.27a114.05 114.05 0 0 0-109.63-82.65ZM865.56 488.74a114.05 114.05 0 0 0-109.64 82.65h219.27a114.05 114.05 0 0 0-109.63-82.65Z" transform="translate(337.81 -163.09)"/><path fill="#62677a" d="M723.06 453.33a162.91 162.91 0 0 0-156.6 118.06h313.2a162.91 162.91 0 0 0-156.6-118.06ZM2617 436.83a114.05 114.05 0 0 0-109.64 82.65h219.27A114.05 114.05 0 0 0 2617 436.83ZM2916.13 436.83a114.05 114.05 0 0 0-109.64 82.65h219.27a114.05 114.05 0 0 0-109.63-82.65Z" transform="translate(337.81 -163.09)"/><path fill="#62677a" d="M2773.63 401.42A162.91 162.91 0 0 0 2617 519.48h313.2a162.91 162.91 0 0 0-156.57-118.06Z" transform="translate(337.81 -163.09)"/><path fill="url(#c)" d="m3121.79 999.7-97.21 81.3 97.21 106.92c-26.83-10.92-57.72-17.94-88.44-20-40.08-2.68-79.65 3.11-114.44 16.73-40 15.68-75 41.91-103.8 78-143.38 179.27-350.35 221.72-462.34 231l-.91.08-72.64-79.93 6.24-97.94h-.37c.65 0 64.94 3.31 146.15-16.91 43.26-10.77 83.44-26.18 119.56-45.85q3.39-1.85 6.74-3.75c45.85-26 85.21-59.35 117-99.09 54.28-67.88 122.17-115.45 201.79-141.41 66.36-21.63 139.5-27.06 211.52-15.7q17.15 2.65 33.94 6.55Z" transform="translate(337.81 -163.09)"/><path fill="url(#d)" d="m2911.84 1129.45-1.17 1.06-220.09 200.01-.53.5-.38-.42-72.64-79.93-21.25-23.38-26.8-29.49 235.72-214.22 60.53 66.6 23.38 39.76 23.23 39.51z"/><path fill="url(#o)" d="M478.75 999.7 576 1081l-97.21 106.92c26.83-10.92 57.72-17.94 88.44-20 40.08-2.68 79.65 3.11 114.44 16.73 40 15.68 75 41.91 103.8 78 143.38 179.27 350.35 221.72 462.34 231l.91.08 72.64-79.93-6.24-97.94h.37c-.65 0-64.94 3.31-146.15-16.91-43.26-10.77-83.44-26.18-119.56-45.85q-3.39-1.85-6.74-3.75c-45.85-26-85.21-59.35-117-99.09-54.28-67.88-122.17-115.45-201.79-141.41-66.36-21.63-139.5-27.06-211.52-15.7q-17.23 2.65-33.98 6.55Z" transform="translate(337.81 -163.09)"/><path fill="url(#p)" d="m1364.33 1129.45 1.16 1.06 220.1 200.01.53.5.37-.42 72.64-79.93 21.25-23.38 26.8-29.49-235.72-214.22-60.53 66.6-23.37 39.76-23.23 39.51z"/><path fill="#f9bba3" d="m2574.2 1292.82-1.34.78c-47.16 27.48-111.76 51.53-192 71.49-38.09 9.47-79.15 17.92-122.88 25.29-44.29 7.47-91.32 13.83-140.77 19-100.6 10.59-207.32 15.95-317.2 15.95s-216.6-5.36-317.2-15.95c-98.29-10.34-187-25.25-263.65-44.32-81-20.15-146.07-44.47-193.35-72.27l91.19-155.13c22.25 13.08 65.57 32.86 145.56 52.76 68.59 17.06 149 30.51 239 40 94.37 9.93 194.76 15 298.37 15s204-5 298.37-15c90-9.47 170.44-22.92 239-40 80-19.9 123.31-39.68 145.56-52.76l44.46 75.61 46.61 79.27Z" transform="translate(337.81 -163.09)"/><path fill="#f6a07e" d="M1989 1554.44a68.19 68.19 0 0 0-65.55 49.42h131.1a68.19 68.19 0 0 0-65.55-49.42ZM2167.81 1554.44a68.19 68.19 0 0 0-65.55 49.42h131.1a68.19 68.19 0 0 0-65.55-49.42Z" transform="translate(337.81 -163.09)"/><path fill="#f6a07e" d="M2082.61 1533.27a97.4 97.4 0 0 0-93.63 70.58h187.26a97.4 97.4 0 0 0-93.63-70.58Z" transform="translate(337.81 -163.09)"/><path fill="#62677a" d="M779.14 1571a82.24 82.24 0 0 0-79.06 59.6H858.2a82.24 82.24 0 0 0-79.06-59.6ZM994.83 1571a82.24 82.24 0 0 0-79.06 59.6h158.12a82.24 82.24 0 0 0-79.06-59.6Z" transform="translate(337.81 -163.09)"/><path fill="#62677a" d="M892.07 1545.51a117.48 117.48 0 0 0-112.93 85.14H1005a117.48 117.48 0 0 0-112.93-85.14Z" transform="translate(337.81 -163.09)"/><path fill="#f6926a" d="M1977.23 422.09a11.17 11.17 0 0 0 5.43-5.83c1.56-3.84-.28-12.6-1.68-18a6.49 6.49 0 1 0-5.59-2c-4.77 2.92-12 7.82-13.54 11.6a11.22 11.22 0 0 0-.78 3.22c-5.9-1.88-13.2-2.4-22.07-.1-3.32-18.52-9.75-32.53-19-41a35.47 35.47 0 0 0-14.88-8.32 9.35 9.35 0 0 0-2.32-13.66 4.7 4.7 0 1 0-7.3-1.22 9.35 9.35 0 0 0-5.75 14 50.63 50.63 0 0 0-8.07 1.86c-18.79 5.93-34.12 24.76-44.33 54.46-1.95 5.67-3.7 11.72-5.26 18.1l-1.32-46a13.23 13.23 0 0 0-.71-24.82l-.14-4.93a20.22 20.22 0 0 0 4.38-38.17 12.1 12.1 0 0 0 3.67-8.69c0-6.71-12.14-21.39-12.14-21.39s-12.14 14.69-12.14 21.39a12.1 12.1 0 0 0 3.67 8.69 20.22 20.22 0 0 0 4.38 38.17l-.14 4.93a13.23 13.23 0 0 0-.71 24.82l-1.35 46.85c-1.62-6.7-3.44-13.06-5.48-19-10.22-29.7-25.55-48.53-44.34-54.46a50.65 50.65 0 0 0-8.07-1.86 9.35 9.35 0 0 0-5.75-14 4.64 4.64 0 0 0 .57-2.2 4.69 4.69 0 1 0-7.87 3.42 9.35 9.35 0 0 0-2.37 13.57 35.47 35.47 0 0 0-14.88 8.32c-9.21 8.46-15.64 22.48-19 41-8.87-2.3-16.18-1.79-22.07.1a11.22 11.22 0 0 0-.78-3.21c-1.53-3.78-8.76-8.68-13.54-11.6a6.48 6.48 0 1 0-5.59 2c-1.39 5.4-3.24 14.17-1.68 18a11.17 11.17 0 0 0 5.43 5.83c-18.08 21.33-20.58 67-6.51 123.85a395 395 0 0 0 29.63 80.72l.53 1v10h256v-10.3l.29-.57a395 395 0 0 0 29.63-80.72c14.12-56.81 11.62-102.52-6.46-123.85ZM1837.91 562.8c.23-13.21.47-26.87.47-41.2 0-78.39 18.82-135 47.95-144.18 9.53-3 17.13-1.73 23.25 3.89 8.79 8.08 14.5 25.1 16.1 47.92 1.73 24.72-1.31 55.29-8.78 88.41a490.11 490.11 0 0 1-25.26 79.52h-54.12c-.02-10.68.18-22.29.39-34.36Zm-96.11-181.48c6.12-5.62 13.72-6.9 23.25-3.89 29.13 9.19 47.95 65.79 47.95 144.18 0 14.33.24 28 .47 41.19.21 12.07.41 23.68.39 34.37h-54.12a490.13 490.13 0 0 1-25.26-79.52c-7.48-33.12-10.48-63.65-8.78-88.41 1.59-22.82 7.3-39.84 16.1-47.92ZM1681 542.64c-13.17-53.15-11-97.76 5.47-113.66 6.05-5.83 13.76-7.3 23.57-4.48l.55.18c-.1 1.15-.21 2.3-.29 3.48-1.83 26.2 1.32 58.32 9.12 92.89a509.29 509.29 0 0 0 23.58 76.12h-44.13a391.7 391.7 0 0 1-17.87-54.53Zm289.45 0a391.57 391.57 0 0 1-17.93 54.53h-44.13a509.22 509.22 0 0 0 23.61-76.11c7.8-34.57 11-66.69 9.12-92.89-.08-1.18-.19-2.33-.29-3.48l.55-.18c9.8-2.82 17.51-1.35 23.57 4.48 16.48 15.89 18.63 60.5 5.46 113.65Z" transform="translate(337.81 -163.09)"/><rect width="270.32" height="22.48" x="2028.34" y="467.77" fill="url(#q)" rx="6.25" ry="6.25"/><circle cx="2163.5" cy="408.62" r="4.88" fill="url(#r)"/><circle cx="2163.5" cy="380.23" r="4.88" fill="url(#s)"/><circle cx="2163.5" cy="351.83" r="4.88" fill="url(#t)"/><circle cx="2163.5" cy="323.44" r="4.88" fill="url(#u)"/><circle cx="2163.5" cy="295.05" r="4.88" fill="url(#v)"/><path fill="#fff" d="M1981.75 962.59a49.77 49.77 0 0 0-47.84 36.07h95.68a49.77 49.77 0 0 0-47.84-36.07ZM2112.26 962.59a49.77 49.77 0 0 0-47.84 36.07h95.68a49.77 49.77 0 0 0-47.84-36.07Z" transform="translate(337.81 -163.09)"/><path fill="#fff" d="M2050.08 947.14a71.09 71.09 0 0 0-68.33 51.52h136.67a71.09 71.09 0 0 0-68.34-51.52Z" transform="translate(337.81 -163.09)"/><path fill="#383e56" d="M1978.6 527.17h-170.22v33.16l65.43 6.54-120.48 356.41-125.72-357.04 70.98-5.91v-33.16h-198.95v29.48l56.89 6.56 172.27 462.81h29.48l155.82-460.66 64.5-8.71v-29.48z"/><path fill="#383e56" d="m1860.25 727.66 68.7-7.93v-29.48h-206.32v29.48l68.69 7.92c1.29 63.62 1.31 127.58 1.31 191v36.85c0 64.47 0 128.42-1.3 191l-68.7 7.93v29.47H1929v-29.47l-68.69-7.92c-1.29-63.62-1.31-127.58-1.31-191v-36.83c0-64.48 0-128.42 1.25-191.02ZM2231.11 988.68c150.32 0 207.06-69.26 207.06-151.79 0-86.21-62.63-146.63-185-146.63H2055v29.48l68.69 7.92c1.29 63.62 1.31 127.58 1.31 191v36.85c0 64.47 0 128.42-1.3 191l-68.7 7.93v29.47h206.31v-29.47l-68.71-7.93c-1.11-53.41-1.26-104.48-1.28-157.86Zm8.11-264.53c89.16 0 128.95 41.27 128.95 112.74 0 70-35.37 117.9-126 117.9h-50.84v-36.11c0-65.68 0-130.81 1.37-194.53Z" transform="translate(337.81 -163.09)"/><path fill="#fff" d="M1893.51 1066.59a29.93 29.93 0 0 0 29.93-29.93 29.93 29.93 0 0 0 29.93 29.93 29.93 29.93 0 0 0-29.93 29.93 29.93 29.93 0 0 0-29.93-29.93ZM1351 642.09a29.93 29.93 0 0 0 29.93-29.93 29.93 29.93 0 0 0 29.93 29.93 29.93 29.93 0 0 0-29.94 29.91 29.93 29.93 0 0 0-29.92-29.91ZM1797.16 990.09a16.7 16.7 0 0 0 16.7-16.7 16.7 16.7 0 0 0 16.7 16.7 16.7 16.7 0 0 0-16.7 16.7 16.7 16.7 0 0 0-16.7-16.7ZM1242.85 730.71a16.7 16.7 0 0 0 16.7-16.7 16.7 16.7 0 0 0 16.7 16.7 16.7 16.7 0 0 0-16.7 16.7 16.7 16.7 0 0 0-16.7-16.7ZM2143.4 839.47a16.7 16.7 0 0 0 16.7-16.7 16.7 16.7 0 0 0 16.7 16.7 16.7 16.7 0 0 0-16.7 16.7 16.7 16.7 0 0 0-16.7-16.7Z" transform="translate(337.81 -163.09)"/><path fill="#383e56" d="M2087.81 522a10.69 10.69 0 0 1 9.7 16.82 307.69 307.69 0 0 1 18.14 32.56c.74-10.06 2.59-25 7.27-39a10.73 10.73 0 1 1 5.38 2.1c-6.92 21.07-7.34 44.74-7.36 48.4a442 442 0 0 1 23.17 67.81c8.7 34 11.19 59.13 11.22 59.38l-5.74.56c0-.25-2.48-24.92-11.06-58.5-2.58-10.1-5.91-21.69-10.12-34.07-3.71-1.87-17.86-8.41-38.49-10.47a10.68 10.68 0 1 1 0-5.8 124.72 124.72 0 0 1 35.89 8.71c-7.92-22-18.59-45.85-32.75-68a10.69 10.69 0 1 1-5.19-20.48Z" transform="translate(337.81 -163.09)"/><path fill="#383e56" d="M2195.46 627.28c-2.81-3.06-13.75-14.16-32.34-23.36a10.68 10.68 0 1 1 2-5.44 124.7 124.7 0 0 1 30.52 20.79c.32-23.35-1.25-49.46-6.71-75.16a10.71 10.71 0 1 1 5.51-1.83 307.65 307.65 0 0 1 5.5 36.86c4.23-9.15 11.22-22.45 20.55-34a10.73 10.73 0 1 1 4.3 3.86c-13.9 17.28-22.62 39.28-23.93 42.7a442 442 0 0 1-2.2 71.63c-3.84 34.89-10.35 59.28-10.42 59.52l-5.57-1.5c.06-.24 6.46-24.2 10.25-58.65 1.15-10.33 2.08-22.36 2.54-35.42Z" transform="translate(337.81 -163.09)"/><path fill="#fff" d="M1800 1270.78s14.15 20.83 14.15 39.06-6.33 27-14.15 27-14.15-8.73-14.15-27 14.15-39.06 14.15-39.06Z" transform="translate(337.81 -163.09)"/><path fill="none" stroke="#fff" stroke-miterlimit="10" stroke-width="3" d="M1844.53 1351.42s257 11.78 460.49-47.63" transform="translate(337.81 -163.09)"/><circle cx="2642.83" cy="1140.7" r="14.25" fill="#fff"/><circle cx="2698.7" cy="1126.46" r="10.67" fill="#fff"/><circle cx="2745.36" cy="1112.66" r="8.07" fill="#fff"/><path fill="none" stroke="#fff" stroke-miterlimit="10" stroke-width="3" d="M1755.47 1351.42s-257 11.78-460.49-47.63" transform="translate(337.81 -163.09)"/><circle cx="1632.8" cy="1140.7" r="14.25" fill="#fff"/><circle cx="1576.93" cy="1126.46" r="10.67" fill="#fff"/><circle cx="1530.26" cy="1112.66" r="8.07" fill="#fff"/><path fill="url(#w)" d="M1622.11 1351.42s51.66 31 96.87 31 66.87-13.9 66.87-31-21.66-31-66.87-31-96.87 31-96.87 31Z" transform="translate(337.81 -163.09)"/><path fill="url(#x)" d="M1977.89 1351.42s-51.66 31-96.87 31-66.87-13.9-66.87-31 21.66-31 66.87-31 96.87 31 96.87 31Z" transform="translate(337.81 -163.09)"/><circle cx="2137.81" cy="1188.34" r="16.71" fill="#fff"/><path fill="#fff" d="M1749.12 1648.94a8.08 8.08 0 0 1-11.45-5l-15.5-56a8.07 8.07 0 0 1 15.56-4.31l15.5 56a8.08 8.08 0 0 1-4.11 9.31Z" transform="translate(337.81 -163.09)"/><path fill="#62677a" d="M1749.93 1613.67a250.6 250.6 0 0 1-23.33 12.06c-39.27-134.37-63.42-347.74-115.62-463 21.46-8.1 43.05-15.84 64.65-23.57 46.87 131.61 23.43 312.56 74.3 474.51Z" transform="translate(337.81 -163.09)"/><path fill="#a4a7b2" d="M1732.29 1639.57s-5 20.76 0 21.34 77 2.76 77.38-.58c1.44-11.4-57.39-21.92-63.15-20.76s-13.57-3.02-14.23 0Z" transform="translate(337.81 -163.09)"/><path fill="#fff" d="M1536.73 1648.94a8.08 8.08 0 0 0 11.45-5l15.5-56a8.07 8.07 0 1 0-15.56-4.31l-15.5 56a8.08 8.08 0 0 0 4.11 9.31Z" transform="translate(337.81 -163.09)"/><path fill="#62677a" d="M1535.92 1613.67a250.6 250.6 0 0 0 23.33 12.06c39.27-134.37 63.42-347.74 115.62-463-21.46-8.1-43.05-15.84-64.65-23.57-46.86 131.61-23.42 312.56-74.3 474.51Z" transform="translate(337.81 -163.09)"/><path fill="#a4a7b2" d="M1553.56 1639.57s5 20.76 0 21.34-77 2.76-77.38-.58c-1.44-11.4 57.39-21.92 63.15-20.76s13.58-3.02 14.23 0ZM1588.89 1064.76c-.2 3-.24 6.41-.41 9.65-.39 7.5-.58 15.28-.66 23 0 3.11-.06 6.34 0 9.61.08 6.91.23 13.82.54 20.86.13 3.09.31 6.3.53 9.59.32 5 .76 10.06 1.35 15.18.36 3.15.76 6.37 1.21 9.7 1.25 9.28-5.27 24.7-3.64 34 7.2-.91 18.64-7.43 26.77-7.52 11.1-.13 25.84 1.27 37.71 3.14l2.19.36a303.13 303.13 0 0 1 42.46 10.26c-2.25-9.12-4.43-18.55-6.47-27.63-.77-3.46-1.43-6.61-2.1-9.89-.76-3.75-1.44-7.29-2.11-11-.28-1.54-.55-3-.81-4.46-.34-1.88-.67-3.9-1-5.68-1.05-6.41-2.06-13.06-3-19.32-.5-3.54-1-7-1.38-10.28-.7-5.39-1.35-10.89-1.91-16-.4-3.63-.76-7.37-1.11-10.49-.24-2.2-.45-5.61-.61-7.1-2.66-24.4-5.54-54.65-3.1-77.31 2.22-20.61-3.29-27.83-14.65-41.59a27.45 27.45 0 0 0-4.56-3.72c-22.35-16.28-50.87-9.39-58.22 18.71-2.46 9.41-2.68 18.43-3.43 29.29-1.23 18.59-2.3 39.38-3.59 58.64Z" transform="translate(337.81 -163.09)"/><path fill="#fff" d="M1577.35 1163.9s30.58 28.26 29.82 38.72-32.9-13.14-40-37.3Z" transform="translate(337.81 -163.09)"/><path fill="#a4a7b2" d="M1581.09 1163.24c-6.52 5.14-10.65 10.35-14.48 14.75-90.74-100.89-97.7-172.3 41.08-220.74 31.32-10.93 39.45 24.79 1.67 34.27-129.49 32.48-80.9 93.24-28.27 171.72Z" transform="translate(337.81 -163.09)"/><path fill="#2d334a" d="M1635.77 870.61s19.06 1.39 18.28 13.43-22-1.82-22-1.82-5.21-13.62 3.72-11.61Z" transform="translate(337.81 -163.09)"/><path fill="#fff" d="M1618.82 922.37c16.9 16.37 42 17.87 52 7.54s1.12-28.57-15.77-44.93-33.6-16.33-43.61-6-9.52 27.02 7.38 43.39Z" transform="translate(337.81 -163.09)"/><path fill="#fff" d="m1618.48 913.9 24.59-2.4c.33 3.37 2.91 35.43 1.66 47.51-.9 3.72-7 5.43-13.69 3.81-6-1.45-10.32-5.09-10.49-8.52.72-7.25-.92-28.64-2.07-40.4Z" transform="translate(337.81 -163.09)"/><path fill="#2d334a" d="M1632 926.28c2.66-4.63 6.77-1.95 16.37.89s24.52-1.87 21-22c-1.48-8.52 3.27-3 6.63 1.74a26.69 26.69 0 0 1 4.94 11.54c.94 6.49-.94 11.54-5.4 16.13-6.66 6.88-18.2 9.9-30.6 8.08-6.59-1-12.28-5.7-13.4-12.26a6.19 6.19 0 0 1 .46-4.12Z" transform="translate(337.81 -163.09)"/><path fill="#2d334a" d="m1669.91 904.26-.71.62c-3.67 3.22-20.23 18.22-20.36 26.52-.15 9.33 9.43-5.75 11.88-12.27s7.16-6.79 11-8.91 4.45-7.63-1.81-5.96ZM1605.68 914.4s-7.36-14.06-3.07-26.31 20.77-27.92 39.17-16.94c0 0 12.35 9 .24 23s-16.13 4.6-16.78 17.32-11.15 13.08-11 15.75Z" transform="translate(337.81 -163.09)"/><path fill="#fff" d="M1615.59 934.59c3.93 3.81 12.75 4.78 15.5 1.93s.26-6.65-3.67-10.46-9.85-5.07-12.61-2.22-3.15 6.94.78 10.75ZM1715.29 953.51s-37.82-17.42-40.33-27.6 35.35 2.33 49.55 23.11Z" transform="translate(337.81 -163.09)"/><path fill="#a4a7b2" d="M1699.85 956.34c7 3.76 19.19-18.23 10.85-21.93 139.22 61.73 20.22 193.37-70.45 59.28-20.46-30.26 13.63-37.87 28.07-15.23 49.5 77.6 129.37 30.54 31.53-22.12Z" transform="translate(337.81 -163.09)"/><path fill="#62677a" d="m1633.88 970.53 6.91-.89s.06 82.23 18 104.63c0 0-11.37 19.59-13.74 26.68 0 0-14-12.8-21-22.18-.05 0 11.9-72.31 9.83-108.24Z" transform="translate(337.81 -163.09)"/></svg>