<svg xmlns="http://www.w3.org/2000/svg" xmlns:xlink="http://www.w3.org/1999/xlink" viewBox="0 0 400 300" width="406" height="306" class="illustration styles_illustrationTablet__1DWOa"><defs><linearGradient id="linear-gradient" x1="114.9" y1="210.15" x2="127.28" y2="190.16" gradientUnits="userSpaceOnUse"><stop offset="0" stop-color="#fff" stop-opacity="0"></stop><stop offset="0.99" stop-color="#754c24"></stop></linearGradient><linearGradient id="linear-gradient-2" x1="229.57" y1="260.39" x2="249.87" y2="227.6" xlink:href="#linear-gradient"></linearGradient><linearGradient id="linear-gradient-3" x1="194.05" y1="211.02" x2="214.43" y2="178.09" xlink:href="#linear-gradient"></linearGradient><linearGradient id="linear-gradient-4" x1="169.43" y1="188.99" x2="184.78" y2="164.19" xlink:href="#linear-gradient"></linearGradient><linearGradient id="linear-gradient-5" x1="121.53" y1="238.99" x2="142.84" y2="204.58" xlink:href="#linear-gradient"></linearGradient><linearGradient id="linear-gradient-6" x1="159.33" y1="217.94" x2="180.63" y2="183.53" xlink:href="#linear-gradient"></linearGradient><linearGradient id="linear-gradient-7" x1="328.84" y1="190.32" x2="352.41" y2="171.32" xlink:href="#linear-gradient"></linearGradient></defs><title>PP</title><g style="isolation: isolate;"><g id="Layer_2" data-name="Layer 2"><path d="M190.62,286.32,10.9,180.1c-5.72-3.21-10.63-8.49-5.05-11.94l180.37-104c2.71-1.68,6.82-2.78,9.57-1.18L384.45,172.51c5.72,3.32,6.75,12.6,1,15.93L214.31,286.15A23.9,23.9,0,0,1,190.62,286.32Z" fill="#16a79e"></path><path d="M126.65,185.44l-24.85,13.82,19.66,12.4,19.66-11.82C139.17,198.58,128.62,186.68,126.65,185.44Z" opacity="0.63" fill="url(#linear-gradient)" style="mix-blend-mode: multiply;"></path><path d="M241.12,230.7l-29.25,14.54,25.47,14.54,35.28-25.21C269.46,232.54,244.31,232.7,241.12,230.7Z" opacity="0.63" fill="url(#linear-gradient-2)" style="mix-blend-mode: multiply;"></path><path d="M222.13,175.71,181.88,198.1,198,209.28l30.76-21.82C225.63,185.42,225.32,177.71,222.13,175.71Z" opacity="0.63" fill="url(#linear-gradient-3)" style="mix-blend-mode: multiply;"></path><path d="M188.72,164l-28,15.57L172,187.38l25.72-20.59C195.48,165.38,190.94,165.43,188.72,164Z" opacity="0.63" fill="url(#linear-gradient-4)" style="mix-blend-mode: multiply;"></path><path d="M148.67,200.73l-40.25,22.39L128.72,239l25.15-15.25C150.71,221.75,151.87,202.73,148.67,200.73Z" opacity="0.63" fill="url(#linear-gradient-5)" style="mix-blend-mode: multiply;"></path><path d="M194.43,193a51.85,51.85,0,0,1-7.87-2.1c-3.09-1.12-6.43-2.73-8.3-5.49l-31.05,17.27,20.3,15.92,28.11-24.43A4.8,4.8,0,0,1,194.43,193Z" opacity="0.63" fill="url(#linear-gradient-6)" style="mix-blend-mode: multiply;"></path><path d="M232.35,162.17v0c-1.21,0-2.9,1.28-4,1.82l-3,1.49s-2,7.52-3.17,10.27-5.31,8.77-3.86,11a6.72,6.72,0,0,0,9,1.79c3.81-2.09,3.7-9.06,5.09-11.77,1.14-2.24.61-7,.61-8A26.38,26.38,0,0,0,232.35,162.17Z" fill="#181816"></path><path d="M201,148.53v0c-1.21,0-2.9,1.28-4,1.82l-3,1.49s-1,8.19-3.17,10.27-10.21,6.49-8.76,8.73a6.51,6.51,0,0,0,8.76,2c3.81-2.09,6.31-6.38,9-7.47,2.34-.93,1.35-7,1.44-9A28.76,28.76,0,0,0,201,148.53Z" fill="#181816"></path><path d="M195.56,71.92s-5.2,27.68-4.73,42.86.73,33.77,1.89,42c0,0,10.06,1.4,13.47-1.61,0,0,1-53.2,1.08-52.9,1.54,7,8.77,42.86,9.54,45.2s4.48,21.24,4.48,21.24a18.22,18.22,0,0,0,14.31-2.41s-1.25-27.23-3.58-34.87-10.46-55.75-14.41-59.51" fill="#68e1fd"></path><path d="M195.56,71.92s-5.2,27.68-4.73,42.86.73,33.77,1.89,42c0,0,10.06,1.4,13.47-1.61,0,0,1-53.2,1.08-52.9,1.54,7,8.77,42.86,9.54,45.2s4.48,21.24,4.48,21.24a18.22,18.22,0,0,0,14.31-2.41s-1.25-27.23-3.58-34.87-10.46-55.75-14.41-59.51" fill="#68e1fd"></path><path d="M217.35,74.15s8.9-25.88,5.3-31.8-18-10.58-24.92-10-2.48,41.48-1.39,41.78S207.64,81.45,217.35,74.15Z" fill="#f7931e"></path><path d="M220.29,39.69l-10.8-4.48q-2.94,14.24-6.1,28.42l15.08,2.65s9-4.94,10.36-12.78S220.7,40.05,220.29,39.69Z" fill="#f7931e"></path><path d="M198.52,47.95s-1.44-14.14-1.44-15.38a33.71,33.71,0,0,0-11.56,5.91A38.1,38.1,0,0,0,180.64,43a12.15,12.15,0,0,0-2.51,3.36,8.9,8.9,0,0,0-.13,4.59A35.58,35.58,0,0,0,181.53,61,53.58,53.58,0,0,0,188,71.32c.79,1,3.34,4.57,5,4,3.33-1.16,4.72-5,4.72-5s-1.54-3-3.2-6.77c-1-2.22-5.41-7.25-6-10.69a17.33,17.33,0,0,1,1.42-1.68C192.13,49,195.79,49.37,198.52,47.95Z" fill="#f7931e"></path><path d="M199.78,33.37,202,44.5,205,40.92l2.33,4.46,6.24-8.47S204,32.45,199.78,33.37Z" fill="#ed6b00"></path><path d="M211.79,28.4c-1.62,1.8-4.74,1-6.79.52-2.49-.56-5.35-2.07-5.13-5,0-.45-.66-.44-.7,0-.23,3.09,2.58,5,5.25,5.62,2.37.59,6,1.49,7.85-.61C212.58,28.56,212.09,28.06,211.79,28.4Z" fill="#009245"></path><path d="M198.52,22s0,15.11,5.54,16.1c6.09,1.08,9.52-5.84,9.52-5.84s.78-13.35-5.27-14.53S198.69,20.07,198.52,22Z" fill="#fbb5ad"></path><path d="M209.28,30.76s1.47-5.8,3.09-3.89S209.74,33,209.74,33" fill="#fbb5ad"></path><path d="M210.76,15.86s5.41.58,7,4.89S215.27,33.63,212.37,35l3.51-7.52-.17-5.12Z" fill="#5c2e2e"></path><path d="M217.65,22.68c-.44-3-2.44-4.48-5.05-6q-.32-.19-.65-.35a4.33,4.33,0,0,0,1.18-1.52.4.4,0,0,0-.34-.6,2.47,2.47,0,0,0-1.78.87,5.87,5.87,0,0,0-1.22-1.66.4.4,0,0,0-.66.17,2.14,2.14,0,0,0,.1,1.82,11.5,11.5,0,0,0-8,1.22,6.61,6.61,0,0,0-2.2,2.1,3.94,3.94,0,0,0-2.15.39,3.61,3.61,0,0,0-2,3.86c.39,1.81,2.32,2.42,4,2.13A5,5,0,0,0,201.09,24c-.49.83-.74,1.88.86,2.24,2.77.64,4.09-1,4.26.37.14,1.13,1.7,1.76,2.83,1.78.08.17.29.63.54,1.26a3.34,3.34,0,0,1,1.74-.1.42.42,0,0,1,.68.07c1,1.65.74,3.45.37,5.35A15.23,15.23,0,0,0,216,30.36,13.6,13.6,0,0,0,217.65,22.68Zm-7.87-8.1.12.17a.4.4,0,0,0,0,.13c0,.13.09.25.15.38A1.45,1.45,0,0,1,209.78,14.58Z" fill="#5c2e2e"></path><polygon points="202.77 43.55 204.4 46.73 206.69 44.09 205.04 40.92 202.77 43.55" fill="#723100"></polygon><path d="M204.4,46.73s2.29,16,4.32,26.49l-3,5.59L202,74.07S200.4,63.13,204.4,46.73Z" fill="#723100"></path><polygon points="204.73 74.12 202.58 50.75 186.5 51.12 188.75 74.12 204.73 74.12" fill="#68e1fd"></polygon><path d="M210.21,64.92l-7-5.22v2s-6.33-2.83-6.64-1.59c-.35,1.39.82,5.36,1.9,5.74s5.54,1.81,5.54,1.81l3.53,1.12Z" fill="#fbb5ad"></path><path d="M228.89,50.75s4.55,17.57,1.42,21.18-23.44-.3-23.63-2.12,2.59-7.73,2.59-7.73l11.34,1.24" fill="#f7931e"></path><path d="M194.28,74.12s4.24-.72,5.09,1.63c.45,1.24-2.82,0-2.82,0l-2.32,6.9a5,5,0,0,1-1.11-3.07,23.59,23.59,0,0,1,.43-4.71Z" fill="#fbb5ad"></path><path d="M154.78,191.94c-.33.94,0,9.4,0,9.4l-8.82-.8.46-15.28Z" fill="#fbc76f"></path><path d="M145.93,198.56s4.84,2.55,9.47.59c0,0,.31,6.73.82,8.18s2.08,10.07,1.11,12.25-3.83,5.17-5.7,5.17-6.23-4.82-6.37-7.38a99.94,99.94,0,0,1,.52-10.55C146,205.47,145.93,198.56,145.93,198.56Z" fill="#181816"></path><path d="M178.83,175.89c-.25,1,.73,9.37.73,9.37l-8.86-.08-.78-15.27Z" fill="#fbc76f"></path><path d="M186.74,187.2c-3.12-1.31-6-2.79-8-5.66a5.4,5.4,0,0,1-4,3.26,6.41,6.41,0,0,1-2.82-.1l-.35,0v-.1a3.36,3.36,0,0,1-1-.62c-.56,2.73.07,7.24.83,7.9.95.83,6.17,1.89,6.17,1.89l-.85-2.12,5.07,3.12c2.13,1.31,8.5,2.58,12,.95a3.23,3.23,0,0,0,1.77-1.51C195,189.2,190.45,188.75,186.74,187.2Z" fill="#181816"></path><ellipse cx="131.88" cy="193.73" rx="11.8" ry="7" fill="#e0831e"></ellipse><polyline points="120.08 192.26 120.08 193.83 143.68 193.83 143.68 192.55" fill="#e0831e"></polyline><ellipse cx="131.88" cy="192.45" rx="11.8" ry="7" fill="#ffae45"></ellipse><rect x="130.26" y="148.68" width="3.25" height="43.29" rx="1.62" ry="1.62" fill="#946c62"></rect><ellipse cx="131.88" cy="136.93" rx="21.99" ry="13.05" fill="#e0831e"></ellipse><polyline points="109.89 134.19 109.89 137.12 153.87 137.12 153.87 134.73" fill="#e0831e"></polyline><ellipse cx="131.88" cy="134.54" rx="21.99" ry="13.05" fill="#ffae45"></ellipse><path d="M133.9,133.27s15.3,11.15,31.59,14.78l3.31,27.76s2.31,1.72,10.86,0c0,0,4.91-31.08-1.89-46-4.41-9.65-38-11.24-38-11.24" fill="#204a51"></path><path d="M118.43,138.5s9.79-6.21,14.55-8.62l13.53-7.93-6.6-4.28L118,121.33C118.78,123.76,112.45,130.17,118.43,138.5Z" fill="#204a51"></path><path d="M158.08,79s1.69-5.2,1.55-7.45-1.39-5.52,0-6.21,3.09,4.07,3.09,4.07,4.22-8.83,5.49-8.27a2.77,2.77,0,0,1,1.33,2.29s1.35-2.22,1.87-1.3a4.73,4.73,0,0,1,0,2.76s1.25.22,1.4,1S171,70,171,70a1.28,1.28,0,0,1,1.1,1.16c.07,1-7.95,9-7.95,9" fill="#fbc76f"></path><path d="M137,77.62s7.05,5.83,9.78,10.29,11.66-11.76,11.66-11.76,6.21,2,8.19,2.88-10,28.35-18.33,27.41-8-2.57-8-2.57" fill="#68e1fd"></path><path d="M118,121.33c7.58,1.28,15.28.4,21.92-3.66,1-11.77,1.82-23.53.55-35.35a1.15,1.15,0,0,1,0-.28A10.63,10.63,0,0,0,137,77.62c-3.86-2.6-10.15-1.33-13.88.64A13.81,13.81,0,0,0,120.6,80C116.48,93.46,118.14,107.45,118,121.33Z" fill="#68e1fd"></path><path d="M132.64,72.07l-6.84-1.43-.57,7.56s5.16,5.28,10.25,4.55L134,76.45A20.26,20.26,0,0,1,132.64,72.07Z" fill="#fcbb5b"></path><path d="M132.8,72.78a29.91,29.91,0,0,0-7-2.14l-.18,4.13s5.12,3.76,8.16,1.09A20.14,20.14,0,0,1,132.8,72.78Z" fill="#db9231"></path><path d="M137.58,63.86s4.56-2.77,3.65-5.3-4.46-3.22-4.46-3.22-.56-3.23-3.19-3.61-7.17,1.77-7.17,1.77-3.94-.37-5.33,1.84-.89,6.17-.89,6.17,3.29,10,4.75,10.21S130,68.3,130,68.3" fill="#204a51"></path><path d="M137.64,60.72s1.08,13.2-4.54,14.07-8-6.79-8-6.79-3.4-3.17-1.27-3.87,2.45.48,2.45.48-2.09-4.76.1-4.76S134.88,63.43,137.64,60.72Z" fill="#fbc76f"></path><path d="M125.23,76.08s2.68,2.52,4.44,2.68l2.72,1.48,2.25,2.34V79.33s-.67-2.93-.56-2.9,2.44,3.76,2.44,3.76l2.24,3.74-3.27-.32L134.06,86s-8.12-3.62-11-7.74Z" fill="#fff"></path><path d="M169.15,62.88Q167,66.6,165,70.43c-.17.33.33.62.5.29q2-3.84,4.18-7.56A.29.29,0,0,0,169.15,62.88Z" fill="#204a51"></path><path d="M171,64.61l-3.82,7c-.18.32.32.61.5.29l3.82-7C171.68,64.58,171.18,64.29,171,64.61Z" fill="#204a51"></path><path d="M170.73,69.93a17.49,17.49,0,0,0-2,2.84.29.29,0,0,0,.5.29,16.74,16.74,0,0,1,1.9-2.73C171.38,70.05,171,69.64,170.73,69.93Z" fill="#204a51"></path><path d="M163.28,70.2c-.33-.17-.62.32-.29.5A5.7,5.7,0,0,1,165.63,76a.29.29,0,0,0,.57,0A6.24,6.24,0,0,0,163.28,70.2Z" fill="#204a51"></path><path d="M120.6,80a19,19,0,0,0-6.68,7.38c-2.34,4.83-8.87,26.7-1.2,29.83s21-4,21-4l-.8-11.65-11.49,1.65" fill="#68e1fd"></path><path d="M135.4,92.39c-.1.37-3.52,21.73-3.52,21.73l13.53-3.62,2.87-21.83Z" fill="#ff7f5c"></path><path d="M130.06,102.87s2.39-6.12,3.62-5.74.86,3.5.86,3.5,6.12-3,7.74-1.62-2.45,4.88-3.54,5.62-8.16,3.37-8.16,3.37Z" fill="#fbc76f"></path><path d="M118,118a116.52,116.52,0,0,0,11.77-3.31s1.06-6.12,1.11-5.93-.14,7.86-.63,8.39S118,121.33,118,121.33Z" fill="#363942"></path><path d="M118.43,138.5s11.83,11.8,22.7,16.8l-1,35.32s6.74,5.49,15.28,3.77c0,0,4.32-39.12,1.51-49.35s-21.4-18.83-21.4-18.83" fill="#204a51"></path><polygon points="207.63 104.45 225.47 88.63 237.47 119.23 220.99 134.99 207.63 104.45" fill="#fff"></polygon><path d="M238.82,89.84A8.73,8.73,0,0,1,237.28,87c-.48-1.11-.85-2.27-1.41-3.34-.31-.59-.6-2-1.35-2.1-.28-.05-.58.73-.64.94a2.91,2.91,0,0,0,0,1.64,16.45,16.45,0,0,1,.5,2.15s-5-4.48-6.24-4.64-1,1.27-1,1.27-1.41-1-2.09-.38.33,2.12.33,2.12-1.4.91-.66,1.85,4.94,3.23,4.94,3.23-3-.73-3.68-.28-.34,1.45.85,1.9S231,92.61,231,92.61s4.95,1.67,7,2.13,9.16,5,9.16,5l.9-6.49C247.6,93.19,239.72,90.69,238.82,89.84Z" fill="#fe6162"></path><path d="M261.34,94.4l-21.6-6.9s-4.7,6.07-3.19,9.89l9.45,5.15" fill="#68e1fd"></path><path d="M261.34,94.4l-21.6-6.9s-4.7,6.07-3.19,9.89l9.45,5.15" fill="#204a51" opacity="0.35"></path><path d="M265,231.66l4.7-1.3-.74-5.73S263.88,225.48,265,231.66Z" fill="#42210b"></path><path d="M271.41,215s1.66,19.37,1.21,19.59-5,.61-5,.28-.27-8.81-.27-8.81-2.26,3.74-2.38,5.61c0,0-5.4-3.08-6.41-5.55s2.31-12.81,3.57-13.37" fill="#7f252b"></path><path d="M253.37,241.81l5.32-5.65-3.47-4.4S252,238.89,253.37,241.81Z" fill="#42210b"></path><path d="M261.28,219.41l2.49,23.24s-4,1.36-4.75,1.26a15.07,15.07,0,0,1-2.88-1.36l-.89-7.75s-2.31,2.31-1.89,7c0-.32-3.67-1.54-4.15-1.75a27.51,27.51,0,0,1-4.25-2.32c-1.41-1-6.67-5.31-3.85-7,2.4-1.47,10.18-.76,10.18-.76l.11-9.59" fill="#7f252b"></path><path d="M270.58,136.16a.55.55,0,0,1,.56-.67,17.87,17.87,0,0,0-2.61-5.71L246,127.13s-4.52,16.08-6.26,43.78c-1.35,21.48,9.19,53.42,9.19,53.42s10.91,2.77,16.15-2.62l-.21-4.63a55,55,0,0,0,8.11-.66C275.71,189.74,273.66,162.7,270.58,136.16Z" fill="#8cc63f"></path><path d="M265.73,220.46l-2.82-19.9c-.9-6.34-2.28-12.86-2.31-19.29s2.17-12.19,3.24-18.32a71.73,71.73,0,0,0,.77-18c-.11-1.4-2.12-1.41-2,0A69.75,69.75,0,0,1,261.38,165c-1.26,5.89-3,11.48-2.76,17.61S260.1,195,261,201.14l2.82,19.9C264,222.44,265.93,221.84,265.73,220.46Z" fill="#42210b"></path><path d="M232.16,123.55a1.1,1.1,0,0,0,0-.69l.14,0a1,1,0,0,0,.7-.14l.22.06c1.24.39,1.75-1.56.51-2-1-.31-2-.59-3-.86l-.09,0a61.51,61.51,0,0,0-6.24-1.95q-1-.36-2.06-.66l-.07,0a28.24,28.24,0,0,0-5.65-1.37c-1.06-.12-2.37-.14-3,.91a.5.5,0,0,0,0,.5c.36.55.93.59,1.56.77l1.92.54h0a13.36,13.36,0,0,0-2.23.67,4.71,4.71,0,0,0-2.18,1,1,1,0,0,0-.13,1.27,1,1,0,0,0,.3.31,1.48,1.48,0,0,0-.61,2,1.44,1.44,0,0,0,1.27.73,1.58,1.58,0,0,0-.72,1.66c.19.61.79.77,1.41.77a1,1,0,0,0,.71,1.41,4.85,4.85,0,0,0,3.57-.69.51.51,0,0,0,.16-.15,10.2,10.2,0,0,0,2.69-.61c.39-.17.79-.36,1.19-.52l.7-.28c.11,0,.54-.29.64-.25l4,1.57c1.09.42,3,1.69,4.21,1.27s.71-2.39-.52-2c.26-.09-.28-.14-.43-.2l-1.11-.43a8.93,8.93,0,0,0,3.19.64,1,1,0,0,0,.71-1.73A13.41,13.41,0,0,0,232.16,123.55Z" fill="#fe6162"></path><path d="M261.34,94.4s-12.52,0-16.85,7.88c-3.63,6.61-2.95,17.65-2.95,17.65l-14.42-1.14s-4.14,1.73-3.11,6.93c.56,2.83,14.87,4.14,22.77,6.1s22.16,2.53,24.4-2.24,2-24-.65-29.49S261.34,94.4,261.34,94.4Z" fill="#68e1fd"></path><path d="M260,93.47s-5,3.83-8.11,1.51-2.36-12.33-2.36-12.33,1.59-3,7.49.76S260,93.47,260,93.47Z" fill="#fe6162"></path><path d="M262,94.81l-.13-.24-3.14,1-.06.16C259.8,95.4,260.91,95.09,262,94.81Z" fill="#7f252b"></path><path d="M267.13,82.45a11.89,11.89,0,0,0-3.28-6.34c-2.55-2.37-6.48-2.35-9.62-1.35A8.66,8.66,0,0,0,248,82c-.69,3.78,3.73,1.45,4.71,3.61a7,7,0,0,1,.52,4c-.33,2.25-1.67,4.42-1.47,6.74a3.38,3.38,0,0,0,1.62,2.79,37.67,37.67,0,0,0,8.18-.14c2.12-.16,6.4-.34,7.16-2.92C269.61,93,267.13,82.45,267.13,82.45Z" fill="#7f252b"></path><path d="M338.31,196.66c8.23-5.48,16.6-10.76,24.92-16.09l-11.82-8.63-45.77,19.11c5.53,2.9,13,8.33,20.86,13.86C330.4,202.12,334.31,199.32,338.31,196.66Z" opacity="0.63" fill="url(#linear-gradient-7)" style="mix-blend-mode: multiply;"></path><path d="M367.71,150a2.1,2.1,0,0,0-.37-.78,4.67,4.67,0,0,0-1.14-1c-5.81-3.93-13.86-5-20-1.17-1.4.88-3.49,2.87-2.66,4.75.48,1.09,1.94,1.73,3,2.17A44.57,44.57,0,0,0,357,156.69c1.3.22,2.62.44,3.93.56a5.43,5.43,0,0,0,4.79-2.05C366.66,154,368.13,151.69,367.71,150Z" fill="#754c24"></path><path d="M343.38,150.92s5.3,4.8,14.46,4.1,9.87-5,9.87-5-2.37,30.36-3.62,30.88-5.93,2.78-8.19,2.95-9.4-2.69-9.58-3.48S343.38,150.92,343.38,150.92Z" fill="#68e1fd"></path><path d="M345.05,106.67c-.28-.57-1.15-.07-.86.5,6.27,12.64,7.49,26.87,8.62,40.69.05.63,1.05.64,1,0C352.67,133.85,351.4,119.48,345.05,106.67Z" fill="#007f68"></path><path d="M344.25,106.79s1.75,6.56-.06,9.84-3.3,3.93-1.14,8,7.94,4.62,8.32,7.74S348.6,112.36,344.25,106.79Z" fill="#007f68"></path><path d="M364.3,118.63a82.45,82.45,0,0,0-8,32.26c0,.78,1.19.77,1.22,0a81,81,0,0,1,7.79-31.66C365.69,118.54,364.63,117.93,364.3,118.63Z" fill="#007f68"></path><path d="M365.15,121.83c0-.66-.15-2-.08-3.11l-.7.44c-2.38,5.79-5.94,19.39-7,23.55,1.45-3.12,7.38-3.55,9.12-8a8.19,8.19,0,0,0,.1-5.91A21.82,21.82,0,0,1,365.15,121.83Z" fill="#007f68"></path></g></g></svg>